<mxfile host="65bd71144e">
    <diagram id="HIP3nbAZw_EuaXWnEj3U" name="Page-1">
        <mxGraphModel dx="835" dy="570" grid="1" gridSize="10" guides="1" tooltips="1" connect="1" arrows="1" fold="1" page="1" pageScale="1" pageWidth="850" pageHeight="1100" math="0" shadow="0">
            <root>
                <mxCell id="0"/>
                <mxCell id="1" parent="0"/>
                <mxCell id="7" value="http://ics2o.mths.ca" style="swimlane;whiteSpace=wrap;html=1;" vertex="1" parent="1">
                    <mxGeometry x="30" y="80" width="780" height="420" as="geometry"/>
                </mxCell>
                <mxCell id="8" value="&lt;span style=&quot;font-size: 16px;&quot;&gt;Division Calculater&lt;/span&gt;" style="rounded=0;whiteSpace=wrap;html=1;" vertex="1" parent="7">
                    <mxGeometry y="20" width="770" height="40" as="geometry"/>
                </mxCell>
                <mxCell id="9" value="What is the answer for the divide you put in&amp;nbsp;" style="text;html=1;strokeColor=none;fillColor=none;align=center;verticalAlign=middle;whiteSpace=wrap;rounded=0;fontSize=16;" vertex="1" parent="7">
                    <mxGeometry x="20" y="90" width="370" height="30" as="geometry"/>
                </mxCell>
                <mxCell id="10" value="calculate&amp;nbsp;" style="rounded=1;whiteSpace=wrap;html=1;fontSize=16;" vertex="1" parent="7">
                    <mxGeometry x="36" y="300" width="74" height="40" as="geometry"/>
                </mxCell>
                <mxCell id="11" value="54 / 9 = 6" style="text;html=1;strokeColor=none;fillColor=none;align=center;verticalAlign=middle;whiteSpace=wrap;rounded=0;fontSize=16;" vertex="1" parent="7">
                    <mxGeometry x="33" y="370" width="80" height="30" as="geometry"/>
                </mxCell>
                <mxCell id="13" value="&lt;font style=&quot;font-size: 16px;&quot;&gt;Put in a number to divide&amp;nbsp;&lt;/font&gt;" style="text;html=1;strokeColor=none;fillColor=none;align=center;verticalAlign=middle;whiteSpace=wrap;rounded=0;" vertex="1" parent="7">
                    <mxGeometry x="20" y="140" width="200" height="30" as="geometry"/>
                </mxCell>
                <mxCell id="14" value="number 1" style="text;html=1;strokeColor=none;fillColor=none;align=center;verticalAlign=middle;whiteSpace=wrap;rounded=0;fontSize=16;" vertex="1" parent="7">
                    <mxGeometry x="15" y="192.5" width="70" height="30" as="geometry"/>
                </mxCell>
                <mxCell id="15" value="" style="rounded=1;whiteSpace=wrap;html=1;fontSize=16;" vertex="1" parent="7">
                    <mxGeometry x="110" y="195" width="120" height="25" as="geometry"/>
                </mxCell>
                <mxCell id="16" value="number 2" style="text;html=1;strokeColor=none;fillColor=none;align=center;verticalAlign=middle;whiteSpace=wrap;rounded=0;fontSize=16;" vertex="1" parent="7">
                    <mxGeometry x="15" y="240" width="70" height="30" as="geometry"/>
                </mxCell>
                <mxCell id="17" value="" style="rounded=1;whiteSpace=wrap;html=1;fontSize=16;" vertex="1" parent="7">
                    <mxGeometry x="110" y="240" width="120" height="20" as="geometry"/>
                </mxCell>
                <mxCell id="18" value="" style="shape=image;verticalLabelPosition=bottom;labelBackgroundColor=default;verticalAlign=top;aspect=fixed;imageAspect=0;image=data:image/png,iVBORw0KGgoAAAANSUhEUgAAAggAAAGSCAYAAACG6TnbAAAAAXNSR0IArs4c6QAAIABJREFUeF7sXXVYVE8XfmmQDlExEBUbUQxEEbs7sAOxwMYABQsLAzExUMRCfzYWtiJiII0YgCIYiIJIN7vfM4vALuyyd2H1M2b+4WHv5DtzZ957zplzJNhsNhs0UQQoAhQBigBFgCJAEeBCQIISBLoeKAIUAYoARYAiQBEoiwAlCHRNUAQoAhQBigBFgCJQDgFKEOiioAhQBCgCFAGKAEWAEgS6BigCFAGKAEWAIkAREI4AlSAIx4jmoAhQBCgCFAGKwD+HACUI/9yU0wFTBCgCFAGKAEVAOAKUIAjHiOagCFAEKAIUAYrAP4cAJQj/3JTTAVMEKAIUAYoARUA4ApQgCMeI5qAIUAQoAhQBisA/hwAlCP/clNMBUwQoAhQBigBFQDgClCAIx4jmoAhQBCgCFAGKwD+HACUI/9yU0wFTBCgCFAGKAEVAOAKUIAjHiOagCFAEKAIUAYrAP4cAJQj/3JT/vQNmsQqRlZkFFpsNBQUFyMjI/JTBsgoLkZmVCTYkoFhNEVJSkmJvpyA/H1nZ2ZCQkICioiIkJcXfhtg7/Ysr5BeIluBFE0WAIiAeBChBEA+OtJbfAIEFVtNx/e4DFLJYqKfXCEdOnIRuTU2x9iwxIR4WEycgKvYDhyA0aNwMR454QEdbfO0kJnzChHHjEPMhnkMQOnTpjgN790BJXlasY/mTK8vJTMP0aVORXSCBYkpQT78FXJwc/+Rh0b5TBH4rBChB+K2m4+/vDPnqu3n9GnLyCgQPlg3IKcijZk0dNGrUEMpKikKBOeO+A2Om2/Dka9upDx75XIOcjLTQ8kwzrLNfiFVOO3myL7Jfj20bHJhWITTfzInDcNDzEk++lRt3Yu3y+ULL/kkZcnOyEPgsAEEhwYiKfoOsrCKJibqmFpo2awajtu3QqkUzSEtJlRtWZmoSampXR0Ze6aN2Zn0Q8ODmnwQB7StF4LdGgBKE33p6/r7OEfF8Ez0dvPnwldHg1DQ0MdN6AZYvXQBVFRUIkiAvnDwIO49f46lTXUMLUdEx0NJQZtQWk0wTh/WE56V7PFn7DxkP70ueTIoLz8POR7umugiK+syTd5j5NFw8c0h4+T8gB4vFQkjAI4wYORrvPyVU2ONhoyfB49B+qClX48nHjyC0N+uDZ38oQQh89hQZWTklY2zRqjWqa6j9AbNJu/g3I0AJwt88u7/h2AhBaNpAB9HvmRGEoiFIoFadeli51gnWU8fxHZX97HFw2vcfzzNN7bqIjn4NdRXew6UqsFiOHQSP07xEZPi4abhwUlyHNwudDfXxODyGp5tjLefhlPuuqnT9tym70m4+tu92Q2Z2LqM+NWjSApeveaNFw3ol+f8ugpCPNvp1Efrmy4/lLomz3rcxql8PRvjQTBSBn4UAJQg/C1laL18EKkcQiqqSklaA8+5DmDdjbDnDwJiIIJj17IdPX5M4eeUUqmHB8rXYtHJxiY5aHFNy9cwJjJ0yHZk5RYebgqISDhw5hUmjBomjek4dJw/uxvR5S5GdW9SGuqY2jp46i8G9zcTWxv+jIlZhAfZuWweb5WtRwBKtB/X1DeDrex91f9iU/G0EwUi/LkIoQRBtUdDcPx0BShB+OsS0AW4EqkIQOAeykgqePAuEYTP9csAmfU2Ar+9DZGTnoF2HjmjauBEkxWzVzmaz8CX+Ex74+oElIYkuZt2gU0tbrO2QNmLeRMH/WSCkZOXRrVs3aGtpCVSv/CkrLPCJL4w7d+PcMuFNEqirWx8tmjVFYX4u/P39kZaRWW5Y1jYO2OuynvP7X0UQ2PkwbFAH4bE/pGoSVILwp6zpv72flCD87TP8m42PH0Goq9sId27fgMIPK31iyJiU+AWB/o+wdp0TPiXwqiPMBozE3avnIM3wRhsb5EAqtXavDCQsFhuSkgwbLNNA/KePiI2NRWpaJlRUlKFVXRv16+tCTlZ81zCJXv9z/EfExMQiPTMTmppa0K1fn2PIV9lEvvjfRkcjJu4d5Kspo2mTZqihrVXZ6jBp5CCcuMCrnmlm2A6uu3eis3F7yP7AIzU5CQf2bMdyRycQ3ItT74GjcOvqWUYEITcnG69fv0J8QgLU1LXQsoUBlJUUGPU9LTUFsXFxSExMQkFBATQ0q6Nu3brQ1tYSmQgWrbyKk7/PTXTvOwjZxYa7lCAwmiea6ecjQAnCz8eYtsCFAD+CoNewKcJCQ6CsJF8Oq6CnD9Gzdz+kZmTxPLv/NAzdjFuV/Jb4PhI9BgxDIatoOyZ+BCbOscOqhdPx9VMcTE27Qlrhhy0Cm4VeQ0Zj1+a1fOfm/atADBg1CSx2UV1sSOHMpRsw0K+NO1fPw8pmOWR/3IzIz82F854DGNq/F09dhQX5eOTrgzVrVuLR02Dk5eeXPCeW+jp16sFy+izMmGaBOrVr8RwiFz3dYL9uOyR+EJLc3Fy4HT+Hnp3alOtvfl4u7t26hi3OzvDxfcrzdS4rr4CefQfAwX45OrQxhAyf2xzLF86E182HnNsDJBVCGnd8fJGf9gXTp07Gfb9nJW3KKyhi1lwbrHFYCjVVFZHW9ce3z9GkeWtk5ZXqFuQUlOD3NBDtWjUpV1dhXi6G9+8O7wcBaKjfFAuX2WP6hDGQkS7yByFIgvD0vjce+9yB1ezZeBFZasehpKKBDZu2YNa0yXyJGSGl0a8isM15K06eOY+MTN71JiMjCxPTbli6dCn69ekBaT6+L+JjItBn4EiwJIpuXRQWFmLcrCVYbTMNz0ODscPFBQEhYaij3wpeZz2xwX4Bzl25g3cxMcjJ47qOAXDWh5qKIocgDRo+BVs3LhMJb5qZIiAOBChBEAeKtA7GCIhKEEjFW9csha2jM08bi1dsgPM6+5LfEt6GQ7eJIfIKS7PNddiM3ettQRwo9TVpgzvPnpc8rN2wBWLfRIDfBciVcydivWvprYTGLdvjZZg/pCQlcPGkO0ZMmM7Tl2OnL2LS6GElv5Ex2tnMhKubZ4kdAV+AJCSgVb0G3I+dxpC+pfYFR1y3YOpcO54iXrcfYWivTjy/5edkwmLiGJy9dAP5BVwDL9OYnLwC5trYwnnjmnLdmDZ2MA6fvlr6u6Qs/HzvY8jggUj+nsK328NGT8bF00cZzznJuHODPRaucOIpM8t2PfZtdhD4hf3p7XM8CHyNgf37QVWF9yYKP4Jg3H0AjrmshLFZL6Skl1dRSElLw3qhPXZuWVNOEnDxyD5MW2iL76kZFY5LRlYOvUZMxIVjByAvw3v98v3rYDRo1hbcM2FtvwV9W1XHpOlzkP6D5OobmiA84CFsZozH/qNnhOI4afoSHDu4VWg+moEiIG4EKEEQN6K0vgoRqAxBCHryAJ279kJufqnvhD6DRuLmlXOMCALJ5ON1HL1GTEZhscRaQhre9/3Rv6sRT3+z0lPQTL8h3n9JLvl91gI77N+xifP/xZOHMWLCtAoJwsPbF9FvyDhk/TBkFLYk6usbIiTEH2qKcpys/AjCpduPMKQMQZhvZYHdB5gd1JJS0nBYtw2r7eZxiE5xKksQpBSUMbBHF86tAUFJUkoW57zvY3gfXsIiKD9RVYwb0hdnvEuvh0pKy+L+kxCYtWsuDB6+z/kRhFbtTKApmY37z0IF1qlRvSaCQ8Ohq1Oqerl9+Rz6DjXnKKKYpn0enrCyGM+TnR9BWLhyCx5fOYJnoS9L8jZubYKwZ5QgMMWa5vv/IUAJwv8P+3+y5coQhOiXEWjbvgPSs7JLMGth1BkRQX6MCQIRnuvq1MT7z0W3HEgaZTEXZw7v5jH+exEagDYdOiGfi4ycv3IHIwb15JQRRhBYhblo11wfIVEfStqRlZNH734D0cWkA+LeRsH7xg18ik9AQWEhlJTVcOueH0zatSjJz4QghPheh3G3AcjnOtXkFarB1KwrGurWxfOwYASFhCE3r1S1oaisCv/AYLRo3EAgQSAPJCQloaVVHYatWwPEaDAgAOlljAa79B6J+zfO8pANQQua2AN0NumAoNCIkizySqp4Ff0G9WtWzqaBH0EglUtKSUGndl20MmiJ70lfERIaipxcXvG9y4FTsJk5tqQvr5+HoFu3HviSXCQxUaimiA7GnWDcvh1SkhJw/eYNfPjE65eiWdsuiAjwBbdZCj+CYNqzNwIf3udxDKbf2gThzx5i1WIrHDtzBbnZWUhJS+eBT1VNHfJyRZ4zzSfMxu5tq/7J/YIO+v+LACUI/1/8/7nWK0MQ3r56AaP2HZDGpReu16g54qJfiEAQgJEDeuLC9dKv2Lp6+ggNCYaGqlJJPZ6HdmLSzIUoNrRX1KiFmLdvoK1WZL8gjCB8/RQDnboNSyUVAKyXOMB16/oSUXpGWgouXzgN+1VOOHv5Jtq1bsIjZhdGEAryctDXtB3uBZSOX1FFA1eu34OZsQHnCihRq7jtdIb1Ii7dtYQER1WzeeWiCgnCyPEW2LvTGdU1NUCAiH4ZDJNOXZGcXqqX16mrh4jnz6GuKtzLZXZGOtobtcaLaC6bAFV1RL2JQi0t8RKEZY6bsMxmDlSVlUDW2qHdWzDLplQVRQbee9gU3Lp4hOfdS/gUB/NhQ/Huaxq8vLzQulWLEg+OH2Oj0K5tO3xJLj3EpWSU8SomFvp1NErq4UcQiG2HFLFf6GQKQwMDaGqoQrNmPVjPmAoyj8Q2xeu4K6bM5eqjhCSOn7+Eob26gthGyMjIQUGhSLpEE0XgVyJACcKvRJu2xdm0yzpKqshIkUBWRBDaIy2zVIJQW68JPsa8FokgeOzdAss5pbp9eUVlPHkaiNYtG5fUM2Fob5y8fKfk/8lzluPono0l/wsjCJ/joqBTn9fobvh4Sxx12w1lRV6HTanfk6GqXnrAFDcijCB8in2LloZteL46+ww2x83LvPrsvKw0GDRpgKiP30r6X79pO0RGPIOsVJGaoZwNAiTxOPgFTNo05VmtXTsawdc/pOQ3Le1aCA1/jto1hMegyEhPhZFhK0S/e19SXklVDdFvolFTjARBt3FrRL8OgQzXtYHMb/HQra+Hb1w+mRsZdUVkkA/Khr9K/ByLyNhEmJq0L/em2s+ZBKe9J7h+l8CTkNfo2Lp07fAjCHLVVHHt1m307Fy+zuLKTh9yxtgZS0vrprcY6E75myBACcJvMhH/Sjf+nwTh6/to6Oo1Rg6Xkx6nXe5YNs+SA39G0mfUq1cf37OLRNJSsgp48CwUnQ1LDwFhBCEzNRF1a9XE92xeT0Cq6proZGoKk47G6Ghsgo7GHaCkqFBye4B7/oURhJCApzAxNeNRH1gvssPebUV2EtzJfIAZzl1/yPWTHKLjPqBRvSIdfHkjRTnEfPwEvVq8B//gAb1x9XopcdLQqomQ8OeoV0u4BCAzPQ1tW7dCZEzcTyUI7bv2xTOfG2UQyEej+rp4G1eqIqjVtCPev3xS4TXZspEiDzgtgbWDC0/dPgFh6Nqu9CYNP4IwcPw8XPWs2AMmJQj/yu73542TEoQ/b87+6B6LiyDoN2+DqBfBJVhUdIuhFDAWxgzuiTNXfUp+amvWHwEPvDki/mtnj2LQaIuSZ3XrNyxSQaiVXukTRhDIpcgNy+Zixea9Fc6TkooKWrZshZmz52PS2JE81+aEEQRf7/PoOdgcBVw+AqxtbLHXZXO5Nkf1N8P5G9wEAfAJeIGuP4wD+d1iePshHg10eAnCoP69cO3G3ZL6RSEI2Znp6NC2DSIi35aUr6ashsg30ahTSb8KzB0l5f0gCKUxHwQRhOjXL+B50hPPAkOQlJQEcr2U4z9DQgJJCZ/w6Uup/QoZCBOCMGuZE/Y7VXxFkRKEP3pL+6s7TwnCXz29v9/gKkMQXj4PRnvjTsji8t1v0q0PHt8vjdzHjCAA5z3dMXrSjBJ/AZJySnjzLhZ6NTVgY22BHQeOlYA20HwqLv3nzmOIJ5wgADnZWRjSvzfuPHgs1DKeGARucnGD7YLSmxHCCMLt8yfR33wiCrk8EopCEG74haJvZ0MBEgRZiJsg5OflwKxzRzwNDCvBVlZeCSEvotC8Qa1KLVJxEoSczAy47dmOFeuckM6lxhLWMSYEwXq5E/YK8WFACYIwpOnz/xcClCD8v5D/R9utDEHwvnAMQ8wtUMj1xTxm6mz8d9hVRAkCEBv9CoZG7Xlc+Z68eAPmA7uja+eOeBxQqmc/430f5v278cwUE4JACmRnZeHwvu1wWL0RqWWc7pSdehlZBQSGvUKrprqcR8IIgt+ti+g+YBQKCkvVGKIQhIfBr2D6w8bgV0gQiOtoyzFDcOQstxdFCbj9540ZY/pV+CaEP3+BVgalNzyKM4uTIOzeugYLbB15yJyEhCS0tKtDU12dI0FI/pqAL9++8/SVEoR/dBP7h4ZNCcI/NNm/w1BFJQg5makY1Ksb7j7lvdt+4Ng5zJw0UmSCkJ+bjS7tjeD/vNTAce7SVdi8egkaN9DDp69FBn21dJsi6lU4lBR43SEzJQjFHcvKSMPz5xGIjXuPz5/j8eF9HK5d9kJkTKnBHsnruGUPVi2dw4gghAf7w7iTGc/1vRnzl8Jt55ZyUzy8dyd43XlS8ruUbDW8jf0I3Vrqv0yCQBo66eaCCbMW8/RPv1VHBDy6B1UBLpB9vU+jv/lU9O4/FPYODujQpmVJeXERhILcDBg0bYzXsaU2CtVr68Hrwnm0a90C0jIyHPXT3g02mLtyJyUIv8MmQvvwyxCgBOGXQU0bIggwJQjETe335G9YYbsAB47whnFWqV4XUZEvUUO99HoiUxUD6cOxXRswZcGKkgkx6zMIh5xs0aydWcn1RAsrG3js4zVKIwWYEoTY6Bd4Eh6NsSOGlQuylPA5DgYtWiHpe1pJH6wWr8A+53WMCMLnj+/QoqUhvqeWXrvr2X8o7nh78Syy3MwUNNVvhNjPpbcYmrTuhBchj1DsA/BXSBBIpzKSP6OxfmN8Tub1VGi3eivWLJ9fcue/eAARoYHoaNwJmSV+HCRgt3I9nNbacw5scRGEmIhn0DcwBrdJ6ezl2+C6sfQqKOnT3nULMWfVTyIIB50xdia9xUB3yN8PAUoQfr85+at7xI8gKKuoYezYMSW6fjaLhXcxb/Dy1SvExyfwxBeQkJTCtn1HYTNzAg9OohCEnPRE1KvXAIkpRYeVdm1dDOnRAYeOFwUCIum/C94YM7x/ublgQhBSv32BWRdTRL2Lx5SZc7B1wxooK5Vecfz45gUMjIx53AEvX7sNG3/4JxCmYmAV5mNYbzNcuf+0pH+y8tVw9IwXxg7uXfLbFkc72K3hlipIYJ3zXqxYbFWS51cRBNLgOtsFWLWV16JfWkYW7Tp0xpw51mjb2gC5OZnwOnca+w954MuP0N3FnTXrPRA+t66KlSBEBPnCoF1XnnmeYG2PE3s3cP3Gwqi+Zjh/6xFPvgeB4TBra1DyG19XywxsEM4f3YNRFvNK65aQxDnvOxjZr/tfvRfQwf3+CFCC8PvP0V/Vw6qGe+7YrQ+uXzoPNZVS6QEBSBSCQPIP69sNl2494IutlFw1RL+NhV7t8pEQhRGEN68jMHzYUERwBQqqV78hevXqwYmsmJbyHdcuXcS7T6VW9dJy1XD/cSBMjZpx+iOMIJA8r4P8QLBIzSj1DUHcKQ8YNBh69Woj6tUL3CNBl7hiNKhoaCMkOBgNdGv/XwhCfNxbdOzQAR++lrqxZrq45RSUce3WHfQ07cApIi4JQuKHKOg1aoHM4kiKAGTkFeGyYyfatGqOzLRUXPU6BzcPTxCX0fkFpe6+69XXQyujbrhy/jCnT5UlCKGP7sDItDePDUTtuvU4zp6I/Yaz60EM6G7KFCqajyIgNgQoQRAblLQiJghUniBIwKhzdzzyvQv5sh5uKkEQ9rmsw+zF/N3Xdhs0CfevlN5m4B6XMIJw/fwpDBs/BXlcLo6F4WIxezE8XEuDUTEhCKRO+4WzsGmnm9CbEiSvlJQ0nPcdwcIZvJKXXylB4BC5uCi0btcRX5J4Df4qwkhGTh4eJy9gwohSiY64CAJpt3/3jrjh41/hNA0cY4m4cD9EvIriydeiTW9EBN+qEkEAuwCdW7fA43Deukml5JbLKa9rGDO4YmNOYWuMPqcIVAYBShAqgxotU2kEKkMQ1DW1YWu/EtMtJkJLQ41v26JKEF6H+aN5647lDlcJKRlc9QnAANOia4BlkzCCADYLgf5+mDxlCl5FxVaIE1GXjJ9qhT0uTlDjilbIlCBkpafBef0qbHBxRR7Xl225RiVlsN11PxZYWZaLnPirCQLpW0RIAObPmwufR8+EkhvtWnWwa88+jBo6gONCujiJkyA89rkFs559wXUphAfC+g2b4aHfQ9y5eARTZy8RP0EAEOz/CP369UdiCm9MBkoQKr3V0IJiQIASBDGASKtgjgCLxcLYkUMQn8g/lHBxTSTwUL16uujSrTuGDBzI8WFfUfr26Q1GjpuCAlaRn13iCW/kFGssmjmRf7HCPEwZb443H5N4vBmqamjj4rnTkJXlvb1QXMmD21dhv8appAwRAa9ctwn9epSGayZ5M1KTsd/VFV7XruPjx09ITUvj9ImEHNbU1ELDRvqwnGUN8yEDyvXP+/wJbNy+v+R3Um7Tzv3o0q5U3138kMRcuO19BfvdDiHi1St8+/YdhSwWR2JQo0YNGLQywtJltmjfunxZUofTaltcu/u4tC1I46zXJeho8eK9dPECPPEPKsmnpKKOo8eOo4YWf8ImbEXk5WTj7OkTOHPOC1HRb5CYlIQCog6RkICiohJq6eigk2k3LFm8CPVq1yhXXU5GCgYPGoTsUok/mhi2h7vr9jJ5CzB65AjEF0fnZLOhqdsCFzzd8MPbNCd/eOAjLHNYgxcvXyE1PYMzv2rqmmjVph02bNiAlk0bcvKdPuaOQ8c8kZ2Tx5lPvcbtccJjB+fZl/eRMB9vCdYPGkaeD5tkhaVWk4TBwXmemPAJrntc4R8UhPTicNUSEnB0ckZPU2NGddBMFAFxIkAJgjjRpHUxQoDcUBCWyAZNvp643OoLKcJGYZlPQHKXXZI73F6ZGsjhyuVrqOSplFSxjX/5JsmmT0gOd5Ik/ZTg39PCwgLOwUfKkLKkT+RLWFpaGqQcvyRqG6QOUn9BQQEItiw2G5IkSJCUNGRkpAX2rbhcWbfC/MZf3H/u/laEk7D5LX5e3G8yFywWwUeCgwupm2BUUSq3jsiY+WBafr0RbMpjT6RbxMaA5C/qhxRkZGU4WHInXiy46xJ9DfIbX1msK1pfTHGm+SgClUGAEoTKoEbLUAQoAhQBigBF4C9HgBKEv3yC6fAoAhQBigBFgCJQGQQoQagMarQMRYAiQBGgCFAE/nIEKEH4yyeYDo8iQBGgCFAEKAKVQYAShMqgRstQBCgCFAGKAEXgL0eAEoS/fILp8CgCFAGKAEWAIlAZBChBqAxqtAxFgCJAEaAIUAT+cgQoQfjLJ5gOjyJAEaAIUAQoApVBgBKEyqBGy1AEKAIUAYoAReAvR4AShL98gunwKAIUAYoARYAiUBkEKEGoDGq0DEWAIkARoAhQBP5yBChB+MsnmA6PIkARoAhQBCgClUGAEoTKoEbLUAQoAhQBigBF4C9HgBKEv3yC6fAoAhQBigBFgCJQGQSEEoSQkBD4+NyvTN1/fBnmoYbLD7Vp06bo138AXwxOenriy5cEQECI4D8euAoGUFlMSQje/gMGonnz5uVq//79Ozw8DnPC8rL/ZvD4jK2yeJKqSEjl6TNmQkFBoVzN797FwMvL6x9Ds3S4lcWVhGru3acvDAwMeLB7//49Llw4zwn5/a+lymJJ9kcdHR2MHj2GL2SXLnnh7du3FYYz/1uxriymZH0ad+yIzp1NGUEjlCDs3esK26VLoaam9k9NBOc1ruTLnJmZiREjR8Ld/TDfSTDrYoqXL19AQaEao0n6WzJVdnMk5RITE+Fx5CgmTJhQDo7o6GgYGhpCVUUZ0tLSfwtcjMZRWUzJRpGbm4vIqGhoaWmVa+vGjesYbW4OFRXVf47HVhZTAuL37ynY47oHU6da8mDq4+ODwYMGQlWV4FnZ7Z3RkvjtMlUWz5ycHLQxaovbt2/zHZO5+SjcunkLKirKv92Yf2aHio6lyhHN5ORk2NrZYc0aR0ZdFE4QXF2xdu1aRLyI+KcONLKBZmRkMAKRO5OMjAxmW1tDWUUF7u7u/AmCWRf06NEDdnbLQNr5V1J+fj6ys7NFHm52VhaMjY2xc+dOjOdDEN5ER6OVoSHOnz8PMzMzkev/kwtkZWWhoKBApCFISkoi9t07DB48CC9fvRZAEG5g1swZCAt/DrKm/6WUl5cHcjiJmmRlZdG9ezcsslkEi6lTyxGE4cOGcvDU1NQUteo/Nj8hB+np6SL3nxD9zZucEP48Ardu3eJbfvRoc8jLK8DNzQ1EwvivJDLWrMxMkSmCjLQ0evXuheHDh2P16jWM4BJKEFxd92CtoyNi3sVCUVGRUaV/QyYyCYRticr2yWY6c8Z0KCkpw/0wfwlCly6m6NevPxwcHP4GqBiPgWy6lSFdWVmZMDJqi507d2DChInl2iuWIFy5chk9e/Zi3J+/IWNaWhrIgSZKIgQhJiYG/fr2QWRkFDT5ShCKCMKbtzH/HEEgJJZIAUVNcnJy6NypE2wW2ZSXINy/j6FDhyD6zVtoa2uLWvUfm598AJF9VNRECMKGDesRFhqGW4IkCKNGQVlZGYc9PESt/o/OTz4IUlJSRB4DwbRbt24YNmyo+CQIlCCIJg6kBEHwuqUEQeR3WmgBShCEQiRyBkoQRIZMYAFKEMSHZXFNfxxByM/LRVpGFjQ11MWPRgU1EvHV169foalVHdJSkmJtuyIJgoysLL4kJEBNXZ1jGMedxEEQsrMyEPf+E3Tr14eCvJxYx1VRZQTPTx/egy0pg7p1dMTeriCCQKQ0Bfl5yMjMhpqaajlDLnFIENJTviMhKRl69fUGNPB1AAAgAElEQVQgLS3etVIhpiwW3sa8hbpmdWiqq4kdU0EEQVJSChnpqWBLSEGxGq8RojglCMQ2RF1DU+zvnzCgWIWFiP/8GTVq1gQRnYozCSQIEhJgFeQjJS0DGnzmsioShKzMDKSlZ3DWvrKKGpQUyxuOinOMxXWxWIVI/Jr4Q1wtAW3t6iDrQ1ypIoJA9tGkr1+hqKxSbv2IS4KQn5uDxOTvqFWzpsjS4KpikPI9GSwJKWioqVa1Kp7yFRIENhvfvn+HlqZmuX30/yJBSPgQiykTR0NZrz3OHXEVGQj/hz74+D0HIwb3FWkCc3OyceboAVgtWomQ1zFoXLe6yG1XVEAQQSgsLMDxAzuw2uUQgkPDoKnEe4BXlSDEvH6OQUOGQ1JWFhra9XH75hXIyUiJNLYbly9At3l7NGtUV4RybLjt2oqte9yRm5ODBXbrsWj2JLEaqPEjCIRfff/2FZPGjUaNhm3gedgV2Tm8IvOqEoSAxz4YMGgk1DXV0aRNZ5zzdIecDPND5XtiAjxPn8NkC0uoKDE3LM1KT8W4kQMR+f4bcvPycfveAzSqX1uEORGeVRBBeB/zGubmYzHGyhZLZk3ksXURF0EIeXIfXfuOQODrODTWURHeWa4cyYkJOHnmAqZOmw5FeVmRypLMl8+dwoixkxH4PBKtmzUQuXxFBfgRBEJi05KTMGuGBRJZGrjr5QkWi9f2oyoEwdF2NjzO3oCMtBQctxzA+OE9RBrT29cRuOMXhGlTJ4lE1uLfv0XL1u2hqamF6jV0cPXqFWioic/oTyBBYLNx+8pZzFqwDN4P/NG8vjZYrFLDO3EQBLJXTxs/HFkytfDfsQOQlBRFGszGtQtn0aCVMZo10hVpLkjm6Igg9Bs0DCcu34NJK32Ry1dUQBBBKCzIw8LZ0/Ey7hse3r9dTvX4fyEI5oP7Ql5ZE1my6jhfCYKwfcMK+EenwPPwbkiJMIEXPA9ilctxJH+MhE9gxC8hCFLSMjh1aBc8LvoiLuYVHj7xFztBOH3sIGKSCrHQejJ6dzXB9mNX0b6pKAc9MHOiObqMmIVJI5jr4wvysjBrxkw4OG5CmP89WNusxtuYKCjKMzNQI4u22FqZbKb8bhPwJQisfAwf2Ady1dSgWKMePA/vEztBOLR7G7SadESXljpo26Ebgp6HQ1OdOauPCg9Ev6Gj4eP3BPVq12D8ske/DIfdWhccdtsDl1ULoGk0GAsmD2NWns1GPpfxoaSUFKT4fNnxIwjfEj7AxLQHalSvjqEWs2FrPVnsBCElOQldunSHpJQ0zt54IDJBiHwRhv7DxsHv8RPoVGc+FwS8z+9eo9/gkfj8PhY3nobDqHlDZpgCKMjPLzHuErRO+REEQqqGDugDtqQ8UqAI32unwSoUH0EY0b8Hth84BnU1VVRTVBTpkCeDv3HxJOw2HsDjh3cYv7OkXGjgU0xftAH3r52EhIQkx86M6SULNouFAi7jQPLOl7XZ4kcQiHQr9Mk9zLXfgryUBBy5eOOnEISTB3fgyKXHuHjmaDkpGpMFM9V8EPqMX4Bxw3szyV6SJz8vD927GGOC1TJYWYwW6cO3sKAArB+35wStT34EgQjQrScOw5cMKSRn5vw+BCEzKwtP7l/GvjO+OH90L2MgP32IRcSrqBIRPVlsOvUaoGUzZmwrNzcHBYUstDFoiqs+QYwJwpfPHzBv/iJIFG+2bBaMu/bBojkzePouSIJALPHl5WTQ0tAI9x8+gYaYJQjFnXgR7IeJ023wwO8RVKox+8IKCfTH128pHBEhOazJy9nMwAi6tUUzilo61xJfWdrwcN0EJpyNzN3WDSsR/CKGs7nUadQSW9eVN8DkL0GQALmlcNbTDQ+CY34KQSCYFmSnYvy48fiWJ4vrl85CloEEISc7Cw/9HnGwJC8r+Ssjp4DuXbswXuck405nJ+w/dARXbt5HI11mqpu8jCRYzZ6P7Hw2R/0yevIsmA/pU65dvhIENhvZ+YVYPH8WGrbpjqViJgh5WRmYZTEBXYZNwdNLp7B0+2Ho6zD86mQV4O59HxQWskowlZKRQxfTzozmJDszA4P69ILFfDvYThmDa0GvYNSCKUEoxHKbOXiXkAqwClG/RXtsWLEUZbWTglQMmdk5uHXlDLYfuwG/62fERxBYeRjctxfyJOWRlpENV7fDMGrBbB9MS0nG02eBACQ47x5ZoypqmjBub8ToYAr0u40ZCxwgK8VG8zYd4LrDBdUUmKk1g/1uYOOOg5CRkUVeARuOm7ahZUNeCZkgCQL5XV5BHj3NjLHd/YLYCcKr8EC0a28Cww4mUFNVw343D9TTYXJ7hI1A/6f4lpJWuo+y2TBo3R61a2gweu83r1iIrYfOoE2rlmhpZAKntSshL8tMYrljsyP8Q19z2qnbsDm2rF9Zrk1+BIHsT0RNFRLwECs37v59CALp/e2rp7D/rB/OH2WuYrh55Ry27XYr0XexCwvRe+g4LJnLe3+4ohnJycmGQYsmuOYTjMZ1y9/l5leWMLTEpKSSl4e8UPIK1aCmyisiFWyDIAE5aTaatDSCj99TaCjxHt5VVTGQPr+Lfonuvfthj9sRDOrDXNS4ctlCPA16wXGAQ8aVl5ePBcvXY1ifTowWNhnzXufV8Lofhrs3rjAqQzIRgrBjyzqERcaCCPFqN2iG9Stty5UXZINA+uux3xm+IbE46bEfWdm5PGWrqmLIzMiAvIICgp76YvCoSXjx4jm0GNjLfP0SDwsLSxSySgmCqlYtnPE8wggbcrBn5+YjNzsDi+fNRNPOw7F8ngWjsnkZ37Bw0dISgjB8nCVGDOzJjCAAkJNXgOXksWjUtheWWk8SqwTh5JH9mLtkJdatXYuj+13Ry3wKVtkugLwcAyJbkImhI8YgJ6+As1bIOlVQ0cRRD3eoKgnXu7vv2oCtHpcwz3Ii7BbaYN2eg7CxZrpnFGK13WK8/5rKWbP1mrbBaruFjAkCkZac8zyEnZ638ND7LFiF+TzzURUVQ3FFdvOn4UOmFk66b2a0Tt68CsXchXZgS0j8wJMF/ZbtsXPrOr4SJ0GVpiZ+RP1GhggICUWjBswklqGP78B5r0cJQXBYsxHNG/IS4IpsEIi6zsTYCLs8LqKZmFUMB1024KB3EJ7cuoA1dvOQLFsHrhvshGPKZsF20VwER0RDWqpItZuXXwi7ddvQt1MroeVz07+jpkYNXHjwCI111KHfzAC+z0LRzqCJ0LIkg6uLEwKfR3Hy1tZrgvWrljEiCCQTIQmPfLyxcuMe+N2/jdwyt5v+LyoGIk65cv4ojlx+irNH9kGOySbBNWT/Rw/wITkXIwf34Sxwponol9LTUtG2jSHOej9gLGZMTPgEO/sVIGKu4sOtvWkPWFnyXp8TbINQiJysVHTs3AOXb9yGng6v7UNVCcKr8AAMGTkGU61tYNahDVoYGkFdmbnem4zp6qXzaNDKBM31mH2tFmO+a8tqbD98HrtdtkFDUwMd2rVlKOpkI+5dDNIzi3wcyFdTRKMGeowJAjFydd/ngsfP43B43y5Iy/AeNFUlCIutpkKtUXv069QMQ8wnIyw8HNqazA1qU759xUGP45hlPRsqIhiPPfa5ialWtrh0+Rw2OCxEY9ORWLmA2WFGjOEio6I45IQcoto1dVCjevkvIEE2CDm5uZgzaxr0WpvBbq4ljyFfVW0Q4j+9x/OIV5CTl8dGh2UYO3c5Jo0ayNGfM03fkr7Cw/MsZlvNRDU5ZmosUvfHuLd4GfkWhXm5GDtsOA6cu4Kxw/ozbJaNN1GRHHLCWaeKymiop1tu3xEkQSCOpU57uuPAWR/cvnAcitXkeQzBKksQvifG46jnGUycMB4W481hMsgCDgt4/SgIG+DbqFe47hsAK8tJkGYi9vtRoe/d62DLa6Ag5SMmTp+PoNAw6NRg9rGVlvINcR/if0iCAL2G+lCqxit9EEQQ2GwWCgvy0bd3d2zacwztWjTkkXhU1QbhgqcHbNbtweO7l7F4tiU6DJqORTPMhcHI8/zyhTPQb22CZgwJEynMKshF22aNYLXCGa3qq6Nbn0GIiIqDvm4tRm2/j3uHtPSiK7byCopo1LD8PirIBoF8kNy7eZkj1fG+7IVqZYyT/y8E4eyJwzh47DRHvNW6bRds2uDASLRVjNa2jasRFJWMY+47GR5GRSU/xETBcuZsSElLQ76aKk6dOgYFOWaiMSYzJYggfIyNxoLFyzhf6UoqGnA7eADSEqXGNVUlCHudnXD5zoMi8sIGVq7bDtMOzZh0uSTP7GkT0K7nRFiOZ7pxAqlf4zFh0lQU/FBAKimr4rDHEagw+Kpj2jl+EgQinjzneRCe565xNlv95sbYuNaWiCVKqq0qQYiKCMGS5Q7IzinA4JHjMGfmFJG+rl6GPYPFjPk4e/4idOsye9FJ53My07BymR2CX0aiXoPG2LF9G1SVxOtLhB9BYLOIesEaH7+Su9JsTJu9FIN6mSC/oMiZTFUJAvd8b1vviLHWS1FbUzQS+zoiGBMsZsHryk3UrcVMdMvdbmFeDsaPGIkNrgcZq22YrlNBRoqeHvtw8dpdzv7WoXMvONjO43ijLE6VJQhJXz5wnKbFxMWjbccu2Lh+DWRFvJV19YInNrp44Oata1Auc0hXNO5bV89jh6sb2BLSmDFnAUYMLK/GYoobv3yCCEJ2Rhqs58zhSAulpGWxaet21K9dvcQ+pKoEITsjFavs7RAcEYWmLVtj5/atJRIBZuNhYeq4Eeg50goTR/VjVuRHrrcvgmG7YjXSswpgOWsuxo4YKFJ5YZn52iBISSPk8W2sc97LWZ9KarXhtn87uC9s/V8IgrDB/KnPBREEsrkSQx6OQR6bzXGowu30sqoE4U/Fi0m/+REEgiPZWIkXOpKICii7jBe7qhIEJn37U/MIkiBUq1atRH1HbvzkFRSWfCmLkyD8qbhV1G9BEgSyTou9ShYUEK+gOTwfQ5UlCH8jhsVjEqxikIASF1kmHkG5vcpWlSD8zZgKkiBISUlDQUGeM3SiQiP2gdyJEgQxrgrqSVGMYP6oijpKEj+m1FGS+DGljpLEhyl1lCQ+LItr+uMcJYkfgv9/jZQgiH8OKEEQP6aUIIgfU0oQxIcpJQjiw5ISBPFjWekaKUGoNHQCC1KCIH5MKUEQP6aUIIgPU0oQxIclJQjix7LSNVKCUGnoKEEQP3QCa6QEQfxgU4IgPkwpQRAflpQgiB/LStdICUKloaMEQfzQUYLwCzGlBEF8YFOCID4sKUEQP5aVrlEQQZCQlEA1haIrXXl5ucjP53W3Sm8xCIZckIpBWkYGcrKynJshxJq5bKK3GARjKkiCIC+vACkpSY5lODnwuBO9xVDxtiCIIJB3u/i2DVmnxa7Fi2ujtxjK41oRQSA3bYoCteXzdepDwz3zX6eCjBSJO3YFeXKLgeyj2b9HsKaj7vtx+Ign1KrXxNq1TjBs2UikQ/lt5CskZ+ajnVErkRwlkUYe3b+JDc57cMDjOOpqizdSHj+CQHyVv44IwRrHdcjIzseYiZaYPG44z/UccRAEckXFY/8uBER+xr6dzDyqcYMeGvgM2vUaQUdbtPvlPre94bTFBZCShc3SVejXs6NIcyksMz+CQHy6HPNww7mLV6GqoQ2nTc6oXVOdZ3GLgyAU5GZixrRpGD5lDob0Fs1VMgm65PPwMbr36AkFEQIL5eVmY8fm9bh25yG0a9fHnj27UUNTtLgDwjDlRxByc7Kwfp0jQsIi0Lh5G869em5Xr1UmCKxCHHR1wYVrd6GiUR1bXXagXk0mbmxLR5ORnoaHj/3Ro0d3kQJnFdcQGvAYC5bYw/3YKTRi6IRGGJbFz/nGYpCQwBH3/bjgdRWyimrYuNEJ+g3qVtlRUvr3JCxZvAitu/SH9dRxCAt8gpVrHJGemYe5NksxcggzXyZfEz4h/FUMenQ1FSkoUXLiZ0y1nI6c3HxUU9aAh4c71FTE56uDH0EgpCDpSzwcHBzw8fNXmPUYiCU21jxu3St7zZE4YHp42xs7Dx7HiVOnoSANeLjtwZETp6GprYP1G7egeWNmwZdCnj1FDd1GjB1Hca+vpM8fsHCxHebbr0UHEc9EYeuUH0Eggahue3vhwKFjgLQsHFauRxsD/XJXR7t164Zhw4ZizRpHYc1wnkuwy9LgMsVcXfdgraMjYt7Fcu7/c6fslAR0MO2NgLBw2M+zQGyaLM4fP8g42Aepa9HsafB7ngC/+1cgK0IY3rvXzmDIGEuAJYGQSNGiOZLDnzuRBVs2xCk/gkA8U82cPBqdhljCsI4Cxs9chNCgZyjML40+KA6C8DoiDN179YNus7Z4ev8qo4nkztS/uzE6DrDG6qXM3PqSsqzcTLQxbIkjF+8iOuge5i7bhNi3rxh7uSP3woujsZE4F/xC8PIjCB9jXmHomKl4+OgRnNctx/t0OXjsdgLxlFmcqkoQSGhgq4lDkK/eFB57t4mMp7/vbQwcOQl+j/3RVJ/Z5kIaCX32CN37DsbLyBhssZ+FBl3HY96koQzbZyM/rzSwELnjTCQCZVNZgiAhKYWHt7ywZMN+PL53BUP7dMOC1dvRr2uHksA6VSUI8W9eoqVJd4SGPceJA9vwKlERx/euYjiuomzBzx6gR+/B8A+NRBM95s6nSFniebOXmQmeBD2Hf1gk2jRnHs2RxFIpCSomYJ3yIwh5Wakw7doH1+7chdsWe2TI1caOjauQnVN5R0nfEz/BoGULpKflYrrtGmxztMOQPt3Qc4wV+rWrh36jrRHzOozRfnr0wHYsXrEN0W+joK7C3GnVy7BAjLCwQejTO2AVssp536toUsnhTw6r4kT2PibBmmTl5bF93XJ8l66FORMHoY2xGR49fYY62hpVdpQU6OuNgaMsICEhjbef4pH1OQqd+5ojIiwQdvNnIC5DDuePH2DwMVoI03YtMXzqCiyeM0GktU2CeI0f0R+S1VvgxMHtJfGGmFRC8Cz2ByFoH+VHEDJTv6GVkTGu3LqP1/63sf3oNfjduQQ21z76y/0gkFjiqanpUFVRxpgRg6HbygzO68r7juYHDNm0SSSwjLRU5BawoKmhzjmk+UUB5Fc+6WsCviSnY/jAniIFa0r4GAfLGbMAiaLNlnytm/YeCIfF83iaEaRiIPEfFBSV4HP1LNa4uMHP5y7IpsP9ksycMR1KSspwP3yY75ro0sUU/fr15zDosin5y0cMGDAUztu3Y+WaLbh/jzlBIKK6QjYbKd+SUE1JFbKy0pCWluF7sJRtlzDv5OTvUFdXx04nR5y7Fw7f2+cZeRwknvtsF8zCo+DXnK+ABi3a4diBHeXGxo8gkDVENtka2tqYOWk06hr1wRLrCSj84fWPVFJVgnDp9BEMGzsVnUy7YvK0GZgxeTyjryxykBBX4oSsxMd/hk7t2hwPmsViZmEvfH5+HsdtKmH223fsgrvnebRswuwwy01LwJBh5sjMK+rD9AXLMGPCCKEEgWQgZI3AJy9VAFOTTjhw6jIMGtcrIXBVJQi5WRno36cX9A2MEBYUAEfn/ehr1lYYHD+eF8UIIWv185evqFNbh3OoyMjKMti0STTGPFiOHw1dg45w37QaVwJeoi3jYE0FmDp2OKI+JAPsQugbdcWhXZt5vM2RTvJVMRD1V04O1FSUMWlEX7TuNQ6LZ1sgj0vFKKqKIT83BwHBYXB1WQ/tJibYvt4eTRs1woPACNRQk4exQXN43nqCRrUES53I/kWifuZkZyM5JQ06tWoU4SnDzH21781LGDp+Bpo3bYyBI8bAduEcxh5tH908h0WrtnLaystnYe+Rk2jXrD7POhCkYiDB9mRk5RH7OhT9R0yA/7MAqHG5lK+sBCE1ORHfMzLRr29fBD2PhLxEAeeM0tBQx6TRQ1G7ZTdsWmVT4VotJpHfvyVCQVGVEz6A9IcfQedXkZfnAYyfboMOnUwx3WouJpoPYfhuACuXzsX9J6Gc/A1bGOHogV3lyvIjCGSvysjMRPXq2tjltBJB73NB4paQvaA4/XKCQBomMahPeezDodPXcf78eWiqMhNPeV86jc0u+zikQEKCzdmE+4+YhGULZjIGsyhYU+MfwZp4YyIIqoRs2u/fv+dEPytOisoqqKnNW14QQZCSlEL8+2hMnjYLDo5b0NXEiEfMWFUJwrxpExDxORt2VhOxdIUTzl04jSaNmB0qyxfNxqPACM5iJguGuIFdtGoLRvUzZYQpRzx35woW26/DmUs3oKfDzCc7KXfN6xzeffrKQVWjRh2MNy8f1liQDQJZA+6uzrjqG4aLZ0+BXZDH452yqgRheB8zGPUfi7YNa8Jq7iIEhISgBoNYDERsO24CCXTE5hAK8ldVsxa8zp1khCfxtElCt544cgj73Q5i6RoXDO/HTL1RkJOOwx7HkFfIBiHTxqbdYdy2fLAYfioGEraHxJmxmT0NefI1sct5I8gcFaeqEoTP79+iT78BnJDLzwP8YDJgLFYtmc3ogGfnZ6L/oGHIJcGaOBEyWVBQ0cLJE8d4DghBAD/wPg+Lhauxd+dWjBs8GHvPXMJ4xq5sWfjvxBEkpRTZD1TX0cPoEYPKRSwVZINA3qsT7rvhduISLl68WC64lKgEoWiMbEwZNxwaDTtg+/rlaKzXGI+fv4SWkgw6G7aA+xU/NK0nOG5I9MtgzJyz6Ec0R7JGC9G4lTH27djEiNxnpqci9kM8Ur/EYdjoKXgWHIr6DN2Jv4sMx+Ub9zmkuaCQjZFjJqBuTV61piCCQNS1mWlJmGIxFUPGzsCUMUPE6EkxH42btEDIiygoShNSmYujbttx6qofvC5ehFJFIezZhVg4dyaCnkdzpKCcoHcFhVixcRf6d2kt9L0vyMlEY706sFzsiJa6WhgzwQKhr2PQrEEdoWVJhhtXLuBNXDwnr2aN2hhnPpwRQSCZyMfgda+T2OByAFeuXedEAeZWEPxfCMLhvVuxctthhAf5Q1ONNyJiRYiQjYFsuOQgJq6KSeQsfqL+iuogBKEVieboGwL92sx0oLFvXqOdsQlY7CKCQL5+h42fBo+9LjxN8ScIEvj8PgrtO3WH990H6NyuFTIyMjkxE4pTVQnCzm2bEBYRiZysDNy868sJ/crUlzc5SEhXCNkqDkZFDFckGQZ4D3vmg+4Dx+KJ/zM0aVCP0YLmYMhmw//xQ3xNTuUcEkpqmujepXwESX4EgWyqJ9xcsP/0Xfjc8YaMJBs5XGJbUn9VCUJ/s47Yfeo66mtIoXnTZngQEIZa2szIT5E6quirl8SNIFCSDZFJIl9n6/ddwA2vo9i9eSXepClg9wZ7JkVRkJeFW7fuopBN5rMQTVu0QlP98kSRH0EgkcwtRg+AdtMu2L9jMzIzM3iMaatKEG5dPQfL2Uvw4uUr3LvyH6wdXPAhOhwyUszCrXHeeSKdyc8vkcYwxdTv7jUc9jyHvJxcnPvvP1jbrcZ2p9WMMCXz6HPnNtKyiFqAkD1tdOnUkRFB4EQcdd0Ez6t+8PfzRU52JkfyxS1SryxBmDphBNQaGGP7umXoadoe89bsQnfDOjDs0BUxMTEVhlwvDutODmKCa5HkgBDE8uoofiCR8Nmy8tWQ/DkW+q2MERIaCr16vCGbBYH7+cM7+AeFcd6HQhYLnc26o7o67xkgiCDk5aSjfTtjrHDagekTRiE9I0OMBKEATZq1QEhEJKpJAR57t8Bx9ymEPvODmrLwD9hiFTRx+072T/LSS3E+ZIWv7/ysNNTWqo5Lvs/QsJYq9PSb4eGzcBi1ZBa+O+DpIyQkJnMgV1LTQPcunRkRBEIOQp/cwNT5q+H70A+aKgocQ0Xu9MsJwqfIcJj27AupaipQkJVG+0594H7AhRGQxR13WGQF3xdJuO99FtIMNxhS9n1MJCZOmY64uFg0btEGl73OMgrWRA7RlNRUHuBk5eSgVMa+gh9BkJeVwfgRQ+D/IgpaGhqQU1CB9/WrYg3WVNyxvNREjJ66EF4XPBlufqXZhvXtArNRC7BoxijGZdMSP8OkozEy2DKcgEJy1TRx+9Y1qImgzxTWGD+C8Cr4KYaMngCN6jUgIwk0N+qOg3uceL54q0oQ7nhfwkK7FZCTkUWP/kOwcY0DZGSYxWcnYwr194VZ32EIDglHIz1mXwKkXFLCJ1hMnojPyWmQlVXEEc+TaCJCeWF4kudlCYKUtAyunj6KxavWQ11dgxMvZLHDJowZ0p0jiiapqgQhPSUZ82Zb4e2HBE4AKIcNWzG4B7OQ4sVjCgt+io5deuNl1Dvo1WZG1rjxKMzNQquGjXDq7mO0asIr1maCW0V5ykoQyNfut/hY9B00lGPAqyAni07dB2Hn1tWceAzFSXSCwIKN9TSOEauUbDWsWOuCGgrpWGy3CiywMWOODeZbTWM0nNNH9mGWnTPex7yEiiLzoHVnPQ9h47a9IJJR8h4uXzRPpKicwjrHjyAQkb3DfCv8d/UONKtX56h5j3qeRaP6NUs+tiqrYkhK/AILiykIf/4Seg0bw3HZIoyfNBmKGtUhJyUBo4694eG2A1JCzxo2+nQ2wtDpKzBn6khhw+R5fvvSf1jltINj09Fj0Eg42i+BrAyzjwomDfFTMRCjyC5m3VBNTROK8nJQ1tCF14UT4G72lxMEwl7L2jiWNfYTNuD01BROzHttLebhd4vr5A7uIWq7wvolSMXA3WbxZstdV1UlCNx1kbYqM67v35KgpKIOGREXpbCxCcNM2HNBwZq41xBh6WWZelUJAukXEb0WFrIY62Z556EAcXEfoKurW6n5yM3LhSxH+iD8C0QYhmWf843mWOa9JAccd9NVJQjFfSB6ZGlpWcZfq9x9J7rRj58+o74uc0lV2bGT9UoMucSNqiAVA/f7wW+dik4QyLosVf0U10k+Yohqiqk9FsElJzsLicmpqFtbNINPUrZITy0hUntM16ngcM+8Z0fZfWN0HZgAACAASURBVK6yBKHoXefFlPeMIgbpzFZM8rdEKCqrcq5gi5qI9IGEapeVZWYLIkr9fK85/lBnltZTfpy/nCCIMqg/LS91lCT+GaOulsWPKfWkKH5MqaMk8WFKHSWJD8vimmiwJvFjKnKNlCCIDJnQApQgCIVI5AyUIIgMmdAClCAIhYhxBkoQGEPFOCMlCIyh+nkZKUEQP7aUIIgfU0oQxI8pJQjiw5QSBPFhSSUI4sey0jVSglBp6AQWpARB/JhSgiB+TClBEB+mlCCID0tKEMSPZaVrpASh0tBRgiB+6ATWSAmC+MGmBEF8mFKCID4s/1iCQK6pEDPpn2GlLQxeYqH6M9qtiCAQr28yUlLIyc0p8U5X3E+x3WIglujEtvgnWL5XhGmJG9qf0K4gCQIZo7y8POemQW5uqdvq4n6K4xZD8Y2bytwKEbYGhT3nWNv/pPdDEEEgfjDk5WQ5rnDzuDx9kr5W9RZD2TVShC2pl5l1uDC8mD7/We++IIJAboPIycsR5ynlfHWQPlfmFgMpxw/PYgx+xftf9hYRU/yZ5KuIIJAgbbIyMsjNyeH4UeBOVbnFUIwpN3Y/8x0UhMPP2ksrskGQk5Pn3FgiN4y4/fOQPv5fbjHcunoeW7a7QkZBGeudtqCtQRMm66Ykz9fP8cjIK0QD3boilSOZo58HwnbFeuw+dBR1qos3CI4ggpCY8BFLF9siJSsbQ80nYtpEc7EHayKev9YsXwRV3dZYOm+GyLh8iH0HtRo6UFZgfh+aNBL45AFWrd0IloQsVqzeCFNjA5HbrqgAP4JAFu29617Yte8wFFQ1sHHzVujW0OBc8xIXQfjy+SPmz52Dr8np6D9sNBbPm8nIy1wJY8/LRfjzFzAwNBTpjjiLVYB9Lptw/tpd1Kqnh32uu6GiJNxRiyig87/myILrNifc8XuGOvUbw3mLk9iCNbEL87B08UI0NOoO68nmeBP1CjY2i5GZk4fJltaYMn4ko9gBuTnZePk6GoaGBowdeXHjQuKV2Cxdhj0HDqNhPdGv9lWEMT+CQK5T3rl2AfsOHYOktCzWOW1F04YkWFNpTZUhCGSN2MybgxbGPTBz8hhEhgdgge1KDqE06mCKDY7l3bHz63taSgri4hNg0LypKMsH35O+YMYsK2Rm5UBNQwv79u3/6cGaSAdzszNhb7sUb97Ho71pD9gvmS+WYE2k7vBnfnB0dsWJU6egIAUcdduNw55nUbu+Ply2b0dNDWYO/T68ewvV6rWgosQ8tkUx+CQ2wuzZc2Bl6wgTQ9HORGETyDdYk5QUol8EYrXjJuSypbBs5Vp0MGjMQ7x+PUFgFaJXdzPYObrg+qndiEmVx8VThxhtEMUgOCy0ht+rRNzxPgMZht6/SNngpw8wcPg4pKalc1xZNq7LzNWyMPCLn/MjCLJy8tjsuBwJ2YoY3tMQcxavQXDwM7ALxReLgbR/0+s/2KzYiKvXb6IBQ7en3OMa0dcMJsPmYKn1GKbDBbswF327dsH0JY6Ii3iEvSeu4dXzQMgz9KVAGHrJl8gPz2NlG+dHELLSvqFvnwHYsvsgbl08iugUOZw8sAUk4Im4CMJ6BxuEfGRhzcJJGDrCHH7+QSJFugx+4oN+Q8fi0dMATgQ/pun18xAOIfnvvzPY5rgIfSfbYtpoZtH5SBvcQcXIAcXPI2Y5giAhgTcvQjDBcg4Oe3jAcYk1LGw3YWjPjhynRiRVVoKQlZGKUUMHwT/kBSbNs8cOxyVYbjMbUtUbo0NjTdis2IyI0CAokK9sISks6DF69BmMgNBXaFBXW1h2nudZGWmYOGYUbtx9gEfBr0QK1sSDKZ8gbaQhvgSBXYBBAwdj3pKVCH9wDgns6nDdsqZKwZqy0r9j6MB+CAx7hWkLHeDsaIcTh3bj0HkfrLNfCO2atdGEj/dMfmCd9nDFwhXb8ToyAqpKJOQvs/SKrNFRFjjuvhdycgpo27Y1Y/Jc7MWxuCUitSoreOQnQSBe/y6fPoKT3v5YvmAqRow0xy3fp6hfS6vKwZqiIwIxeNQkJKdm4N2HD2Alf0DLdqZ4GhyOZXOmQLm+CfZstmMADgt9OrfFEEt7zJ1mziB/aRYyZhuryYjPlMapY+4cL8FME5N9lB9BYBXkom93U0yzcQQr7T12HL+BZyTQH6t0H/31BAFsZGZmIfnrJ1hNn4qOAyZi5WJrplhw8hEHH/mFbCiL+GVFnAFlFxSiW6f2IgVr+vwxFpMtphe50PzharlLn8FYuXQBT78FSRAIsy/Mz8Wh/btw4eYT3Ll+qVxEs6oEa3r3OgwGRiZo27EzLKZNx9QJzA/54gFkZKRzAqHIieKk40ewj2qKiji2zxlbDl1DWMB9Ru5ziWpg+oThuPsknHOI6bfujFsXT5RbBwJVDJBA3LtorLC3Q5ehlrCaMITncKyqimGJ9RSwa7SH48IxaGPYGt6PQqBfh/mhRFxXp6WlQ1VVVSRHSaRcdnYu3rx+jtnWVthx+Bw6GDALh57z/RPad+yCjDw28nKysXjNViyaNakcpoJUDFLS0gh8+hCLFy3C/mMX0FRPp0QqU1mCQAIsRb6Nxd4dmyBdvSl2rluK7OwsyMopIMj3OqbMW4GQwKcc1YawRN4vDqZqqiJJEIhr9PlTx6FAXQ+X3XbgsojBmgZ264gXsUkcF+stOvXF5ZOHmAVrIuo+SUl8jH0Lu4VW6DpyJmZPGV1Cush4RZUgkDg24S8isW2DPbQam2DHenusXToHWw+eQcNGDbH/wAF0bGsoDErOcxLhMjM7B6oqqiJ9oD265YVeIyygp6sL+7XrMXHkYEbtkUx3Lx7BpDn2nHHn5LFwzvsuOhvyru+KVAySEmxcPHMSK9c74+HjJ1BVLCU2lVUxZKanITMrA2ZduyMoIhIK7GyYGBtj1iJ7uO3YBCvbjRw35EwSCUkuI6cg2j4KwNf7LHqPnIrBQ4bC1n4FOhg2Y9IcJ8/sqWPgff8ZZw6btO6IGxdPlSsrUMXABpK+xmPb1k0oUGkAl7VLQBw2Faf/A0Eoatrn1mWs27AJ7bsOgZOjHSO9+a1rF7Bzr3vJhku+GHsNHgMba+YhiisTrIkQksCg4JI+EhaspV0LTRs3ZEQQiI4nLfkz1q/fiMCXcfC+fA4SXIFwqmqDsGLRXPi9/AAbKwusc1yD9Ts90M/MiNECW2O/CP4hryEtLVUUZCQvD3NsHTG0lwmj8iSTv98dLFm2CvvcT6IlQxe2JK6Gp4cbIt/FcxZ29doNMG9W+XnkRxDIYUWiI16+cBpu7ofRvttwLF9gyaO2qSpBiH4ZhpWr1+FNdCSyUA0Bjx9AsZrwr6zEL58xbcZMjp1JUWAhNlQ0a+Lk0UOM8SQZPY8dxgE3N9itccbAXswCZ+VnpWCLswtyC4o83fXsPww9uxgzIgjEN76CgjwO7XeFx5GjWLt1Hzq1a87xJElSZQlCcePz58yAhEZjDkEgKelzLAYNGooFDk4YO2JAxZ4N8zM5QX1KgzWxoaCsgUMHD5QLfsQPZJ8blzDNZiUO7N4O8/594X7pJkYM6MlwPljYu2MrPn/L4NgR1NJrBivLiYxiMZD5V1CohjvXL2P37p3o2HsUls6bxonRUZxEJQhF5biDNdkj6lUEPn1JQmToY3ic94H/w1sVju3t6zAsWELiexTZgBF7sIYt2sJl0xpGkoBviQkICXuBtKRPmDXPFkGhYahXuwYjPCPDnuLof5dAbAnyC9iYPnseGpYh3oIIArHjYuVlY/OmjTh98RquXruBmlpqVZYgFHW8NFhT9pc4DBk1Bn36D8Zdby8MnWiNxXMsBZMoNgvLly5A6Iu3JfsokbwtXr0FfUyEq1wLcrNgqN8QI6bPQx1NRSxe7ojQ5xFopKvDCNPTx90RER3HeYe0a9fH3FmWjAhCsR3XE9972Lv/ACRV6mHfjvU8Z9MvJwgZ3z5j/ZY9cFjlgGtnD8P1+FU8uO0t0ldWWmoKcvJZ0NbijQImDE2yWWdlZqB1q+a4fC8AzerXFFaE8zz+QyzGTZxS2kc2C936DcPqZbwhQPmqGGRksNN5M/qbT0F9bQW0M+6Me48CoSovVbKwq0oQ5k6bDKUG7eC4eCZmTB4D05GzMHMMM8ZbDMC3pETIK6pAUUQbhPCQZ+g3cCgOHfsPndu3gYqKMiOyRzYlDzdXvI75yHnxtOs2xOK55aNy8iMICe9j4LzHHVu2OOHqeU+s3nEEQQ9vQZIrnmNVCQLBJe37N/Tq1RNrth3AgG7lD9qKFg8JMRyf8AU6OjoiiQufBz3FsfP3sMZhIfZtX4f3uWrYtY6JeBPIy0zhkG4SzZEQhD6DRqFv9/LxDspKECQkpRD65AHuBERj+WIrbFy1CJI1DLB8tgVy84oMQKtCEMh7sWDuzCKCsN4W8XHR6NK5I+w37cXoIf2hoqLCaM2QqKoJXxI5mEqJYNx44cQh7Dp4jGMkGBQQgNEWVvA8vJfRuw8UYsfmDYj/lskJ91xLrznmW1uirFv+8ioGCWSnJ3Oiz65asxIvn93G6t3/wfvsCY4EpSoEgcyt5cRRUG/QATs2OODrl89QVFLBh8gQjJ1lj7BAX0Zjy87KRHJKOnRq1RRJgpDy/RvYEtLITUuEYWsTPAkJRQNdZsGaXgQ9wmHP8z8IAgvWC5ZAvx4vueCrYpCRxtmjh6Ctb4RunVqjc4c22LzPEyatm5UYfVdWgkDOhYKCHLRoaYhnoS8QcPcibNfuwpOH93DU1RmHzt3AY9/7jGyJkhK/QkGJ7KPCPyaKJyk3MxX1atXBf9fvo0ltNeg3N4BvQDjatmAWrOm4+348j3rHIQg16uhh0TwrRgQhK+075i+yxVaXnfgc+xL9h0zAy6gXUJQtjTnzywkCqyAPU8eOwqOw10hLTcWW3W6wGDOU0YIuzrTcxhqPIhJx9/oZyEgzi0BGysZEPseQkWMRHR2N5gbt4ffwLqOJJCKXr/9j7yyjo0j+LvyEkBAXIgSHBJfg7u7u7h5sgUUWWHxx18XdHYK7hkAS3Amucfd5TzUEMmQm0zPMf/fse6bOyZdMdXXV7erqW7+quvfLF6U6mplbYG+nvMlRFUEQYdsDW9cx4s+ZWJmbUrJSHdavmK8UDv9VgnD/1lUaNmuNsKDO6JKdE55HtP7QN29QnXIN+zJ2cEfZzyL44xuKFHEnMDKWzC6ZsLHLyPnzF7GXad8t50aqCEJSfAx9u3bk9vN30mxsztLV1K9aRq8RhLDgACqWKUnLnsOZMi5tL3hV7bh59RxN23bj/IXL5HOT7x3w+d0rKpcvj8LcmoSEJI6fOUv+3PKvl4Opqj0IAe/fUKtWbcysbYlPhCPHjpHV2eH7HhFdCYLYa9O9UxuOnLwA6TOwcMlqjm5eyC7Pc2TPngO7jJm4euU8lhbmGqvud/MK9Rq15MqNO+TJKW/GKhX6TXNemDVlsbXnuM9DShWRt2yjsVLfMqjcg4CCHu1b4ff0NRGhQcxfuZHm9aqR8C0qIy7VPoKQSJfWTTh86jLpM1gwZ/EGbpzcyKlLtxAeNTMXLKNHJ3nr39vWL+P3Pxdx7/5t7Kw145+MxcqF05m1eC1J8fE069iTeTMmSie09JVUEQSxV+GO10XaduuLlaU51o45OHxgBxYplqZ0JQifPryjZcvm3PS5Q4GCRdi8eYsU6XkbEEZQcChzlq6hU4t6Mvw7EqlduQxNuo1haJ+2WsFxeOtqhk74S4oO1WzUihXzZ2nti5PmhCUhgZCQEKUsRiTx528eHDh3XYqO9R8xgUHd2yp9m/5xgiBqGBcbw/Pnz7HL6ERmF/nrusmte/XiKcER8VIkQJsUFxuL/8uX3wxGjMjtmlurtUxN91K3B0EMrh/evyU2PpGcOXIquQ6KMn+VIIgyQkOCePP2A7nd3GSRnp/b8uCOH87ZXXH8yXo1rTYnxsfx8tVr6biqSGImmjNnDllhSk1YJv+uiiBIR5EUSfj7+2NtmxGXTI5K1sTi2l+NIIgd8y/8X+Hq5qb1eqK4v7DevnT5GlWrV9f6+tjoKJ77+5PJJSsOGe3kQiU7n6o9CGKtXOwSF2ZIzi6ZsbG0UDoVoitBEB/nt2/fEPPtKKqjUyYiw4KJ+RZmF30ml2Ropfm4Y1RkOFev36R69Wqk12Jz8ndgFEm8fPGSzNmza/1MNIGrVgdBkcSrV6+wsLLFJZOT0uCrG0GAN69fEfsNv4yOmSQnRjGeWts5kEWL8TTg8yfuP/GnaqXyWkUQxP6hV/4vUBhnwDWXfsmrwETdEoPog4EBnwkJiyBnzlyILpDyRIiuBEFEZF6+fCVFscSSWs5cuSApUZpIOjq7SM9Nbrp/2wfnbK44OWj73ip4++Y10bGJ5HHLLSuiJrdOIp+6PQgCs5f+zzE2MSNH9qypxtF/hSBo07D/Ul6DUJL+n5ZBSVH/mBqEkvSPqUEoSX+YGoSS9IdlckkGLwb9Y6p1iQaCoDVkGi8wEASNEGmdwUAQtIZM4wUGgqARItkZDARBNlSyMxoIgmyo/ncZDQRB/9gaCIL+MTUQBP1jaiAI+sPUQBD0h6UhgqB/LHUu0UAQdIZO7YUGgqB/TA0EQf+YGgiC/jA1EAT9YWkgCPrHUucSDQRBZ+gMBEH/0Kkt0UAQ9A+2gSDoD1MDQdAflv9pghAbG4uJiamsHcz6hEzcVwjt6NvURDNBUCD8RX7esa2PUwziKGZUdAyWlpb/OJ5fz3Wnk4R29J3SiiBIu46TEklnlPqo66+cYhC7tBMSEqU+IpJ4rlFRUd+wlX+s9lewiIyMkJQtTU1+nEn+lfJSXpsWQfi6kzsxlS6JzqcYvt1YrIEKCwKT9D/aEx8fLx2jTMZZX+1TV464l/TuZ8ig19NL4n5pEQR1mIrrtD/m+PXYZkRkJGZm5pIwj0hxcbHS8UkLc/nHFXXFO1lQLfl6fY+lcgiCyPOziZqupxhEO4SqZFx8gvSOp0zSN8rUVO/9RR320jsBkiGVPlNaexBE/5SMqcRBzp8OE/1rpxiiIkKoXq06C9fuoWJx7c4kB3z6SHhcIrmzyxPnSAn0s7s3aNG5L4eOnyV3Zu2EljQ9sLQIgtBN6NetA/aupZgyepDSEbJfJQhhgR9p27Y19x6/pF2P/sybOl5TVVP9/u71K+wyZcZShuRtyouvXTxFt179UaTLwKp126hZqbjW907rArVSy+nSER7wnmZturB172Gy2JvrxaxJqHP+OXoYLwLi2bphlXQkr0O7tty685AWbbuydMEMWe1LjIvj7r37FCnmrpVQkiIpgenjR7Jq0x6y5c7P8aMHsbWxknVPuZnUEQThPHjhxCFmLFrNkUMHSJ9CDeiXCIIiiQ5tmlO4SjPGD+0lVVMISTWsV5uOA36ne5vGsqoeFxPDw8fPKFqsCLrQtLs+N2jaqh2epy5SMI98fww5lUuLIHz58EZS5du86yBF8uVUKk5bgpAQF4NH/94cOXmewsXLcnDvDp4/vE2b9h0Ij4pn8YrVtGhUV06ViQgN4eX7zxQpmE9W/uRMgZ/eUaNWXULDI3DKlIXjJ05odTxa083SIggZzMyZP30Cl+5/ZPu6JRilEEfTlSB8fv+aho2a8CkwBI/hExk9/GsfjYsIplKV2qzdfQT3PPLMvd698sfWyQUrGboeP+MQHRZIgwYN+GPeGuqUd9cEk1a/p0UQkuKiaN6sBX/MXkml4m5KOh3/CkEIDwmibYvGXLl5j72nrlGnfGGtGvvnKA8uPwzkxMFtSoOYpkKunvWkU6+hBAV+wfv+03/ErEnUSbD8XeuXM2PeMsrUacOqeROVLJ9/lSAsnz2FLce92bt5GfVq1+XkVT9c7LWbzbdpWIMqrYcwpGcLTTB+/12YfTSvX5c+Iybw/O5VFq3Zy4N7Ppib6k80RR1BEJr07du04uHzdxw/d4Ucjsrn9nWKICgSGTu0D4dOXCaLWyFOeR5g3bJ5nPF+zKSxw2japCl7Tl6hcC7NIj13blyiRoOW3Ljlh1su+UT28T1fWnTszaYN61kyYzSV2wymj5aqmJoeoCqCIAhAVGggLVu3kxwsr12/omSEpitBCA8JpEXTRjx6+prWfX+TzJriYqMZ3KsjCof8LF8wM5Wvgbr63/X1omqtRvjefUSurI6amqn0e0RwAG3atObyletcvPVAK7MmOTdSRxDSkUSf7l04f+ESWw6dpcxPvhraEoQbl88ycORk1q9ZyshBfRj+1yrW/jWSYtVbUalQZoaMnYqP701MNMtKsGfTKoaMX8jjh35YW2o2y0rG4cHtW5L88OY1SyRPjWLuRfSqfaJWB8HYGK9zngweMY70Dq5cPr5HEhZKTroShKljBmOe1Z2irg60bNeNB0+eY29uTJOG9bj76BXHr/hStlA2Gd1AQePq5WnScwz9usofR0XBYnIpnDlNHHKzbMEsjHXR+UijhuoIguh/Q/r34tSF6yxcs4Pa5QtIAm0pMa1evTrNmzdj0qTJMjAAI0VKM3AVlyxbtpQpkyfzwv9lqpCNeKCz/hyDz/sEPj++wdhZK6hboYisGwu/6qioaKW8wi1RjgqbuCg0JIQEIyMqlnLn8LmbsgnCx3ev6TtgEELNSyQhE1yxVgNGD1U2mVIVQRDhm0e3vWnarju/9+3G1ZdhrF8yXa92z6eP7KHHwN+ZMGY4S1dtwOf2LeQGpiPCw4lPYc4hHq2llbXWQjJCXW31nitcv3BUtlnT4N6duHDjvrQk4la0HPu3rk7VD1QRBEGoFs+YQKhZdt7eOs/YBX+T3cFMiXTpRBBAEoC5dO4oG/ec5pTnwe/1iQwPpUzpspy+cossjupn9GJwCw0NVWqHECGys9XOWtzr6kWGDvZgycZ9lJGp+hcT8p4atRsQKcyaYqPxGD0Vj57tU2GqiiAIhdNGNSrRddAYlsyZzUXv66RPIV6kK0EQ5lP+rz+weN5UjOzzSl4M+7evp223/jRv0ZJuvfrQqE4NDct9CkkFTojiiO+e+CSIaIetrTyJZhEV6te5Nbaupdi+YBqHvR9QsrCyj4r6ASiBNo1q8/B1oCSeU7BsLbavXSLLrElgNnviSF5HmvH83D7+XLefsu7K8rnaEoTkegozrgY1KzLn7510adWYc973cLYxpXzRQmw+eZ28mdXbE4vlyLDwcKUmG6c3wcZaXqTq2pkjNOnQl6xZXBg8YjQ9O7WRLZV//vBW+o2YTAYzM2LiEtm05zDli7gq1UU1QTAiNPAjVWrUZdzIEcxbvQvvy56SYNqvEoTk6y+dPkKLjn148OABG5bMxD/enk+3zzFm7lrKFkybIISHh0nLkimThRhHZS4RntizkWbdBtO6VSt69OlPjcplZS9rjBjYnZOXhFcQuBUpzf5t61J1Z1UEQRCqU/s3s+30HdydTSjaoAu1y+b/dwnChRP7GTByMuvWrcWjTw96jfiT/p1bytoPcHjvVqbPWZLCrCmeRm17MGHEQFkEQ2TSxawpPi5OUmBMmaxtbCV54ZQpNUEwIik+inp16tC+93CCn3pz5VkQ29cvwzyDyXcVsF+NIKxZPJt5a/cwblhfZs+ex/4TF8mTQ57614jBvbnkdfe7yUhsbByjp86nXaNqsjG9cHI/IyfM4sDBI2R1kTezE2ZNm9et+urFIExGsrkxdEBqk5GfCYL4MJw6sofhY/5k7foNzJownt6jJ1G/etmva2jfkq4EQVy+Zd1iNu45850ghAR9oUHd2rTu7sEIjz5p4vLpw1tatWknKbIlmzXZOWXh2KG9svEUGc+cPMb0aZPpM3wKHVrICxkLs6a/Zs0lNkFBYkI8tRu2pHa18hoJglhDXjx7KrtO3WDa6MH0GzCEXQcOUChfnu+qn7oShOSbpzRralKjPHU6D6Vodhu69x7AnYePsLW0UIuPIj6CmrUbSuqLyZha2Dqxd/cO7KzVX5dc4NG9mxk1dYk0M2tRpw7rDmln1rR0/izJrElMDLK4FmJA7y4avRiMjdPjd/08XQeOYtGC+Yzq1Ymhfy2lY6vGSh81XQiCeHf6de9ItIkD61ctplDefFy7+wgHSxMqFSvCmsOXKJjDXi2ej+/dpHsfjxRmTYnkL16RtcvnyYoECLL86u17gj++pknrrvj4+ZFLpsX8I79rrN++H2HfLBx5+w0ajlt25bFKFUEQzjWd2zYnR/FqFMlsxbRlWzl78hDODnbf5cB1jSAIoD6+eUKjJq2YvXQD8V+eMOyPaWzdtpXh/XrTa9QUOresrx4bRSKD+vXA2+/xD9O7hEQmz11J42qaTfPioyMokDM7w6YvwNXZhvZdenLD5w4F88hTqdy+abW0vCyS8GIYMqC3RoIg3qPH93yo17Apy9du4uTODeSr0pi+nVopRS/+8SWGi6cOs3bLHkme9+QxT+o178C6FQtkM1Axw/3w7i1hsQnkd80li1gkoyVtUoqJomjhAlqZNX16/4YBHkOUIwg166cyF1IVQYiLDmfin5OIjIrl5ZNHvA9P4OiRg2RxtPu+Zv6rBKFn57aYuhRh6V9jaFa/Jt1GTqdtA5kfeIVCmpG9ePYUO+csZLSx1ArTC6eP0KXPEJavXE2pYkXIlMlZFvMVg9y+ndvwf/tRejwOLjno0Tm1frkqgnDxzDF27jsideRLZ89StkZ9liyYpRQS15UgiA2KW9YtZdPe05w6epCggI/0692TTPlLM274QBwdncmQwsxE1SgsbeKKicbvzj2KlyghbTSUuyH2zs2rLF6zm7kzJ7Fgxh9EWLkxb6I8L4j46DBWrFwtmTWJmXul6vWoXK6ELIIgDF+u3bxNTHQkJ06cYdzUmQzo1Rlh1yzSrxAEMeAnE4Ql00fTqHolxi1YT55MGahWrTZXfPxwsFbeHPZzpQWmwlX17oPHlCheXFpalIupIJTb93lKG9F2b9uOx7jJzJ02QSZhS2LjJIfZ6wAAIABJREFU6pV8CY2SyJJztjx0ad9So5ujRBBuXGTNpp2Sfe6JQweo17YbyxfNISlBdzfHqMgwJo0Zxt03EaxauhBnZ2ca16pI71EzKF8oM/Wbtsf3zh3M06e9xiDwDAkO4sWbD5RwL/ytPTLWJYA3L59jZGpJbOgnKlWty3Uf+QTh2X0f9hw+KcndJyQq6NC1JzkzOyg9C5URhKR4pkyeREBQGF8+vue670N27tlNhVJFvzuO6koQXj67T8OGjek5eAwdWjbmro8X2/YcRPjonDnuSa0mbVixaG6aluTJQfXnTx9jL8ZRW2upTXL6aHx0OK45crBqx2EKZbenULFSXPN9QLECypEVdR1W7EN56v9W+tnRJRvdO6eOGqaOIBhJlvLzl6yUTKhue3uRMbsb69euxtbqB+n+xwlCciNF2K9BnVqMmr6c2hW024MwpE9XLt7+yI0rxzA1kb/e/fjeLYqWFLrjRtjYu+D/4rFOm0nUPSh1mxQFyOKee9Ys5ejtj6xdNPl7pxZl/SpBuH7hBLXqNoX0xuQrWppb1y9qvYmrVqUSVGg8iGljU7NPde0NeOtPbtf8xH7LYJ/RiQcPH+NgLy9UKWeEVmf3LOyJLa0sad+oEZOWbSSLvYlelhg2Lp1Bv5GTpbKKlKlPeTcr1uwQa51f065DF2leP/Ws/Oe2XD1/nPrNOuLlfYuC+XLLaaqUJ+TLB0oXL8brLyE4OGfmpo8vWZ31u5lW5R4EY2NphhQbHkSlqvW5cuOqkjumrgRBLF00rFWFs9f9pAjPtHlrKOFqRsPmHaV3omPPAaxdJiYImj9ON6+fpUqNBvjee0EBN/n7OpLBT4iJJHtGRzy971FC9hKDvEen0qzJyEj6EAqX0apF8jFzy2FK/XRfbSMIO9Yso+vAH4Rxwl9/UzafFU1afTVZmzRzAeN+GySr0uuWz2HomFm8evOajLaaIzHJhc6bNpaxU+ZJz89j9CTmTB6bijDJqoCaTOr2ICSPo35XztL793lcv3hIiuokJ90IQiJVihbC67G/VIxYsr56/Rbu35wUWzWqy5g5aylTSM6m1gTKFM1Hq95/MmZoN60guHh4O43a9ZCiKoKoLJ8rb71f7k1ULTGI5ycwMzM3Z8qIgZRp1pcapfMirKpTYvoP70H40aTPnz5hY58RM1PtjnSIMG54dCJ5XJV3BGsCSywVvHv/HvFxESlbtmyyGJ6mcpN/13TMUezCjktMwuqncOqvEgRx/+CgQAKDQ8icOYvsPRkp2/XyxTPsHDNjZ5P2TC7lNSKM/f79hx9mTUbpJCteOYO9XEw1HXMMDwvDwsoqVdRC1whCRFio5OAm1vOMTc0wS5+OyOiv+17ELMHJyQVz86/HH9NKIoJw9/4DiroX0/qoopjFv//wCfuMjtjbqV9L1lQHdb+nqYMgZpahodjZKZvN6EoQxI6BTx8/fjcXsrXPiI2VJZ8/vicmLoms2bLKNl4SEYQHj57g7i5OhuhwjkGh4N3bdzi5uGj9TDRhrUkHITQkWLJkTj6WmFyetgQhMjyMwJDQr3sxFAps7RywtbHk86ePxMQlkDVrVtlW2MLg7eWbj7gXKaS1WdP7d+8gXXqyZs0iw+VQE3rKv2s65pgYH094VDR2tsrvhm4EQcHH9++J/+awKTAVY6jJt70DXz5/xjajA6bfjpNqaon/8yfSOGr/LYKgKf+P3xV8/PBBMvTLkV2/3yVxj7Sllo0Q1t/pTTOksrT+1yII8oH77+TURBDUtUQfBOG/g5J2NTUoKWqHl5zcBqEkOShpl0cTQVBXmrYEQbta/TdzayII6lqlG0H4b2Kkba0NXgzaIvY/yG8gCPoH1UAQ9I+pgSDoH1MDQdAfpgaCoD8sk0syEAT9Y6p1iQaCoDVkGi8wEASNEGmdwUAQtIZM4wUGgqARItkZDARBNlSyMxoIgmyo/ncZDQRB/9gaCIL+MTUQBP1jaiAI+sPUQBD0h6UhgqB/LHUu0UAQdIZO7YUGgqB/TA0EQf+YGgiC/jA1EAT9YWkgCPrHUucS1REEcZwk+eSE2CUr8qVMhk2K6iFXRxCEqmXyaQmB58/inrqeYtD54f+HLlRHEMQmr5QDSsom6X6K4T8EzC9UVR1BEO998ln4pMREJb8QcTvDJsXUoKslCOJY3rcTaOIqETZPmf6/bFIUyjQpRd9+oVsqvc9CjfTnJITnkmWdBe7i72dM//FjjtvWLmfV5l3Ex8Yy5PdJtG9RTysMoiIjpWMptjZfxSjkJwVfPrymZ7+hLF+zkezO2snfarqPOoLw+tlD+g8ZIR2dyVuoFAvnTFGS5dSZICgUBHx8Td/BI1m5dhPOtuYcO7ib4b//QeVaDVk4bxZW5vI01sPDQjE1s9BaYvn5o3v06NELRQYb1qzbQH5X7c+np4WrSqllU1O2rV7Eln3HJWOR0RNnUaNCESVtCV0JghBK2rh6KT5PP7Nk7nQSYyLo3LE9H4IjsbV3Yf++7bI0JoRQUXBQCBkdMsoWARM4iPsf3LGRCdPn4l6mMquWLcLaUr8OfaoIgiIxgSEDevH6UyjpTUxZvX4DDtYW35XudSUIAofVyxeyeNkaKtdpzIJZ0wgN/ECvnj0ICItn8bLlVChdTNOrJf0uBIeCQ0LJmFFgqlk34edCnz++T4cuPdm2ez95cmaRdU+5mdTpIGxcsZBdR8+AIoHfxkyhdpUySiRBW4Ig8FyzfCELl66mZsMWzJ81jdeP/eg5cKikTli0ZGUWz5smq9pxsTGER0aT0d5eq2OOoYGf6NS5C5Ex8ZiZ27Jt+xbsbfWnfaKOIESFBdOjVx9i4+Mxt3Jk04a/lY7l6UoQIkKDGT54IJdv3eX38dPp1r4pp47uZ/DwUVSv15TF82alKZKUEuyw0FCEoVQGLU3vRBlxsRF49OtHsx7DaFStjKxnKDeTqj0IQgjqxplDTJ2/ksQkBW26DKJXp8bEx/8gXv/KMcfu7VvSvPsgHCwzkL9gYZwd1cuCqgJg3LD+XH7whTPHdiup52kC68qZI7Tr0o/gkHB8Hz+X7cWgqdzk31V6MaRLx9Hdm9h+9h7jPLpiZm5N7tw5JMvW5KQrQfC6cJy2XfoSGh7NvWcvMY/9ROU6Ldi0cR2L/pqITY7iLF8wXVb1W9StSqUWgxg5oJ2s/NKAHRdFpTKlGDVlNi8e+LJ600Hu3PbCTIPSoOwbSNLYMURERChdIsSx2jepSxeP0WTJ5EQu1zwSEfqBKOhEEBQJ/O7Rkz0HTuNWrKxk1vTqkS8NWnVlxYrlWFnZUKqkvI+Z77Xz1Gnanmte3uR1lSOy8rWJ931vULxyA04eO4wQbarcxoPebeprA5nGvKoIQkRoIIUKF2fXgcNYm5tSoGBBpfP0uhKEO96Xad1jGJvXr2D00H6MnLqQg2vmk61UPYpmMeP3aYsk5TpzM81E9vbNq1Sv05hbdx7hmt1ZYztTZkiKj6F54/ocP3sFr9uP/xGzJuN0xjRrVId2fYZTOHdmcuR2kzQgUiZtCcKlM8do0W0oh/duYfKY4QycMJ/w5zfYcPgyk0YPIaNjJgrml+eOu2PdMoaOX8CTJ/ewtZJv7vborg9NO/Vn/YoFkiV5yZJC2VK+YJ2mB6fOi+HFQ18GjJ3NopkTUGBMgfz5lIiNrgRh4dTfeRpsSos6ZWnapjNnTnrSvVdfNm/azIp5U8GxIGuX/CVDDCqJuhVL0bTXODx6tdHUTKXfxcRgQM8uhCjs2LJuCSZ6xFPcSBVBEBPWMf06kLNMfSqWKUGmzNlwzGirFI39VwhC5TLFyJanCK558zN86BCcHJRFWdQhK6RSo2JiCQ0KJDo+iczOjphkyIC5mbzO/fLFUz6FxtK1TWMOn/OWTRCCvnxi1px5CNMdKSkUFClVns5tlR27VBEEE5MMLPxrAvtO38C9cAG6du9BSfdCSg9BV4Lw9pU/IbHQunE9zlzzxe/EJlbtu8qhPZu5cHgH4xZs4MrZ42l2VCkak5BAwOeP2Ng7ScqU5uYWmMoQr5LkWkNCsLW1ZfWyeazYepIbl4/LEhURCmgLZk3B96G/9OJldSvEjImjU9VVFUFIjIukfKmSFCpZkcLFSjB8qAemxkKv7kfSiSCg4NSxo/i/eMTuo5ckL4bTB7fTsc8watasRat2HWjTokmaeIrBTRAaIaf7/MULXN3ySDM7a5lGOELaOCwykicP7jJ90nhGTF1M9XLySElcRACDh40kJl4h2Sm37NSbVo1qpaqvKoLw1v8RZSvVpmGjRlSqWo3unYXS4Y9LdSUI8fFxREfHY5o+iTrVKzHhryWMGNSHa3ceY2WSSPEC+Tl02YccTmlF8xSEhYVLUsmvXr/FLY+bFLa3trKSJXQmIg/jhg8g3MiOw+uWcdDrrhZmTYlM/H0YLz+GSh4KOQuWlpw9UzhhSyCpiiAYpzOicsVy5HArRN78+SXzLdufJKW1JQhxYgyMjsMiQzqaNqjFH3PXcengOrYcvEi5MiXo3bcflcqmrf8vohCRkVFERYbzKSCY3DlzkM44fSoBN3Ud/eo5T9r0GEat6pVp3KwFrZo2ku0+6Hv1JHOWrMfE1JS4hCTGT51NYVdlK2VVBEHU77znbkZOXki50iVo2rINdapX1oubY2R4OEmKBLZv3sDsZesZO6ATWw5d5MyJI5zYu4VR0xfi7XVd8s9RlyIjI6SocOCnD1jaOUgRB3MLS9mCXJdO7JcmIv0GDqZJ02ZUq1xOtgDV0nnTuXHniZQ/q2sBZvw5NlU1VREE4TRap3IpLF3yUbBwYUaOHEFGG6t/nyC8ffMaewdHWtavQeHKzZk/I3WDVD2IDX8voP+QsSnMmhLpMvB3Vi+YKput6WLWJD6Ekib99xFTgVE641SsWZ2bY3BwAPGJcPbQDlZuO8rl86cRA2dy0pUgJF+fN08eznvd5tK2xez1es7uLWu4deYI/ScswPvqmTSxadmwGsfO3fixTpqUxNzVu/HokvaHMGWhr5/6UaVWEy573yN7JpnLNgoF9+/dJigkQoLV3MqWUsWLyiII4nm8efMKZ6dMkl9AocptGDuks9KapG4E4evtU5o1RUdF8OlLIMbx4VSo1gDfB89wslU/233z6gWly5QlPCLqe1tccuZHzH60SauXL2LazDms2nSA+tVLy7pU2G9f9/ImSfF1qSJn7rzkzJ46lK6KIAhCIT6+FibQoEF9th48S9G82b+Hw3UlCMkVnzpuCAcvPuDSqf0UK+DOw1f+iDln+cIF2HTsCvlyKOvxp2ywIi4Mlyw5CY/6JuotFC0zZ+OWjw+OdpqXGb3OHaXXqL+4fv4ouewdOO7zkNJFlV0V1QOswPfWDSKixPuqwNLGQfIuSEme1BEE8f/Xr19ha21N93aNqN58AKOG9iQuRQhXW4LwtZ4Kxv/Wl4t3PnDm+EHCQ4OIjU/i8vFdzPr7ADc1vPN+N85RqXpDaaVbKk2RRJlK9Th7Yr8shUqh9PnpSxBfXj+hbvNO+Pr6kTO7i6w+GvT5A/cePZXGcBHWLlaiVCrDLZURBCMjoiPDCQ6NlKJ63QeOxMvbGzurH8tvukYQRMXDgz4xaJAHh0978adHZzyvP+S45z4uH91LvzHTuOnthaW65VpFIvVqVOTC9ds/vk1JSazaeYpuzapoxCUxNpJ8OTLTdeR0yhXIQvPWHbn96Dn5c8uxmIZH9+/wJShM6pMWVjaULO4uiyCIfvTu7Wts7BxYOGMi/uGWbFo5S5pcJKd/PoKgSOLtu/dkzZKFfp1bYZzZnRXz5OlOR0dHSTMJIQspDGlsra0klibXplQ0WhAE98L5OXrBl7zZ1A9KKREWZk39Bnr8MGtSJFGpRgNGDumn9CDULTEEfP5E5qzZuXnhOB5jZ3Dtyjni434YtvwqQciXNy/nvG4T/vIm7fuOxe/mZeZMGs3FB584vGtjmh1UGLbExsUTER6GmYU1xsZG2NjYYSFz74LfjQu07dKHZas3ULNSue+bMTW9FWJQOrB7h2TWJGaDDi7Z6dqhtSyCkJgQx+eAYPLly8vw/j0xyVyMyaP66I0gbFu/hA17znDy6AHEszPOYIGNmTHu7sU5ff02me3V7wkQfSAwIJAkRSJfvgTg6OQk6Z07Ocpzubxz4wort3myaO5U5k8fw4ckJxZOHqUJTul3Yda0avVaiYyKWXOFanWoVLZ4qmtVEQQhYxyXZISTrQU1KpZj1t87KFEo93d/C10Jgpj1T58wEt/nX9i0YR02lubUrlyGPxdtIo9TeirVaIjv3TvYpeHmKAayz5+/kJAQT2BQCM7OjpLds6ODo6y9CKeO7mX73qOgSGTbps0MHjeFOVPHy8IUkti89m/JrElEDp2yudKpbQuNZk3fvrwEBAaRM0d2hvdsg13+qowb0Z+4FO++tgQhIV7gOYLbL0NYvXI5DnY2vH/3lkyZs/LI+wKdPSbi630xzbaJD0BgUDAiGhEWEY1jRjtEpDNjRnmR3NDgQEzNrQj7/IaiJSvg5eNH7hzy9h49e+DDAc+z0jgh9g+17dRdllmTGCNCg4Owtncg4M0zKtZqzA1vb+xTSMPrShDmTB5HpYbtKZjLgSzZ87Bi2QLmLFnD7ZvXWTB9PJ7Xn3LqyO40yZOQuhfET4yjGcwtpb0RNnb2mMvYixAXFUZ2l0zsO3MNVxcb8uQvzCXvO5T85gehqaMe3reLp6/eSXTPMVNWunRMbXqnKoKgSErkzZt35C9YkPXL5nLw6gt2b1j07xKEz2+fUrteU6lDf/wSxI69+ymcRztPhdFDenPxXiAXT+3Vag/C25dP6dPfg3v37lGsdEV279wq6wFKLpCxX2cQyUm4tSXrdSf/TxVByGBqwqA+Xbn/4iMRYSH0GDCMvl3akZTCx1xXgvDu9Qv6DxqCn68fxUqXZ+O6Nfw+tC93nryROuqyNZuoWbGUpv4l/d6kdiUqtRjCmEHy9yBEBH2kTKlShCeZYmlmgqmFI5cunMbORr7xi6bKqVpieP7Qj849+uHs7ERELOzdvw97ywxKoTFdIwinDm5n4ox5fAoIoWHTTuR2UrBq0x4sTY2oUKsxyxfM0lRl6fdb185Rs0ErvH1uk0+LPQjvXj6jfqPGWFjbERwcxq6DnhQvkEvWPeVm+pkgiL582nMPv42bhlNGWzJmysbWTRv0sgfh8omDtO7aBysbO4RB2+9/ziObZSQDR4zHxsqC6g1bsnjWVFkfer9bV6lctS63H73ATcs9CAKbxNgoCuVyZfe567jrGdOflxjEBy0k8ANNm7bA2jYjAcGhbN+1B9dsLkpLYdoShOP7t9O5z2DsMzogvGUm/LUC33PbuOb7iLCgYAaPGc+QPvKMgratW8qgUXN4+eqxVnsQls+fxvINezAxSsK9Qg1WL5mvlWmepn6qKoIgLMnnTB3DgZNXUSTEU75mA2ZOGqu0l0tXgnBk5waGjJ+Bg40VJraZ8Dy0l+F9O/PkTYBESpav207Vsqmjm6nboaBm+WI06z2eob1Tf6TTavfW5fOYs2Y7ZumNyJ6/BFvXr8JUgyOnJhxT/q6KIIQEfqRh42Y4ODhJ/h7rtuyksGs2En8ywPrHTzGEhYYQERmFja0tVpbyzYGSGxwY8Jmo2ESyZ1Veu9IEmJiBiJlI8pFDYZUqx45TU7lpEQTxmyAY0u5Wc3PMzc2VHMjE77oSBNEeMUsVszux59HJyQkxuw4MCsLc3BI7O5nhfpBmIdZ2DlrtmBcD/peAwG+Tpa/LLmKmrMsOc3UYqzzmaASSYUtEJNY2Nip92nUlCFGREYSFi2UPI9IZm2BvZ01QUBDinXFwcEhFCtXVW8ycn7/wJ0+evKkMejT1p8iIcMLCwzETz9DWVqsd5prKFr+riiCI2UdMdDSx8QnY2tqkOjaqawRBRCZCw8K/9xEra1spOhUUGIDwxxGY/mxgpK4NYtf9i5dvyJvHTfaat1JZCgVfvnyRPq5y7ykHT5FH3TFHYWgWHhkl7dNJZ2SUCldtCYKInor+mTyuCDxNjI0IDg6WTp9kzGgv+9RMRHgoHz8F4eaWS6txUIrkBAaCUbqvz0/PG+rS0kGICAvDyFjs6bFUeSRv+vRp3Pa7zclTp1Q+ujatW2Ntbc269eu//y72QwUGBUp7COztM0onEOJiYwkIDMTCQttx9DVWNg7YaLAv/7ly4hsRGPCFhCSFFBnTd/9Uq6T4zZzN0so6lVGTqOM/v8Qg9437D+YzCCXp/6EZhJL0j6lBKEn/mBqEkvSHqUEoSX9YJpdkkFrWP6Zal2ggCFpDpvECA0HQCJHWGQwEQWvINF5gIAgaIZKdwUAQZEMlO6OBIMiG6n+X0UAQ9I+tgSDoH1MDQdA/pgaCoD9MDQRBf1gaIgj6x1LnEg0EQWfo1F5oIAj6x9RAEPSPqYEg6A9TA0HQH5YGgqB/LHUu0UAQdIbOQBD0D53aEg0EQf9gGwiC/jA1EAT9YWkgCPrHUucS0yIIYpeqmZm5dNRLKBemTLqeYtC5ov+hC9OKIAhlywympsTGxCgdHRPN0/UUw38IGp2rmhZBELuWxZ/APWXS9RSDzpX8j12YFkEQ/dQsQwYJ059NxbQ9xfAfg0Wn6qZJEBQKST1XnLqJi/sh6CNupOsxR50q+R+7KM09CEZGUv8UJzeSUlgAJGP6jx9zFDd+9fwBf2/czW8jR+KQQuxCDu7BgQFExSWSNXMmOdmV8rx+/oRlf69nxJg/cLbXn8GIuIl6gmCEcTpYOG8OJSvXpXJZ95RWDDofcxT3fPPiCcvXbeb3seMlLYALZ06yYdNmsuTKy+BBHrg4Z5SF0cf377Cyc8DKQp5sdXKhTx/eY/GSJShMLBk8eBj58+SQdT+5mdQRBDHoPn/gxz7PswwbPpz0RimFlnUnCMJx78CebbwNjGbIwL5EhAWzetUKfO4+pmW7jrRoJM9YLCEulhcvX+Hq5qbVMTBBIE95HmLn3oPkyl+E34YNkW24JRdT9W6OJpL/xJ2n7xkyqI+S1KuuBEEohgpBrCPHT1GkRDkG9uuNpYWZpN63fs0q0lm50K1DC1mysmIAe/XmLa6urkoaDXLb/eblM2bPXciY8ZPJ6iJPJE1u2eoIguin/o/vs3ztFsaOG4u9jfKYoy1BkPrH0YPs2HcQt4LFGDFsCMFf3rN06WICQ2PpP2AgJdwLyaq2OE4rtGhcc+eUhX9yoRGhQcz4aybRsfFYWFgzZtxYrY5Ha6pcWgRBaM9sXLMSU4ectGlSN5UssC7HHKPCQ1i2ZDF3n/jTok1HScLaWHput9m46ygjRo6U/EnkpI/v3n4dR3UwWIuKCGXxwkXUbNaeskXzybmd7DxpEYSAj29Yu2EbfQYNlr7FKUnsv3LMMSzoE4UL5OXPRRvpJXNwSInEbwN7cvnOJy6fP4xp+m/+CDKg8vG6QLWaDYmJS+T+izeyvRhkFC1lUUcQhK/BrAnD8H4Zxe7NqyWBk5RJ1wjCvVtXqFKzAbEJ6Xj6+h1OGWIo4F6avUdOMG3UABzyluPvhTNkVb9+9bKUbzSQSaO6y8ovMikSoileuABjZ6/i/YNrLNnsycPb1zEz0Z9xizqCkJQQR8UK5fEYO41urRtJsq0pk64RhL8mDOWv2SsoV6sxpzz3seSview6f48D21ZTpWIlyfMic0bN7orXL56kcasuXL7qRYG88oWO7vlcp1T5Kly+7su8SUOp02Ukvdo0kP1M5GRURRCEfXZE4FtKV6nLQc9T5MuZWWmg0JUg3L51hWoN23Px7DF6tGvB6JmraNu4JvdvnKdstXo06ezB9tXzZH2gfLzOU6NuU274Pib/T/r9ctrdtkld9h07x807jyleyFXOJbLzqCMIQkyoRpUK9PljLh0aVifhJ6t3bQmC341LlK9Sm6s3fJk1fjCtPKZxfONcrHOXoHaxbIybvYa7Ny/LqvfGVQv47Y95PHvxBHstxM2e3PejdvOu7N+1SfqQFi1aRKUWiaxKqMikjiCIj9XBbX8zb90Bzp86hiIxXilyqGsEYf7kEdx6lciQHk2o1aglfncfIl7xPPkKMnv5enp3bCmzKQlUKlWEFj0mMNKjk8xrvmYTH+UxQ3tz+cFnzh7bTwaTH9brWhWkJrM6gmBpaUXjejXIW7oWM8ePICEpUamEf4UgjBrch5VbDzH691H07tUTFyd5s9zkmr989pigyHhKFiuiFXZPH96V1LGG9e/G0Qu3ZBMEYdY0c/ZcJbOmosKsqZ1yx1FFENIZG3P59FGat+9G1+696dylMyWK6sesyf/JQ15+Dqd/906c9fLDxcaE5y9fk8ctN707tsAqe0kWz5kkC6O7vrdwyu6KixbOmkLv/9HDR+TNl5+ta5cwZ9U+fL0vyCJtQpxEWNX6PXgqibTkyOfOtPEjU9VVFUEQJji/D+7D4Yt+DPEYRJcunbDIYPLrSoqKJPYL+ecXTzl20Ucyazq4bR0T5q9h7G8DWbhwOafOn8fGQvNsIjoijEtXrlG1eg3ZVrGi8VER4bx4/Z6Y8ECmTBwnmTVVK5taW13VQ42LCGTI0N+IildIWIg+16pR7VRZVREEMXtpUKcWZvZZ6dOnF61aNNVLBCFSiPEEhJIrmzO1K5fmt2krKZLDnmrVatOzczv8Psazf8syWQQhMjyMK17eiJCnaXr5JFREhaaNHc7zoETO7FjHQa97lCrsJuu9gB9mTQLTnAVKMHnsb1JEMGVSbdaUjt8G9eHEpVsMHNif9u3bY/eLEQSBgegf0WEBTJs8kckLVtO9VQMOX7hJDicrShYqxIGLt8jhqFmA7sun99x77E+1KhUlESe56eoZT1r3HEKTBnVp2KwFTevXkS3m5XvlJPNXbpbeeemjOHkWhV2V/UJUEQQhrf3mxUOq1axHlVoN6datMzWqVNKLWdP71y9Jn8Ecz4P60JamAAAgAElEQVS7mDTvb25cu8LMcUNYt+8UY0aNonfvnjja28iC546PN87Z3bT+pt24eJK6TdvQtmN3evfpTdkScpQbv1Zp2YJZXPe5Lz0DEXWc8sfvqeqq0u7ZOB1/z5/OzOWbpchTt25dcXaw/S6vLgr5xwlC0NunFCpdmYlT/+Lw9nWYZ8rP3m1rZCl5Hd2/g7/mLf2uFCY87Bu07sa44cqeCGk9SV3MmoQa3A3vmz/qqFDgmCkzBfMrG76oIggW5ma0aVoPqxxFyeNkztbdR/Dy9sKYpO/V1DWCkFxAsllTVgdLyXHO6+JJuvX9Dc+zF3DN6pRmx/59WD/JZClZDS0mNpZRf86lTUPNJiPJBb979ZjmTVuweNNBKhSTZ4IjBofrl8/zISBE+jhY2ztRW3JnU06qCMLTezep27Q9k6ZO5fThPSRZ52Lb2oUIbfHkpGsEQVyf0qzp1NF9dO0zmOJFCxMeE88xT880w6mfPryjXYeO0kuWPAjaOmbm8L6dsgaY5ExjRw5l7+ETbN19mDLu8jAV9tuex0+QkPjVrKlg0ZIUypd6pvwzQRBOeZ77tjB03CwmjhvJ8oXzGDF1Ee0a1/i+X0bXCMLX9ihYuXAGq7cf5dTxY/Tv2paS9TphE/acAzf8Obx7XdozpvhI6jZoQkxcwjdMkzC3cWTn9q2pjH5UgfzI9xr12/bh6IE9VCtehB1nr1G7ShmZz0PB2ZPHCI2MlT5odo4u1KhSUaNZk3j24UEfqVClJoOGjeTK8f04uJVk5aK/iIn5ZjoFaBtBkNBUKBg93IODJ85x8NBRmtWvz/W7D7C3MKZqycKs2HuBwrnVe388uX+L3v2HSeZzUh9NSiSfe3lWLZktKxLw+cMbLnv5EvrpJaMnzsTH7zbZMqc9ziSD/fHNCy57+UhqtiLqV7VGbZwzKn98VREEMzMzxg/vi++bCBpWLcOceQs5euoCeXK6fF+u1TWCIOoW9PEVLVq1JSTBgu2rZlK5VhNmzZvH3s1ryeDgyr4da9UvaykSGTKwNzfvPCG9sZj5KyRfhgmzltOoamovlJ87njBZK1nIjeLVm5E3ix1/TlvAs9evyJVFHqY3rl3k3cevirY2do7UqpF67FYptRzwnvyFSzBq3EQ++T/kit8rLp0/gnGKuMw/ThCe3rpEt1EzuHr2GCf3bWby4o1cPHtSVscUMrjBIaHfP9TiRbGwssbeVh67EwDqYtb0/o0/bdp3UjJrqtmwBVPGKc94VREEYRFaq0oldpy4gotFAkUKuXPiyk3sLEy+P4ZfJQjJZk1ZM1pw4uB2+g79g5Onz5A/T26Ng2Bg4BdiYuKUMLW1l78X4Z3/Y6pWr82y9duoX1M+qRARhC3rV381GTEywilLLjz69ZBFELzPH2PwuOncvn2bE3s3MfDPRdzxukBKw+dfIQjb1i9lw57TkllT2xaNyVOmPjPGedC8Xk3aeYyjQ5PUs/Lkigsr3U+fPiu1Q4TvXVzk7Ze5632VXSe8mTp+KIvnTOZJiAlLp4/T+BxFhrjIEGbPXUB8EpLhSs0GzahVpXyqa38mCEKid8Oyefh8TGLT4qlMHzuEEPOcTBze55sHCRIpf/HiBfXr1eXx4yc4qDCfOn78OP369uHZ8xfSvpqvKYkls/7k2NV7bN20EesM0KRpc0kq/cuHd3wOi+G69y3yZE8DH0USHz58VAoni7X9TM6ZZMl67938N/NWbJDMdq5fvkq73gPZvHqpLExFBGHZgrl8Co6U9k1kzpmffr26aLR7FjPeDy/u09ljAreun+fO5WN4TFnByQM7EKZzyUlbguBz/SL7T/kwdcIw5s2YQEA6J64f3syUpZsplz8ThYuWxu/xUyzTWHoVMuDJEunJBM7E1AwnR3n7MgT5FO2LCPxArrzu3PDxw02m8+BDv+ts3nVI6h/C7rl3/8GpfDVUEQRzswz0bNWIrmNm06BKccoVLcj4RRuoUrrI9xmvrgRh4V+Tqd+2B1kdzMnkkoMVi+eyYvNerpw/zeEd65g0fxVe16+lSWIDvnyWTO+SpfvFt0k4FluYqXd+Te4DsREhuGTMxIkbPrhltiWnaz7OXfOhjHsBWX10x6a1PHj+WppoOWXJiUe/nqmuU0UQ3vs/oXTlGlJEKvD1E8pVqsujF0+wMvtha/2PEwRFQiztWjUHCwce3fdj4LA/6N+zgywgkjNN+2MEVx8HcWjnOtL/bMyeRkkf3vgzYdJUDhzYT4Nm7Vm9chFmpprDxUID/snTZ6k+oj97QagiCCYmpqxfuYB1uzxxsDTBIasbq5cvlPYrJCddCcLHd6+ZPHUau3fvpUmrDkwcMYCq1athYu1I9szOlKtch9nTJ8jCtmPLRlRs3h+PrvJtnqNCA6hQphQfIpMonC8P5pa27NixHZsUFqyybp5GJlURhJiIULp27YKtY1Ze+T+j/7BxtG5SS0mbXVeCcOnUISbNmMOzl+/o1sMDd1drJs5YRIXypbnz4DkHDh8mq5Nm17u7N6/SoEVHLl65imuO1JbL6pr88ulDGjZsSN7CxXn25DGrN++iYintltI0YZ5qicHIiLfPH9GyXSfcixXn8ZNnbNyygzy5Mv+ym+P1c8eo06Q1ufPmx87akj6Dx9ClTSOpirv/XsSOK8/Ys3GJrCWGe7dvUq9xa67euJXKAVBTm8XvCTGR5HJw4rD3PUr8E3sQFAl069CWRBMbnj2+z6jx02jXsqGk+a8rQXj+6C5NGjclv3sJnj15ysadB7h9+Qhzl6zF3sacMtXqs+Avee64+7evZ+SUpfjduoa1jGWz5DqvWz6HzXtPYZwUS2bXgvy9fLEs0zs5z0iilElJkv9JymScPj0XTxxm7LR55M6aicDIeLZv2YS15Y9N1boShB1rljB96XpyuDgRnmDMvu0b6NO1IxaO2Xhw7zYev/1Bry6pnWZTt0dBy/o1aNh1BL07yh9HRTkr50xm29GL2FqkBwtndmxei6XMjZFycFVFEJIS4xnUqyuhCSaEB3+hRqN2jPToJUUfk9M/ThC+doBE3r9/i52dE1ZW2jv/vXn5guDIBNwLa7fTUxinCPtVwfIku1hHB1lLG3IegMijbpOiIAlBAZ+Ijksie/as0rG8lElXgiAsfQOCgqTBVbTHzsaa4NDQ70WbZjDDTmZ05fGDe7hkd8PWWvMGvOQbiB3VAcKs6dv6paiDg6ODVuuZmrBVt0lRzLz8/Z9jn9FZCvn/vPlLV4IQHRVFeMRXMxxjE1Mc7O2Ijorg8+dAsmTLptLQRFUb4mOiOX/pCtXEermWG45EyPftu3c4OmVCzJz0nVSaNRmlI72xgpev3pIlWw7Skah00kbXCEKsMGv6Zi4k2mFpZSOdYhBJ/BYTn4itjbWsJorncNXLhxrVq6ayW5ZVgEJBwJcv2P0PDIbUbVIUxj+vXr3Exs4ZGyszJUtyUWdtIwjiGoUikbdv3uHo/KN/hIeGEB2XgLOTPFtxUU5QwGfuP3lFlYpyl1t+oBzw+SOKdKY4OWq3f0zOc1K3SVEsS0RFhhEUEkGuXLmIjY3Ri5ujqFNoSBCR0bFkyfzVAFB8o969fYt9Ru2+UY/v35YswTPayuvTKfEICQ4gOiYJl8zOsgizHCyT86jbpGhuYc7rVy8xyWCJk6M98SmsyMW1/wpB0KZh/6W8aekgfCUlouMp77YX7dOVIPyXsNG1rmnpIHx1sfy6Ie/npCtB0LWe/6Xr1OsgGEkhexFK/xlSXQnCfwmXX6lrWjoIafVTXQjCr9Tzv3BtWsccv46jRqmcHJM/Zrocc/wvYPKrdUzrmGNa/dNAEH4V+RTXG5QU9Qjmt6IMUsv6x9SgpKh/TA1KivrD1KCkqD8sNUUQNN3JQBA0IaTF7waCoAVYMrMaCIJMoLTIZiAIWoAlM6uBIMgESkY2A0GQAZKWWQxujloC9r/IbiAI+kfVQBD0j6mBIOgfUwNB0B+mBoKgPywNEQT9Y6lziQaCoDN0ai80EAT9Y2ogCPrH1EAQ9IepgSDoD0sDQdA/ljqXqI4gGBunVxJWEeGelMmwSVE95KoIgtikJHY0f08Khd5OMej88P9DF6o8xZAunZIWiRikxV9yMmxSTPsBqyMIYg03OYnNtCmPN4v/GzYppsZVHUEQqrQpFR8Flj/7Bhg2Karup6qWGFKNo+Io8E/fpn98D0LQB39mzl2KQgxI6dOTLaerZOCijdSnEEyKTwTbn2RL5YzRQZ/fsWj5GgYPG4mjnWY5UjllJudRrYOQnr+XzOfVx6/HK80sLBk8dBgWpj8Gjl8hCEGf3rJ09QaG/vY7tt/OMkdFRTB75ixJAdA1u7OsJkSEhWFmaSWJyWiTXvs/Y+myFZDejP4DBuOa00WbyzXmVUUQhDjTqvVbJfEeY+N02DtnZWDfXkpH33Q9xeB36zobN23DxsGFUSNHYWVhQnhoMHPnzKFVpx64F5SnaiiOKn7+EoCTs7NWfVscHzh74hD7j5wka868DBsyUCupZo2AAqqUFH2vn2fvkVNSXcV7WbFGPepVLf+deOlKEIRw1MG9uzhz/jJ5ChSlX5+ehAd/ZtGiRUTGJdG5ey/KFCssp9qIsgIDg3F2lqcw93OhH968Yu7CxYwc/QeZZZqYyaoYkIogGBkRGfyZhUuWE5+okDDNnjsvvbt3JiE+/nux2hMEBWeOHeLA0ZNkd83P8MED+fzOnwVLV0rjS54C7vTr1VVWtYX5VVhEJI4O2h1VjAwLYfacOUTFxGFhacOoUSN1MidSV0lVBEGYNO3Zshbfh/5SO01MTenYtSe5swklxa+nmHTVQUiux4Hd2wmMN6dXx+Z4Xb3A5i07yZQtFx6DPLC3lXccPyIslAwWlpikIIayHob4OMdFs2TRIqo1bkPJgnKlwOWVrooghAcHMGfBIkkAULzfJmaWDB8+TMlL5x8nCBHBH9mwZScK0nHi0F6MrLJwcN9WrQbR0R49uXA/kEun92OixQft1bMHVK9ak7eB4dx/9lK2F4O8R6BaB8EkvTEH9u3kU0AYwZ/fs2HnQXxu3cQk3Y+jeboShNcvHlOtcnU+RsTyzP8NQmpZaD1MHDGIWcvWcfLqXWqWLSir+k1qVqByq2GMHtROVn6RSZzHrlOhBFWadeXTs9tcuv0OH68zmGghXqXpZqoIQuCnt+w5cFSafZ32PEKsuQt7Ni2XjuclJ10IQsjnt+RxK8SUBYs4d3gH1rkqsGz6UDq0bsWRU+fZceA4rZvU1VRl6Xefq+eo1qAlt3xvk89VvsPls4e3KVGuKouXLGf14hkMnrSUDk1qyLqn3Ew/EwTJGfPRHc5c9CKDiTHrVi2j/5iZdGlZ75ellh/e9aVmnYbMnjuHCaOGs2bvcU7vWMmHJGeqFbBn0fq9eF+7hGkKwqyuHX43r1Chci3uPX2dSn1PU9vFe+HRuytrt+3hht8/YdZkRGxUCNt37hUylFw+eYQMLgURIkPR0T90ULQlCI/v3qJUxZosW7GSlQum8dv0vzEKeMjEeX8zoGcX8hZ0p37taprgkH7fvnYJfUfM4u3bZ9hayXdxFZ42FWs1ZOLY0Vja2NO5YzuttT7SqqAqgiA+VOdPH+Hx83fERkUwa+5CTp6/TAHXrHqRWn5y24vKNepStGYHjq6dgnuxUkxdsIy/F84kf5l6LJ/7pwxMFdQoXZgW/f5kSB/54+jXsVTBvKnj2Hfam/NnjmH6XYlUxm1lZFFFEKIjQ9m8ZTsmphl4dMeHUzcecePSKVKKcP7jBCG5LUIkpVwJdxZvOkDVstopxQmhpLDoBAoVyCfbJETcV1gTP38XiEefznhe9JFNEIIDP7Nw8VJJjEhKCgWFipeRZHhTJnVLDCI0JkjA6P69iLXNyZypY5TCt7oSBP9nj3nzOZTeXTtyzuu2RBB2rFvO3A2HSAh6y9y1u6hdTp7166MH97B3ykomJ3sZ3e0bDEmJPHnyBFe3vOzfuY5RU5YjdN7FR0ZTElLLc6ZPwOfBC4kcZstThNlTUksKp7XEkC4xlurVarFh71GyOVkpaUzoQhDiYqN58vQFBQoUkEyuLj8OZ82skRw9fYmxw4cwf80W2jaVZ/ccFRmO3517lCxZSqsIgIiO+b9+J+nT9+vRiV6jZ9OoWmlNcEq/x0UE0H/gUGISFAg53bbd+tOmSZ1U16oWShIaCOl47OtF575DuHDpktJz1DWCIMynPnwJxi13dhpUK82AiUu56bmFL0ZOVMjvyKI127l2+YKsD4zAxu/OfUqXLiUr/4+GK1g0YwLn/V5xw3MPh73uUVILs6axwwfx8mMoos/mKlKG6X+MlGXWBGIpLB1RYcG4F3Vnx+HTlCySR0ljQluCIPD0f/MeJ9E/undk0KRl+Bxdx9p956lTuzojRvxG7uzylDuFCd2zV+8pVbK4VvbZXueP0ayzB00b16dX/wGUKy5//L516TgzF62RIgBx8UlMmjmfIm6azZrEs5QihulN2LJiARs9vTi6dxNGP/kG6LLEEBL4haqVKtKwcXMuPPrCxX0r8X/5hrx58/DbwO4EKBzZvHKerHfw0b072GfKRiYtDQgf+16lfK3GDBg8Ag+PAWTR4vpFsyZz3e+x9C3M7laIWVPHp6qrulMMYqlWOCK3bFCXgRPnU7VMQRITf0y0/jWCsHftEjafuc2BbWtkAS8yXTxzjLUbd5DuW9RAhByr1GlKny5tZJehi1lTWGgw27bvVDJrcs1fmDo/mWKoIwgiJBYfHUa1WvXZc+g4WRyslXTldSUIyY1ONmuKD3pFizad2bRjLz07NGfcrBW0qFsxTWwWzJqCz71npE9vLLHYuLg4ug8YQd0qpWRjKiIZ3bv3ZNTU+TSoVk7WdWK2v3PLep68fP9VQzxrbvr37JzqWnWbFMVgsXreVK4+D2b72qVEpZiViUJ0IQjfaA8i3N6n/3B2e54hdxYH4mIiyZ3bjQWrNmokCIEBnxk1ajRJCoU0oInZkJWdE0sXzpGFS3KmqZP+YOeeA6zbvJuyJeSRvPjoUBYsWkJsvAKhslm9XhOqV0xNLtRtUjQzt6BPhxZkK12XsR499LoHYcOqRSxev5uTnkfZuXElKzbuwdkmAw7Z87F90+rvZmEqQUqIpu8AD+LiE79hmkgGS3vmzp6pJLWrDuC7Ptdp1bEn27fvoF7Zkuy55E318iVkPo8kVi9bxMegiO9eDL26tk+l5Kh2D4KJKdvXLGXF/oucObgNoxRRLlEBbQnC1/mJgknjx7D/iCcbt+4j4rM/fg+e8Mj3Og/fRXH2+L402yYiqX9OnSUpoAphLOF2mTOfOxPHjpBFFF4/f8y+w8cJ/fKO5eu2S54oLjKXbJ7eu8GW3Uel5YCERAXd+wwg90+Gcmo3KRoZYZoO6tSqyfQl6ylZMJdSH9VliSEhLkaKLNm6laOISwYW7rrI1WNbyGBqKnloDB42mnXb91Egd1b1mCqSmDntT0mVUtRBjG3xCYn0G/YHVUtr9lNIjI+jRtmiuBSuSCbbDOzafxwfP1+yOsubrO3ZsZGHT19L9XPOklPlEpM6giC+TecO72HS0o1cPnNMaflLlPevEISwgA9ky5KLY1euU6mM3Bf1awhfNFQMvOKrkpSYhDQ712K9RyIIhfJLEYS82eTJkn7+8JYhw0ZI95Je0KQkylWtw7CBvZQ6jTqCIMJFk4b2Ii5TIWZNGEV0Cjc3UYA+CMI5rzsc3TCXkZNmSwwwNjaWEmUrc/PahTQHC2HqI1zVJExRSLNw0SmUNgGmUcLnj28pVboMsxf/Tbvmjb47bWoafYWU6e+D+3LtG/PNVbAkW1Yvlk0QEmKjKVu2LCu27KFc0fyprtOVIHx885TSZSux68hpypcoKg2g2hAEMXjHf1tjTnZzFJUzleH5IfK9fv6Eq37PadeyPquXzMTnXSIrZ6WeEajCNyb0I02atSFaiiDE0GvIWPp2bpUqq7pNiuGfXlGtcXtueN/AOOnHOrkoQNcIgsDj2N71jJy+El/v69JspXiRghw440U2qyTyFyyE3/0n2FhbpdllBHEVSUTxkpeShIS5HJfiJTP/YPxfS4mPi0MQzqr1mnH++AFNXfTb7wl0b9uCp++CpPvmK16ZNUvnKIVhRUa1BIEEKpQrx7ZjF8npqBzl0oUg+D99yPXb/rRv1YDl86dx54sRy6aNkd7XwDdPqdawC/fveaXZNjF+xcULY6F0GAmCkJQkRfF+GGylDY0Y50Tfjg0PwjV3fi56+5LXTd4y2qVjuxkxcRZCBl7IbK9ct43ShZVN5dRKLadPz+7VC9h79REHt28gIiJSqaK6EISADy/Jl78w8UlGEiZJCiOOnj6Ds4UR5SvX5OoNH4oXLahxCVzsK0kUOKYTXohJKKRx1ESKIGlKMaFBOGXKyrkbPuTJYk+2nG6cvnKT8sXlLQ//MWIg573uSBOt3AWKs3lNaiMy9VLLFtStXpm2/UfRuVndVKq0/wpBWDZnOmsOnkf4igu3Q23T7KkTuPk0EOG6p82muvevXzBs5GiOH/OkfpM2bNrwtyyzJmH3fMvHVymC4JApM/nzKFvpqiQIRka8enSPKjXqcOGGL7mzpXat05UgfHj7ilFjxnHo0CEaNm3N0oVzMTPLINm31q5RnckL11G/ijwC1rd7e0rV6kK/Ll+NdOSkiKDPVK9SmYdvA6hQthRW1nZs2rTpf27WJPBav2Q2x3xesWP9MhJTbPpKrrcuBOHFgztUq12LBGML3AsVwDlrITatnslvQwezau1mSpapxMKlKyntnkcjPPd8vejedwh79h4gV46v+u5y0vOHtylVthJVa9bi6eNHrNy0i2pli8m5VHYelRGEpATaNqhFpda9GTWgB3E/7WbWlSBcO+NJ7UYtyJo7L7myZabf4DHcvrSPE1fv4WRjxqfIJC6f9iSDqeZx4MHdm3Tq1o8DR06SM4s850EBioimRMfEkBgXjZtLZjy971O2WGpSKRtAFRlVEQSB2fJZkzl1+xXH9m5JFeXShSA8vXeL0uWqUr1OHal/bNlziDWLpvPqQzAfXz+nUfteTBn7m6ymHNq9mWkL1nHm1HGsLeV7fqxc+Be7jpzDKCEaM4fs7N66XpZroaxKqTFrEtdGhgVTpWIF5q3eRs2KpVR+zLRfYlAQFRmFCKof37uD2VvPsm3uCGrUb0B8OjOKFshHoWIVmT97kozoShKd2zSjTpuBdGvbQG5zxYyTuRNGsOfsTTJaZyBKYcaRA3uw+uZZIr8g9TlVEQRxus777GHGzFnLCc8DGCUpn64Tpf0rBMHX25vMufPi4qjZFU9Vk29cvcDbgBhaNK2nlamF2GF69vwFzM3MSMKI2rVqyp4py3lIqgiCYNpfPrzn9edgShUrrNI3QFeCEBkeJrVHhCnFibTq1at9JQiKJLyvXcetsDsOtmnPzJLb5XlwL25Fy5PfNY1Q2k8gxEZFcvHiJelEikjpjE2pVrUKJjL2IMjBU+RRtwfh9q2b5MxXEDtri1S+AeI6XQhCSMAXrt24ifG35RYLK3sqVyzF+bNnpZ3o8fEJlC5fiUwOthqrHxr4mTXr/4+9s46qavnf/0sExEaxOzBRxMAOEGzs7u7uuFev3d3d3QFICYggSImBgKLYrRggzfmt2YjS7HMu936+d/3OrOUfeGbPnnn27NnPvGfmeY4yaswY8ippSPbh7UvcPLyoVLUG1atWUqqPZ1qxNE4xiGtEJMn1xk0aNm2CThofa1UJwtuXz7kbEPTTVEdBxUoGlClZmJs3XPgeGUuLFibklen+KcyFDh49zZgxo8mVxJJWTptFHkGcrzs6UadhY/Ip+Uwyu0daBEG8+2KsK1FenyJ6aY91qiwxiP7h6u5J1eqGVKuiL52yue7iQqFiZahfr7ZsI6snjwKwdfJk1IhBMj5+vxEQ7rY3XJxRZM8pGWdl1xBz16xL6UUQIsK+c+fBIxrUr5ts70HinVWJICSt9Ye3bwh5+4lKJQpzy/f2r6iqboGiGNczkhWtsrpwGn0xjurLi6gk3l+M2e5uLnwNi8G8tRlaP8fUrEI1LYIgokZB9++SS68opYsXlZZFU6b/CUHIqkb/XysnM7OmtEyFRBtUJQj/19r/T9QnvT0IScP3ad1XFYLwT9T//2KZ6e1ByAhTVQnC/8X2/xN1Sm+JIbN+qgpB+Cfq/3+pzMzMmtIbR/8uQfi/hEFW1yVdqWVhfiUM79K5oZogZOGTUCspZiGYP4tSKylmPaZqJcWsx1StpJh1mKqVFLMOy8SS1F4MWY+p0iWqCYLSkGV6gZogZAqR0hnUBEFpyDK9QE0QMoVIdgY1QZANleyMaoIgG6p/LqOaIGQ9tmqCkPWYqglC1mOqJghZh6maIGQdluoIQtZjqXKJaoKgMnTpXqgmCFmPqZogZD2maoKQdZiqCULWYakmCFmPpcolZrZJUSo4jQ0h6k2K6UOe0SbFxKvS2rSk3qSYPqYZbVJM3FSXElP1JsWMh4WMNimmh6koUb1JMTWumW1STO+9V29STL+Ppr/EkC3hdEa2bJK+T8r0P9mkGHjfl01bd1GzbmNGDh+EVhYfk8noVY6NiWDTlp0MGTEavXzyDDjkMob0CEJkxHd2btvOtyiFdOytWIojT3+HIMTHRLJl+26GjhxDvp9mTd8+v2XrrkOMHDuewrryjjnKbWPKfF9DP7Fu7RrQysuMGdPJp4Smu5x7pkUQhCjM46B77NxzgBp1GzF0QB9JBCdpUpUgvH75lA3rN1GkVEVmTpvwq8ige77c8AlkxJB+cqr9t/IE3vFmx75DVK1ZjxFDByD8PLIypUUQxJEnZ3srrOyvY96hC21MmmSZkqK/7y32HDxKpRp1GTGkv2RKs2v7Vl68DWXU2HFUq5RcKCcr25q0LCEtvG7jFiZNnU7RQvJU6uTWJb1jjkztKNMAACAASURBVMGBdzlw+DjlqhhK/TTlkUBVCcK7l884cuoCkyaOR4xp27du4f2XH0yaNIlSxVNrrchth5x8EWHf2LptGxFRMWhq6Uj3zJNbvpdDZvdIjyCIY6pHDu4lKOQVg4ePokr50lnq5uhkb83rr9C/R3vEN2rD5h3UbticUcMGkrncUWatkvN7PAf27KSacUsaGmWuwCinxMQ8aR5z1NDg66e3ko2AbpHSTBg3OpXS579OEOKiIyVRnQEjJ3PmyE7a9BrLn9NGKtNW1i3+A4/gUE4c3IamEuTiRUgQA/v0xe12EP6P/x2zphw6Ovw1fRzBX7SoWBBc7j7lmvU5YmN+i1KoShBehjykb+/e+AQ84+HTF5TSy03Y11D69uiMQZMOrFw4WzauIwf0pFHHEQzrLc9rQBSsiIuhu4U5hSsaEfo6hHffNblmc1Yp8arMKpgWQQj7/I4WJi0ZN3UOVueO0XnYDIb1bJPMSlcVgiBcBuvUrk3HngO46+VK7Za9WLNgMh/fvaJli+bkLVUTNwd5CnwBfp506TUYO0cnypaS73D5LDiAKtXqMGXmDByszrJgw0E6tZQnX50Zlom/pyII2bIR4OtBx34jWDB3Ftu2bubkBWsqlCryawBWNYLw6tljjIybMmzECGwunGTFzqPcvXYGW89HVC9TkBteAXjduiFLKCnw/m069RiA43VXShVV8gOviGf25LGs274f77v/hllTwvvRqHET+g8ZxdVT++g9di7D+3clNjbu16NShSCImZ4Q5Lnu+xBhhrV4ziS8H76jetmC+Id8xtnhiqyuYHX2GPNW7cLNxYE8ObVlXSMyPRbCb60s6NurO7nz6TFn1nRy5ZQvtJTZjdI0a9LS5uzB7ew574xF89ps2XMMTy+PZPX+OxGEJwF3MG/dhvL1O2N9eCX1jBswdvJsTh3cTocBU5k1PrUMfOp2KBjUzYJW/ScxsLv8cVQaSxUKdm1cye5TNjg72ZNPieeRGZ7i97QIghAOa9aoHha9R/I2+DZ5yjZgzcLJv5RgxXX/OkFQRH6les16+AYEMWVwd7RL1mHL6vly2vgrz+OgB3wMj6FBHeUU5m65ORP0Opzl88Zz2dFLtlmTMIm54eqWTEmxSMnSGNVIrpGfVgRBJ1cuJg3tS3XT3hiV0GTy/NXcdHEkJub3jFdVguDn6UbI51j+mDIKezdfyaxp6bxp7LnghOPVy1QsV1o2rnd9PClZqTp6SlhoC0YfHPyYchUqYHPpFMMn/sXTkEBy5fhtZZ1eBYQwyNkTRwh+/ibBi6FEOYTGfcqUFkH4+OoJTcw74XP7Niv+nE7usg1YMHVwMi9zVQiCEIAJfhxClSpV2LdtDaecA7l2/gDjBvWgcv3WXLW2w9b6rCxMo3+EYW1rR7sOHWV9/BILjQgP49mb91TVr8DkoT0x7jqWAZ1ayrpnbMQ3tmzbQVSsgvhY4VPSgWYNUitppnJzzKaB13Vb+k5cyH0vRyxaNmfdgbMYVSnzywBLVYIgVEhfvv2AfvmyjOnTgaa9JmHe0ICChYrz/sUDmrTpScA9P3LlzHwGKoTBHJxvYNGhvdLiPCd2bZAG36e3b3LW1Y+6ss2a4jmwaxvvQsMlAbJi5aowuE93WV4M8dER1KldH2tnVzbPH0/RmmbMnjKS6CSTA1UIwr51f+ER/IUALw+snZ1oUrcWV5y9KFc8PzWrVsHu1j2K58/8g/3+zSt8/B/R1txEKTGuWzevMXjcn8yYPJZu3btRUIkxI/i+N6cu2kj217HxCgYOG0XZYslVMdMiCNo5crBzzSICv+gwfWgnmrXqiKeXN7p5c/56N1QlCOHfv1K3Tm1atbLA+9k3HA4tpUbtZgQ+DmLC0P7kKluPTcvlTbbueLlTomI1ChdUTgTw85unVKpWh4OnztO+dQuyy9EQ/9nyi2eOEfj4hfRX4RJlGT6ob6rxIi2CEP3jG+UrVMba2Z17N6yx8XnFyX1rJdG0xPTvE4TYaNq0MiNOMy/3b3uyYc9h+nVtL2sAdLa3ZOf+o2hm15LWTURDWrTpwpihqQFJr0BVzJq+f/vC+Qti5vhbMaxsxcqYNG2U7DZpEQTx8d+xcTUbdx+XzGnK16jHwd1bks12VSUIiTdPNGvKEx9KrbqNGThiNI6WZ2nYsgvrVmZsU7p62QJ87z2UxJrEiyk60pBxMyXnPbnp68fXWHTszJT5a+neXp7VrBhsL549wZPn76RnqVesDIP79ZBFEKJ/fMeiQzvyFypFcNADNu8/Tov6hslC4qoQhMSbB9zxZNDwsRw7cwWHM/u4dPMBFw9soH3P0Tg5XMoQlo8f3jFz5iyiomMkTIUvQ3694uzYIs8NLrHwRX/MZNfBE1jbXcdI5scsNvIbO3fvJTo2QV64sUlrmtQ3SlXftCIIL588pGETUxo0qE/w48fYO9+QFCMT9yKoShASb75k/iw279yPld0N6tcWjnGx9O1mgX6dFixdMCdDrXtFbATDRowiKjpeUukUmObJV5B169aSN/fvD0R6D0bMDjv1Gc6F86dpUrUKV/0CqGuQuVx2QnnxHN2/m3ehPyRJ3CKl9enfq4ssgoAijjbmZmjo5OPhPV+2HTpFB7NmkmZ/YlKWILjYXqHnyGnc9rxBJ/PWOHp4ULdGLbweBKGbS4PmtWuw47wzBuXT95l5+ug+8xYsQ9h8i+U6MVmpWNWIRfNnyyJezx4Hcuq8FeGhbzhyzgYPtxsUkblk8yTgNmev2EszU6FO2nfAEMoUz5wgCFlgZ9vLjJo0B/2yJfgWDXY2luTQ+j0ZUYkgKOKYOW4EOqVrU79CQZYdtufGuW3SNypH/mLc9fVky75jdGufAUlXxLNk4Tz8g54i/EGEz4zo32Om/4WJceZGa/Gx0bRrbox2iepULKaLtaMbLi4uspWGLS+c4mHIK6lL6RUrxeB+vWQRBOJjGdS3O+++xfHtw2vGzF7M8D5diI37Hd3+1wmCn6sdQ2cu57a7Mwe2rOTIFRccbKwkU5zM0sf3b3nyVDCl37pPhYoWp0JZ+TPlBIJQBevr8s2axDr7wcNHktk961erSfvWyTtNmhEELQ0a1TPmsOV1Suj8oFY9E3zu3yVHkmXlv00QKunj7HGH74+9GD1/A9dtL2F39jDL95zG2dYyQ1gfBj7gy7cwKY/YTCVIQrkKlWXbPn94+4JOFu3pNngCMyeOzuwR/vpdvESzJ4/h5u0A6eNQwaAeh3ZukEUQXGwvM23BCu743eH47nVsOuaAq/0FaQBPTKoShJDgALr17MO8xavo2bEtfXp0JijkJRrxcTwIfMiy9VuZNnZYuu0UUYi7d+9JPVQywdHQQFMrB7WNDGVhI4zBbj94QquWzdm65i+Cv+Vk89I5sq4VZk2du/biR0yCYdTwCTMZKcOsSfjBb1+3HJdHX7h6fAdjB3ShdD0LJgzrSXR0gmmTqgTh47s33At6iknzRmxaMY/XMQVZMHUk08cNRatIFbauW5F52+LjpGiRMBJLxFRDU4taNWtKLqSZpT2bV7Bp70lyamtx29eHbgNGcPrwnswu+/l7LEN7d0ti1tSEPVtWp1raTLkHQZj2hDzwocfIWTy4443tiW3suujBuWN7+PHjh8oEYen8WZy6bIeOVnbu37vPqCmzuGl7mT2nLKlWVg8jw9q4+N6jcJ70lwx+hH3DPyDwp0S5Qnrvc+XJT/WqVWTJCYv9PhqamkR8eU+lygbc8PRDv4K8MdjV5iwzF61LcHOMiWfLvqOyzJp0cmjT28KcPpOX0M2sLtUrVWT/OXuMqlf8RWJVIQif3j6ncQtz8uXX5cunj7z+GMrC2VM5fskOr5vX2b9lFbtPXsPd1R4tzfR2IigIfODPt7CE55qNbJJsccXKVSlUIF+m/SzyeyhFihTHwd0H/eK6lKlQiWs3fWlQS94+hD9nTsLZXXgFgb5BHQ7s3CSLIDx79IBGLVrxIPgpbwK9pOX+R4F+5ND8/S3+1wlC+Oc3GBgaYdGjP442V2jZuT9bVi1UKsS1eN40bgZ95srpA2hlz5xYJKL1/s0Llq9cw+FDB+k9aBQb166QFf4Vg/7DR4+SRRDyFyhI6ZLJfczTJAg6OpIddcinKIrn1yEg5DXuN5wlhpmYVCUIH96+YvXa9ezbt5++Q0ay5M85tG7RmBr1TXBzvkr/kVNZOHdKph1UZBjYsyPGHUYwaUhnWflFJtGxmzWux6N34dSqVoUcufU4e+Y4+WRuWBKz3ET9bzFIic6YMqW1xPDqSSCNW7Sm/+AhuLs40LzzYJbMGifZ1v4dgvDs0X3q1G9KLt1ClC9VjJKV6rFn63IpXB/97SPdB0zEzu6CZAWbWbrr7UaP/iO5audAxbLJ+0lG1z64fYs6jU3p0rUL1x3spYHfwlTuHgSFtLclkT6L2WGCS2fylDKCID5mNxyu0H/4RPr36825s+c5dOYyjWtX/eUNrypBePTgLo2amWLWqjWODvYcu3CVywfWsePoRRrWNyZ3nvxcunCWnDKWGO7f8aJjl544uflQTgmzJjFDjoiIJC7qB5VKluKK+10a1c18ZpeImoiqJUZShANiWqQk1SbFbNmI/P6ZRk2a08K8LR7OtnQeNIGFM8dL0aXEpGwEISoqkqioaIiNpEWTlti5urJj7UIOnLWjfHFddAqUwfrSycy6p/T7+eP7mbVoK76+7uRTwqxpzeLZ2LjdRzPmOy+/xXHL5ZpsYyFB8MQ4mZjEOy/e/aQpzSUG7RysWzqXE1Y3aFjbACsbB1xv3qJwwbzJylLWrEk81/CwMGkcunruFOtPOHNx93zqGDei9+BROF69RIuO/dm8cr6Mb5SCbm1NaTdoGiP7dZL1DKRMCgUzRvTlZvBHiuXPgU/AS+75ecp+JgJPgZlI6Y2jaS0xhH39hFHN6ph37M2HV48lwn5632bi/5cRBNGIRwH3pY1GRYqXpk3b1uRS0tHR2d6a5+9/MKCfWAuUTxC+fP7AydPnyJs3D3Hx0LdvH6WsojN74umdYogI/46djS2RcWDS0oxihQok075WlSCIyMapM+fIlSsXsXHx9OzZk49vXmB7zZHipSrQprUZ2jJmWKJdp48dRL9mE+oYVsqsmb9+j/j+lXPnL0J2Deml19TMSY+e3WSRLrk3SYsgiI/Vs8cPcXF1p1ipspibmUpGPEmTKhGED69fYWkrwp/ZpfbkzV+Ubl3aScw8PjoSR9dbmLeUt4QiDHV27D7IpMmT0c3/exDLtN0KBXd8PLnle4cK+lUxbdFUlmVspuUmyZD2MUcFvrc88H8YTFUDQ+rXNUq2Q1xVgiAGPz+fW3j63qWcfhVatmiKneUVQsPCpeUsTc0c9OrdQ9Z7+P7ta3bsPsTUaVNUcgxVxMVy/vRpTNt3oqBMEzO5uKZ3iuFpcBBuHp4UKFQMc3NTtH5axqtKEH7VJz4Om6s2mLVpQ3xMFNZWVnz9EYWFRUcKyVz/Drjny2W7m0ydNBZtJQzWPn98h7X1VRTZdWhv0QE9Zfq3DEDTO8UgPlyO9na8//yVhk2aU7FcqSw9xfDqWQj3Q97SxqQRjx7c45qLK8VLlqNtuzbkSDd6kLxBJw7toWrt5tQ2VM4tNC4miosXL/D9RwwdO3dGTzfzyIMMKH9lSe8Uw+f3b7BzcEInb37atW2Ltma2ZOZ3/3oEQZlG/dfyZiiUJEwxUKTpPKgqQfiv4aNKfTMSSsrICEcVgqBK/f6L12QklJQepioThP8iQCrUOSOhpIz6qbIRBBWq9p+7JEOhpAzGUVWWGP5z4KhY4YyklhMjOGnpyagJgoqAp3WZWkkxC8H8WZRaSTHrMVUrKWY9pmolxazDVK2kmHVYJpak9mLIekyVLlFNEJSGLNML1AQhU4iUzqAmCEpDlukFaoKQKUSyM6gJgmyoZGdUEwTZUP1zGdUEIeuxVROErMdUTRCyHlM1Qcg6TNUEIeuwVEcQsh5LlUtUEwSVoUv3QjVByHpM1QQh6zFVE4Ssw1RNELIOSzVByHosVS4xI4IgjpyJzSAiT8rNIOpNiulDnhFBEBtoBJZJj00llqTepJg+phmZNYl+KkSs4sQxnyRJvUkx42EhfYIgju8maDWIMG/KpN6kmBrXjAiCOJIrNHNEnsSjfYklqDcppt9HM1piEKqW4ixgWv3zf7JJMTIijHNnT5OvUBks2prLEudQ+aud4kIh0OPgcI3GTVuQJ1fmcqTK3Dc9giBA9va4IQnGdOnajbwp7vt3CYLDNQcaNzWRJI5DP77n5KlTGDVoRqN6qVX0lGmPnLwx0VFcuXCOeO289OjaUc4lSuVJkyBky4aGIp7Tp06iW7QUHdu1RgzQSZOqBCEmOpKTx49TuFQFSYL2nq8XIS/fSOROkJEatY2pULq4Um1QNnPE9y8cP3mayjXr0LRBvSx/P9I0a9LQICIslNNnL2JQuz7GRjWSEa+/QxDCvnzi1NnzVK5R+1d7BJae7q5o5NTFuHZNZSFSKX/kj3CsrK9i3qYd+fPmVqmM9C5KjyBoEM+F8+fJnrsgndq1Ii4+Ltl5elUJghA7uu7qTitzcyLDvkjHxoUyYgG9IjRtLFc3QzUIYqIiueZ4jZjYeDSya2FuZkYOJY+qZ3Tn9AiCZNIWeA/nm9607dCJEkUK/JICF+WpShCEHLijU4I2jaZ2blqZm/7yk7nm4ECdBk0okETSWTXU5F0l3gmdAsUwrCpX6VNeuekRBB0dHS5fOEtYNPTu0S2ZBUAipiYmJnTp0pmFCxfJulk2RVrnIZJcum3bVhYvWsSTkKfkzp3yRVTQtUNrylSrz5uHPuiWq8GuTWtSiWVkVJPtG1bi9ySU7RtXoqmEUNKr548ZNXw4dk4e+Ie8kO3FIAsVkAbUz58/J2uLppY2h/dsZt9JO1o3M8LKwRUnJ3uyJ1FCUJUgvH0ZwohhQ7F3vc3jF68pmU+DZk2b07XfUE4f3M7AifOZMKy3rOrPnDQaI9Ne9O9qJiu/lCk+hv49uqBTpDxf3jwmUrs4l07u/cfNmmKjf9CjSxcMG5rw4uFd8pWvxeZlfySzK1WFIHz7/AHTli1p0dqCu15umHQZgWHJ7Fx390UouR3ct4ftx63obJb5ABx035fxU+Zw4PBRSpcoIhvTFyEPady4MQOGjcXJ5jKLNu6jTTP5stdybpQWQXj78gnm5u0YNGI0bo42jJu3jA4mDX8ZC6lKEN68fEqzxo3p0X8YdldOs3Tzftq3bIqD5SlmL9nM8ZMnJVc+OelRwF1Gj5/K0ZPnKFFEOa17Uf7iudNYvGbLv2bWlC2bgt7dOlKqUh1+vH9CoarGrJo/M0Ho6GdShSCICM+IgX2xcfUj0P82LtZnmbxgHd07taVajdoMGZja0yQtfO2unGXdzmOcO3tKKbOmkIcPaGTajsED+5Inry7Tp039x82aNLJnx+O6LZNmr6RX1zYcPXaMC9Z2lCshDMUSWqcqQQi658WAkVMl9dJ8BUswY+p4NDUUbF7xFzP+Wo3rnWDqV5fTR+OZMGIwLToPpWdHef4pv5+LguP7trJk/T4cnJ0pWVj5/p3RO5QWQcimiGf0kJ6Qtyz5tWMJePeDi8f2oZHk2/SvRxBivn+iWq1G3PW/x30PB8bOW4Onq6NSYjDCiOjJhwiGD+otQ93qN2wOluewufWIi0e2YX3DVzZBiIqM4L6/fzIlxQJ6hahQrmyyZ5IWQciVKzcj+3bBpP90+rVvSPOGxhw8b0dJvTy/VARVJQgudldwuv2MY3s24XTLjyI5oqjfpCUXrlxmyZxJ6Ok3ZfXiGXLGXo7v3021hubUrl5BVn6RSYh7nDt/gQ4dO+NgeYbxM5fz8OE9WcJXgmPeuunKu4+fpfvl0yuCaQpvC/H/aUUQ3oYEYdqpN15e3gR4OdJ/1Dwe3PdKRhZVIghfPnHughV9+/Xl0I41nHF7LHkxiPTIz4P+Y+bi6eEkC59Pb16yct1G/pi/EF0lRHk+vHmFnYsn7Vo1Z/m8SRi2HcqgLuay7hkX/QNbOwdJ416MmlVq1KKqfmor5VRmTRoauNleZvifW3hyz41jO9fi8SyWrUunExkVJd1bVYLw+eN7nN18aNm8Pn9NG0E9i5E0qlaSaoZ12XngGJ07tKZQQXnOjMJcaN3mncyf/6dS0T/R12zOHmHp1oO8uOPFRTc/6sj0txCy7tev2fIlLAGH/IWK0aJxg1RRnbQiCLER36ldrzmuPr5ofHtK1+FzueFwmagI1aWWJQ+Tw7s4buPOi6AH2Lm4sGvDEtwCPjFjwnAMDKpRIL88kR0hAX3a0pk/5kxDK7t8Q2NPVydGTF/C1nVL0devSIli8u2lBRH18L6bEJEDmrQwS2VJn1YEQbjiblw0h0+5KrJizhj6dGhBrwlLaG9q/Gs5TFWCYHlyHycd7zFheD8qV6lKQd18uDra0m/MLErm12bjoQs0qF5K1jt4dM82DBq1pnYN+YJzouB3r59jXK8+C1ZtoXunNrKfobjW+9ZNXr39INVPV68wLZo2TlXXtAhCxPdQKlaujv0NLwrpRGPcqAW3/R+hl++3cdq/ThCEXn7/7p3wCnhGdPgX6jRvy7kju2VFEG442rDv8MlfeRWKOJqadWTEwJ6yHp4YKIRUqfBisHL2kU0QhGLh3v0HknkxVKpei47tkg/caREEYTJy4eQBpv+5gjIlivE57Ac+3l5oKH4r/6lKEER7xIuWaNYk3By7dGiFz/1gPrx7i/U1F1o2Mc4Qmw2rl+DnH/xLkjc6JobBY6bRumkdWZhKmRTRtGrWkD4TljK8jzzjLVH36452vHr7SRpsdQsVS+VtkR5ByBYfy4Be3Qh5H0bE989Ua9iK47vWSyYpiUkVgpB47afXT2hh2pqTV29Qo0JxYiJ/0LSuEUOmL2TssH4Z4vLp43tmzZrzi/yJzHkLFGbz+tXy8QSGDeiJtaM7nr53KJPC7S69guKiwjl/8RIxcYIfxFPTqD6GBpVTZU8rgvD5w2saNWhCqfKVeP48hDXbD9KzXXNifloTq0oQEm8+alAfzlo54OVzm43L5mDvJeyeC/PyUzgujnZShCa9JMyaxo6bRFRSF8TcuqxZtYK8MmS9P71/RaNmbbC0tqJZNX2u3g6ijoFcIhzP1SsXCf0eKS0xFShSUlp6SmkdkxZBECqv/Xt0JPjVZ4RzXrP2Pdi1fhkRkQlkQyRlIwi+Hjcwad8Lf38/urdqzTUPd67bX8bjdiB33B3RKVKJM8cSSG166VnwAxYuW5PkZwVlKxkyf85UWWZNjx74sefwKcI+vMTp1j1cXK5TuGB+Wf371dMgnFy9pPFGyBubt7GgWKHk16ZFEMTyib+vO936DKV0qVKEPA3BztmViqWK/prvqkoQ3J2uYnfDh8A77tx9+h0X6xO0adOBizb2TBrWj7nrDmBcLQOCoIhn1bKFPHj07Nc4GhsXx6jJ82hWV46fQhydWzXmdXgOSS771p0n+Hh7UEg3jyxMXa9f4/mrd1LeAoWK0q516ihwmkqK2WDupFHY3LxHLm0NYnMWws3hCmJZLDH9+wQBiPgRzo1rNoyb/icXrlhRs4q8l/XJo0BueQtTigR5ZTEIlq9sQMO68m2fhVmToSAISpg1ffvymSNHj0trfIn31a9akzZmyWV309uDIAaKVy+fMXhAXyz6jWPq6IHJHN1UJQiJD7GyfiWcPP0IDfai3/j5+Li7sHX5HK7dfo7lhRMZdjIXJztevvn0yyxLeNUbN2lBlfLyGPO3Lx8Z2KcHdU0sWDBHXrRCwjA+jlVL5nM74IkUBSpV0YC1y1LbfqcVQZBmH3GxXL10hiVrt2Nla4de3pzJPsqqEgQxw+nZqw9Dxk5j+M9QrbuzHb2GT8TX24vCmZivCGvwK5aWyRQzc+TMTdfO8vZnvH35nPvBLzFv0Ygl86fzVbsUaxdMkzVQRH3/yJhxE4mIEZ4M0fQaNJpenVP70qdFEASmYma7YdUSHDwDuXrlXDJDIlUJwoc3Lwl48oZmjeuyZO5kshczwOX0fnact6e8njYGVatx/fY9CufLQI46PoYz5y4k2TipQFM7Fx0t2suS9d6/eQXr9p6iSoVyWF2+zJCJM9i1SS5hE6Zi43j67ivEx1GuWj2W/yVcD5M/kvT2IIh+bnPlHEPHz8bVzZVKZUsmk1lXliAs/mM6p62dqVSmFNccrjF25h+s/GuONCa+DbmPaecRBNz1yLC/hH58h62D4++IqCA+hYvT2qyFrIma1LmzZSM89B1ly1fHw1e+WZO3iw0rNu5GS1ub6Nh4Fq1YT81Kycea9PYgiD746cN7Zk4ZT46iVdm2brEUKUv6MVPWiyFhPE+YaAXe8cS4qTmL/5zFtn1HqGNUixvOTjRs2Y7jB/eQUye9PWsKHO1tefsx9Jf0v3DsbNTcnAqlMl9eFJ4dRfWKY+vhjX6JAginYCd3H+obVpP13m9YsZBbdwKlvKUrVGPN8tQOvuntQciuoYGHyzUmTJvF/uPnMaxSNtkG5f8JQfj8/hW1qldl8bZjDO2thKnFT7h2blqNT8g3dq5fmupFzQjR799CcXJyZszoUSxavZWh/XugmUIbPa3rw75/xfqqbRJioqBMBX0a1ks+y06PIGTPrsGKeZO58yaOc8f2IjbFJE2qEoSwb19xdXVh2PBRrNy4HbN6VSV3rlXrN7Fr0yr067Zk7+aVsjrZ9AmjadBxML3apA5PpVdAfGwUXdqZcOfFN/p164yGVi7+mDuLXDqZmxnJqlQ6Swzi2ojwbzRt2ozpf61mQLe2yTYrid9VIQif37+knpEhRSvXxqSRMbrFKjBz4nB6tm+JxcjZDO0uLzoi7i82U/UcMILLllaUKpa+9W5KHLzdrtPcvA3LV61l77b1zF65k4FdW8uFS1a+9DYpfnjxCJPWnblo4LGIcwAAIABJREFUd51KpQolI1yqEgQx62vSohULlixn58bVLN16hDuOp3nwNpba5QtyytIRn1uu6KQ7+P5ukrD27j1kDFZWVhRLYtIjq9Fil3ZkOCXz63LVN1CJJQZ5padNELIRFx1O+1ZmjP5zA73bN5NcNpMmZQnCr2tjIzA2asA1Dw+mjRtGZaNGeNhdJFfJKhzdt1NWpa9dvciiTUewuXRK2uAsN+1Yt4Tgj9Fo/PiApaM77jdvopuFmz7TJQjZNTh3YBubjtlw87oD0ZHhyaqsagRh/NBelDFoRIDPDR68jcTV3hLtn94LXduaMXfDIepnFEFIUouJowZj0n0k3ds0lQunlG9wF3MUhapSpURe1m07QtCjgGRGVEoVlkbm9AiCtrYW7Vu1pGbTDqz4cyoi8pE0/U8IQnCgP37+D7Gw6JBhaDE9UK7ZXCHk3Q+GDeqllFmTWCq4eNlS8kDPrqlNzx7dZdnFyn046RGEH9+/ccnSmjZt26NXMH+WHXMUkY1LV6wk4iJ2E3fp3IknjwLwuOVN4eKlMDE1IX+eXLKqf+LwfioZNaeeofzds5Fh3ySzJoWGhtQmbW0dyYUwh7aWrHvKyZSeWdOToAcEPn1NG3MzxGawlEkVgiDcMa/aXZPChKI9efIVoa1ZQ6ys7bDo0gUdJdr14c0LtuzYy9TpMyighJmNMKS57e3J7Xv+lC1fCdMWzbK0jwqc0owgiLV2R3vy6JXAuG4t4n4uLSTiqipBSGyP3z1/ypSvRItmTYiKCMPOzoawH7E0NzWlfBl50ap3b16ybec+Zs6aLWtpIWWfEFGnc6dO07JDRwoq8Uzk9NP0CEJwwD2evPpAh7atiYlNTg5EuSoThPg4rooTGW3bIiKrN91vkb9gEVq2NEE3o2hMksbc9/Pi4lUXZs+cgpZMUzdx+dvXL3B0dJLMmkxNTShRLPNZshwME/OkRxDiYmO4cvkSteo1okLZ5EZN4lpVCcLjRwG4unmQJ58e5q3Nk42Zzg721DBuQqH8csZRhUTOqtc3o07N1Et7GWEQEfaNqzY2fI+IoaWZGaVLFFMGskzzprlJMVs2vnx4g4uHL23btk3Tzvp/QhAybc1/NEN6BCHRgjOpbWzSJqoaQfiPwqRUtdPTQRAfLLF0k5LxJhauCkFQqmL/4czp6SCIwSCt8+WiqaoShP8wTEpVPd1jjkL/5OcJp7QKVJkgKFW7/1bm9HUQsqGlpSmd10/PWEiVJYb/Fjqq1Ta9CIKwL8+ePduv00opS1cTBNXwTvMqtZJiFoL5syi1kmLWY6pWUsx6TNVKilmHqVpJMeuwTCxJ7cWQ9ZgqXaKaICgNWaYXqAlCphApnUFNEJSGLNML1AQhU4hkZ1ATBNlQyc6oJgiyofrnMqoJQtZjqyYIWY+pmiBkPaZqgpB1mKoJQtZhqY4gZD2WKpeoJggqQ5fuhWqCkPWYqglC1mOqJghZh6maIGQdlmqCkPVYqlxiWgTht2ZDwk578bc4e5p0c516k2L6kKengyCuSNyoJDbQCWmMpAZD6k2K6WOa3jHHpOY34qSP+Dspxk+ePKFtm9YEBT1Er1Dqo5s2NjaMHjWS4MdPEH36/6eUFkFI+e6n1U/VmxRT95I0CYI4qZUtwaQpcRyVxJaS9FFVTzH8/9BP0zvFIPpoSkyTmt/9q5sU4+PiCAwMoGiJUugV0JUEk/z976OhqYNB9WrkyEBNLelDFIp5Qh9DDGLKptjoKAKCHlKpSjV0tOWf/ZVzn5QEQYAvpGa/fI+gYoWyUp1fPg8h5PkrateuS+5cCZKWqhIEcaY6+GEAn0LDqF7DgIK6+fkS+om7d+9RvGQZKlQoJ5EROUnUXTil/dSgknOJlEcIT927cwdFdm1q1qhBzizUQEgoP5KwsLBf9RHP/NnTJ2jq5KVYYT2EmmbAg/tExYJhzRq/2qsqQYj4Eca9u/fQ0M5JLcOaknzz05DHPHv+mho1DSmkJ08WWEj0xsTEqvSh/PzpA/7+ARQqWpwqlSr+UmeT/VAyyZicIGRDER/Dw4fBVK5aTVIIFBj4+N6mdNkKlCtTShpA/u4phvCw7zwKfkJ1AwNQxBEU8IAfUbEYGBiQJ7ecI2QJhFAMdKqSj8iICO4/8MfAoGYGojeqoZySIAi8Xr54hpZOHooUKihNDPzv3+VHZAy1a9f+pcSoPEFQ8CgokLAfkZJwW3WDGhAfS1BgAOGRMdRQBs/4eGLj49HSVG4cjI2J4UHAA4mQa2TXxKB69Sw9ipuSIAjswsO+8ezFa6pVqyqdCvn08R0PAh9J7dfTzS+JT/1dgvAk+BEaOXJTrnQJaRz187tDiVJl0devIPs4fcI4KiYsCWJ+yiQh/Bf88CF5ChSmeBE9ZS7NNG9KgiDq+OHdG77+iKVCuVJkUyh48vghHz5/w6iWETm0NX9h+i+ZNcWxfMFclq7ZzI5DZxjQvR2D+vXi4/dYIkJf0rRtb0mhTE7asmoxPk++sHfHumRqb5ld+/3LRwb36YX1DR/uBT2WxGCyMiUlCOIB3PN1Z9CQEdSob8qZI7u4cPwgi9Zuo1WLxrj5PsTWxpLsJAx4o0aOIE+evOzbvz/NKjVr1pS2bdvxxx9//Pp979a1bNh3ilqVyxDyOhR7GysszJpSpV4znO2smbdoNYP7dpHVxKmjh1C3zQAGdJOn+59Y6Ig+nfmsyM339y/RLVWTk4e3oYR/VqZ1S0oQxCt3fP925i9dw5jZS/hzyihWLpzLFSdPiuXXJrdeKQ7v20FkVLRKQklxMRFYtDIhfwkDPrx+iFGL7pjXKsaUuQslJz47Vx883G+SUyvzlz/ong/Dxk7l5KkzlC4pX6v+9YsnNG3anFbtOnPd4SrbDp/DrHHtTHFSJsNvgpCN+Lgohg8awK37wdy9c5fY7x+kM9HNzDvgdt2eWYs20qGlsURu/04EYeaE0ew/fQW/O3c5c3AbB85epVLJAsRp5efcqWOyPjAPH9xh4JARXLC0k5z8lE3rli5g9qKV+NwNola11B4VypaXNH9SgiBI7MlDu5mzYCmzF61lyqh+rPxzBtd8HlK8YG4+R+fklJCXV8QprYMQHfGNiqVLYmzSFt38Bdi8ZRObli/gjI0rFUrkR7tAaU4e2iOrKbaXTrFw/UEcbC6RO6d8cbNnj4OoU78Jbdu3JV/+IqxdvYLcWeiMm5QgiA9t6MdX9OzeiyiNXNxwvoa/z00GDBuDRYf22Dlex97RhXw5s0sTRlWPOXo4WjFk4hwcnK9TNI8mJs2a06Ble5xsLZk8bxlDestRQlUwZmAvTHuMpndn5cZR8cAszxxm9uK1OIo6yJ6IyHrUErH+8uWLlFlget3uCmMnTaeueXdO7dnIhWP7WLBmGw2MqvP45TssL12QTPf+tQjCkwA/5i5eg9cNZ/5cs43eFibUqFELF++76GqEUadpB/zv+6EtIyhw5exxHr0JZ8r4Eb8kguXAdN3uMqes3bA6cwR7jzuyvRgiI8K55emdhBUqKFS0BNWrJDfkSEoQxMs/d8YUSXf9U2Q2Lp05QYfWpph0GcqsiUNp06IRg6YtpqNJfaljq0IQLp87Rc0GpmSPfEfDlp05uXcNc1fux83RiqPb13DY+iZ2lhfkQMOuzWupYtwKk0byZavjYiLZuX0nA4aOwNn2AmOmLeFx8ANZqmxiNnjTxZE3H0Kl+uUrWITWLZunqmtSgiBsg6fMnMend69p0LYni6YMpVH9ehy3dKGQ1g8aNG/NLV8/tBQxhP8Ip06dumzatJH+/QekKvfRo0fUqlWLK1cuY2aW8DILm+VNm7cxfPQ4Lh7fxRmPNxSODqFS/fYsnDWGru1a0nXMHwzqnLnj5atnwaxat4UFfy2ikJ58Z7bXz59y5Kwl40cNZd6kYdS2GMlQmaRNmDVZWl2VzJpElM2gVj0MqlRM1fZEgiB84L2drbF08uLS+XN4+N3D6dJhFm84jLubI8d3bWDbaSeuXz0rvWeqEQQFV04eZMvBszy868d1bz96tW/OUcsblMirwNDQmFt3/SmUP3P75VcvQli+YgNLVqygoIz8SRt+3eYC85ZuJNjPk6u37iuhpBiPg401X8IiJVlf3SIlaNm8SYZeDBpxUcyeN5/Pb59Rx6w7I/t0oFTJclx1uYV+CV1q1a6LlaMbVcqVUJogvH4aRBl9A/YeOEKDhvWpWqkiDYwM2H7cGqPyBTE0rI3b3QAK5Mx8icfXw4Wj5+xZvuwvpaKpPjed6D/uD9Ys+5N6xvUpXkT+ROvN82BuuPsg3Bnj4sG0VRuKFEgus52UIIh+t2bRbN5/jcbN+w6e7jf5a9YE3kQX4NDO1Uwa3g89A1Nmje4rPW5VCMKnty9pYFyffqNnMH3yaLydLjJn5W48bjhxZOd6tpy4ipBb15YhJrV1zTJqNetAs4ZGssbdxEwfXz+jYdMWjJ48j3GjBpE752/DpMwK8nB15uXbj1K2/AUL06plcgsA8f/JIgiKeGbOnMn3L1/4kr0gV45upXPr5oxfsIWWdfUxNjJi+6krGFUuJz2nfymCADHRkdSpU4epfyynu2ltjJp3IfjhbQQnqFi2Au53AyiSPz29awj098PJxR0xsInAeUxsLFVq1KZls4aZYfjrdxESr2lQGStn+W6Ob189Z+TosWTTSGAvivh4mpi1Z87Uccnum3KJQTg57t66Eju3+1w5d4rGxrWZtmQLHVo2YET/HujX78i0Mb3IrqEaQUiojIIF08dwMziM4a0MueD5mNNHduN33YoRc9bh7S4019NPV6+c5+nLd2hqaSGWgERYvLl5ewyryp9hCR/1Pl3aYdR6AH9MHCzrWYhw2oFdW/APfikNtkVK6yMsp1Om5EsM2ShQoABDBvSiaLUmzB7WhfqNzfC+fw/t+Eia1TfmqJULJfRySssSyhKEhHsrWDBrAht2n8A36BkTe7dlyMxV9OnQlLHDBpCvfBNWzR+bbhuFLPfx4yel8JwI3Yo+miNXHoYM7C8Ll8RMXS1a4+3/GB9vb4rInE3E/Ahl0ZLl0nKL8GJo07kXbU2bpEsQxA/CTCw28gtGxk3wvRvIoXULOecRgvXpvbjbX2LE1IX4+XmhraWpEkEIeRRAvQaNuenhRasmzbhx5zZmjZoQ9Oyx9N43NqzC/iuuVC1bOH184qPZt+/Qr3C4MBTT0slF/7590cmR+Ycw9ON7jI3rceqSHe3q1eSqbwB1a8hVDI1nw6rFvPoQJl58SlaswaSxw1JFyZJGEMSzz58vLxNG9qVsLXP6tWtGRYNa+NwLpLhuTmoa1mLP0Qs0NTZQmiCEPPSna89+FNbT5W5gCEEB96lnVA/vgEB0dTQwqWvAltOO1KyYftTq49uXnLtoKS1RiMmJWKosXLw0XTu1lxVK93a7xvQ/lxHx9SNvQ6O4c8eXAvkyJ3jiAT/wdWX34TNoaSV4MUyYOotKZZLXNeUSQ44cOrg6WTF13nJ8PG8xakBPKjfvzrSRPdmw+E88n8dxZMdiaelBFYIwf9pIycY9f05tfsRqMndkH6w8ArGxOsNNm3OMmLEUH69bGURJFFy5cJYXbz9K0WAxjsbGxdOybWeqVSgh471XMKCzKdd8Q8iZXYFm3uLc9nIjt468pZ8j+7ZzJzBEan/R0hWYMSn1+JRyiSFv3nxsWLkIhzuvOb9vLQ2NanPS/gYVi+vSp50JfaaulCKHZNP43xCEnu2bUa2GMfeDAsmnGY1+dWP8Ax+QUzP98G1IcBCePn5oa2tLHTkyKpLy+tWpX9dQxkNIyJJAEKpgrYxZ09dQTpw8ncyLoULl6rQybZYhQRAeDIf3bMLWzR/Lcydp2aIxvUbNYmT/rnRtb0bb/pPo19FE5QhCfFwMqxbNwvvhe/bs3IGf80VW7b+C7eUzCAvTtfsv4GxnmSE2N5ztJbOmnDlzEhcXI3nV12vUnMoyzZp+hH1jQL9eVKzVmFWLF6SaWaV3c2Fis3DuNDzvBUvXlK5kyM6NKzIhCKCTMxdjRw6iWNUmLJg4gLp163PNw5e8GhHUrdMAJ8875NZSEB6uPEGIDA/D2/cuNQ0NuHDmOAs3H6NacR3a9BzOlBF9JWe+hh1HMHFw53QxFWZNVlbWkpmNjo4O4sOhrZObLp06yOqjoR8/8OzNZ8qVKsz6lX8Rlb8Sq+ZNknVt5Lf39B84lMhYQcajGDByMoN6pQ6NptykGBP5lXoNm3P7XgCWR7ez6eBlrjvacOXkfuavP4Knq60UblQlgrBgxjh2HL+MYdVKuLneZOqcudhePIvdTR8KasdRvWp1nH3uUSzFLDJZg+NjJEnveAW/MNXU1qFD+3ayZL13rv2Luat3UrdmDVycnOg/ZjIHtm+QhSnEMmH4IJ68+SJNDCrUbMCmVYv4KdX/q4yUexCEt8T0CUMkgjCse2uKl63ETS8/yhbNRw3DWpy1dJSMcZTfg/DbXKhvR1MmLdzOhMFdOG3nTsUS+TGsWh0bj7uU0E1/ohX66R12Ds5S+FhbS4sfEREUKFyMVqbNlVo7//75LRX1DbjpfRv9CmVk4enucIn5K7dI7Y6MjmPtlt3Urpr82lSbFLNlw9PVnul/rMTb051pY4ejUaS65Ao6b+pofuSrzIrZCZMLpQmCIg7jKhXZeOwihvolKV+6DJOmTsLe1Rfna7ZcPLaXxRv2ccvDLYMoiwInBzvefgglZ66cCEnoqOhYGjZrKc+s6VsoRYsUw9LlFlVKFaS8flWcPG5T37CKLEyXzZ+Fm6+/RBDKVKrBjo2rUl2XkiBoammzY9Mqrt15zZUjWzBvbMyKvWepV7UkzY3rSD5JjYwqS5PifyWCID4ITtfsGDZyNF16D2HmlImMGtyTqnWbE//1BZ/idTm8U95Le+nsCR6+/s70iSNlMd5EtMK/f8Xe4Rrjx41m6bqdDOzdRZZZk9houGHj5l9ujmImUaNOA3p1TT74ptyD8PzJQ3Zs34SP/3NWr1yJzw1rjl25zuRRg1i5fiuWNnYUzKONpqaKexC2rGL0lHn8tXgZRQsXomfn9piat2L63L/YtWk5bXuNZv709Ge7SXvRji3rqFa/DSYNasjqlCKTsEGeOGoQ5518+XP2dHR0cjJo0EClPAsyu1myCIJCga+vNyuWL6Ng6Wos+2sem5bP4yv5KambHY97IVy9eFra2KjKJsU3Tx/SqEkLZi5YzB0PJ56H56KXaXXW7znJojlTWbBoOXbXb1KyUAbOgz8b9Or5E5atWs+iJctkW+GKSz1d7CU73127d3B07xZ6jZrD8D5y1j8zQ/L370kJgiCZjg62jJ88nQ2bt1OjYil69x/EzLl/cuzQXlp1G8r4Qd1RoFCJIHz/9oXPoV+JEXbHTVri6neHfRuWEPIVqpfWxfq6D852VrI+9K+eh7Bs9UaWLl9BwXzyNjaKVkeEh/H+4yfioyOpW92AC67etGigXAg4M3RT7kHwv3eb5YvnU6hcLaaOG8XaRdOJ1y1PldIFOXH5Otdsr6CjpaE0QfD1dOPIGUuMa1aWokU3vH1ZMXcKr8M1MKpYhKuu93Cxu5xZdaXfvT1ucPS8LauWLSKHloy13Z+lXj5zhJB34cR8fceBs5a4OF1DTzefrHvKyZRyD8LnD284fuwIew+fYcvmrcSFv2P8jAUsX7KA9evWsv+UJfol9aTNgUoTBGDW2EFE5CqNQYXCLFy+AUdbS3r27sPCJcvZvmEVLToPZOEMOeOogs1rV1K7eQea1Zc/aRWbTHt3MKW0kTkViudh5YbteNzyokSRgnLgkpUn5R6EwAB/du/Yxp2nn9m9eR1utme47HKXNs3rsuvgSZwdHcitI75Nmv8SQYiLZuP6dfyIVhATHUPvwSMprZeT3bt2Ep8jH6NHDCNv7pyyGnvy4C7uPvvO0gUzZM9YRcEf375i3aat5M2bFwUazJw5XWLQWZWSEgQRuvVwscf5prdEYvSKV2DEkN7YXD6P663bElEqW6qYtDNb1U2Kh3bv5NXHz1IZ2bNrMW78eD69e8WuPXuo36QlnTu0ln3SY+XCeRib98KsqfyBMyz0E5u3bBNxaukDoqWVhwmTxv1zbo6KeA7u283Hrz+kcK9JKwvq1dRn/57dfI/Jxojhw8ilk0M6iaEKQRD94O2Lp2zfvZvipfUZPnSQtAn2mq0Vtk5uDB85imqVU6/pp9V/Xj19yIgxUzl09ChFCsnfUCdmqbc9XTl1wZL6jU3obNFWmr1nZUpKEOKiI9iydYdkuBX2PZxJU6YR9f0Du/bsp16TFnRu1xoR0v+7pxjioiPZsW0nA0eOIoeGgsMH9vDhewyjR4+iUIH8spr3PCSYcZNnc+ToEQooQRASC4+PjWHzurX0GT6GYko8EzmVS0oQRPj8zIkjPHn2itjYaBo0MaN1y8bs272TD18jGD9+rPRBFhs/lY0giP1Qp44dIijkHQOGDKF6pfJERf7gyMH9vPkcLuEpd0nK3cWeDbvPcuTAdqUIwudP79mzaycKrfyMGj2cgvnyyIFIdp7kexA0ePrwPifPW0rjpGaOfEycMIo7t1y5YGVH1x69qW1YXTppo+opBoHpkUP7ePH2G6PHjqVkUT2eP33M1q3badDMjC4d28o+Dbb0z+k0btuXlk3ryW6vyBgVGcG+vTv4EBrN+InjKJSFhEuUn5IgXL18jruBj6WxpVpNYzq1N+X0scM8fPqWYSNGUERPmAomnAz5VyIISqH1H82ccg+CIAlimSHhrGnC+r4AXAy24oElnj9VlSD8R2FSqtopjzmKwTfxBJHY+xAXJ1wkE0ieWEtNPLevKkFQqnL/0cwplxjEkp1Iop9GR0dLyyNi/4Ton6KfivR3CcJ/FCrZ1U65xCD29IiJgcAyLlb007iE45nCYCw6WtqjIpKyBEF2hf7DGVMuMYi+J/CUvlgoiI6OSXDkFRsd4+KkfyKpShD+w1DJrnqqJQZNTYn0CETFtyk2NqF/ijFAHGONl7BWEwTZAMvJqFZSlIOScnnUSorK4SUnt1pJUQ5KyuVRKykqh1dGudVKilmHZWJJai+GrMdU6RLVBEFpyDK9QE0QMoVI6QxqgqA0ZJleoCYImUIkO4OaIMiGSnZGNUGQDdU/l1FNELIeWzVByHpM1QQh6zFVE4Ssw1RNELIOS3UEIeuxVLlENUFQGbp0L1QThKzHVE0Qsh5TNUHIOkzVBCHrsFQThKzHUuUS0zNrSmqIIQoXm27EZrrEDXXqTYrpQy7HrCkR06RmQ+pNiuljmhZByJZN9MkEIxyR0jIaUkUHQeWX6T92oRyzprT6qXqTYuoHnR5BSDRn+t1Hxeme3+OoepNi+i9NemZN4orE79Cvb5MwwPpZ1L96iiEmJhp7O1uqG9aVDDFEEiqFbp5+dOzYQZaUpbhG7F5PPIKh7DgSHRGGrYOzpBeQJ2f6YiLKlptQrzg+f/78a3AVMpVB/nf5HBZN4/p1iYtXIM6d29naUrdhEwoXTJDgVZUgRET84JqdLR9Cv9OshSn65UvzLOQxjo5O6BUthbl5S9lHDkUHEqculPUY+frlM1etrVFkz0G7dh3QVeH4WUZYpz7FoMVN1+vkK1ySqhXLSbvCo358x/mGOyampr/6kKoE4cun91hftSG7Th46depETu3s+Nxyx8vvLkZ1GtDQWKYvgkJBVHS0tEtd2fQ4yJ/rbh4UL1mOVmYmsnwKlLlHMoIgBMfCv+F68xZm5q3IhkLa3SzO8YfHaFC/bq0EUx4N1YSSEuv16f07rru507ZdO+koqhjYvTxuotDOR/06NWVVXwxkYge7XFO3lIV++xLKVVs72ra3IH9eecp/siomtBYiIggPD/+VPbtGNjw9bqJbtDSVypeWRJ5+fP+Cq7sn5ubmv/RblCYIinhcHO159/m7ZK7W3sKC6LBQ7J2uC1pHoSIlMGneWFa1E06pxP06BSTrop9H8sQYFhUTS3ZN8d63laVoKbf8VKcYsmfn9fMQ/B+GYGZqIvUd0UddnB0pXlafCmVLSUX/XYIg9Bx0i5XFsFqCyqbw7nF2vYV56zbklGnsJ06siHFfJbOm+DgcHewpV7UWFcsUlwuXrHwpCYI4pXT/ri9fozRo8PP9E/YADo5OGDdsSr5cOf5tsyaYP20syzbsZN+Jiwzt05n3r57QqEFjnn6J4cObVxTMK09/euncKbgFfebKmUOS257cFP49FPMmjfB48IygkBdULi1fQ1zOPZLrIGTnvo8bFl1609jcgnNH9xIdG8PUsSM4ePICZ6/Y0+KnXreqBGHzigWsO3CBpnUqcet2EL4+XjSrV52Grbpw9cJpRkycx4LZE+RUnT4dzWnRezJjBygnytOtdWPidMvz7W0I8TlL42RzSiltiswql5QgCF32fZtXM2vRamYuWs+cCUP4FvqeNiYmhHyJklwY9fImfJBVIQjxsZHUrVGFSrXNePf8HuXqtGNkZ2M69hrG5Inj2LRlG74PgilfLHNvBX/vmzRp3YnbfncpX0aO3GoCEi9CHlKxsgHDR47lyrnj7D51lfYmxpnBpNTvSQmCRjYF7c1MefTmC/4P7pNDA2652NGtzyAsug/g4M71/IiM/tsEYezQvpy2dOL2nXuUKVGYqB/f0K+oT1OLQRzfvVYWMfX386aRqQX+AQ8oXUx5EZllf0znr1Wb8b4bhFH1CkphllnmpARBCJ8d2LGeafOWsGTddiaP6Cu5jpq3aE7Iu6/4+d0mx09dImUJQlT4V0oWKUxD8/YUKKDHrh3bcLI6y4CxM2ht2pz6Tc2ZPmlUZtWVfr94fD/j528i6J4XeXLJN2sS8tm16jSgbft26OoVZ8O6VeTOwslWcqEkDcK+vKNZMxNyFSyGm4sTgnztWLeMP5etY9Ha7Ywd3PPXhFEVoSSBhZvtObqPmMmjR8Hk1dEgPjaats3qUbZua/a4ZeMyAAAgAElEQVRsXSsLT5Gpi1lTLIbNYkT/TrKvScx49tAOZizZTMB9vyx3G02mg6CRDUfLc/QbMhqz7sM4sXsd0VHh9O/aiWue97nh6Uf1ckWko47/WgTh5ZNA1mzdh/X508xdsYlhfTpzaM82gl+8Z8XKtbz//Fk2QbjpbM+Lz1H07NpBKSVFT1cnHDzus2fzSmzd/GSbNQmrWodrjsnMmoqXLodx7eTGRsnMmohn3cqlhIaG8uxjBGePHSDwni8HT13i0J5d7Dt5EZNGCbNRVQmCu+t1ylYxJCb0BQ3NOnHHxxNvH1/at2vDzAlDeRuty5HdG2V1VMvzpyldtR61lBg4RTTE8vIVzNq0w97yLGNmLCMk+L4sti3C2cJs6snLd5JEqF7xMgzs3S1VXZMSBDEDW7p6IyFB/tQy6cifk0bgbHeZe0/esW3jBq673/pbBCEqIpwLFy7RoWNnju7ewHnP12z/aywvPobRpH4tzJo3ZetxS4z0M//gC0OpE2fOM3DQEPIrISTz6cM77J3d6dKpLZOH9aF578n072Qq6xnGRn5j9979RMcinb1vbNKKRvVSm28lEgQx0/H3uoGLtz+7d27nlu99cmSLYv3qVXz+9I4Pkdoc3LnxbxOEw9vXct7BEz93V6773EE3h4JWrcyoXrkq37SLcu7wVqkPZJY+vn/D8ZNnGDp8FHlzy5tMJJZ5+eRBNuw5QaCnC1Yeypk1HTu4l/dffogD45JnSN8enTI2a1LEsm7DZkICb2PQtCNTRg3Ew8ka19tB7NyxB++/QRBePgmgXOWaLF+5llZtWlO7ZnXWLZnLRZcHjBjch06dOlJAZn976H8HexdvRo4cIjt6K/AUXgx9Rs5izvSJtO3QgVLFMvDRSPFQhWnfBSsHyU8nNk5B7wGDKV00OdlLJpSULRt7t6zh3dcIrOydueniROiH1yxfu5XbN6/RZegUxg/t/bcIwvvXT2lg3IDBE+YwZeJodPPkYtem1SxYu5PTp07RvLGxrP4pka5TR9E3bESNavIE1RLhefcimHqNTJg6dxGjhw+UVAzlJquLZ3j09JWUXa9YKQb26ZHq0uRmTQpWrlyFeJ9e/tDm7P5NPLzvwxVHL84f3cWuE5ZUL/svEwRR46RmTcN+2hB733KlYRNz3od+yZQg3PX1xNrOSWI1IhQuhHFq1m1Ih1Yi7CQvqWLW9PHda+b8MV8K6YkkPm71Gpswemhyl8CUSww5c+Vi79ZV2Lrd5+yxg0RGx6BBHOXK67P36Nm/TRCkusTHMWP8MEkW+Pj+bWhpavAsOACLLj3YuOswZk3qZgjM2RNHCH72KsFk5KeYU+uOPahXs7I8QEUo7usnBvTpTaveY5kwpLus64Ri4K6t67j/8Ln0LIuVrcwfMyZmSBBExvz58zNsUB+KVmnMvIlD0RBCVLERVDGoy3V3z79FEBJurmDL2qWs3LSbXYfPYWFaH7Hs0L59B0nx097GmrwZWNt++xrKnj37iIuPR0tbS1INzZlHl4nj5M3qEgEYP3Iw1o5ukmZ+JZm+GNHhofwx/y8iYxSSWZNF9/50aJXaITNpBCGpWZOP3wM0iSFXrlxsW78Ir8APf5sg3PO5RftufbCxtqZtCxNcbvtxcNMKHn/XoYNhUY7deMjlEzszJvpxUazfuEUywJEwjYpGO1ceRo0cKWsJ7eXTYFq17cjhE6dp36A21t4PMDaU27/jWLV4Pi/ef5PUO0tVMmTm5DEZmjWJZyjUWieOSjBrmji8H3EKCAt9S53G5vjd9iPHTx8eZSMIL4Wa5KSpFNDNyw03D1zdvXC5ek5yhxRGTkUrGnHu2N4M38F3r59x8MhJKSqkqZldEscqVqoCA/v2lOWO6+/rzrJ12wj/8gG/oBfc9r5FQd3M5cdFpe57ObN130lpvImOVTBt9p9UKVcsWX1TmzXlwNXJWjJrEgRBLDUJ75i2LRth1mM0E4b2+lsEYda4QVjdfEDxgnkJfPYWN7tLNGvWlLqNW3Df15Pew6aw5I8pGSwbKDhx5ABPX71DW0v7l/BQ++79qVU5c48KMYb3bN+cx5/iKZhbizdfo6V26uaVpyy8f8dGfB88lkhM8TKVmDcztXdLyiWGPHnysXH1Ihz8XnNm/wYU8Qp0dfNRx7AaWw9f+t8RhLp16jDlj+WoQhA+vn/L0+cvJScwsbQQERmJXpHilC+TsAYlJyWaNVld96VyKXlLDF9DP3Hg0GHERq4EgqCgcjVD2rdpmeyWqfYgaGTn8N6NkpvjueMHCY+IIi42mipVqrH32DlMGxlJHVvVCIIiPpaZEwbzKlyHA7t3oJNDm+ePH/w/9s46rKqlbeM/SpAysLs7sLubYx27W7HF1mNjtygoqIhidysmKmCL2IqY2Ioi3fu7ZiEeNrXX3vKe7/U9e87lH4c9M2vmXrNm3et5nnluatVtgvP2vbRoXFcl8/V78pBvQaEYCbGm6CiiomMoWKQ4OWWmohX6FkK0qkXnAcycJB4iOXchPnuXdZ8uXLx+X9qUipavwfG9W9ImCCLznFG8WFPu0rWZOqo/cbFx6MRFUrZiNS5duU5WU81dDJFhQqzpHpWrVuLsySP0HDEN74sn0MtgQs7smejbswuteo5kQKdWqU4yKjKSe/fvSf5gE2NjyS+tZ2CIZUV5fvbAr5959e4bpYoVYN2qBbwIM8HOdrIsUMO/vaNO/SaERSuIigxn9NT52AxJLnWdNEgxKvw71WrVx/vOI/QVUVIsygb7hdzw/RJPEMIjNXYxTBo5AIct+zA3Nebzp8+0/rMDNzzOE6trSGRYKJFxOly7fY/yxfKnPse4WLx9fKRnJQFTXX0DypcrJys+Y8XcyUxb5ECWTGZ8fP+BZu274nZwlyxMhVhTu2b1efQ6AOJiKV2tMfu3rVct1mRoyPhR/ShQsakkSRwZFU3wt49Ur9+SOz5C1j4+DExdgpCw/4jnrG+nlvQYvYgW9cU+osPXN77Ub9WLB/evpzk3IbD28JEv+gb6kgZGaFg4xqbmlC5ZQvbzK/bAiOAAihQuwaXrPhQvqvpFKAZ17pArA21mYmRoSHh0HDsPnqR2RWVlzZSCFK97nWX8tIV4eVyQ1BIFuWln1YhmEkHo+tMcrraLQRFDlWJF2XjopKS8WChXLmbYzmfbweN4uJ/l5F5Xpi1ZK8WTGKUah6DgyaOHBIWESWJyYh8VKq6FipUkexbVGhXh3wPIljMv56/cokTeLOQvXIyzXreoaVla1hodPagnpzxvSXt9sXJVObZvW7J2KYo1rVrMubvv2Oe8ipiYaMnSWa1KBRxcD1O6wD9sQVDERrPJeT0zZs2lXrM2zLedi17UV9asXYfdGidWr9vAiCHypIJdN67jgX8QC2ZNkvxRcsu3Lx/ZsMmFZUsWM3z8DIlpZdBXLakZ/P0bu/bs/UkQxE5VuGQZmtRXltJNGoNw99YVVq9ZzaPn75k8aRpWLeqzY5srU6bNolvvgdiMGU2+XBaSRWTI4EGYmprhvGlTitMRjLZly1ZMmzbt5+/LbKcw2XYZvfv2J2eOHIwaOoj2bVrxJUKP9lbNKF2uCtaDesuCZ8HsvyhTpw3tm9WSVV9Uigj5Tu9uHThz7SG9u3fBxNSMGTNmYpJRnnksIUVqwgVF6tSkJalY07EjB3FYuxaznEWYNW0qebObsmvXbpYuX8XEv2YxbEh/FLExGsUgCE322rVq06ZrH1489MYgTwWsLHMxz34rA/t0Y9v27Wzdd4xKJQuqxOi57wOmzV7I8pV25MlpobJ+QoU71y5Rq2l7Jkyw4eyJw4yevoRubZrIbp8YUxEoJTbSpOVvgqBDXHQ4mze7sGDxcsZNnEKfXr15/vg2q9fY8epDMBMnTKJ5swbSF74mpxiCvwfyNTCQqNAg6tdtwpnLV7EwN5JemMd3uHD42nOO79+Mgb5qsaAXfo+YOmMudvaO5LRQvfEmzDssNJjPXwKIiYygWtly7L94nUa1K2uEqWiU0jpVikEwMJD0O1YuX0Km3MWxGTUKy7JF2LB+PQuWr2HixEn06dULM9OMahOEqx7nsHPcQpliBdi5ez/nL1/HacU8ovWMeXrnOqb5SuFsv1zW3C6dO8H6rYdZ72iPsZF8TZpdW5y4du85MSFf8fR5gvuZk2SWGfQpiIUIehUER+i3CKn7pAF9SbUYhK7J2nXrOHDsLNPE3tn1T44e3MuCBfMpUbE2UydPoVypwhqLNc2dNJy7b8IpmiczrnuPSOJhwiLasUdvzp84RMlqTVm1eJYMd3YcMyePp0aLLvzRWP4+Kj70hvZoT2jGvOTJYsQhtwt4eXnIIhfiRgs8BZpp7aNKBEFHh8sXz7Fh40aevA1iyTxbalYpy649u6V3Y9e+QxlhPYhMphklV9A/osWgiI1itd0qIqKRTFqdewxAN+IT2/ccwszUBIOMmRgzUp4Z9sBOFx6+DuGvSaPUCogTroKVqx3InCkTMQodxo+z+Q+KNelx3es8Hld9JGtH5uwF6dnlD0nkJEahJykOdureh4J5smlMELY5b+B9QCCxcbHo62egU9s/2HPgoBTZH6eIo3DRsnTtLC9YZuUiWyrVb0/D2vJVyEK/fWGt43oUenrExQmxJhOGj7Amoxr+M1U7WVKCIERVAoMjJDdP3UYtKZzbDKeNrpibm4GOPiNGDteYIIixCEGvdU7ryZW/GIMHxJMrt2MHcPe8TqeuvahWSZ7a5btXfoyZ8JeET3YL1UGNiXG4c+Myew8do1qthrSxaibL7KsKx8S/JyYIsVFhrHPagK6ePkHBIYwYOYaH3l5SPIKOjoIc+YrTtWN8rI8mBCHhukKsacN6Z3r06y9ZE0R54nOTh2+/8ecfzWQN/82r50yYMod1Tus0Fmtat9qOTn0HkVPNe6JqgEpiTRkycGD3Dl69/SC5eqrUbEjdaqWxX7sBPX0DQkLDsR46jExm6hMEYRnavcOVpy8/0btfP+mExOsXT3HZvIU8hcrQp1cXDA1Uf/SI+dy8fIG1Ww7jaL+MDGqoOYoPpvVO61Dom2E9bDBmGdWLB1GFZVKC8PrpA/YeccMwQwZ0DEyxHtyHnVuc+RYSKekGNGzRlsrlimlMEIQ0uthX3nwMYuiIYeTIkgn/l8+kZ7d8lVr06Nxe1ZB//r5s3nSqNe5Ig9oyTzv9aCmI/ab1DnwKjGTUmJGYG8tzL8gdWFKxplPHD/HQ96Uk1lSiTCWa1KuK3Rp7jIyMpWD6vv0HkcXc5J8LUpQ7kd+5XlIXg46u7t+sUzDnuDilrw9hZv8VF8PvjJXcsSc95pj4601sJII3iyNPP19EP4RbNDnFIHdMv3u9pC6GxJiKNSysDonzIAicf/WY4++OmarxJz3mqIxhnESgk+Is+tTExaBqLL/770ldDEktYWKNJtsHfkTcq+1i+N3Bkjn+pC6GlJ7xlNbnP3aKQeY8futq2kyK6X/7tJkU0x9TbSbF9MdUm0kx/TDVZlJMPywTetJqMaQ/pmr3qCUIakOmsoGWIKiESO0KWoKgNmQqG2gJgkqIZFfQEgTZUMmuqCUIsqH6z1XUEoT0x1ZLENIfUy1BSH9MtQQh/TDVEoT0w1JrQUh/LDXuUUsQNIYu1YZagpD+mGoJQvpjqiUI6YepliCkH5ZagpD+WGrco5YgaAydliCkP3Sp9qglCOkPtpYgpB+mWoKQflj+VgQhLjaGixfOU6RkeQrmy01kRDin3U4SGqWg9R9WmJqk79GOlGAWSTbOnD1HnfoNMZV5Xl/u7Uou1qTLm5fP+fQtlMqW5aXI8Ad3bnPnwRPqN2xE3tzZfxwPNNAoD4JIbuHhfo43H7/RolUrcvw4uiWO/pw9e5aqteqSTWaGM7lzTFpP3MMTx46i0DemTWsrKZNjepakFoQMGTLg430TI3MLihbMKyVK8vK4yNfgcBo3aozpjxS8mp5iiIoI58iRwxgYZ6Jd678TIj2+f5svITHUrZm+uggpYfX143uOnzpNgSIlqVe7xn/wmOOPq8dF43XlOrXr1JVO3QR//8qZM2fJU7AodWpWl5Ko/OophqDAr1zwuEyzZs3R143jjNtJAsNjsLKykn2G/lfXlciH4OZ2mibNW5HJLP6oZXqVpARBRH8/uOuNUabsFM6fV4q6v3ThHJ8CgmnRogUZjQykhGuanmJ45/+COw/9aN60CSiEyM8pvgZH0qpVq5/HSNNrbkn7EUctz58/T3RMHLp6BjRt0gRDQ/l5FFSNK6VTDCKB2P3HftStXVPKaPv6hR+Xr96kYpVqlC5eRDohpplYkwJP97PS/iGd3NGBuvUaQEwkR48cJW/hEjRpWFfVkNPt98seF7DIW5SSRdJIHKbB1ZIlStI34OWzJ3wJjqZS+VJSjyIj5vPX76nXoKH0LhHr8x87xRAZEYbLutWMnTJDyqzWr0trrPt158b95+hGB1G9cRcc7ebJmvq2DQ7cfR3EItspMpJX/N2l2KQmjhjExt0nePjCn5L55ecQlzMwJS0GHR18H/rQuXN3yldvxP6dzrgd3s2QsdOpWaU8vi8+c+HCWQz1FOgbaEYQdmyy56/5dlIu88CIDFz1PCOJphza5ULXPkM46XmXxjXKyBk6c/+aSJVmnbFqVF1WfamSIo6Rg3ty89E7IkO+UNKyGTs2r1Trnqi6mDJBUHDq0B6G20xg8MT5zBpvjd2iWWzadURK022ctRAnDm8jIiJKo0RJIgNa1/bN+RCsS9CXN1j1tmHR1OG88ntM1VoNWOawkb5d5IlZvfZ7xNBRE9m0xZVcOeQLC31+70/5sqUpW6UuIsvljkOnqFNZXkY1VVgm/J7YghATFYHN0IGcvfaA+w/uQ0QgVq1akj1vYe7f8WH6Qnu6tWskHcf9lTwI08aPZJ3rPnzu3OPIdgfWuB6nSA4TooxzcOrQLuk8tqry0u8Jw22m4LptK9kym6qqnux3+2XzsJky5z8u1iTI1PEDOxkwdAwzF69h/NBerF06B6ddJ8llYUpojDknj+1CT0czghAdGU6TBg2o1KgNK+dPZ+WCmax13UcOc0PylqrKvm1pp1pOAMbz/ElWbdzLts3r08gSmBxm8TxUqdWAUiWLYZ4pBzt3bU9XwqUs1qRDYMBHunboQAiGUgripw+8adzqT+rXq839B085e9GDbOZGEglT/5ijghH9OnHr8VspZ8W9B4/wunKVSaOtMc6Ug3t3bjB+xkpGD+kmY70pmDlhNLVb96Jlwxoy6itXOX1oJ/1tZnHtxg3yZc+kdvu0GijlQQBuXb1I/34DKduoo6TF4HZoFzZ/zaV4oTw89w/kyhV3jAz0/zmC8OyBNyMmz+PZvVtMXWRH3y6tObD/AI2bteKb/z16jLbl+gU3WaCcPX6IZ59CGdKvp+zUoKLjs8cPcPjSPY7v2oCb523ZYk1i4bx5K8Qw/s7aaGxiRo7syhnyEhMEobkwZtgQjIxNeRMYyYEdm7lw/ix6Jtlo0qAGVcqXZt2OI5TMn1PKVqVJJsWL509TtHRldCI+U7luc+7e8cH/yV3adu6HWQZdHHYfp6lMgrDd2YnSNZpSuZx8kRGheLZnz15atWmPx5kjDBg+lRevnmIi42tCsNM73jf48i1IuuemmS2oWTV5cpHEBEHIr/YdYoO+IoLKDdsya9wg3I4fp1LNekQH+mPVdRD3fW4SHhqqEUGICA1mx649dOzSjTMHtrBouwc33Vxp07whlZp0Y9bkkbIzd35578/i5Xb8NWOWlOJXbvn84R3Hz16iZ7fOzB47gEJ1uzK4q5Ws5nHREVzy9JJEcITWRZGSZSj6Qwo3cQcJBEGkVL5+7ghuV+5zaN9urty6S3jge06fv0y3bl1YOGsSTwLicLZbKPKLa0wQju92YbXzbp49fMC5694smjyc6n8OpVYhI9r3GY3PrStSmnBV5eM7f5bZrWPmrFlp6mGk1I/HqcNMmr2YN4/ucdjLh8pl5a5zBdcvexAUFiVlqzPLmoPqlSom23f+tiDooKeIwmbcZOLCAyhZ+w/GDOzOnl07JKVFfUUY1arX5tb9x1iYm2hgQVAw3roXr0Mzsn2zkySyVLVCaTbsPkmZwtmxrFgJL+8HUk5/VeX+7RvsOXaeGX9NxEAGQUvo79a1SwywsWXT2hWUL1dWrSRLnz/4c/vuI8kiJSSwq9WoJSXkSVwSEwSRKXfOpJFE6pnj7nWVy5cu8PTxPZ6/+UbHP63o3KaJ9O5oUauilCBOfYIg0r7HSV/L+zY7Yeu4nytn93Ly1Hk6d+qI7V9j8H4dwuEdm1SmrRfrY4uTPeVrt6CyGlo2Yu4RId8oV648S9du408r+dpCou09n5t8/BIYv49mykLNasn1d5TFmuIYPNgaU2ND3kcacWCzPVc83Mmapyj5LAwpU6E6XtdvkjOL2T+XSVEMPiWxJmHO7NLuD5p1Gsi4kYPSXNNi8z919iJ6+iI9J1IWrbKVatKyST1Vz8LP3zURawr49J458xb8TRAUCixr1GVAr65K11V2MehIOusuTis45XlPUnOMjBYJPnTZ4+LA1iOeHNy3E6GIqKkWQ8LFp08cxaO3ITivXkTXrt2ZOm8Z02yssV29hSYqCMLBvTt49uodQqJWZCcUWS6bte5I5bLK+dHTAjg6MoRuHTtQrUUPpozqJ+teSGJNa5Zx7+lr6cHLU7gkf41XLdZkYmKK9YBe5ChZ66dYky4Kxo0YRJxpXlYumiPlQdfUxSAGv3WjAxOn22K/5TAhL7wYP2s5LRrV4+mL1+w/eJQCeVLX8Aj6HiilyxZf3OKLRqwJIxNzhlunvbaTgjZ90hjWb9nNlRu3ZWvDR4V+5a/pP8SaYmJo3bEHrVWINQlFx5jw71SqXgch1mSgE4Nw43x+/5Ju3fsxf5UTVcrGSyNrYkHwe+BD8/bdObh/D22aNMPjzj08Tu5jiM008mYzo1pDK7Y5r03bjSKysNqvlcSa4jGNQd/IlMED+svK2hnwwZ8mLdrisH4jHerX5KT3YzUIQiyL5kzH/3OwpOaYr0QFJo0eStL3qbKLQQdj44yMHd6bAhWaMGpgz/hEuIo45kyx4VNsVuwWz5SE1tR1Mdy4fJ4a9ZrToUMHnjx+iMvWXfTq1JGrdx+S2ViP+pXKse6AO2ULp24d/fT+NVt37JVe0uJfbEw0OfIWpkfXDrKsfw+8r7JopQOh37/y5ls4p48fIbNMBckEsSZhuo6JUTB26gxKFkxbrEnUvXLp1E+xJgGlgYE+nmeOMsV2OafOnMNAV+yt+hoRBNFfbGQ4TRs1ZIHjdmpViN/7vn1+Q0urdtguc6RFg7Rciwr27NjK63effojexUl7kFX7bpQrLsNVEBfLwO6tufnsm/RMROlkZP+eXbKtMs7r7Lj94Kk05ryFijN1wphke3BSF4PQtHFYuYCzt99KYk1igYr3ld1iW05duc+eHVskQbJ/zMWQEkGIioxg7MhBfFNkZtsGe5Vpk30f3eOS17X4zHk6OtJGUbyMJQ1qy/cL/xRruuBNifzyxJqEn/3uvftKoGexyEGxIso5+ZPGIAgy4LrBjlNeDySxpsjoGM6d2Mcwmxlc9PL6mWtbU4Ig5r9x9Xx2nrzBudPHcFw8kwX2mylZvCg3b9ygbhMrThzak+YL+/TJI7x681FaCIIgREfHUKdxS8oVV603IDqODA+hT5d2mBe0ZIPMHPCincgiObhnR9yv3ZPIXvEKtXA7mFxkJGkMgkgFKsSacpWOV3PUQcHKhdO5+vgTe7a5INKmiqIJQRCWonfvP5AvXz5OH91LL5v5NK1YiPKN2zFt9ED6dOtAVavejO7zZ6qYhgQHsWfvvp/+O/FgGhmb0bN7F1nEKSI8jG/fQ8idKwdLbKfwPjYbK+dMkNVWiDXVqF1fiumJiopg7LRFjBuaXIsjaZBidMR3qtasj/ddIdYUTWjQVxrVb4TNjLn069ZB0k3QNAZhyuhB7DnlRb4cFly5co1xf83kxplDzHXaQ+lsOpSvXJ8nfr6Y/ki/nOJEY6PZsnWbMkEwNKZr584YybBWrZo7hRUu+yiSPw9elzzpPMCaHc7rZGEqxJpaN6rNw1cBkq+/TPWmHNq5UYZYUwbGj+xPQct4Ncc4dFk8eyIXb/ridvwwkZHx61RdguC8cgn7br7g5PZ1OK1cxP0vCi4f3c6+U54UzGlGpbJlOX75NvmypB7PFfDpHYeOnpR87vEEIQaLXPlp+0dzWQRBfG2LthFBARQuXFwtsaazB7fQb+RfGBoZEREdx54jp6ljWVzpXiQPUtThutcZxk9bhJeHu1T3le9d2nfqwZbdBylfoohEwDSLQYi/9C7H5Ww45sW5Ywek///84TU1q1Zh4jw7hvbroWKtKDhx9BBvPwRI4mFi/CImomGz1pQolFvlOgv//pVsOXLjfs2bYnmyUEBNsaYR/bvhdumGdJ0SFWpw8uAOlQRBCB6utVvMuTvxYk1i7z+625nlG/dz9vRJdBUiy+8/GIMgBClOHDvCsJGjad2xNzOnTmLy6IGc8rjJwP69Mc+am8njRqoEU1TY6ryWe/7BLJypnlhTcOBXTri5YWMzmhnzVzGkX3f0UxAISjoIkXt8774DEimRihBrKlGaRvVqK1VVcjHo6vLc9yEODnbceezP/Hnzeefnw6SZ8/ijXScsMpnTa8AQCv2CFoPd4tmMm7GIwYMHkS2rBdZDBhISHCIFlfXu2YOJtqvo+ae8PPe20ydRoWFH2jeV7zuLjQqnf69OuF1+QJ8eXTAxy8LkieNlSfAK4IK+f5eYtigiR33mTMkFeJJqMVy94sWSpYvJnLcU86ZPYcemVaxY58qA/v2wsMjO+PFjiYuJ1oggfHrznDJlKjB66iwe3fLkM1lpX60Qmw+eZYx1P+bMXcC+E+5YllKtXPfi6UNGj/+L9RudySi/IGoAACAASURBVJ1DvljTTS93Wv7ZkxkzprJ9kxNDJi9iULfWsp4LYZX59u2btFmKh9vYxBTjFPLkJyYIwk108sRRxk2cyqIlK6hasRR9enZHxywXzerXokDxcvTs0k5jLYYvnz/y+ctXIkO+06p5a464X2TJjLFkLVqJUnnMcNi4nbt3bqc4zqSTfvnMlxHj/mKTiws5s8p32wg11ncfPhEdEUaj6jXY6nYRqybKQmtpARz47Zu04ae1ThNbEISVQwR8LV4wm6wFy2MzzJoD2xzYsPM4Xbp2JYO+AaNtxkpyvuoSBM+zJ2jXczCL581hvcMqpi1z5vxeBx5/iKBikexc9nmKp/tpWevF87wbq1wO4LpxLcYJ+tMyWm52WoXv2yAI/4LrvtPc9blBVpluNPFRKDQ/BMEQVrZMmTMnE+pKGoPw5YM/W1w3s2XnIZYtW0Vmoxj6DRxC1TqNKVmkAK3ad6PKL2gxBH0LoFb1KsxcsZGubZry/fNbWrVsztc4E9o1b0TRUhUZ1K+7LPIkLH81WnajjTpiTbExdG7ZgCzFqlE4pwmL17jw5MkjcmWTF4cQHBREVHT0j/WpL2kNJS3KMQg63L97Gyenddx//Y21Kxbz+KY7w8b+RZeevcmdIzvWw0b8s1oMiphIZs2YRmgUEnseMmIcB3Y4ExIWTkRUFFks8jB39lQZyxNcN9jz4FUQC2ynyvYJi44/vH3F9FlzyZw5M3FxOixctECSO02vkpggCDZ73u0QJ89dlsyROQuUIZtRNI+evyQ6SsiBxmE9fCwliuTWWKxp9ZKF+H8OICJSSPQaMHvWLEnTW5wWcVi1ipade1O8QE5Z01swawrl67SlTXNl0pNW4+CAT8yxnY/ih6a8gaE5c21nYWIcL7mcHkWZIMSxavliPgeGSubeth17cNvzNB++fScyMgpDI1Pm2M5GKIdqYkEQ47173QtHF1cscuZjytQpGOnEst7RgRs+D2nfuTttWzWVNa0Xvg+YMnM+q+xWkzunPEuVxD1jY9i/eztu5y9RrmI1hg8dmK6CYhIxExtKVJREeGMiQiTiI8SavgcG061zBw4dO46+vi5RUdEUKW7J0CE9NSYICWDFRIazeIFQUZ1AWOBnVq5YSWhkLD36DaJeDXnCNi+fPWbi5Ok4OG0ihxpqjgljEGTIdtp0Bo2bTD41FDbl3PDEBCFDBkOcndbw5Lk/MVGR1K7fjLtXLxCloyfhHhUVx7QZM7HIYqo2QRBuiQO7t3LynCdVatZjSP9eBAcGsHLFCgKCIxg9Ziwlisqz/nmcO4GD8z5cNjlJpyrkFr8n93BY64RCz5jho0ZSorBqwiy3b1FPWaxJj6f3b0juNkPDDBhktKC2ZQkuXLkqWT6ExfPPLv2oV7OcpLarSQzCpzcvcdq2n8kTxpJBX5cXD++wytFZcgeL+1W0RCXGjBok4zSRglmTx1CzeTdaNZG/j4o5hwd/Y8HChXwLjmLEGBtKFyukDmQq6yYVa9qzYzO37j7GQE+PKrUaEh3wmgfPX0n7qIi1E8quObKa/7MxCCpn8ZtXSCbWpKOTSMpUITHmxNKmwqyjFWtK+6YndTEkli8WG4nAMzGm4m+iaEoQfvMlKGv4SV0MiTFNMB//3ZFCOoqrqYtB1oD+ByolPeaYeF0mxzT+JSiKuhaE/wGoVE4hmYtBuEISrLc/rGPK+6jYW+PN4ZoQBJUD+h+okJJYU8K0BHaipLSP/mdiEOztsbWdw/MXLzExUY5Q/R/AOtUpCIIgTLxJ9c1VzVnEIAweNBBTUzMpwC2lUq9uXVq2asm0adNVdfc/9buwNoWEhKg9p9CwMCpXqoSd3Sp69uyVrP3Tp0+pWLEiR48eoUkTeVYBtQfxX9oggSCos04TCEKL5s14/MSXbNmSW0Xc3Nyk0zjPnr+QgrX+TSWBIKiDqcBHBITWqV2bsePG0r//ACXILri707ZtW/yePSNHjhz/GjgFQRD7qLol4Zijj88dzpw5k2Lzzp06YWZmJrmp/k0lgSCouz4FQWjQoAHt27dj9uw5siDTUSRQjlSqO65bJxGEAwcPYWSUvlrhskb4/1RJwBIWFqb21cVNmDfXlly5crNhY8pnmBs2bEjFChUYMHCgxJb/LUWYESN+BHSpM2dheejatQtr1qyhe/fkQUZ+fn4SQVhtZ0eVqlXV6fq3ryuwEQGuiY/tqpqUrq4Ob9++ZdTIkdx/8BALi+RxFadPnWLIkMHs239A+pr7N5Xo6GiipADZv49Cy5m/IFL9+vVlyuQp9OnbV6nJxYsX6Nihg4SncIv+a4pCgSD46hZBEJydN+L/2h+3U6dSbN69W1fJdSaOyv6b9lFBusLDBabqrU9xBH9g//5069aNGTNnyrolKgmCnZ0d48aNi/edJjINyer9N6+k6aIT1ocePXqwZcuWFBGoXr06Pj4+SjrovzlU8oavUMQfEdOgiFgP8aXQN8nGK7ry9fXF0tJSOoaY2MSuwWV+uyaarlHpLBQ6+Pv7kz178mN0J44fp03bttJX8b+u/Mo6jY7G0dGRwYMHK8F27tw5WrZsKT3z6n75/e74a7pGRabcuvXqSZkeUypt2rRBWLr+bQRWYKEppoL8Tp48mQULxFF/1UUlQQgICOD9u3f/OnKgGrq0a4jo03z5Uz43++zZM4QZU1vkIyCi+vPnz0/mLFmSNRKuC0ES/m0br3z0Uq4p8CpZsmSKG2xwcDCvXr7UPvdqgiw27rx585I1q3LGTeFaeynw1Ba1EDA2NqZIkfjcHUnLq1evEFH//7YPV7UATFJZrE/h4sqZU17Au0qC8CuD0bbVIqBFQIuAFgEtAloEfk8EtATh97xv2lFrEdAioEVAi4AWgf8oAlqC8B+FV9u5FgEtAloEtAhoEfg9EdAShN/zvmlHrUVAi4AWAS0CWgT+owioJAgiz76IDtcW9RAQ0fRCcCSlIs6xisRK2qIeAgLPlE4piMAbgWl8ZL62qIOAyOOeUpFy0EvHJ7VFXQRSWqfieY+JEfuodo2qg6fIqJjaKQWxPhOSVKnT57+9rq6unuwTdCoJgouLC3Nmz/q3Y6rW/EV0eLv27Vm1yi7Fdm3btObO3btqnmJVawj/c5VFGtbVa1bTsWOnZHMTyoSNGzX8kRNeuwHLuflijYojjFeuXksWcS/au58/z4AB/TU+TiVnDP+LdcQLa8mSpXTr3l1pel5eXvTu1VP7QlPjpos1Wq1adfbs3Ztiq0EDB3D69BkZaZPVuOj/eFXxsT96zBgmTpwka6YqCYKToyNz585hw8ZN/6qMauJBD9Ug658452xvb0+hQoVYv2FDijehcaNGFCtWlJ69eiPOpf5bishlIBL7qFvEMcYRI4bjsHYt3bopb7yir2d+fpSvUIFFixZRpkwZdbv/reuHhYZK1hN1jniKuh8/fpQSoAll09QSJVlbD8HRab3sr43fGshEg4+KjJTWqTqYiubiS3fChAlMmz6NPn2UEyVdunSRTh07sn7DRkxNTf9XoFI5D2HdCwkOVlkvaQVhKdy7dy9fvnxJNVFSj+7d+f79O1OmTv2pqKn2hX7DBuIlL557dYvAdMqUyfTs1Yvp02fIaq6SIDj8a1Mtx0lCOOrmhhLZ1AYO6I+JiWnqqZbr1ZWSpvzbUi0LsRRNslOGhoZKiZBWrVqpItXyUZo0aSJr4f+vVBLn6+PdK/JLQqrlpk0aa1MtpwCbIKRhYeFqP/tC2KlWzRrYjLXRplr+gasgCOIlrm4RbhrxYepz24fT2lTLSvAJgiDylKhbBIGtV68u7dqlY6plBwd7bOf8O7UYvn79qvZXhCAIIod9mloMEkFoxbRp09S9x791/aRiTXInoxVrSh2ppGJNcjDVijWljVJSsSY5mIo6WrGm5EglE2uSCaZWrCl1oJKKNcmEVLJwiTT/6arFoCUIKee7FmCLIJmkUgpagpD6ck2LIOjo6koqbykFxGoJgmYEQVdPT+RkTeb31hIEzQlCWutUSxDUJwh6+nrExQolXOXYIS1B0IwgCLeYkLaOD4hVLv84Qfj24SUr7Teg0NGVtKbz5C/E4P591PrqDg8LJTpWgbmZen65bZvW8eTFO+lahkYZGTFmHJlNDOWSKZX1kso9JzQQm27gp7ds3nmAwUOsyZhBT6mvXyUIURGhuG524f6TZzS3aotVs0Yqx5q0QmhwMIbGJujr6arV9pXfI5ycN2NokhnrYcPJZZFJrfaqKqdGEPT19HE7dpCgaH26dmhDdBKT+a8ShJDg7zhvcOLV24+0+KM9zRvVVWuNKuJi+RLwFYts2ZSkalXNV0Sse104w8FjbuTOX5QRQwdjZJi+2gYpWRCkAER9fTY5r6dwmSrUqVZRaQP+VYKw1WUD2QqVpVWj2nz5/BHHtQ6ERMbRp28/ypQsphoWQOTZ//otkGzZkgtFpdbB188fcFy/gf6DrMmdMwd+j+/hvHkbmbPlZPSokWRMJ2xTsyCIoM7zp47h9yGE/j06JTuJpAlBEC/GzRsdyVOsPC0a1ZWm/sH/BU6btzNy9FgsMslT0I2OiiQ4NJysWeQLQb169oSd+w4zZswYMhoZEhcbw8F9u4gzzELn9n/Iuo+qKqVmQRCnE6LDg9ngsoXO3fuSPYup0hr9FYLw6e1LXHfuZ/S48WTQhZvXL7Nz115y5i3EkMFDyGyeUdWwpd9Dg4PIkNEYAzXEytyOHeB1QBRD+nYjLDSELZs24vvCn8ZNW/FHyybpElCZmgVBX9+Am1cucvOeH9aD+yf72PrHCULw1w84b9mGAj3OnTiEwjg3Rw/tVGsTnTxiABcffsHj7CEM1HihHd63g+f+HwkP+cZK+008f/kUs4zybryc1ZEiQdDR4ZXfQ1q1aE1wnD4+d+9iYapMSn6VILiuW8kC+61sdlxGj96DuP3Ij0wZ1XvRt2lUk7qdbZg8vJucqcbXUcRRr3JZuo2cyWufc3j6huBxahfqXTnty6VEEPR0ddmz1YlJ0+bRyKoD2zc5EB4RpdTRrxIE+2WzWbvTk+ljejBxxlx8bt8me1b5G6m3lzsNrDpw6/YdShQpIBvTZ4/vUqpCNTa4bOXQ5jXU6TKMiYOTq1HK7jCFiikRhNiYKCaOsmbnITcmzlnOhKG9lKwImhKEmOhIptoMY/WGbQyfuoCVcyZgY90Xv68KqhbLxsFTXly/6olhBtXy0D43vahVtzH3n/pTNL9q+eOoyBBat2iJ5w0fPK9co1jebBTIk5vJ81dx/+ppTApUx2nFzHQ5GZQSQRCka4fLWiZOm0ep6k04f3gHcXHKsR/qEoTYmHg8VzltZfS0+SybPYkXvvdo0qg5r95/4fGrtxSXgY1YFjs2rsF6wmLevPEjk6lq1d2Qbx+oVbs+n4IiefzgHlkymeLssJyxk2fRpvtAtm9c8yvL8mfb1AhCcGAA7Vu35uGLN7hf8aZMoRzExf1tRdCUIHx670/DevV5/z2SN+/eoRf+iXLlKjFn+Ro22C2hbC0rHJbKUTJU0KhqWf4cOpvRg7qoxEIcY3VZu4KR46ZRsUFrLp/ezy7nNcxZvY3xQ3vx1+yFkkBf3tyq17qqi6VEEMQzfevyWXr2HUruQsXxcD+DiPlKXP5xgpBw8cjwcGpVqcDyTftoVLOiqvkp/f7C7wmBoTFYViirdlCQMJ/OmzSa+1/i2LHJXjYxcdvnwvbD5yWfTLRCj2UrVpIrq5nSuFIiCIL1PrrnzaegKEaNGIa7x2WypjNB2LnRnoXrduK6YRW9e/fH65YP5kbqye3e8/HGIldB8uSS/3VGXCzN6lSjt81Mnt++yOVHX3E7tAVdGYqiQkhp1dK53Hn0UrqHeYqWYf70icnWQUoEQVdHwYG9e3nx7BEPXn1l+6Z16U4Qxg7qTu5qHZkwoDVVKpZjp9tlShWQ/6CGBn/n2g1vatWuLX1pyS1XLpymbsueBHzx59C2tRy68YFDzktkNY8KCWDMuIlERCuIiY6iQ4+B/GnVOFnblAhCRGgwO/Yd4cKZY1Ss9wcTh/VJF4IQHhrMtl378TjvRpYiVbCba0PF0mU4e/0eWQzjqFi6HGdu3CVPVtXWQPF1du3mberUqYNhBtXr++sHf85cuspkm6HsP3mR6O9vqd+0Kx+/vOfVo1vUa94R/3f+ZDZJy0ITy6zJ43j1MQgUsRQoXYVZk8egl2SNp0YQ9u/bx1v/5+w9exvPk3ukL+7ERV2CEB7yHadN27l0+gAFLZuwct5UfG5e5eGzN4wdaY2n9yPZBOHzh3c88ntFndo10ZPx0D5/eJs7j58xYuQ47j+8TxZzY7a7unLf5xr+gbB9s5PKdepz+QzL1m5G5NKIioljmu0iyhTOrdQuRYKgo8Pn9/7cefySJbZTWL35YLoRBP/nvjx+/ppRI0dw6/4TDGLC8PV7QdmyZRg/oj+fYrKybf0KlXMTFe543yB7nsLkyZVNZf3YmGh27NjFC7+HHPJ4gLf7Ed6/9Uc3gwkZdSMoXtqSG953KJBPGZ+kHa9duZAbd32lP+crUoq5MyYnu3bKBEEHt0P7eP8lANfdh/+7CMLhLetwPnGDI7s3qQQyoYKn+ylctu2REt8Idh4bG02dxq0Z0LOj7D7Cvn+leq06uB44SeVShWS3u3L+GKcu3ZSOb8UodBk9RpjyjFUSBFFBuBgM9eIoXqYSFzyvpDtB8Dp3ko69BlLFsgKBIREcP3GSzGbyLCOrl83H5+EzifgIRhsZGU2fIWNoWreySmziYqIYP2oo1+8/J/TbZ9r2GsKsSaNlbTbiWru3bcL3xXuJIIiHaujAXrIIgqgkNtb19ovwuP3yP0IQPM4dZ9ioyZiaZuR9QAh3fW6QSYZL6+uXT0yZOo04hUJaK4I0mmbOxqpli1TiKSp8C/hI927diUWfmzeu47htP11byztlER3+nZWr1hAZo0BsPg2bt6FhnWqyCIJ435mam9OrW0eKVWmSbgQh4eKjRwxGJ2sJVk0fSsmSFXn48jniFV+zXEm2nLhMyQJpENOYcIaPsiEqOvYHpjEYmmRh0cJ5mBmn/eUbGx1Ggfx5OXLKg0B/X1r1Gs/3T374P7lDpep18PP/RO5sykRfGbA4Njis4v3XUMlilqtgSQb16ZaMBKfmYhCuzJ1b1mG37TQeJ36dIMSPTUHf7n+StWh1Vs77S/rLh/dvpFM7HjcfqiQIr589wnbhcmkPTYjhKVCiHNMm2qh8dgO/vKV4hVr4CoKQ2Vy69qI5E7n34jvbN69XucZ9711n+75jCNN2TGwc/QYPp3BeZenw1F0MOmQ2N6V61YrYuaQfQYgfdDQlSpbl9gNfTH5wzzu3vBg63AbnHQcpUzRf6nNTxLF0oS2P/F7/2EcVkstz0Kgp1K1cUiUmm9fbsXrHObwvHPlRN46JIwfzJkiXzc7rMDRImwzv27mFh36vJUtY9jwFGTqwjyyCICrpGxjgce4o0+ev+e8hCMEBH8mXuwDHPa9Qt7rqF1HCbEWAn0h+I/w7Oro6REVFSxuGMNHLLQ5zJ3H9E2xZI++rLKHfLavnssJ5PxkM9IlU6HPk+EkK5VKWEU4tBkE8iBkz6EiM8OLl62Qx1lfKjfarLoaeXTtSuEoz5k0aSs8Of9Cy9yh6/9lSFiQiz0BsXJzE6BWKWGKiY9DPkAF9Eaymorx8ep8aDazwuePDx2f3aPxHRx75+pHTQrUpXmTbtBnaDy/vx9JmW7hMVfZsWSebIAhC4+K4jEveL9m52ZGQMOVcCb/qYojfhxU0rluDDoMmMLK/apNhfBMF4ky8CEwT9zXBZCcIjTrFxWEpq5wPcvXKRTIaylvfEYHvpRiU8GiIioxg6LjpDOvXNdllUzvFkNHYhH69u1K8alMmDu2t5I/U1MWQcHGJIFiUxM52ApXKleSQ+03ymMRQolQ5bj94QmYV5CtS5MLQ0SVDhnhMhWHZMEMGlXEhiQkCYQHUbNCMNx++8OqxN43a9ePT22eYJIkJUgYshu7trHj69isirqRk5fq4rrdDP4kfLTWCIF6Ee3dsZNXW03ie3Itw5SQu6loQ4tsq6NvjT7IWqSFZEET5+P4NFS0t8bz1iGL5lF+4SReAsN5FRkVJWVv19fV+rlcRL6GqfA94S7HyygRh8ZyJ3JVJEC4e28WoqfMxNDIiIiqWjdv3UaOcsjRzWqcYMmcyo0ZVS+y3HKZUgWzS3pVQNHUxxLePpkSpsty+H08Q7vtcp3L1Oly5eYcqFVTnSRFrUoxbHFsVVqKY2Fjp5StnH928fhWrd5yPJwiKWMYP68nbMBN2uTqruh3S75NGDeb8VR+JIBQpXZndrsktOanFIIh305VLbhJBELFP4RGRStf8f3ExrFu+CKf9Z7jiflKjIKHlC2Zz62kArhvt1Aqqe+X7gMrVanD8wnVqVlJ902XdnUSVUiMIH9++wnbBIo4dO8mfnXuwfOlC9HT+9p39KkHY4mjHzCVrad64Lleu3+LEmfMUyKmsLa9qLsMH9qJyk54M6tFKVdWfv0eGhdDmj2aYZitA0Jf3ZMxZhP1bN0okKr1KSi4GsemePrqXZXZr+PAlmP4DhjNqRH/phZ5QfpUgiLn179kJHYsSuG5YncykrGp+D3yuM3DYWHbv2U/B/LlUVVf63ePsMYbYTOPgkWOUKpJfrbZyKqdIEOJiWbpoHrv3H8Y8Wx5sbRfQsE6ln5HNmhIERVwMyxfPZ5PrDnQMM7F06UrePrmG3cYd5MxiTNZ8JSWCJ2cjfXTfmz4DhrH/8EkK5JazvuOYNG4Max3XU79xK2bPnsvcv0YQbZCJLx/fYj1+FoO7t5MDmco6qbkYjh3YzbqNm3jy4gOTJ01luHVvoiL/JgnqE4Q4lsybyXpnVzKY52DR4lVULpmDiVOmc/jIETr1GIDzxrUYyHDzHdu/gwV2LpxyO4aZsWoCGxcZgvXw4WzbdYD27TuybPkKblw4yvwlywn4HsFIm6mMGzVAJVaqKqRGECLCQrC1teXgwQPUrN+MBfPmkydn1p8fW5oShMCvAUybNpVtO3fTtl0nRlv3p3PXzkTpZKRS+dKULl+TxQumq7SuQBz9unekaceh9OrUQtU0pd/3bndhlf06Hr/8yKJFS4n76sfwCTOoWacuWTNlYaW9I8UKqrd/pHThFF0Meno8un2ZWfMW433nEV279WXWrClK5Pf/hSDcvHqVPEVLkie78he4LESBK5fO8fpLBF06/KFWgNHHd2+55/uCRvXryLjZckfzd73UCILwR1/yukJGIyMU6NKwYX2lcf8qQRAjuH/7Jvce+1GnfkMK5FV/QR3Zv5viFWtTuph6L6SI8DBOnzqFkWkmRBIdGa5MtYBNMQZBV5fnTx/x7OUbyT1hmim7ZHZMT4IQ8j2Qk6fP0qxFCzKbp2WCTnk6gV8+snb9JkaOHoO5qbIrKm0AxCmGc2TOVZCypYqrhZXcyikSBIWCy16XpK86YQUpUaYiBfNkl1wlomhMEBRxXPa4yLeg+CxuJUpXoFjhvFz1uMS38GiaNWksm1AGfP7IBpftjB49CmMjOVYVBWdOnZJOPIlERrXrNSRHFjNOnDhGlhx5qVW9ikoLhFxMU7Qg6Ojg9/gBL/zfYaCnR+ZsuahiWZbY2L+/etUnCAo8L54nMDj8x32yJHdWY85duISRoZF0OqxlqxayAoX9njzg+JkrjBg2EP2kQRUpTFwRG8UJt9Po6ugSHhlNs+YtePPiMX4v3qCDgqw58lO7hqVcyFKtlxpBEHE1Fy9ekk6/iRdezdp1MU3kYtKUIIg97OzZc5IrWFilq1ayxOfuPXT1dCW3a1aL3NSsUVnWWjm0dzslLOtQprg89/X9u7d5/tJfIsjixISRIoLXHz5J1gjxdV+nbkMymauzf6QMa0oEQfQf8PEt3ncfxhN0PSPq16ultIf/vxCEX15B/6UdpEYQxHATp2BNen43PQjCfykkvzys1I45Jk1pmxTTX7Ug/PLA/4s7SM3FoIypQilfh6YE4b8YhnQdWmouBlXrVH2CkK7D/q/sLC0XQ1r7qKYE4b8ShHQeVOqJknSUAv1Tyi2hTZSUTjcjLYKQ1iW0BCF1dLSZFNNpcSbqRptJMf0x1WZSTD9MtZkU0w/LhJ60mRTTH1O1e9QSBLUhU9lASxBUQqR2BS1BUBsylQ20BEElRLIraAmCbKhkV9QSBNlQ/ecqaglC+mOrJQjpj6mWIKQ/plqCkH6YaglC+mGptSCkP5Ya96glCBpDl2pDLUFIf0y1BCH9MdUShPTDVEsQ0g9LLUFIfyw17lFOkGLSIBBxMW0MQuqQpynW9ENXOyVMtUGKqWOaFkGIDwJTDlAUPWmDFNPeFtIiCAmBdSmtU22QYnJc5QQppoSlNkgx9TWaloshrfX5j55iEMlxvDwuUahYafInHMUTx6s8L5K3cEkKqkgpqfGb+0fDm1e9+BIYr4mtq6dPvQYNySgjZavc66ZIEBQKKWnOVc+LfAoMpWnTpskS3/wqQbhw4QI1atf7KQIVFRnO2fMXqF23AZnNfv2ITFrzj4wI5+iRQxhnzo5V86ZyoZJdLyWCIPAUZ6LdTrqRp2BR6tSsKh1PSlx+hSC883/Jy7efqV0zPgvhPZ+bXLt1F6s2bcmTQ3UKVdmTS6ViaNA3Dh05RsHipaldvYrsdOByr5sSQRAE4OM7fzy8rlK+UlVKFiuklOf+VwiC6Pf0WXfKWlalUoUyUiKZi+5nCQyJolWrlhrlQpE7V0VsDBcuuFO5Wk0ymZtJGSYPHthPttwFqF9XHOmSkTBAxsVSJgg6RIQFc+7cebJkz0OdWtXTRaxJpEg+eeoM5StVw7JCGSmB0+VLF3j1PgArq1ZkyaT+sVwZU5SqREeGc8nzMvXrN8DgR74TceRYpL6vbFlebjdp1kuNIIg1eM/nFr7PXtOwSVOyvZ8KJgAAIABJREFUZkofsSYhAnbF8yKv3n2hTbu2Stk5L7hfwLJaDTKbystMqwkAb16/4MXbAOrVqiod1RZzvH3vMU2atSBv7rSTXsm9XmrHHMWxdLcTx9HLaE6zJg2JTSJ6948RBPGgbHBYzeQZtthv3sOAbvEJSq57nqduo+as2rCb4f3kpUzescmJ+/5BzJsxQS2lK9u/xnDZ+wkxURFc93nI0+cvyJlZnvKZnBuREkEQGQqdVi9m894TZDM3AsNsHNm/VTrHm1A0JQiBAZ+YPGY4LgfO8Nz/HfksTBDkYPzw/ryPysT2zY4YyjjfLMaxaLYQDGlPq0bJU/OmOndFLEP7duFDeAa+f3hB2XrtWTN/ivr6GGmAmxJBiAoP5s/27cietxCP7j9g/IzFdG/fRCnzn6YEwfu6Jz27didf6aqcOXGQc8f20Hf4FFq3asrNu4/xuOBORkPVWSZf+z1i3JRZ2K9zJFd2OUl94kH48uENNapXpUK1erz0e8LslU60a1xLzvKTXScZQdDRwf/5Exo0taJ+/brc8bnLwWOnKJIvxy/nQXj76hnVatWlZs1a3Lh2lcNu7tw4d5DVLnvJmTkjmXMXY892Z1mJkoSS4Pips3B02ki2LKq1GyLDgpk3axpL7Z25fO06ZYsXpJ1VcxRGWaS8/tYTZmPdq4Ns3NKqmCJBUMTSumUzTLLmRohwjZ+xhN6dW0tZ9hKKuhaEF74PqVS1Bk2at+COzx3c3D04vsuZ9Vv3ky+7GYqMuTh9bLesOXm5n2LdlgNsXO+AkYwPpaBvnxgxeCCnLt/lycN4saaL59zo0b03Ddv1+I+KNYmsjxdPH2H8zIUUK5iHh0/f4XnpHCYZ/87+qKkFYc+WtSxY7UKubJl49T6Ma5fPYWZiyN7NjvQeMgYPn+dULysnP4yCuVMnUKNlV5o3qK7yHoiMlte8ztOvT38yFa/G1dMHcD99jL7WNlQuV4Lb919y2/sKFll+XSE3JYIgkpj17dGZ0DhDvn9+T8PWvZk9eajSu+kfIwiPvC/Tf/QMvr15xuSFqxjQvT0x4UHUrVOPyqVLULpxJ0YNTJ4WNiWU3Q7u5snHMEYP7a9WoiRhlhL/djrZ4bT3NO5njks62HLKx7ev8X//ScpnIJIdla9QPlmO7JQIgkhl6nb8OLUatSA60J9GrbtJgh5xMX9/8WpKEM4c3s2J6885sceF81dvk9fChK3r7Zgw34GHd25hkVn+l4Szw0oq1G9DtfLypHclzGLCKVu0CIfcr3Lv6nnGzt2A330vDOSQEoUCv6dP+B4cn0Ano6k5ZUomTwyUEkH4/vUzx09doF+/PqxeMgevp1/Y7riCuESkSyOCoIihS5sW5ClUggfP33HmxGEWTx+P1/MQDm93omrZshx0v0aBnKpfTp/fveavmbYsXraSrGrcB48zJ2nabRSB7305d2grjkd8OLZtpZwlitDGuHvvHiIPj0jwIqTU8+RM/gWSlCCINf3qmS9PXn+lU7vmdG3bmD8HT6Vt41pE/9CI19SC8P7NS67feUpbq6YM7NaKpt1GYDdnKrtPXyaPSSxlypTnxv3HZJGhc/HhzStmL1jG0mXLZGX+e3zzIrZ2W7h58QQ7j54lcarllw+9adK+Lx/fPsckTcKn4NH9e4RFRktfd8bmWShVomiyfSclgiC+to+ePE/PHl1xdZjHjVfhrFk0WymdrboE4eVzX655+9Kl4x8M79eJ+l1Gk1UnmHJVapNJP4yKtZrxzPeRrPVy5+YVtux1Y8mC2bISJbntdOLkjWcc3LsLn3v3yWxsQBurlhQokJ8ghSnbXRxVXvf71088ff5a2keFEGOpMuWS3cuULAgipf5Vr4vkLFiK/NlMKFqynJS2vkAui1/OpHjq+CHKVqlDbMgnSleswd1HvoR/9qd2iz8pVSA39tsOU6NMGloMiWa9ftUSKjVqQ7WKpVViERUeRtu2bSlUqDDX/T5KYk03rniSMWteShfMRtFiRXH3ukXhgmmTk+d+T/j2PSR+HzUxo0ypEsmunRJBiIoIY7PrDgYMGswNj5OMmevA9fMnIZHi6D9GEMSIo6MiqFy5MmOnLaBP5z8Y0KMzZWq1wsDfG4MyjRg9KG2pYZ+bVzhy4szPpEOCgVlWr0vbVvLEbOLHEEmtKpbMWuVCmyY1Vd7EhAqeZw7hdvHmj4Wtx9iJE8mWRHc9tRgEAbIwx9kMG0hEhuysWWorCZUkFE0JgkhyJyykxYsV48K1O1hkiKSCpSXlqtbF74EPfYaOY8LIQWnOcedWZ3yfv5F8zBI+0TH80aE7NSxLycJm5qRR7Dp6gYjgAMbOWMRY6+RCISl1JF5g21w28uSFv7TZ5ipQjBGD+yarmqKLQUcHgwwZ+PrhFZ0692SxvQuVygiT+N+YakQQfmgp7HBZw+Z95ySCcPvaJeo3/YPyZUuDUSYuXziTJi7fA79hb+/w88tbVDY2y8x4m1Gy8Hz3+hm1qtekblMrfG54MWC8LeOHyJN7jg4LZMmyFZKaoyDCjVq0oUm9Gsmum5qLQaxDz7NHGTFuGmfcL0lm1YTk1ZoShISL3/Q8S4eufbjg6UWrxk148EK+WJMiNpLFS5b/JCuizwwZzRg1cjjGRmnrB8RGhVGwQF4OpybW9OYTuS3SFmtaZ7eUd19CJExzFy7FsAG9ZIs1iXX68c1zGjVsxJpNe2hYu7KS60ZdgpCA5w3PM/S3HsvZi17Sl6/YW8cM6UNspiI42aUtDPbhzQtJTpyfNEdB7gLFGNC7u0qLbFKxJoHJYttJssWaHt+5wra9x3/sowoGDB1D0STaEam5GARJEHitWTqXg+e9ObRnq1KqfU0tCAmYzplqw42nX3FZs4Ae3Xuw0N6ZhZNHMGXZJqqVTlusyXXzRl68fv9zHxX7+5/d+mFZqmCaz714vrYkE2sCxxXz2HTwIudPHVXKFplSZ7u3u3D/8XPppzwFijJscD9ZBEHcf/Feigz9To+unek6dCqdrRooWbj+3whCm7plsKzRgBq16vDY5wYGWfJy9twZsid56Sae6cN73pxx95T8hhIDjY2hdMVqNGtYR9bmKyqd2beF+S5HuXB8n+w2ouIOx8WSgliGDPpExumz78AhCuRUFiVKVawJBQ7L53L54Tt2um4iNlpZsEVTgpAwgQSCEOR7jcEzV+B55hgn9mxmifM+Lpw6luY8jxzcIy1s8fCJB1OYPxu3bItl6aIq8fns/4wSlrXwvnOHF3eu0LnfUJ76vSBrGvcwoVMRjzJ5jDWXbwuxJh0KlarM1g12MgmCLkGBn+jQvi29h07Aum+3dJV73r5pDZv3n+XM8cP07/onBvkq4LRsDo1rV2HCAkf+SMMNExz0nS1bXH+qOQpMjUzMGTwgOflJDWAha7xt0zqWOm5HxM0IgRo5JSLwA207dCE8WghGRTBo9BQG90rutkuNIPg/f0DfAUNZZr+RKuVLpZNYk4JXfg/p2r0n81Y40rReFSzLlOHMtXi55wqly3P2+h3yWKRhlYmLYp3jBolUC6IinjODjCb069NbZfyCEGsqmD+eIEQHvqN+s858+PKe14+8qd+sE6/evyZLmnLPMdIaePr2m+TrL25Zj432S2SJNYk9Kiz4K4MG9KN5pwEM7tX5p3hXwv3UhCC8fPaYLl27Y7t0DS0b1ZXIgcOK+Rz3vM+BPTtVKlx+/uDPzr0H0RH/iX00LpYceQrRpWNblTEZQqypePlaPEmm5hgkS+7Z020f42YuxtBQiDXFsc5lG1XLFFZa3mnFIBzd44L95gOS7oRQtI8TZogfRVOCEBMTjcNyW45dusvp44dZt3weSxxcqFm9Khfdz1OzsRU7XNanIdsu5Od34v/usxJBaNGmY9oqkD/GnVjNUbzTTh/dzYxF9hw5doLc2VTLEUyfMIIL1+5KdK9wKUtcN6yRRxDEe5RYBvTqSp5S1Vk2dwbhQhQtUfnHCILwd1y6eIF+/QfQoedgJowehsjtLRbD2tkTMSpZn2njrdH78SWb1oa4Zb09d/1DJF1wOdbshL6CAj5SpFhJth84SotG9eTsuT/riGA8oXQV72IAczPzZGw7JYIgFNIWzZ7MEoctDB9mTeZMmRk5ahS6/LoFITQkiGvXrtG7d1+WO2ygdePqVK5aixm2i9m6bgkFKzRkg/1iWfOcOWUCVZp3oV1j1b6zhA5Dvn2iZImSTLJdyjtfb7YducST+96YJvILpnXx0JCQn2xVBI2amSaPB0nRxRDwgdZWLTHLXUxSW8xTqDQ9OreV5HgTiqYWBOEzt1+zklMXb+Hk6Mh+VwfO3PBl4YwJDBxkzf5THlRPoj6X0hxfPn0oiTVt27GT3DnkxyCIviJDvlC2jCWrXQ9g1VD+/RBWmeCgYGl9ii87o4zGGBkm/8JO7mLQ5fHd67T5szN1G7ekdPEiNG/dkcrliv3UDdDUgvDi6QPqN2hEhRr1qVq+DFYde7Bn4zIevAnDskg2Tl68zvXLHhhmUK2t8MLPl8GjJrJjx3ZyyIhBEKcxLpw7TafOHZkxbyXtrZpSuXwpRk2Zy4Pr7liUqsO6xdNVuilDgoOI/fEiSm2dpuRiiIkKp7VVC6L0zWjdrDFFSlWgc/tWkpVOU4Lw4M4N6jdqSr2mVlQoVRyrDr04t9+RpfYuDBs+AlOzTEydMlGWFoPHuZMs27iXXVvWywrWVsREcezoAXoPGs2mTS40b9pYso4sXDCHZ++CWbl0KZaW5dLcb4QFNzQsPH4fVYCpmWmy+JOUCIIQaDu4cyPDxkyhR7+BZM+Smf6DrcmWyH2nKUGwXzqLSfNWM3TIECmAfOCgIWT4Idc5qFc3xtiupmW9SrK0GKaOH0XtP3rSprE867Tv4wc4rl3DkYt3OLjDldePr0qCW70HDSV3dguGjbIhlwp13LDQkL9dgansoym5GKIjQiU9o49hunRo/QcZzSwYZt1Pae38cwQhJopFC+cTEhGLYGy9B4ykXMl434rH8YPo5yxGraryomB3uW7ksX8QM6aOVUt06cWTRzjvPMjUyeMxyahavUzWmzVRpRSDFPV0Wbfaji9BIURERpLR2JwJE8eni5qjiGZeumIVgoQodPSYNHECD32us+fAUXIXKMLgQQPIYq7aXy6msGLhHMrUbEXLRvJfSKLdA58buG7fLZl8+wwcTPGCedSFLc36KRGE108fs2n7LkmqVmy2eQuUZsig7uki1nTd4ywHjp+VyJ+5RUFGDurCpo0befb6LfWatKBTWytZ83v97BGz5y9n4eIl5FQjSFG81I7s2c63aAP69pQXkyNrQIkqJSUI4qV309Odk+6eUpS/WMet23WjZrVyP60ImhKEBzevsuPQMSk+RGxSLdp0pnLZwqy1tyckMo6+AwZSurjyF2Rq83n9wpeZcxaybMVqsmWVY1VRsHC+LaHhMURGRtB/yCiMCWG98xbMLXJhYzMSIzWk4tPCOSlBEC/A718+4ODkLEkSiz2vVNmq9OnZQenEjboWBO8rHuw7doq42GhJabNtx948uunOm09fiIiIxDCjObPmzJCl5nj54mk2bT/KmjUrZEmKx0WFMnPOfHSEWFNEBBMmT+fO1bNcuHxLgqZQcUusB/z6mk2ZIOize7Mzvv5vJSuMjo4+1sNGkit75l+MQYhj9ZLFfAoK/SF7rYfN2AnkzhV/WsnV2ZnGbTuRL7ucQEEFC2dNpVqTDjStL28fPXZwNx5XvTHQ16dspVqYKoK4ce+RdC91dPQYZTOBfLkt1H3Ek9VPiSB8D/jMcrs1GBpmkNZkRtNsTBw/isRhef8YQfjlGf4GHaTmYhDm+8RnTUW9xOVXXQy/ATQaDzG1GASBaUIRG0ri+APxd00tCBoP9DdqmJqLISEORUxFrNHEZ801JQi/ESy/NNTU8iAI5cGEg5QprVN1CcIvDfI3aZyqi0FP76cLRKxNUS/xGtXUgvCbwPJLw0ztmGPifVR8nAjSmbhoCcIvwa7cWJtJMR3B/NGVNpNi+mOqzaSY/phqMymmH6baTIrph2VCT1othvTHVO0etQRBbchUNtASBJUQqV1BSxDUhkxlAy1BUAmR7ApagiAbKtkVtQRBNlT/uYpagpD+2GoJQvpjqiUI6Y+pliCkH6ZagpB+WGotCOmPpcY9agmCxtCl2lBLENIfUy1BSH9MtQQh/TDVEoT0w1JLENIfS417VCXWFH/m+O+jeAkX0gYppg55WgRBCqoTwUrivFSSog1STB3TtAiCwDQh42jiHrRBimlvC2kRhPjgTxFUl3ydaoMUk+OqSqwptX1UG6SY+hpNy8WQEJyc0rvpHw1SjIwIw/fpc4oVL/4z6URMdDTvP3wkb768KpN0aPzm/tHwa8BnoqJ/RGkqIFuOHEqZuH61/9QzKRog0gO/+xRA6dKliYmK+juJ2S+qOQYGfOZTwHeKlyj2d140hYKPHz6SxcJC1vnyX5m3OHv/3M8PQxMz8uXJ/Stdpdg2NYIgjnb6Pn4kpb7Nnycnkekk1iTm8+zpU0wyZSV3zuyIzIhh4sjRj9wC5pmyYGJslO7zTNrh48ePyJ4zT7rkYU/ad0oEQWy6GfT1uf/gAbnzFcDcJKMS8folgqCI48mTJ2TLlReLzObScL58ekdweKzKNLLpAfSnjx/JnDXr/7F31mFVLX+4/yBtYHcHgi16bOxuPfaxxa5jHbu7u1HEwgILFTEwUMJGREERRBqklK59n7UUj1s2ey+2/Lz33Id5Hv5hz5o1865Zs975zsz7ovPtSON777fkL1iUksV//fhYRv2yIgh6urq8e+eFpm5+KpYtRcpPZjjqEASBwHkJ/UPA85tO/+foSAKCw6le3TBHx7RM+AtjS2gIxUuU/C4KlBAXK0pRFy2iWtRHyvNUJpSUkhCPt99HjIxropGe+v2Io1DurxCEz1GRBIaGYWxsLKeLERQUSJFiJdCToNMhpW2K8iQkxIuS86VKfJVFT4j7wge/IAyNcu5ZZkUQdPX08PN5T1IaVK9amSTh2/RD+m0E4cnDOwwbM54//miIh+cH7jk6EhcZwNSJE7ly/zkhgR8pXEDawHv2+GE8A2NZNHd6tnQQVi2aicuLtwgOby5P3PB6/16pcmN2H7gigiAcc7K1sWLJqu0YVStLum5hzp20kHPNUjeCYH3SgiXrdlKpbFE0dIthfeYYefV1uXb+FAOHm3Hl7lPaNFKtCS60c/uGVRg36UKXNtkwa0LGvKlmvI9I5UuYH406DmTV/CkqhWeyg6sigiBLSxFlmWPT8hIc6MvQCbMxG9zzl82aEmJjGNy/P3nyFSLA15u/F28mIfApF+zuiloTTg/us+2wNUN7t1PZhI/vPVm1YRur16zLlg5CZHgwvXp0o2yVmvh4erBm10E6mUo7U62yUt8yKCIIUZ9C6N+3DxWr18bjlTvHTl+gRtWy32e96hKEyPAQ+vbsTpEyVURXzBM2V3n79A5rt5tTrlgBKtVswIFd2yR5onz88I4Vq9azYfN2ihWWoIMgS2P9qmXic3jg8pha1SoyYnB/vqTrEhUWwJR5axj6Z2epsCnNp4ggCIGDaRPM8A+PI8zfmwmzlzDmrz/lJKOzSxAEk6me3btRvlot3rx6yYnz1/B5dpv5y7dSy7gSSVqFuHb+pKQ2udy/xRGrK2zfsRl9XS2V16SlJPD3lEmcu3oHT9GsyYAnzncZMXI0Ddv25viB7SrLkJJBEUHIk0cTj+cujDCbSu3axrzzC+Ga7UUMfnBZVJcg3L91hSkzl1KtSjk+hn/mpt0VDPJqM2+aGT4x2pw5YYGOJEU+GRtWLOKPdn1p31LaOCqYw40dO4685ergeO0sTg52DB07jQb1auIX/Jlb9rY54s6p+JijjDWLZvPIIwDS46nTrAtrFs0QFYoz0m8jCNcuniXoswZjRwygbYsGbDl2DZtdS3nlG8nVa9cJi/xEEYkEwWLPFtw+fGHrhmXZIggZjb56yoL15me5c+OqKLYjJUV9CiUsIvqbkqIGlatUQeena7NSUjxmvpd6rXpQuZAM0479ePLskZwhhroEwXzvDlp1HUgBjRjqt+iE+4sXRAW9p03n3mjnAcsLt2jfpKaU5rFw5mQadR5K3y7SZatlyQnUMzLi6KXrvHlyj2VbT/Ha7Z40syZkBPr7E5uQKBIKHb28VKqQWe9cEUGIjQpn7catrF67nrMW2znnEsQFiy1yHVudJYYw0WBpLVu2bcX62F4s7V/gePmEiF9M0Afa9hiE61NXSSI0vp7uDB87mbPWFyjzTXRFyoN46HCd1n3HEx3my02bIxy57cXlw5ukXIpAnN77+IomOEIkpGjxUhQrIi8HLhSkyKzJ1+sVxy46sHrpXOaOG0SjPhPp37nFL5s1Bfi9Z6f5aVYumcPyGaOo0X4oRzYuYO/ZW1QwkFGrTiPcPD0pVEC1q6pgKzxq3HSsbWwoUfRrJEJZ8nC9xezlO3jn5sxZu7top0TTsFkHPgQE8dHDhZ4jZ+Lv8wZ94WXJMsnw8/UhKeWrLoRe3vxUKF9WklmToDy4cs1GFi1bzoOL5lx8EsyBLStISEj6frfsEoR3r1+y9eApNq9dxup5k6jWbiSaoe5UrNeShtVL0qJtF16+dJNE0u/ZX2bDvlPYnDkuiSBcObGHE7YPcX74gOevXlFQPw9dO7THwKAQusWrcNJyn6pHQuznaAKDQhAs24WlwQoVK2fy08hKKOnOtQsk6pWiq2ldTOrW4oy9M1XK/mtGpi5BOGu5nzI1m1OpqDbV6zXhufsb3r98wJ+Dx/Po6VPq1KgqSUVRaPw/U8bSsvdIenVSrdSblBBHn9690NHWIzBBiycOl7hsbYVeieq0bWRI1WrVuev8lCoKxsUfgQ4K9Cc2LkH8l46ePpUqZDZ3UkQQBKXP+f/MYcGK9fh5PsVs/lae3rtKHtm/Wgi/jSBkNOiB/QWmLt7EI2dHcSb/8vkjmpl2JCwqWiVBePvGHUenRwhsUjApEryrDWvVo1UzaWxNqIMQ3m/bvDHTVmxjYPe2Kjt0RgZHexsu3XQRCUWqTJN5CxZS/Cer6KyWGASluugQX7r06INJy64c2LZOzhBDXYKQUbcNS2ZzxdWX21fP0bNjW+au28XSGWas2nWMdo2VE4Qbdpf5GBguejFAuqhM2LxtZ2obKjcZybj39vXL2LznCEkJCWw9cJTh/aQpDQofsKPme3nzPkB8liXLV2XmlHGZnkdWSwxCfdcu+4fj1nZYnbfDpHo5UbEuI6lDEDKuTU+OpbVpSxZusaBrSxNkqSkM6NyG+t2HsnjWZKV9RvBROGttLcrI5hH8LdLS0NUvwNAhAyT1NT/vN1SrUZ++/Qbw+rkLAyYtYNkMM0nXpsRHsXrtRpJSZaIiYsee/enUOrNVtOI9CBoUKJCfUUMH4vzsFXfvOcpJZqsbQcio+LQJozh/5RaODx/QpW17Xvu+RwsZzeoYY3nVCaMKSsL96ckcO24lejEIzz0tLRVtnXwMGNAPPd2sJZoFM7fEhC8YVq0kejFE+b+l24jZRId4E+DlhknjFnj7h1G6mLJoRBo7N68j8FOsIPxPmao1mTp+VCaJ9yyXGPT02bttHes278Di1EVaN6kvt3STXYIg4Cm8O2Yjh+Lo+gJnFxeKFS6Iv99bunbpTuN2vRAmUMpSRFgQl67YgUYecYKVlppG0ZLl6Nm9k9JlXmFmGfkpiJompni+fkWRQgYI7+f2DUskmzW9ef6QwyfOo6WtTUpaOpOmz6Fa+RJy1c1qiUEgFSTH0bVrV5J1i2B/+Xwm1b81a1aLNtg3bio2VRvQvz8FChTA4sgRuXuG+7+jVbtOlK/TDJvD26hfpw4GZaoSHxPBtDnLmDpuqFISec32EkGhEeL3Qai/MBa17tid6hWVL7smJCRy+vh+dlk58Ozu5e/3OGe5l4XrDvLsmTMF8ukrfZ4njxzgpZevSApLlqvCzKnjM+XPaolBeJ/OHTdn+fptrNh8kIHdWsotg/1WguDieJOJMxayZ+9+WjRpKDbiiesDmrYQCEKUSoLw7PFDLtre+O6BIJiMmDRpRd/uHSUNoEKmh9dsmLfdkjvXbcVZttR07awFJy85oK2tSUq6Jpu3baf0T7MYRQRBWNsNDAigdJmyeL9xY+AwM5wfPUZf66ung5DUJQhpaSmcstiDpc0Njh07jsN5S+au3cXAP/tw2uokfYaasX+bcme3k0fN8fT2/x7iTU5JoVf/YTQ1Ub00ERniT12TRpywtiXozSNmrdyO12s3CubPqxJWYfDetmElLzw/iM54ZSrXYO2yeZIIQnJSAgFBYeIegUP7dnDxrju3r5zOES+GhLgYRgwegGHD1qxdvkisz5tnrrTq3h/Xp0+pUkZ+MPu5wjHRkWzfvlN02hBMqITBQtgnMW/2DJWYZGR49+YVRw4f5Og5O549f0LJIlJkXiH5yyemzfxHJAgpycn8+dcY+vXokOm+iiIIX2KiiUtOJ59OHnHprm6b/kwa/idCfxCSugRBmDGGRnyhYD4dli+YQfnappyz2M1NVzcKaqdTp0ZNbri8oGyxrCMCgpvjmrUbxA9KBqY6eQ2YOX2quKSmLP1o1pQUGUCbrkMI+xSEn+cLmrfrib+wxpxfWRlpLPlnJh/DYsQPc0UjE5YvmCX3YRLur4ggCPLSgcFhlCpZlAunLbjm/I4zlvvEvBkpuwQhJiqSkE+fKVpQn2ULZ1OydjuG92xNsVKl+ejtSZ/+Q3jh8UZ8jlml4AAf9psfFWfFGWZNpSsaMn7UMNVujhGBVP8Fs6ZnD2+KEwphyS4pNY3FK9ZTq2pZuaoqIghCPcNDQ8hfqCiRoQH06N4Dy3O21Deu8p1wqRtBEDw+ipcqg/ebl5i27oj5nu1s2HuEJy6OnLHYw6b9Vri6PEBXO6tlmHQsDx2bQ0WQAAAgAElEQVTg/TfTO2F2ICgS9htqhkmNSirf+x/NmkT/EPuLLF+3nV37DlGnhqHK63dvWctj97ciQShbyYg1yxdIIggC0fb2fk/FihW5df0y/yzezIsXruhqZWh/ft3X0aZNG/r06c3y5StU1kXIoCH7Ud9SwSV79uxm5YoV+Ph+IF++r6HD5y53aNqmGxt37MaoYlkaNjWlgG4eHjo60Llbf7y8valaSZrntsP1K3iHJzBu+ABJobSMKibGRlOzUnm2WF2lb6dWkhqbnUyKCIK+vh4j+vWgZO2WtK5XiRmL1vDs6RO0NX7drOm8lTkDh0/E0uo0xQoVxLRFc2JiYsSPfY8unVm69SC9JJqGnLQ8TI1mHWhgJC1yIOASFfKRarUaYH35Gh9ePmTRmm28fuNFoQLKGW92MFUUQfjwxo3OfQdz/NRZbI7u422EjIsnDyCQjoykTgRBMC/p07U1yQUqsWDGZLT0DWjZtCF/jx5MkfqdWC5xJi/UISI0SJw1LlqylMIGqsPnP2Ii+AY0aVCPOat3Maxvp+zAJSlvZi8GTW5dOsPYOau4ZG3Fkn+mMHjyYob/2eW7sZC6BOHRXTs6DzDjpv1VlsyaQJ+x8/B0vESSQWWaGZdk/e6jPHVxVGgq9XNjwoID2bTrIMuWLJJsCBYc8IEGJvU4fPoKDY3KU6V6TY6eOY/zjfP4xRtgfXizJMxUZcpEEAQnx6gwGjVpwU7zo9yzPcYnWVGO7NmMMGtUlyDctD1H9wFmuLo+YPncaXQdNZeHNvvJX7Eegzs3Zvj4GXh/8EG5CfbXu3u4PePM1bssmTdT2rKgLJ23b17SrG13XF2cRZfMpIRY1q1cyGu/aI4d2k8BAwl7Q1SAqYggCJvp1s6bjltIEn+bDWLAwOHY3bmPcZVy3+WW1SUIo/p0pED1pvzZsSk9+/3Freu2DBo2jjt3HNi4dCb+sfm4fM5C0nL28cP7qd28IyYS3HAFGAT3V/N927G49BDH6xd45+6MaduubN19gKrlS2Paug0F8v76eKoogvA5Ioza9RuydY850f4e7Dp+jadODmjlkXfI/C0E4fJZK+49evb1WFq6jFHj/0Y7KZT9FidENlmwSGmWLJyt6j0Ufz96cBcvfWPYuGaRpIeWUeh7Tw8sTp1n/tw5KsM2kiryUyaFEQQ0CAsJwNzcXDSq6tNvAE0a1pPTEFc3grBv6ybeB4WI4WwdHX3mzZ8nWgMLocDdO3fQtd9QDCuUktSUFQtn07DdQHp0aCIpf0amp65OnDx1GmFGN3z0GGoZVsnW9aoyKyIIgpGS6/07IjEpVa4SY8eZYZBXV8ThVwiC3zsvtu3ZLxIsgQMXLVGFGRMGs3HrTmbOnU+hAqojIxn3//DOg0nT52JheYzSJbOzW16GjZUlEYnajBszLFsEWBWWGb8rWmJIT03B+owVj5+7U7v+HwwdMgitHzZmqUsQBPc+m7NW3H/oilFtE8aOHkH8lyj27dnL54RURoweTd2aRpKq7uv9hsl/z+PY8ZMUl2jWtGr5UqJjE0hOSmbStDnkSY7A3OIoRUqWZcrkyZL2PkipnKIIghASd753i0tXr1OoaCnMxppRvEhBuX6a3QhCSlICNmdPcd/pMTXrNmTc2FF8CvbH/JA5EdFx9B/0F61bSHuH79++xvYDZzh5/LCkPQiCWdPCJSvE5dGkpDQWLV3O84f23LzvKkZXqtdqwiTBNO0Xk8IlBg1IiP3C4UMH8Q8Op22HbnTpID/JU5cgCEsue/ftIzzyC736DqRtq2Y43b2J1TkbKlSpIdp1F1fhqPi1yTIWz5lKi67D6No+89KeIlgu25zitqOr6Ghp0rg1BrLP3Hv8XMyqkUeLv2fNpfz/yKxJeKe9PV5gKZjt5TXAbNw4ypQomsnf4rcQhF/sM/+Jy7PagyCExwT/cw0NGUlJXy2uf0zqEoT/BCi/WMms9iAI+1AEFzJhmUnA9OekTgThF6v6n7k8Kx0EwVJXW1tLdF1M+ba0kNEodQnCfwaUX6xoVnsQ/u2n6SQl/bs5MeN22SUIv1jN/8TlynQQBLyEvig4Ov5seqcuQfhPgPKLlcxqD0LGt0nYfyY4SP6cftsSwy+27z9xea6SYs4/plwlxZzHNFdJMecxzVVSzDlMc5UUcw7LjJJyvRhyHtNsl5hLELINmcoLcgmCSoiynSGXIGQbMpUX5BIElRBJzpBLECRDJTljLkGQDNX/LmMuQch5bHMJQs5jmksQch7TXIKQc5jmEoScwzI3gpDzWKpdYi5BUBu6LC/MJQg5j2kuQch5THMJQs5hmksQcg7LXIKQ81iqXaIqgiBsCBHSz6dEczcpZg25KoIgbFhSZDKSu0kxa0xVEQRFmOZuUlQ+LKgiCKIJVnq6nHeAUGLuJsXMuKoiCP/qN8hv9s7dpJh1H1W1xKChIehmpMudsBFK+22bFIWPYmhwED4fPlK1miElSxQjMSGed2/fgpYu1Q2rSTYWEjqQcKJNU3RJk54+fvAhTpA51dAQd8JWqVINba3slaHsbsoJggbhYcGiCqMg8PNjUpcgCCp9gf4fCQr7hJGREYUKGhD75TOeb95QsGgJKlesIFlKWsBUOJb1r0SGNFwFA67Xr9+go5+P6oaGaEuUrpZWOqJSW2xsrMLsGR+tsuUqZHqO6hIEoT0Cfnl08lLD2Oib8Y2MsJBg4pPSqFQxs4xpVm0RXkrhBctu+vI5Gk9PLwoXL0WVihVUitdkt3xlBEE4luj3MYCq1arK9YVfJQgJ8XF88PtINcPqaAgGXz7vRDyFPpNXX5oHiyhAk5aWLUwFMzhfXx/KV6iEnp6uOOa8fv2a/AaFqVatSo4ZxCkjCMLY9+6tFxUqVcmk96AuQUiMj8MvIBDDatW+mibJZAiSu2jpUaaUcjGvjP4i1EtQ/BOO2ElNSYkJ+H30p2rVal/F1WQywkKDSU7ToFzZnDFrU0UQBFGviOhYKlWU1835VYIgvOMJKTIqli/D55goPDxeU6JMOXEcFQS6pCThVJXwsc2YDEq55lN4KDFxSVStVEE8lRUcGEBAUCjVqlenaOHMUulSyvw5jzKCIHxHP/r5UbhYCfL9dFz8txGEezdsGTNxOt26dsb+1kOeuT9n6qghxJGf9KgPGDXrztqlcyS1fd/WdTz3jWHfjnXZ0kHYuGoBzzx8RR+EW3ed8HzvTbFsnG1XVbksjznmyUNa4mdaNDelcach7Fo/X876VV2CcPnsMab+s5Y2piZ4vA/A4eZ1+nVrT3nj+jjeucX0ucuZPn6YqmqLv8+bNgGTDoMZ3Fu6/LRw3bghfZAVqkzkxzeUqNmCfZuWZJtkKKugsmOOJw7uYOH6PTx0fUb5YnnlJGzVIQhpKYn07d4BncJViAh+T+OOg9iwZDoBH97TqpUp63dbMrCXNHOfdx7PGT/tH46fsKKcCvXFH9sfGuRH69ZtadOpB88fOjBv4x7+7NRa0jOUmikrgpA3Xz6mjRuF/YNnPHF1yhEdhIw6LZg5GXOrizx/8ZLzJ/ZjbnWZqmUKo5W/OGdOHpVEZN95umM2bjJnzttSuri0gXPu9InsszzF/YfO1Kxani5tW1Kyal0Cfd8wePxcpoyWJoGtCtusCIK2jg42Jw4zbtps7BycaVCrqlxR6hAE4cM+a9IYrG+48Nr9majpEhocgGnzZnToN5Z9m5epqq74+60rNqzeeZyrl8+ST0+KtFIqA/v25sHT13i4u4lmTS73bjB46Eha9RjMsf3bJN1XVaYsCYKGBnpaGnTt1J6YPCVwsLUStQcy0q8QhNjIUFq0aEGZ+l24YrmOdq3b0rHvX1w9f4pxs5YzZlB3VdUWf59uNpTWfc3o10O1oZuQ3+X+TYYOG0WZOqbcv3oGhyvWjJwylw6tm/H4hRf37t5S6KciqTI/ZMqSIGjkwen2VYaZTeWIzXXaNzISJc1/xPS36CA8uHOD4Jh0BvTpgmnjepifd2Bs3w7MWrmNAvEf2XfuPhdOH5LU7gunjuIVHMfcGZPUml2dObSTg+fvYm9rLdka1fvNC155fRDZejp56NCxUyY1t6wIgiBu8lf/Pujq5Sdv+Toc2r4iRwjCDdvzFKlYmxL6ybRo24NHT5y5cMGWyZPGMf/vsfjH5ePkoZ2SMBXkOms06Up7UxNJ+YVMstQk/qhVg+1Hz+H15C47j9nzzMUeLUE7WUUSBjnBjyPkU7RIKAoULk7blpnFRRQKJWlq4vPajXGzlqCTlsQBq/NUKCpvT6wOQYj/HMWmLduYNG0GtqcPYXnLi5sntzFsUD/0S9dmy7rFlCgmTfQowPet6CK4avVaShSTboPrdMeelj3GEP3pA9fPHuKkoy8XD21UBaf4e1pyAvY3bpGaLoiRpWFc2wTjapmlXhURBEGT/coZS45fuInP27c4ujihLcwQvyX1Iwgy7GxOsGX/Sd55uHP/yQsGdW/N0cv3KFdARp16jXns7kFRCWqTgvHT8pUb2bBlC0UL5VeJiY+7K2t3WnDb1hpr+3toJkXSyLQLfoFB+L1ypuewafj5epFPR9kMWsa92zfEGZ7QZwsVK02r5o1F/5Afk0KhJA0NfF4/Z8rMhcQEvWfbiSs0risvnasOQXCwPcPWQ2cJ9H3PfScnNGXJjBo+FD1tXXRLGWO+a61KbIQMgsOuxVk7tm5ai56O6kiX49XTIimxsT7PS49XFMqnzfgxo0iIjweDcpw8otqsKSTAB5fHbqJPifAdMm3TjuI/PcssvRiQMWfaBALCPvPhUyLOty/lCEFISojnr/69iE/V4otuGa6ZL6dhq844PnjAirlT0SlRjx0b5kvCdOvaZTRo3Ys2Lb5aCShLgmT8lClTifv8Ga9PyTx1uMTdm9fQLFiORjXKUdXQmAePnlO5grwU9c9lPnF5SFBYhPhvg8LFaNOyeabbKnZzzENyfAx9Bw6jSH59xsxeSYemxqSm/l8gCBk1vnvlNFOW7sTjmRPb1q/gn8WrxBfv9IWrDOjVRSmgGWZNAlMUXlBBzMWwZvbMmoQQavNGDVm6/TA920pTHBMqdffaGWyuP0RbU5NUNFm8dDklCssPUgrdHHX12LZyEc+C0unToBSXX4RgsXOlnMiHuhEEoV6JUUGUq1ydDv1GcNJ8jxhREbzhGzU0YcO+k/TpZKoU05t2l/ELDBf9IISPylezpk6SzZqO7N/GuKlzkMnycPnWA7pLxFRQXhN8FDze+YteDCUrGDJvxqRMdVVEENIS48TZks3N+6yeMYXl+09QukAe0gQbw29JHYLw9VIZC2dNZMehMzxyf4vLlaNM/Wc55UqX5EsSvHr9hmIGWWv3fzVrsvmmbqktCrro5s3P0MEDVY0X4u8Bvl5UM65Lq7YdcX/qwvTlm1kwZZSkawWzpqXLV5GUCqkpyXTtM5iu7TM//8wEQYMAH0+atGzLi6fP6d69N67Pn6CR/q/tq7oE4eP7t9Rv2AjnR0/p2KIlD9xe0K5Zc7z83iN8llvUNeKw7QOMK8ovu8k1+JtZk/B8hXdfeO+1dPUZ2L+/UrMmoQzBi0FwX7xs70ik31u6j55LTPBbAt66Ub9RM975h1FGiQ+EsC67ee1yAsO/iF4fZavVYeaUsZLMmoR3sWXzpqzeYcHyUb3ZeNaeBjUqyzUtuwTB+/ULatRvjIeXD0N7due2izM71yziuX8SZh1rc97Fj0P7NijtL6JZk+11cUlRSzOPiGfRUuXo2U25WZNQaPSnQAzrNuPt61cULvTVP2P9in8kmzV5PHVkv+UZtLV1SE5NZ/qcBVSvUFL+caenExkZKfc/QcTr9uWzrNpnzZ6lkxg2ZyNPH1zLZE2sjlnT8X1buPY0iL86mLD2+G2crlgwacxQDp84h27egrh5vKZqOWXLNjLRelowaxLaJRPG0dS0r2ZNlVQvu8h7MXxt9vED21i7y5LHjx6RP69yv5Gj5rt48earWVOp8lWZO3OKJIIgTHW7tW7KlFV78bl/AZPe42hjUpXk1P9Lbo53rp9n5sL1HDt5gmoVylCnVl2OnD5PQVkUo6Yv4tljJ6XhaW8vDx66PEEI22lqaJCYlCgOpi2aNJA0gAqZbpyzZNMJO65dOJMtsyYby10cOnMNbS0tkmVaHLKwpFwJeROdTARBqGPMJ0waNMSoXiOiQwOIiE/H7rodFUoW/R4SV5cgeHt5Uq5iFQL93tKhUxfuOD1GOzWOQYOHYDZ1DqOHDlKJy+0b1/APCkNPTx/B/CkpKYVmrdpTo1oFldeGBfrSsEkrzl68Qsi750yZtxKPVy8pbKB6die8RCsX/cPjV+/E9b3yhnXYs2WNSoIgKNNZ7t/G4jVbMDU1xe3JU+o2bsHRIwfl7LfVIQjCuu5zNw9q1KiOzZkTrNhlRSujElT4oz1r5k9j8J/dad1/IpOH9swSm7jYL5y/cFH8XU9Pj8SEBHTy5mdQ/z9V4pmRwd/3PcePmHPw5HkeP3lC8cKqrY2Fa5M+hzFi1FgSUkEgwoKv/LD+PTLd92eCoKevx+xJY7h05xG1qlXC2eUR0+cvZf6MSQhr+EJSlyAs+2cK+09doWFtY+7cucecRYu5eu4UN5yfUUQ3nVpGNbjz5CWliihpY3oyVqfOijNOYR+BMFvX1tWnb98+6Olk7eb4M0FIiQqiVZf+hIaH4OfpRvP2vQkKDqBQPmXh9TSmjx+Fb3C0uMmwSp0mbFu7VKVZk+BWaG9znDEzFtO8SSNc7t+jVfc/OWZxQHQHzUjZJQgLZkzk4GlbmpjU4eGDh0ycPoNzxw9TprIxiVGhhEQncvu+I0aVymTZ3yLDg7lid1N0xtTR1iIhMZEiJcrSrXN7lWvtv0oQXB1sWbZhNzq6uqKF9obt+6hvJD/WKIwgpCVj2qQhekXLo6uRiruXL8dPnaFdiz9I+xYSV2eJISo0gEqVq1GrYRNS42LwDopk3dI57Nxvib3dNSx2b8DR7QN2tjZKos0y7O2uEBwaKb7zwjianJJKy3ZdqCZB6v5ngmBz8iD7j1/g4EFzKquwehYe8rrl83F69lr8dlaoVovdW9epJggaGrjeu0HPAcNo3boNft5eGJQoy9kzpylS8F8/jd+2B+H+zct06TmAKXMWYFy5PJ269KB3l1aMmPQPeikRHL10H2eHq5IG0SsXz/EuOJa/J45S2aF/LPBzRCj1axmz84QtPToon1lLqshPmRR7MUBQcJDYia+dOsodr0+cPLhVbmlEXYIwb/IoApPz06FJTRau3oLLvVuMGjaIiBRdcVArV6EKnTtK21NwaN9OjBp3pGVD1S6OGc2OCQ+mYdPmLFm9nsC3Lzlx/jquTg8pkE/ipjMJICuKIAgb3j5FRJI3b16mmY1h1trtNKpZWW6HuDoEIdDHk2ambVi6ZiPPnW7hFZGH3k0qc+7WE5bMncaCuXPYe9QmU5hYUTMEk6D1m3eyZNlyikn8wGeUExLoR5euPVi2aQ99O+e8qZgiN8fP0VFEf/5CSlwM/QaO4LrDLUoV/1eXXV2CIGwo+xQZRUr8F1q3bI/jczfMty4nKFGf2uULYWP/AMfb1yVtUA4K+MCGrbtZvmIVhSUZgsl4eM+BPn17s2LdDjq1NaVDh7bMnLsE9yeO5ClmzMHNSyX0QtVZFC0xCCQtNCwcDdIZ2Kkdi/ccp1u75nKnmLJLEGKio4iMiobURHp164PdfUc00pJFi95bZ49y82UQp47t+7pxUUV69siJU5dusnrFYnQlbC6WpaVw/eolhoyegqXFYTp27EBY0AfWrl6GT3AsWzZtpn5d6eNHVtVT7OYIYaGhJCYl8/qJM/M3mPPwzhU5N091CIIQFfL39xedQu9dvchOmwcc2ziTASPGs2vXLk6Y7yJOrwxnjnyNzipPMvbt2EI90640b1hLFfzi795v33Bw3y4u3HnBxdPHCPFxp2vvgcxesJhqFcuL3j1FC/26AZaiJQYhyhgUHIowQdi5egl1Ow9hULfWcuPobyMIdhdtcHVzRyauj8oYMnw8BjpJHD50mFRNPSZOnkTZn3b3Z4XwSYu9uH/4wtoV88TwtNTk/eYV1nZ3mDF1kqQ1N6nlZuRT5sUg5Hn97BHvQmPp3bVdjpg1xX2JweLQfnFNbuRoM4rpyth7+Kh4SiNdJsPQqC7Dh/aX1Iw1S+bSqONgOrWSHo0RCg766Mu+fQfQL1SMiRMnUqSg6uiBpAp9y5TVJkVhl7C2jjbWVla07dYXg7xacpiqQxCE5QV/n3fsO3hIDNWNGztajDJdvWzN7XuP+GvEKJr+UV9S9QN8vMRNucdPnqZkcel7EIQ6WFkcRK9Yefr26pajGz4zKp7VJkUB07SkBA5bHMNswni5d0tdgvD93UhOZOf2XYyZNBltjTQszA8Q/iWFiZMmULq4tH0dfj7vmDB1DlanTlGkoBTjLBmb1q8jLjGFhPgExkyYSslCOqIdd4kKVTEbOUwSMZHywLPapCgeyUPGkT276ND/L8qWkG9rdgnC97qkp3Jwvzkjx4793oa3zx/xOiiGPt07SqkyTndvsOXAaayOmaOrrfokQ3pyPKvXbkCGBnEJycyeO4+XLre57/JcbGOl6iaMGd5P0r2VZcpyD8K3jR8hH325dNuJcaOGivfNSGoRhB8q8vbVS+6/9GHsX71xe/KII8dOYFz3D0YOH4y+rvIwf0YxK+bPoHnXoXRs3UgSDnaXbXB0fYaOlhY16zelgOwLj9zffD0Sq5GHCZOmU6ZkdsYPxbdV5sWgqaXFvevXKFuzAVXKFpPbH/fbCIIktP7jmVTpIAgbc4SlEYHt/5jUjSD8x+GSVH1VOggCdkIY/AcjR7Fc9QiCpCr95zMp1UHQ0EBH++veiR/TrxKE/zxoKhqgSgdBWBZNS0mRO2kjFKk2Qfj/GFBVxxyFvRPCcerk5H+XagQ4fpUg/H8MqWjAFh0dnWUTBZIgS0vL1D9zCUIO9gpVBCGrW+UShKwfgiqCkNWVuQQha0xVCSUpujKXICgfKFQRhKyuziUImZFRRRCywjKXIGTdR1URBGWY/pZjjjn4Hf5/tqhcgpDzjyaXIOQ8prkEIecxzSUIOYdpLkHIOSwzSsolCDmPabZLzCUI2YZM5QW5BEElRNnOkEsQsg2ZygtyCYJKiCRnyCUIkqGSnDGXIEiG6n+XMZcg5Dy2uQQh5zHNJQg5j2kuQcg5THMJQs5hmRtByHks1S4xlyCoDV2WF+YShJzHNJcg5DymuQQh5zDNJQg5h+V/iiAEB3zkzVtvKlUxpEql8sREhuPl7SuqIhYrUYbKP5lv5DRMb9+8IiY2QSw2j6YWtevUlXS8R2o9siIISYmJvPfxEdupp5+fKpUr5sgxx4x6Bfh9ID4VqletRExUJM/d3ChVpjzG1atJrbra+QRzo6dPnqKtn48GJiYSzgpn71aKCIJwdCwiPITQ8EgRx7LlK1LIIJ+cE9kvbVKUyXB/5Y6hUS30tMDd/SUJyYLxkg4mJvX+J0cPf0Tlc3QEL9zcKVysFLVqGKklJ64MZcUEQcaH9+9JEHaGa2hgaGgoZ+Kj9iZFmQyvNx7ExMYDGtSuU0cUtHJ/+YKE5DTq168v3awpe11HzJ2WmiI+P0OjmuTLq48gb/v48RPRrKlO7Vo5hq1igqBBeGiwqNkhQ0aZchUobFBA7sRN9jcpyvDyeEVMXIJoClSvvglpSXG4v/YUDYLyFyhEDWN5OWc1YMvyEtGc7c1b6tSt871/BHz8QGKaBtUqV8yRW2VFEARzOm9vb9FgShBMM6xuKKeD86ubFN95vUErb0EqC2ZN0VE8ffac0uUq/M/H0dDgQCJi4qlpbCgeb3z31pOgkHCMatSidMliOYKpYqllDWI/R/MxIEgcR4sWL02pEkXkvk2/7RSDr9dL6po0o3oNY/yCI/Dx8eH0nrXMXLaeAvnzMXXOChbPmSgJjDNHDuAeGMvKRbOzpYMwvH9nbju5iwpiUZ/j8fL1p2wRKeepJVVLlE8WJELlnbw0eOx4i54DhlKsaBGatu6O5YEtcoYYv3qKoWmDOhSr3oLLp/bTrW0L/CMTCPTzxvKMLX26SDP6Wb9sIX90HkiH5tLO+WcgMmPsQJw8woiPCqLz0ClsWfK3NLAk5lJEEAQ1vZljh3Lhtgt58mhhfvw8rRpV/66oJhT9KwTh1uUzdBs0Hg9vf0rpfqFSZUN0CxSiTMUaPHG+LanmgT5vGT91pniWOjteDDGRYdQyqkrxisZ88H6LzQ1H2jWuK+meUjMpIggpiXHUrVEL9PORL58Bt+/coVB+ve8fM3UJQlL8F+rXrMmnhBR0tHW4d/8hD65bM2HOckoVzkvDll04Z2UhiVh+9PFmyswFHD1+lCIG0t7bbWuWsGjdDh46uWBSy5Ae7U15F/KFqPBgdlleYFDPNlJhU5pPEUEQMJsyaghX7j9CW0PQKDlFp9aN5Y6SZZcgpCbGYVihDLHoiWTg2fOnPL9vT7f+QylSuDDtuw/k+KEdktrkeu8m247YcNR8j+SJ0vih/bC9/4zXgllTIQOC/Lxp3KQ5bXoNQTBPy4mUFUEID/pIM9PW6OXNR/HSVbhhd1HOxfVXCMJHrxc0aN4BB9eX1K1Wio4tmxCZoMUH79ccO3+D7u2kyfKvWTiHpt2G0N5UtReDgFVYgC+mzVtQrGYLHl4/x+OHt2nToTuVKlUgOU2Lx49cKfw/EkoSZKEPb13Byp1HxKPN85ZvY+zQbqLcfkb6bQThuesDHJ+9Y8r4kfTt1IJFe6w5tGoqBas0xmz4QIwE61WJqkfWVpZ4BX5hweypkq8RGiywJOHv0onDbDhkwwOHq5Jc5IRrBfMdb7+gb2ZNGjRp0hR9XXmZV0UEIY+mNscObOWBZyRzJo2genVDOf1woWx1CUJyYjyjBvUhPCYJjSKV2TL3L8bO2YDLg7mCJ/UAACAASURBVFsc3LySS06eXDt/StI7u3PTWmo27UqHltLNmgQ1t7qGVTl14yGvnOxZtMUKzxf3kOSgLZPx6uVz0bZViKzkNSjMH/XrZKqrIoKgqZFOh1bNmLV0Ayb16lC2VAlR+/zHpC5B+BT8kV79h6IleEVY2xHn68rQiXM4dNCcevXqiLNQKUnoLyvWbmbNug3ZIgjOd2/SsucIIkP8sDt7CGunj5wzXy/llqSnJuHs4ipKEgu+GpWqGVGpXGbJXUUE4VOIP/UammJ94QJ1atcU1TBlP4hLqEsQwoI+UqtOA06cPc8fDeuLqnCmjU3YefQylYtAo2ZtePzSncL586lso/+Hd6xYs4kNm7ZRtJDq/B9eP2bB6u043bbj/I37aKd+pmHTtrz3C+Ddi4cMm7IYHy839FWYNT175MKXxBTR2rhAoWKY1K0lyaxJmIi0b2PKhBmLaNGkIWVLl5DzYBEanF2CEOL/nnJVjLG9eoPGjRpQtHBBdm1czs3ngaxeNIuaNTIsylXCiaujA0fPXmXrlg2ShOMeXj/LEetbXLe7Lpo1Fcmvy8hhg4mPS0CneGVOWqg2a4oIDcT9zTtxHE2TyTBp0IhCPznqKlRSzJOH584OLNl6lE2rFmJsZISGMJ7ngFBSTFQEHdqY8ueoGcyfMR5H+/P8vWQLj10cObh1DVbXnbljfzWTpXxmhGVsXr2Mhu360La5asE5wcTPbPRI4hOS+RAj44nDJe7fvk6chgFtGxlTpVo1nB6/pJIKueXXr9z4FBkjVidfgUI0NMk8oVAUQRDM2Ib0bItpHzO6dGgjRoCSv0mr/3aCIM7qYj8zdMhA3gfH8NjpPrMnjcXV/Q3BH31ZvG4XE0cPVtqrAz/64v7aCx0dXQQlUeHjUbZCVerUrK76bfiWQ5CXbNmsGdOXbmBIrw6Srzt7eAt7jtmirf3Vi+HkqdOULyFvOauIIGjr6GK+cxMnbK4QHRFKp95D2LByodxsV12CcMZyH1st7Zg3uie7rO8zpXttzjx4x7kTh3jqcIWJS7aJjFRZevbImdCIaPT185KamiyKj9Ss25BK5eQNVBSXIWP98gXsP36e5NhoVmw5wLhhfSVhKngxLP5nGs4v3opRoIrGJhzevUkSQUiO/8yAP/uSjBbhEVGcOHuJmlXLIgwsGUkdghAf+4UBPToy5p913LHaz/RNhwh8foNZi9egIUulUOnK3LhyUc4G+ecKJybEc9/RUVSby5c3L3FxcaJvQLs20iSTfd6+onmL1oybPBP7y2foOmw6K2aPk4Rp0udQBgweRnyyTPRiGDV5DqMH9850rUKzJl8vRppNFJXpYhJSuOPgIOdWqi5BEKyyBw7+S5yVBIZ9wtnpAZ1atea1r49o1tS0tjFH7R5iVF6JmmJ6KjdvOZCOBnnz6hEfFy8u97Rs1VL0ElCWvpo1leGy/QOi/d/SdegsYsLf4+/1EpPGzfAOCKd0UWVStmlMGDkI74BoZLI0DOu1YM+W1ZlIsMIIggYMGzKI0E9ReHm+5sxFe5o1rP1LEQQfT3f6DBwqqifGfEnA2dUVq4PbsTx7SVyy7TFwNNvXL1eKibCE5eT6GE1NLfR0dIiLjxddAJs1bvhT9DNzMTGfAqn2C2ZNzrcuMG/lVnEMT0pJZ8eBIzQwll+aUEQQhLret7/I0nXbSEqIo1SVWpw5dkgu8qRuBGHbyrlsOHCaogXzUbpKTfq3rM35uy+5fu08D67aMGH+ap48diWfflZqijIeuTgREfX5+zgq9Pc6DZpQrmQRle+uIrOmc8fNWb39MPfv3qZgAeVkeOXCmdxzdRdJayWjehzasyXTPRWeYkhPZeTAvoTGJhMWFs66bQfo1q6pHIn9bRGE5KQkUtLTEdzupk8eR6+RMxnQpYW4jubuZM+8TSe4Yat8tvvG/Tm37jqKHVuINqQkp1Cj3h90aJ3Z3jKrp+Jsf4lZm81xvH5ZstWzUJb55kWs23tKVOtKkmlx594DqpSRf/iKCIIwCxMkgYX1Mz+vFwwcM4Mnrg9I+UGpTh2CEBcdRtWqhlSuUZe4yE8ERXxm7rSR3H/uxxWbk9y+eJJlu0/w4Jad0g5qe/Esvh9DvtUxXXR2a9upJ/VqyvvWKyokPNAXk2ZtuXTZlgCv50ybvwI3N8GsSfXsTpjhThgxkLvfOrZhveZcPWcpiSAISzhCuFqWJw9rl8wlNLkI29bMFtXCfoUgnDqyj5ETZoi+8F6vX1Gmak3sr10mv76u+OFs/ocJ5+ydqVxGnhj+WOkvn2M4fvw4grGkjo6OqEiol8+AsaNHqBwohAxChCs0KAj7KzYsXLOdp0+fUKq46kFGuDYhKogWLdsRm5wu9q+/F65mxvhhEgjCVzMmzTx5xPfqz65tmLFiN80b1BDXe4WkLkEQ2iNgIBhyCTbPY2evYf6siTx47oWBdip1jIywc3lBuaJKzJrSktl/8JC4LCe8K0LbtPXyM2LEUPR1lRktybs5Jkb407bbYD5FhOHn+YLGLbsQGBZMkfzKvENS6d2hJa8/RkB6GjUbt8fmxIFMluZZbVIUwriCfPauNXOIzFOOFYtmkpT0r0pldiMIAp5JSUloauZhVP9ujJqzmbbNaov9JuzDGzr/OY5X7q5K+9qnkABOn7vwzc1RU5w1lihTkQF/9lTpbfOrZk23Lx5j7Mxl355jOicvXad5Pfm9UlktMQjjvuCd8DkihLqNW+H66DHFCssbC2XbzVGWSqPqhmw/aU2tKmWoXrEK46dN5METTxxuXOPa2aMs2LCbRy7OmSLG/4Is44L1GdH07qsrbjqpqWl07NFPnLioSj8ThMf3rzJyymLs7O2pWEaZi+TXkqePHc71+1+fuXG9Jlw+d1waQdDQQFdXh7Q0wZL9ODuO38bu4hFR8TMj/TaCYLFrI/vP3GDBrEmsXbOKzftP4nLzAlWNamB7ypJixs3YsnqhKizF3+2vXMAnLIEJo4eo7NByg3d0BM0amrB02yEG9uok6V4ZmQTTmc+xcSLDFj76JUuVlNvEJeRTGEHQ1uLQ/t2ULF8NlzvXeRMYjY2VpdzHTB2CIMzAXZydiI1PxOnmNS44vhL3IHTv2YdFS5ZhuX879Vv2ZP2KeZLaedziAJXrtcI0G2ZN0eGBmDRszOKVGwj2ec3hs1dwe/oIA4lmTRGfwkn6Jpeqpa1DieKZN+QoWmIIDfzAAYvjtGllyuYN6xk7ZyV9OzaXY77qRBDCw0Jwe/lKfMZbV61g4OT5GMgi8AmJoYSBNlt3W/DAyYl8uqp16wWzpn3mlvw9YxZFs2nWFP0pmLbtOjNjyTpGDugu6fmJ5CI9jZCQUDHoKnwwChQshIGC0P3PEQTh4//ymQs3HZ+I1rsrV63lgt0tyv6wYUldgvD29QtOX7hOjarlWDBvPhdv3GX/xqUk5S2HUZn8WJy5yjNXR/RUfOiF9gUHfmTPPnNmz1tA4Z/C0opBknHf4Qb9+vdnyeotdGnXktYtmzNn8Wreu7vwWas0x/dvVLHpVCaaBAnkRPjQa+noUbxY0UzXZCYIGiTGRbNjzwEaNWzA6iXzmbxgHYP6dJaLHmaXILg/c+H0pZvUr1mV1StWccH+HrdsT5GvSCk8XO7yMiCWK9aZPxCK8Hn51BVru/ssmjcTXRWRGLF/pSVzxfYCw82mcfjQITp36khogC/r1y7HWzBr2rCRBia1lfbXhPhYIqNivo2jMooVL5HJD0MRQRA+VJetTxKbpktU0HvMT9nieOem3Edb3QjC5OH9yF+pAbUqFmXyzPncdbjJyBHDWLF6PccO7qR64y5sXjkv07KSooYe3r+TWo3b0bSBchwyrn3r6cHB/bu5eMeNC6csifB/Q9ee/TGbMoO6NY3oN2CQSrOmyIhPoomVkLIaRxVFEOK/RIveGu07dODU0UMYN+/O/Kmj5L5Nv40gpCUnsW7VUq7edmTYqAlMGjucExb7MLe0Etng+lVLKZBP2vru5tULeeQZxamje9HUlO7W5PbImeVbDyB8DFV5bEselX/IqIggCOuQDva2bN62Swz/rF2zggI/harUIQg/1s/VwR5b5zesWjQD57s3mLdoOc3bdWX18sVoS8RnwogBNOtuxqhBXbLVdPcnzsyet5C8hUqwecduqpUrnq3rVWVWRBASE2LZtW0zDo6PGTzCjAmjBn9/QTLKU4cg/FiXPZs38ufY6cQEerJo0WKi49PZvG0bJrWMVFVZ/N3T7RF9h5hx3f4mFcuXknRNRqatqxeToFucRf/k7IbPjPIVuTmGhQSwfMkSAsM/M2v+Qto0+0NuyUZdghAVEcq8ObPx8g1m5vxF9OnSjqhPoUyfMpnw2BS2bNtBreqVJeHj6fGcnr0Hc/ehC2UlGdikM7j/n6L9dcSnCDZuP0DFIhqMEwxwqtRgz44t/1OzJuEExfbN63BwfESvQcOYOPIvZLJ/l8GERmeXIISFBDL/n9l4fwxn9sJF9OrcjptXL7Bu41bKVK7Jls3rKVVMmrnPVZsTzFt9AFen2+TTVx6JEeqanhhDjz4D0dHTJywsipNnz+FwyZKzlx3IoyGjRv02bF2/QNKzVJZJEUEQ+p/Hi8esWLUGXYMSrN+wXiSwPy4rqksQvnyOZvrUiXwMjmbl+o20aFiXR44OzJy3iJYderBu5SLJJ5dG9O9G50HTGDqgqyQc9m1fzznbW+TX16Nxq24U04jG3ukRCQmJyMjD7n2HMaxcWlJZyjIpIgjpqSkcO3KAcxftaNm+K0vmzSIlRd6D5bcRhF9u4U8fYmEWryXBojQn76uqrKyOOX61XhXmdXnEAUKY3f2YfpUgqKqXlN+FDiSE8L4Zpkm55LfkUayDoCGGWAVXUAHaDD/4Hyv0qwTh1xsnhIJTxBBedpPQP+RPwmS3BOX5FW1SFO4nLC9kdM0fB16hNHUJQk7WXFyuSElBVyf7mOZkPRSVldUSg2YeTWTC7gmNPJk2KKpDEHKyHRmhcB0d+c3WOXkPdcrKaolBzsJaJlNoLJTtJQZ1Kqjkmq/jqOb/9P1Vp8pZKSkKdVU2jv4nCYI6AP2Oa3KFknIe5VyhpJzHNFcoKecxzRVKyjlMc4WScg7LjJJypZZzHtNsl5hLELINmcoLcgmCSoiynSGXIGQbMpUX5BIElRBJzpBLECRDJTljLkGQDNX/LmMuQch5bHMJQs5jmksQch7TXIKQc5jmEoScwzI3gpDzWKpdYi5BUBu6LC/MJQg5j2kuQch5THMJQs5hmksQcg7LXIKQ81iqXWIuQVAbulyCkPPQZVliLkHIebBzCULOYZpLEHIOy/8cQUhMiCMkLIJKFSuIO/vfeXmSkEK2JELVhS/Q34/4xK/HOIRdxRUrV0aQm8yppIwg5NHUJCw4CJmmDsWLyh9D+tVTDJGfwolPTqNcmVIISn7u7u6UKV+JsqWlqCH+WuvT0lJ5/eoVunkLUN1QtbhSdu+mLIIgHK3y+xhA6bLlMgnXqHuKQVCZyzCBKlGqDIUM8otVFvptaHgUFVXInma3fYryC8ePXrx8SbGSZahQ9tePOP18D2UEITkxgeCwT1SoUF7uaNevnmKIj4vlo38gVatVEyVrP/h4E5uYSk1j42zJpWcbX5kMX18fsY/o6eqKJ4heubuRv2BRKlWUb2O2y/7hAmUEQTi55Ov7gbLlymc6VpndY44ZtxRUPwOCQ6lWVZCoF05HyQgK8CePjj6lS+bsUeMfcREEzj74fqBipcriSSIhRUdGEJeUQtnS2TvOmxXeygiCRp48CNLIX+KSKFtG/n7qHnP09/MlMTlDZE1G+fIVRXVX92/vYMUKqsWOfqXvCOJqEdFfvksqfwoL4YN/EDVq1iSfvjIRL+l3VbYHQTi95P/Rn6LFS6L3k33Abz3FIJwLnj5uBK7vInjsaM/6VYvYdfA4GukpolnTglkTJLX4/m17/D4lMGxgn2wdy5s4/E9uOrmJXgihkV945/uRskW/fgByIik75hgV6k/Hbj3ZtOcobZrUzTE3x5SkRDq1b41emXpcPbOfv/p2x8M3hJCQYKxsrtDR9A9JTTt/+gTVTEypa1RJUv6vmWRsWDqHw2evk5wYy6xlm5k2eoDkM8NSbpQVQRAGxS2rF+DwzI9rl86S9tP5XXUJwopZYzA/d1M8Srd5rxV9OzcRlfvGD+/P20hNHt68IKXaRIYFsffgEab9PUOlVOqPBcZ9iaZnlzYEfEoUVS2tr9rTsEbOunJmRRD09PQY0rc7OqVqcHD7Grk++isEQRBwMhvan+BkAy6cOoz9pdOMmTyb/Hpa9P3LjK3rVkgiCeEhQRy0OM7fM2fKyUBn+aFJS+X0MXNGT56Ds+sj6tWszszJZly++UBUxjx8woZ2LVRr5kt54FkqKerocGDbWnYcuYzjvRuZRMTUIQgCnkP7dyderxzWxw+Igm1vX7vRvnMPDlieplv7FlKqjOerF1y55cSMaRMlqcqmJieyYcUidhyxxuu1u2jW5PvOk57dOlGvVS9OHt4t6b6qMmVFEISjuOnJ8XTu3ImhkxcxemC3HNBBkDGkRxsevQkQnT+DQsJ44OzKnk0rcXn+moiIKCxOnKdXZylqvTLOnbDE+I/W1DGuoqqZ4vgZEuTP4H59SchfEZeb53F76kLbTj1Ej438hcvjeMeOAvml6QMpu2FWBEF4ry+ePsLqHZbccbgpvpM/nsL/rQTB9sxRdlicJSk5nTs3LrFk8RJGTZxOWuQ7Rs7ewOO7ymWBMwA4uGMDz3w/s2frGrITAEhIiCc1NZ07tudYucMC54d30ZaopZAYH0dcQuK3KmhQqHDhTA50WRGEhNhomjVrwcot+/irb1di4+LknqXaEYT0NCaNGMALL3/yl6+N3bFN1PujDS9euTF30ggS8huyf5tyXfaMisydNp6m3UfyZxdpg4tID1ISqFW5MjYOzng8cmD2qkN4v3aSLM4kMOfkb85hggJYQYPMmvgKzZq0tHjm5MCYaYu5efsmxQvqZ9JCUI8gpNO6QU1W7T1B/ZpG5M+fX/xwnbLYyxFre9Jk2ty2s5bw4oOP50uGjBjP+ctXKFtKumWrIHTVqu9Ywj96cf2sBdauAVgfXCfpnsJMNSpK8Az4qrORN18+9PUyz0AUEQThI7Nz3SIevY3E6sRhUhIT5GyJf4Ug7Nu0kot3n3He+rQ4I2rVqD7rzM9hWFSDpqbtcHvtSYF8qt0Z33t5MGzMJC7aXqVkEWX+CV/h8nzswNiZKwj0eY213R300mOp37glb7w/8v7lA0bPXovP66foKXUXkxETHf3dfTWrfqqIIAgfNNe715m7YjN37jigo6lByg9y4EId1SEIFjvXYe3wgjMnLUVxudiocFqbtmDOml0M7tNZMkG/Y3eB1TuPc+XiWfR1lXtaCHW1s9rHbit73N2e8cL9FYXyatGuZXMKFCqCQRkjTh5RbdaUnJTIl9h/xz+DQoXQ1pRXJs0ygiBLo1+3jjTt9herF88kJuaL3HuhbgQhIT5OfL537C4zds5aXjpfZ8v2PaxYuZy1y+bgFpDIZatDEnCVMXP8SNr0G0fvzi1VvrOCp0THtq3Ja1CUT6l6olmTrc1pEnVK0LVlbWrWqs1d52dUURG1/PL583eTJS1tbQoaZJYtV0QQBMvsLxFBtO7Uk5PnLlPHsNz38Tij8r+NILg/cWLQ8AkI2v+jzKbj+OCmWIfkpHj+NvuLAlWasXGlclngj77ePH/p8V2EQhgQK1SujkndmiofRkaG1NQUOrVsztBpSzD7q5fk62xPHeDY+VvfXMi02LlvH2V+0o9XRBAEU5JNqxaw96gN1atUpH4TU9YsXyR6M2QkdQnCxVNH2XTgFFOG9ODgFVccbI/Ts2MbkjXz8vSRC1Y2V+nStpnSNro43SckLOr7DE5oQ72GTalSQVpoe+mcKVx/6Cbqo4+duVR0rJSShFnQhtVLefbKW4wCVTSqx8aVmaW2FRGE+M8RtG/bFoNSldDTzsP0OYvp2KrxL5s1pSR8oXe3ziRr6vMpIpKjpy6QHuWH2ZR/uHb5LEPHzOD2jYtKmycMNrdu3Zb7uOro5aVLJ2nGYO9eu9GgYWPmL1vDfftLmHQezPr5U6RASnLsJyZMnEp8ikzsXwOGj2Ng786ZrlWkpOj9+gUt23WhQaNGaGpqs3f/QcqXKvZdjEZdgvDB24P6DZpSs+5Xl9D9+/cyqHdv3N+/R/gkNaltxInrzhiWU+I3kZ7K1Wt2pAkGF2KSoamtT8cO7ZSbNclkJCR8wbBKRS7ZOxIT+I4ug/8m+pMv/p5umDQxxScwjFJFlEUR05g/YxK+wTEi8apU6w/WLZmbaWKiiCDI0lNoa9ocmV4hNEll/pLVdO3QSk4wKbsE4c3Lp9Sr34gmpq1EQR6LY1ac3L+RnRanqVmtMg1btGPr+pVK+0tMVDj3HJ2EhdZvcMooWLQErVo0VSrwI/SpqIggatT/6lUiRBCE93PHxqW89InmpOVBlf30qaMd63dafB1H02UsW7eNOtXkQ/iKpZa1uWJznKn/LKNWDWOKl63Izq2byKv3r4GSugTha6XT6N25MyNmrqRfl6/RgrTkeNq1acfI6YsZM7iHkrbJeOh4j/CImH/H0fR0GjZpSYXSSkzIBP+UxCROH9vPLqvbPLt7+fs9BG+EaUu28tj5PoULKifD2zauwuXpK/HaykZ1WL9ycaa6KlZSTKJnx7ZEp+tRrGB++g01Y9SQP0Un2Iz02whC767t+Uw+GtWozHGr8xw8dozuHVqxe/NKDp6+ifMDBwrkVb7ecufmFQ4cOkEeMWwgExvSunNfJo0eorJjZmTweHSPwVMW8/KxowRG+G+x5w5vY99JW7S1vro5Hjt5ivIlCsrdVxFBEJh568aNOXDhJlWLaFKnXkPuPHpBYX3t7x8RdQhC4pdPVKlanX7DxhL23gMXzwCO7V7HmMlzefzkEWvnjscnRo/zpw8pxWbj6sU8cX8nGvUISXBzHDt9Hl1bN1KJaUxYANUM63D1vgt+L+4w+Z+1vPd5i4FS85tvY1J6Gkvm/o3ry3fiel+F6vUw37Ux0z0VEQTXW1eZsmg1bi9ecNnqMHM3mePmclfQqfx+vXoRhH9vv2PjCtw+ahPkaU+6fhHqV6vASevLHDpqSdd2rbPE5lN4KDNmzBQHv6++HTIKFC7Bwb07VOKZkSHA9x2nrE6wabcFHu5uFC8mzawp6XMYg/4aLu7pSU5OZOSE2YwanJkE/0wQtHR0ObxjA3c8I7E9uZf5U81IL1GDpTPHfzcWUpcg2Bw9wKGrT7A7a86O1QvwT9Tl7qWz3Hv+irya6dQ3rsElx2dUKqFkEExNYJTZeJKSU79jqpe/MDu3b1Epzy64OVYsX1YkCAnhH2jXbTQR0YFfzZpMO+EXEkxxA2Uh3FQmjRqKd1CUaNZUtW5zdm9epdLNUVgrD3rrzp9ms3jxzJVH9tYs3n2SGxfOIEQyM1J2CcLRnZs4cO0JD6+fYcvKhYRolsDt6gmW7bHCtH5ljKsbc//pG0oYZK02+eHdKxYsXSNWQSDnQh+tbFSPVUvnZ4qK/txpBbOm6nWbfScIwu/rV/yDu2+MJILgfOsiC1dvQ0dXl8SUdLbvPYyJBDdHfT1dRvbqRK+pyxjUpQUNahuzbr8Vpn/UFpUAhfQrBOH+1XPMWr+PJ44OYllJCV/o37091Zt0Zcu6FcrfXVk6q5YtxN3L9/s4Kpg1TZ67nLaNVE9e5cyaZDICfD1o3bEXF67dpK6R6n1dqxbNxvHJK/F7VrF6XQ7uyuyKq4ggBL73pFHL9rx550ukvyem7Xvj9f4t+fX+Vdb8bQTB3e0FEVHRJEaHM2vhWmwunsP62B4sT19h8+bNFChYmA5tpVni3r1ph++nREYN7putPQiJcZ9pUrc28zbv5a++yhhh5v7wKTRItG0V18FkYFi9eiaDE4UEQV+PYf170aLHcKoU0WTOolU4ubqgpfHvx0wdgpCeloKriysJSck8sLflwgMPDm9eQP/hk7lmd5VdaxcRmKjPxVMWkj5Mp08cxbBhKxrWkKaLLxQaGfIRoxp1OHH+Ch89HrFg9U68373J5O/+f9g7C+gokjfa/+JGIDgs7u4QXBZ3dw/u7u7uFpzgENwDwQOEQBQCBA+uISHu8051NmxkJtMzzJ/39p2pc3L2LFNd3XW7uvr2V/Xdq/wCFLz1f01IeKQ0sM0sLClUIPX+B2UE4fUTb5p37MWxY8cRltePPkZzbJ+9ZFaUWLQhCF8+vmHF6o307t2TGeNH0bj3eGqXzs2PoCCiggOYNHslR48dpEhB9fs0vn/5wJoNWxk/cSIZ/9noKOtGiErx0dStUZWOg6Ywwq6zbNlWMSaePXsujU8RXcua/S+yKSEXqcyajIxwPnWYWWt347BpJdPHj6LjoMn0aNvoV0hcW4Lget2JPqNm4bhnG3MmjaR5r7F4OB/AOn8lKhTMyPzlm/DyvK/WlVHA8vXzRzZscWDCxPGkt1RlvZsUZQX+r55RraotW3YfpWLJAhQuVIw9R0/hc/siPh9jOLN/s0RQVRcFL58/IyomToCKmZU1BfPnVW/WZGBAWOBX/m7Ugi07dnHxyE7ehVuwY+MK6atbW4LgdOIw/cfM5sKZI8ydMoZmfSZw+dB6ytVtS7XiORk8eioPHz3ALM1lk4SzP/H15sTFW0wcM0zWZm3xfD164C59lF2/eo1iRQshDH+WzJ/G47ch7NyynixZ0l5OCwn6wZv3H6UIQrwgJgULp7JRVhZBMDM3Y/6kkYRY5KZTkxr06mXHkXOXKFYg1681c20JQkRYCH/XrkmvkVMZbtcNQSrtenbh4fsQpo8byV+58/9jha3+CT7gsJ3itvWoWFLevqEfPwLYbr+G3Wfucv3sEd698KZ5yzYMGD0Z23KlnpmnBQAAIABJREFUqdegIenVLL+9e+tPSGgC6TQzt6SQkvlJGUEIDvhCiVLl2XvkBG8e3WfTnjO43nZO9m76YwQhEdrokECmzFnO4oUzGdTfjq8/EkJ32XMVZrfMTS6rl8zF8/kPdm1dLWtzTeK5H3u7M23eYnbsciCzmrCN+qGQuoYygiAIhf+zR0ydNZfYOOg7aCgtG//9i/WKVrQhCEnP7up8nuO3fFk2dxIbVizmlNNlbDLnZN6ihZQslNxrXVW/Rg7qTYW/u9Ovm2ZmTedPHJQmbUNTS8ZOnUmD6rrZ9JV4nUr3IBgZcnTfTvYfO0P2XPlYsmQx6S3Nk22q04Yg/Pj2iWlTp/LC/z3lbWuwYtG/odrYsCCmL1zL0kWzZQ2Nxz73GTh8PAcOOmps1rTbfhWPP4SxdMFMWefStJKyPQhxMVEsnDcLn8cvKFGuEvNmTkv24tSWIERHhrN43ixu3femQLHSLF+8gMCvH6UoS2SsgvFTZtBIpl273yNP7AYMx/H4OfLklBNViceuZ3c+fU/YlzF30Rrigl6zaMU6bLLmYP2GjWSSYU0uB19lSwwCs8N7t+N44jzm1jYsX7qUHNmSh5w1jSBER4RJJmyuHg8pWqYiq5cu5NXTh0yZPpOIqDgGDh9Nx9byjILOHT/I0nUOnDt/GmsZhCsu4iedu/UkLDJGwnPLjn3cPLePAycuShCVrdyAZQsmyoErzTrK9yAYEBL4lUmTp/DtRzBNW7dnoGR+9e+HlrYE4eObl4ybsZAtW+zJYGmGn4crY6bP/Se6AiXLVmP5ktlqoysQT/+enWjQbjDdO8hzCxZf+8fPXZHwqN+0AxkNAjnudE2KkBsambFmw2aK5Je33JsWqMoIgoga37l6gTWbd2BmlUEywiqQO0eqjZ/16tWjbds2zJmjJpLyzwUYKFK6DaW4so0bNzBv7lxevfbHysoq1XUnmtGkbEauQY04TvwlM++QMyzFcVJYTb4DpJxmE+uo2qQozidIgPhvdHT0/8SsKanBj3jAxLk06WfCMYYaRWQS+514HzU5n1xcVWUxiHOJyVUMfPGXsmhDEBLbEFgoG1uamiiJ8SDWiTUt/0s8xbWoymIQ12piYkxMTGwqYyFtCUJSTEXYPfHJ066PCmkzqiaYJp1jEsendudO+y6qymIQm1xNTMykzKmUGxRFi5oSBF3iKXAQX/GJy4tyxmlKPLWdw9M6V1ppjibGJtISs8gsEteetGhLEEQbKZ9tbful6dyr5lWq0RyuKUFIrC/GoIg4iuXllOWPRxDkDML/ah29UJLu75xeSVH3mOqFknSPqV4oSXeY6oWSdIdlYkt6LwbdY6pxi3qCoDFkag/QEwS1EGlcQU8QNIZM7QF6gqAWItkV9ARBNlSyK+oJgmyo/ncV9QRB99jqCYLuMdUTBN1jqicIusNUTxB0h6U+gqB7LLVuUU8QtIZO5YF6gqB7TPUEQfeY6gmC7jDVEwTdYaknCLrHUusW9QRBa+j0BEH30KlsUU8QdA+2niDoDlM9QdAdlv85giB2bcbFxmFskiDtGR0dJQmgWKdLne2ga5jEOkzytBiRWaC7s6giCHHivElOI3aGJi3apjkmYinlZohMiSTtRkdFYWhkjLFMKenfQSEsLBRDIxOEmImui7IIgiJeQVwSzQNxzpSY/k4Wg2hP7JI2NDaWdniLCevnz5+kz5BBox3fv4OFkE81t7SSLQWuybmUEQTRR/GXWETWQtJMDm2zGESb4rlI2q7IQoiNiSI6Jh5Ly9/XmVfXd+FpIcZHYhZDaEgIJmbmqYyT1LWT1u+qCELSDBtx/pQZGJpmMaTG00jagf6/nNdS9lvgKeasxJJwTfFSBowuiiqCIMZR0n4KLJNmTv1OFoOYL4Xse7oU76HYmBiMkowdXfQvZRuiv7FxcZj+g6m4nyEhYaRXIj2v7fmV7UFIeH/EJqhl/VNSzqN/NItBgD17ylhcHr7j5sWTnHDcLeUmGxBP254DmT1xpKz+u968yofAKNq3bqZG5CR5c2MG9+S251MJj8/fArnn5UMOG90RE2UEQbhjDbHrzuNXn1Ao4ggMjuDajZukF6YY/1yetgTB1+s+jVq2JfdfOSlYtAJ7HOwxMzFiz5bV7DnlwlHHA9jINPo4d/IoeYtXokxx+UJJ4vK3rl2Mg+N5yehkxOTZ9GovLwdb1o0WLoqRkYSGhiar/uyBG/2Hj8fCwpLQ4GAy5CrMuWP7daKkKB5OoUOw3fEi16878+39KwbYDeBHSBhWmXJw/KijLJGegK+fOHD4GL372mlm1hT6k5FDBvDoxTviYuPZue8AZYvLE12Ri2lKgmBkbMKlk/tZtHobxsaGBHz/Rt+RUxk3qPuv1CdtCYLrldOMmDxPMhT6EfCd7kMmUKdULoaOnoCZmSndeg9gyvjRssyaAr59Zt/BY/Qf0J90alRXE7E4fmg3oydM49zFK5QqVpAlc6dz7Pw16Xzr7HdQo3JZubClWS8lQRApw0Ff/OnWeyCx8QqE7n7+UlU4vHsLkRERv9rSlCBcOevI2BlLsDAzQbi49hwxnS++V7n/4DkGBgq+BATj4eNLlnT/vsBVXfiLJw+5dMuTgXY9ZRJRBetXLGbd9v3cv3cXm/TWCA2B/v3tyFOqBlvXLtEJlkqFksxMWTR9DBduekr37uOnL+w+dIwqZYr+tpLi3RsXGTVxNqbGhlSq25Tl86djamzEIy9XWrTtwYlLLlQoJs/R8dSRgxQqU5XSssya4NM7f0aNGEqwaXacjjjw9KEnXbr3BkNDCpWoyN6dm7GSOdbTAl8ZQfjx5R1tO3TB3DIdwiMjMCKeOy7XsUriy/FHCYLbjYv0GzmZ9Jmyc/PSaWpXr8yMFbto+XdlipUszT1vXzKoVgj91f8ZY4fg8vg7V84fwdhI8xCAx00n+o2by31Xl7S13JMgLnTI45J8YRkbp44+KCMIIlXXKp2V9OV59bQj05dv5vrl88lyTrUlCBeO7+PozZdsWTFd+jKRzGFuXKJJ2254eD2gUH55g1p0s0PTutTuOJoxA9rLfsjjo8IoUaAg527f59H9GwyfspZXz+5jaizvniSN6IhrT8lexYUoF0oylr48BW5D+nSlUNXWDO7ZMpkegrYRhG8fX1OqbDWu3HGnTNE87N+6jmsPPrJ13WLaNqnNiIXbaWxbXC1GPndv0qBVZ+7ec6dwgdxq6ydWEGZNtVrY8TPgDc7HdrHv5kuObZE78SokDYPEIizGleW4p44gKDA2MZMiQMKAq3L5cuw86kShPFl/qdRpSxASr0URG0mVMiXYdugsk4b1ZOaGI5TMqqBs1YY8e/aEdDLMmh54ulK7biN8/PzJn0u9AZbXjTO0txuHIuQ7xy67YGUYSZmKNfB7+YbXXjfoN2UFrx67o264Cv+WxJR7VeNUqVmToSFWlpYSOerZsi5lm/RheL/OxAjFtH+KpgThF56KeOpVrcTGg+coXegv6Z/dr51jzAJ7bl05K2u8OTrYM3jyCt68ekx6K/XRvyObF7PA/ghB37/j/cgXa3MoX6IY6W2yUaB8Tfbv2qT2vCkjIEkjO4kHKyMI4mvX4p+I2vMH7tRv1Zn79+9jZfHvC0PbCMKANk1pMnASFQtmpFzVujx97o9pfCiFi5XC0joDJy/fpWpJOc+wgqa1KtBmwEyG9u2gFovI8BBJ5ZN4Y0xyFOT+lVPYr1wI2UoxsFMDChYqxLU7HhTKlyfNtkQUIFETQtX4VEYQBIm1tk4nvTvWLZmD98d41i2eLEVPE8sfIwjPH3nToUsPDu7fz5ARk7h+7RztWjTAJHNhqpUthP3uI/j5ekmOZ6rKt6+fee3/9leYSUQCsmT/i4JqAEzangCzbdMGNOw6jNEDuqi9iYkVzhzagsORS9JLLEZhzAaZZk2Jxwsr3eb1a9Nr9GzaN62tE7vnPZtXsdx+P0aG8TRv15X5MyZQr1pFXn4JoXD+vEydOU8yh0mrPPN7RFBwWIJQiPCVj48nX8Gi5MiaURY286aM4cItL0IDvtJ/3CzGDJTniyHOI3wgPB69lMRzchcpw8oFqU1GVAolGRry2teDAWNncv3aZYQVbdKiDUEIDwmkbrXKfA6DgvlyM3n2Epr/XY3goB+MHDWKl+++cNHpAlZJtMpTgiSYuM+Dh5ISmlhKE8sUJiamVChfThaeTx64U6ZyXRYuWsitS6cpWL0la+eOk3VsdMh3Bg8bQXi0gtiYaLr0HULn1urNmpISir2bVuF41ZvTjg46s3sW7R/esZEFW47idu0UFcpU4OGLl5gaKqhaqhj7L92lcK40lBEVcXh4eEkEXfyJF65Y0ipXtkyaS2hiGUNI2VYqX5qTTjcJ/vCCJl1HEvjNn3dPvaloW4fXH7+QXY1Z0+TRQ/H//FOS8i5QypZFs+SZNSXgasDzhx7UbNIRvycPyZQhecRSW4Kwf/Nq1h++jMul05iYGCHkguvXqsHAyYvo17VVmuMlPDSYR0/8JNIjXsaCRIoXYcniRdMU5okMD+Xbt09Uqt4Av8e+ZLJJz+dPn3DYukq2F4Mwa1q4eqv0TETHKpi3VJ5Z06951NKSMQN6k6FodaaP7pfM9E5bgnD13FFGT1tIRmtzbP4qxrED2xjcqxsNugzl2NYlTFmxC9s0CYICv8ePCA4Nl5Z7xItXYFuwaHGyZkztrPgvyVPw6fMXzp86yKZD1ySzJmkJxcCA286n6TloHB6enmROow3R1uols7nr5Sc1m6dwKVYsnJXq/qeV5hj87SPN2nTmwpVrZLA0TaVO+UeUFLu2b8nXKFM6N6nF8rXbOHjUkXxZ07Nh4wbs7bcwdOJM5k9PW6bz0rljrNqwXZogBFMSk2CjNl0ZN9RO1gQqKr3wcaNtvzG4ud7GyjTBoEhOuXXpJOeuuUlsK1ZhxPiJk8iaYnlC1R4EIyNjHrpeZuyCjThfOE18TFSyU2obQRAvWQUG+Ny9Srtew7l4ZAdt+43D674rO1bP5+QNL5zPpe0+OHvaWNw8n0hf46K96JgYhk+cS5tGabtAig6EBX2jUuUqTJy9jC/P3Nl75iburjeTsXpV2IoHae/OLTx99UFa8smWqyCjhvZLVV21kiL0bt+Sso06Mnl4v192vIkNaEMQPFyu0KB1Z3wf+3Hz/BGGzVrH68f3MFAoeOjjwcgRo1i57SANqpVROWS+ffnEoMGDiY5JUFEUD6ZN1lwc2L1NzjCTiMXlsyfZc+AAZ51duO/lTaHcOWQdGxMexJJlK4mKFeQkhgbN29GwTrVUxyrfpGggWf7Wq12LWau2UrP8v6Fb0cDvRBAUcTE0rFebMQvW0apmWUoUK4mH3wssjOKpUKI4J2+4kz+Hjco+KmLC6dCpq+SHkIipdYbMbN22lQxqltCErn7ePLk4fdGFsC/+NGzXn4Dv73jr50OVWg148+ELWW3S2gcRx8bVy/kUECpN/n/lL8GQ/r1kuTmKDgkPgbED+5K1fAMmD+6eSvVTG4IgPDeq29oyYeEaOjVNMA67e+0CfcbNw8PVhXTmae8FeOnnw8hxU6UXmZGRmEdjKVy6MquXzlW7x0aYNRUpW51n/7g5inNrYtb0xNuV3YdOIiKwMXEKBg0bTaE82ZLde1V7EMQHTMC7F7Tu1p9rN10wJfXeroULhYmbD5ecE9yCU5ZOHTtibW3Nzl27En5SxNO1VWPyVWxApSLZsRs6hiVzprBs405WLF3E4rmz6DpoLOOHD1C9DKOIZ8qEUXj5vsDUNGEeFaqZ42evoHEN1XNF4rUlM2sCXj1/TJ8+dkybv5xmDdT7Ex3asx3fZ/5Sc9lzFWDk0P6p+q2KIIj9FQunjuNFoAKHzasQJlNJyx+LIHh53OfT1wCiQ34wZfYyLlw8R4G8udi9eTWTlu7k2cP7ZFDjApgosfzi6RO+hcVQvWJZjSSFFbFR1CxfArtpKxnYvZ2sSffXCyc0hLCIf79SM2XKjJHkKvlvUUUQFLHR2JYpxuwNe2nTqHYS29qEY7UlCLeuOVO6ck2EE9mEeSu57XSEei168PDhfZbPGs/NB+84d/JImv1M2OAEnu73yVWkBNkzpJON6Zc3zylaoQYPfHx45nOXrn0H8/TFa7LYpGWf++/l/AwK+uVjbmRiSiab5O6YoqYygiAmivcvHlGvZVfc3e9LrDdl0YYgPPVxw7ZuMx4+9uPyid0s2HKGXo3L4fMxgqN7t9KgVmWGz1pL52Zpe72LCU58bZ2/6EzzFi0xNzXRWBa8YZ3q1G3bjxljB8iWWxUTU0DADxIExcHSKh1WSjYBKiMIwkf+5K71HLrhy/H9OwkP/9dxULT1OwTh7IEtrNx7nqvnT0lksGvrxtRo1x/bgjZ0HzgOXx8PLC3SdnIVmIaGBON8/RYtWzTDxNBAFqZJ3RxzpDclb5GS3HX3xu3qafZf9OGO02G1G5UDfwT8IqDGJqZkVDJOlS4xGBjw5okXHfuN5oGPB5FhyffSCFy1IQjXT+1j9pbjXDt7LGHvRnw0tSqWZcKybbRtnPbYTHxOBJ5fPn3A/dELmjesK40xQxk7tn8GfKBImeRujkvnTuTB62D2O2xRO6dGRUYQHPIvDhlsMqZa5lVFEMT19WrbhGL12jFn/DCilbzMNCcIsZQvWpA56/dSvlAWipetwsVLlwkNDsTc0pIZE8ZiN3YWA7q3TXO8/ZpH790lZ6Hi5MxsI1u6fvfWtaz9x+755VNfbKvVZM3W3dSvUZlsOXJiokau/WfQT6JjEpYFxHOc0SY12VZOEAwwNYyldMnyHHW+TqG/Mv9aSku8kX+MICSeMDo0kMkzl7J69RI+vXnOmPFTmLt0LcULyVnjSWhl2fxp3PP7waE99hrtQfB74Mmk2UvYvn0r2TKr/mJRO8pVVFBOEAzwe+DO4nXbsN+4Dkuz1C8zbQnCwd3bcDjgiHWGLIweP4HaVSuxfdMajpw6T+ZsuZgxcwYli6q3CxXdGdCzI9Vb9Kd/N002GSpw3LeTvYdOYGxqTt8hI2jTuJ628Ck9ThlBEIN265qlpMtbhh4dWiB2VeuCICjiY9m33Z5DJ8+TLkMW5i1chI1JHDNmz+b12w9Uq92A2TOmYCJj38sT73u07dqXS85XyJdHE7MVBQd3bOLO4/esWrZI1rk0BVwZQYiNimBQv74MmTibahVKpdK515YgCLOmof360t5uBC0aJXwNiaXE6dNnER4Lg4aNom3zRmpf0uK4Jw89aduxF1duuJA7hzyzpsH97Xjz/jMYGLFg6Rq+vvLEfvserDJkZvHyFRTIlV1T+JTWV2rWZGDI+uXzMctamCH9RfQg+deZNgRB3Kf+PbvRa+SUX9Ehn7suLN3kwOZN60ivQTbY2aP7mL54M7dvXSVdkrV8VYDERwbTo08/An+KrCUzNm/bwS2nw+w/ek5a+qlauzlzp4/6bTxVEYSgb58ZPWkGS5evIEeW1PO3tksM7neus2jZGqJiYqnXtA2jh/TD1CTBQ2XWlEn0GDqRYvmyyuiXgp4dWkjLWL06yZtHHbau4/CJCxKlb9yyM+ljv3Hk/JV/lnzFUvYOihTQZP5QfplKzZqMjLh4dB8PPoYzZexQyScoZfnjBEEGyv/ZKqoiCAJkczNTwsLCk6U7JnZUW4LwnwVKgwtXtcRgbmFJXEy0UgMc0bw2EQQNLus/XVXVEoPYsBQeFpZsM25iR7UlCP9poDS4eFVpjiLTJi4uRqkRjjYEQYNL+s9WTWuJQUTEpHk0hVGT6Ky2BOE/C5QGF65qicHMTETu4omMjFIaqdQTBA1AVldVL5SkDiHNf9crKWqOmboj9EJJ6hDS/He9UJLmmKk6Qi+UpDssE1vSezHoHlONW9QTBI0hU3uAniCohUjjCnqCoDFkag/QEwS1EMmuoCcIsqGSXVFPEGRD9b+rqCcIusdWTxB0j6meIOgeUz1B0B2meoKgOyz1EQTdY6l1i3qCoDV0Kg/UEwTdY6onCLrHVE8QdIepniDoDks9QdA9llq3qCcIWkOnJwi6h05li3qCoHuw9QRBd5jqCYLusNQTBN1jqXWLqgiCoaGRZAIidt4KHXYhopG06LMYVEOu1KxJoUDsvpVESRQKwsLCUjWgz2JQjamqLAZLS0sMjQyJj40lPIlfgGhJn8WQ9rSgiiCYmpphZmoqpXGGhAqxpaS2bdrpIGg9Qf1HDlRNEAwkaWBRhLlSVIq0PH0Wg+obrFIoycgYi380SMQ8mnJ8/rEshojgABo3bER4vCGZsubC+cIpqTc+91zo3X8oB46fpVSR/LKGsOfd23wIiqJl0/qSTK/cMnqQMGvykya7eAMjzl68Qg4bS7mHq62njCAIR0XhOzF38RpJEKRph66MGdQ3WSrZ7xCEqNBA2rZtz7Bpi2hVP0H98MVjb7r16sfGXUewLStPB8H5/BnylaxIUQ38G8S59m1fx/Z9J8FAwfCJs+jU/G+1OGlSQekSgyKOOdMm8PDpOxSGhqzesJkCOTMny93XhiA8fXCPdl37Il6UQtHQLEN29m5ZxZAhwwkMCqJE2Wo47NyIHP3NnwHf2H/oKL369sXaSr5jodBnHzNiCF5PXmJsYsGOPfsoruE9UYevMoIQEvSdwYOHEB4ZQ4Zsf7F543osTP9V5NOWIPwM/M6gAf0lEyGL9DY47NzB8wf3GDV+iqRN0MNuEONGDJIlBhUY8I1DR0/Rp28fLM3UmxEJHC6fO8G0uYtx2HuAkkULsnrJPA6dOI8QPFq7eReVyxRRB5es31UJJc2aPglPHz8iomNYu2ETpYvmTyZGo6lQUuC3T/Tu05ewyBisMmbl8L7d3L5yllnzV2BkaECbbn2ZOGqwrGv2f/GUq65e9O7RBWMhuCSj7LJfwy7HM5w9fYr01ukIDgpgYP9+5C1pK5kc6aIoIwhCHO2V3wNGjJ4kyWsXKW/Lsnkzkok7aUsQ3r7yw85uIKFRMRQoXpZtm9ZhbWmO464NHLnswV6HbZjLdKq8eOYEBUpVpmjBtP0TEnEKCw5kzIihhJrm4MD2Nfi/9KOf3QB+hoZRpoIt9hvWYWmh3idDHe7KCIK45ZvXLOb8NTdJ/XHq/GXUrFhScuZMLH+MIDx/eI/GbXty08WFrJltMDcz42dgAK2bN8Zu/EL6dmyqro+/fl8wcyL3nnzn2KEdmBjLma4TDhWsUwh6+N67Se+RM/BxvyN9hcop4WEhhIZFSBOZ+AbInDlzKllSZQTB0sqKAV3a0MRuMqWyxNJ98BTu372RzBBDW4IQGRFOzw7N+at0XdYtmyt1I+j7ZxrWq8cz//ecvHqP+rYl5XSPPl3aULlxH0b2l2/WREwEpQoV4Nh1N3xdLzN+wS5e+N7iH40Rtef9GRQoWayKIhwFM2VMLX6ijCB8eu1Hw9Zd8fbxYeX8qQQZ5WPFnOG/bdYk1NAiwiMwNjWTnEVjMpaiaMYIfN4Gs37ZPCqVLcrO41epUFT9w+9z/xY97IZz+ux5Cmrwgr9/+xrV67fh4+ePnNqzjtv+MTisnq0WS1FBeAUkKCkifQlYpbOWpaRoYGjELaeTDJu/iRdeN2lcszLTVuykWrnCv1Q/tSUIXndv0KbveF4+cafd35UZs2AzG+aNo+e4hZTLbU7jNkL504d0Mmyffb3d6NS1Dxcuu5A/t3rhGv9H92jVuQ9f3n3AycUVG7M4ipauhM/jpzy8c4n59kd54OosvVjTKolKigJTE1Mz2UqKsZEhVKhcm7veD9kybxjRNqWYPWWEZG+fWDQlCFfPn6RFn7EEfHiBXbv6jF68hy0LRlG1TX/aVs1Hw47DeOx9W9Z4OXZgB3OWbuH27ZukV6NiKxq8df4gwycv4tuPYB49eohNOlPaNmvA6zefKVO7Kft3bFR73ujICIKCQxLmUYUCm0yZJefEpEWpm6O5OavnTCIkQzFGdWtIGdt6uN1zJ3MSuXttCcKMEb0xK1CH8QPaUTBvXo5fuUM6wqhRvznOV25SvYpcx884OrZsRNOuoxnQs41aLGKiIujYphl+z9+RoWBZ7jmfYM/Wdbz6acL4/u0oVKQk97wekD9v2iKCwT+DiIpOEItTNY8qIwgRwYEUKFqSO/e9eep2Cfvj9zl/ZLNkYfDHCcLF4wdo2aUPmTNnoXm7LuzYuJKhdl3ZdfgsOXPkYOmqDXRp3yJNUIWrWnR0jMR2xCQoJi2hJS1CeHKLcGVs27wJ1Vt0Y+qo1JrVqtrZtmIq89ftl2SRozHhhssdCv6VXM1NGUEQPgzHDuxkxuL1ZMtgRsVaTVi9ZA6ibmLRliA47ranm91wcubKTc/+Q1kwczKjB/Uha/GaOB/Zzrz1e2hQNW2CIKRPY+MS/OQFnuK/Iiwqz9tdwYLpEzh74z6hP74wZMI8hvfrIiuqEx8fx6BeHbjq+lCSiy1crjpOx/amgl8ZQTBUxNGpfSsMLDLy8vlzDp44R9G82SXjmcSiTQQh8div/s+o2bgdD319MDJIME8JD/hIpRqN8Hr0COs0tO4TSYYYn+KhTHSrS4hKqC+CtFaq8Tenzlzg4LbVWBWoxpbl8r7MIoM+ULVGPcKiFYiJeOzMpYwd3DPVSZVFEMSXabkqNahetQr+/u8kS3LLJKZU2hKE718+UqZcJUqXK8uTR4+44+ZG4zq1efD8JaYGUKVUMQ5evkvhFM9S8otWEB4eIY1N8dwkun5aWFikGXmIjY4i6OcPKpQtyUknF4I/vaRJp2EEfXvD26c+VKxWm9cfv5E9Y1qW7zG0alCTR/4BEB9HqWqNObF/Kym/S5QqKRoa0K5lU6INzHny0IuDx89hW6F0sjCupgTh64e3FC5WnOq16vLmzVvuurlx6tBuZixcQY5M6ahSryWbVi9Oc6CJZ08I4wg8JbMm4W1jaIiFedpy15HhYXz/9oGK1RvyVPJisOb79+9sXb/vQLwIAAAgAElEQVSER29C2O+wVe0Av3JyN31GTMPc3IKI6DiOnHGmRrnkdubKIwhG+HrcoXOvgRQukIdY4/ScOX5AJxGExdNHcOdpGCP7d6Bdx85cdbnHtBE9cX3oT9GiRdmxay+VyhZLs2/SPBqvkEi6gYEgPApMzczTtNEW+AcEBHDCcTf2jjcks6bYmBgEYX/kfovmnXrj6elFtixpG+eN6N+VC9fdpWWsImWrcuH4/lTXqlRJ0dCAsUP74ff2O4HfvzBn+Uaa1bUlNsm76Y9FECIiwvjy5TtGimiaNmnODTd3alWpyHL7ndgYRjBwzAwe+rhjkkZA4NqlM2zavhcjQ2HWhGRIU69Ze4b16652YCZWePXYm9bdB+HicoOM1vJDv9fOOnLi0i0pvBUTb8TM2XPIljG554AygmBmasKgPj3IVKAcua3h0NkrXL50AQPF7xOE1vVr0qr/OCoVyUmnTt2YMW0SsxetYPrUSSxbsoSeQ8czd3La0qdL5k/H/cEzTIyNpQkjKiqKgaOn0ryerVpMw34G0KhJM9p16sHXt0/xePqOsyePYWmunrAJkrfdfi2PXryVHvLseQozeewwWQThtd9DuvXpz/iJU7ly7hjZilVlwbTROiEIgkAOt+uBIkt+Nq9KsFn++OY5rVq0YPiUBfTr2TlNXL5/+8yoUWMQUTrh1SHGhHWmbGy3X68WT1FBjGkRNna+fIUT5y9z844bZWV6y0eHBTJ77gLJrEl8BTRr25VmDWqpJQjCFlp8mU5euI5p40eww34dE+etpl71Cr+IrLYE4c4NZ+xGTmXauJHs2baBUZPnMmPiGO49foaFURyVShTnyLX7FEzDrInYcHrbDSQqWpg1CUxjMU+XifXrVpNezfJNUrOm0M+vaNRhED/+MWuqXL0e/p++ki3NZcZ4Vi6cw/vvIZJZU+5CZRg7YgAp1bZTEgTxhfzz+yeatO7EyJFjuOV0hPwV/mbmpJFERf37haYpQbhy7gQ9R0xlyZxpHHTYxvgF6zi6dSkGNvkpmy8T+46f46bLjTQtrP2f+TJ55vxf/gtijBYoUZ6Fs6eqjab8rlnTI3cXNu92TPjQio1n1PipFM2XXO5aGUEQkd7lc6fx+FMEf1cpyfLVaznjdIVc2TL9UqfVNoIQHPidDZvsOX3iBNHG1mxeMpXuQyZw9swpDm1fz6V7flx3Ppcq0vHrwVLEM2/WFB74vf41j4rI6MjJ8/hbRgQ3pVnTxzdP6dK1DyMmz6Zz22ZqP7gctm7Ax++VVC9HnkJMGjtcFkH4GfCFxk2aYDdkDN9eP+Lp12j2bluPAf8XlhjevXlFRAxksDSmQYPG3PbwoEa5cuw5cYGsZpE0a9+XBw89SB5sUj6nfvvymbDoOPLlyaUWvKQtiMm3bb2qNOg9hjGDesuasBMrvX/zkrcfviTsX1BAhYqVsEixDqqUIJgYUrNadTbsPU4Osyj+btQSN+8HJP0I1TaC0LF5fQZPX0GJXOmoV7se67ftwM31LjGxMezetYtOfYayenFq609lHf/w7g1WNlmwsU7rayr5kR9eP6VSzQZcvnKVT88f0H3QKJ488SOLGntSqRWFgiePfQkKCZPuoYVVesqVSR3tSB1BMOCm8xnGTJuPy00Xju/dzI5TLlw/f0xyZkss2kYQvn36QBVbWy7d8aRonuwEfH1Hkwb16TVyBh1bNCJzlqyYy1j/Fl/wL175U6RoEWnS0KTExUbToUUz8lVpxJoFU2SP8biYKDw8vaTxKQhYrnwFyJsrtY57ygiCCJtvXrOEa75f2bdpMZNH9KdozVYM7dPpl0SwtgThkIM920/dxXHHapbNGEu2svW4d/4ALe0mUjKHKW26D+bpYx+1Zk0Cv6jISF6+Fl91RSRHVzklMOAzpUuVYN+R8+TJYkWZClW44uLGM4/rrN/vzH2Xc2r2lCjw8fIkIipGItCW6W0oW7JEKu+IlARBbEx+9cSLLgMncuu6E1eP7+aAsxeOe7cRkcQIS1OCsGXtcnacuYuT4zaWzp5E1tJ1OeOwhslLtlC5aDZq1a6P5+PnpBPhGTUl5GcQH758p2iRQrKMmsQz+87fj4o1GnPP9Y7kkhkdHcmy+VPw9Q9h19YN0mbstMqPr5/xe/EqYR6NV1CqTDkyWCePrikjCEKqvmubprTuN4GWdcpTw7YKO49eoHyJgtJ4F0VbgiCOfeXnTeMWHbhxz4fg1570GDoJp/NnOeKwmQNnbnD9qlOa0YDEPr974491xizYpJdnWCfGgsO2dWw+5sIdp6P8+PKWiuXLM2PZJjq1akLWbNnVnvfZk0f8+BkiXYKFlTXlypSSRRDevHhC9ToNuOvxgC8vfOgyaAJPHnpgliQ89sciCFedTjF24jSiYw0YM2Uag3p347TjPmYtWCL924q162nRWN4Gt6ljBuHi+53rF49pZNbkffcW7fsO57bLNXJmlWP2ou4RS/678iUGI65dPMP02QtQGBjSo98whg/omexrV1uC8NDTDbsBgwiLjKP/0JGMGTZAmjiFR0GnNm2YsHgdNcrJ24TVpnEt6nYYzbjBnWR3WoTTdm/dwOqN2zE0MWPKvCV0atFA3mQj8yzKlhjEi3DR3Jk433AlQ+bsrFq3gWL5cv72JkVxSStnTSTYKi9zJ4+UrnDWuBHsOXUeC1MzIiNj2Lr7GI3qlFN79d5uN6jTuB2e3j5SSFSTsnHpHK56v2bvru3JwvyatJFW3dRLDAaIF+mIQUPw//yF/EVKs3nTetJbmf3aUKctQQj6/oUhA/rz4NlL/spXBAeHXfx4/4I+dv2JijNgxtyFdOvQStYmRR8PV6rVrM/jF28pIGMPgtCYb9mkIX4v32BkbMY2h4P88Pdk1oKVpM+SnT179lAwby6dwKo8i0HBwllTOX/ZBRMzC9Zt2kL5UoWlF2Ni0ZQgiCWboQP68/jlG/IVLsnePQ6437zI5OmzJXfD/iMmMH64vKXTww6bGDB+GR/ePpXutboSFxFEnfqN+fztB2Zm6Thz/iIXj2xh/Y4DkhFVg+bd2bw2YS/U7xRlBEGMv6ePvBg5ajwhEZHUa9yaudMnYJzEUVdbghDyM5DmTRrSZ+gEBvTphjBtW7t0AVv3HibrX/nZtGkTpYoWkNElBQ2rl6PdwFkM79dRRn1YvWQ2mx0OS2OiU8/BpI/8wNZDx6VlXgUGHD99iVIy9jypO5nSLAZFPNs2rGLfkVOYmFtK0ed6tuWSbaD/YwRBdCDRrlnc7MQirRvLtBpNPCYiPIzoWAUZZLK0xOMU8QoMZO7WVQe4st9VpTmKfRIidB0v0vNEaC2F+6C2BCERU9GuURJMtbl2YaVrbpku2QMntx3Rb8ku9jevQdn5VAklmZqaSimjJmZm0rpf0klXtKNtBCE+Ll5K9fvdIsLRX79+I2u2bBoTpsS9C797DaqOV7YHQdw/MQ4jIiIxtzAnNjo6mbGYtgQh8RpS9knZXKCuv2JpISAgiGzZsqirmubvYryK/og+66qoTnM0lSzLRZQmYZz+G+US59aUIKSFp6bzQHR0FMEh4WTJnPYat64wktuOSrtnaWlZQUxMHOYWZkQnWaoRbWtLEBJT+1KOBzHeRCRIk3Ei5lEzC0uNo4ZysdG2nqo0R1MzMykyJ/oppu+kGQyJmNarV4+2bdswZ4488megUGalleTKN27cwLy5c3n12h8rK/kha207///KcXqhJN3fCb2Sou4x1Qsl6R5TvVCS7jDVCyXpDsukhDIoKEjjhv9oBEHjq/uPHaAnCLq/YXqCoHtM9QRB95jqCYLuMNUTBN1hqScIusdS6xb1BEFr6FQeqCcIusdUTxB0j6meIOgOUz1B0B2WeoKgeyy1blFPELSGTk8QdA+dyhb1BEH3YOsJgu4w1RME3WGpJwi6x1LrFvUEQWvo9ARB99DpCcIfxFRPEHQHtp4g6A7L/xxBEEpRQkTC8h9p1YSMhHhJ11uT3aLaQBgZGfFrl6Y4lzolNk3PoYogiHMJ9TKxQ9TUxJT4JPn64hzaZjGk7I+5UJZTKAgJCcHEzBwLc/WpS5r2MWV9sV81NCQEQ2NjrGSqBWpyTlVLDEJ9Uahqit23xsYJOdVJi7ZZDKI/4gtb7O5Nqiwn8pXFTnQhlPU/LwoFP4ODMTM3lyTJdV1URRCEYJXIsBFZNyLZJ6mv0O9kMYiMjpDgEEyT9EfgGRsfj3U6efniv4OBOJfAMjHLJiQ4WPJiSDSp+Z22E49VRRDEOWMk6VpDaezoxKxJyfiIjookIjKKdNbWv53RlCYeCoVk5JV07hRzuriXuhqrqgiCAULmXiGZ3ZmYmCbTPRHXrG0WQ0REuGT+ljA+FNJYTTo+xP0LDQvH2tpatv6GJmNKZBjExMT+Go8x0VGER0Tq9F6qymIQfRb3T8ye4j2UMsvmj25SjImOZECvTmQpUp2VC6Zx59p5+g8aRURsPDMXrKB/D3k+AG9fvSAwIpZypYprch8Y0qsDl119pGNMLdLhfOM2uTLpLstCOUEw4P2bZ3Tt2pPwqBhade7FwhkTpLzhxKItQRjYrRXX7j+RmjGzTMdFJycO797Mhi0OWKSzkcyCKpROLmOqCjC/hw/Ilr8QmTQQShJtnT2yh7FT52BkaoW9w37+tpWrWy7v1ikjCAKvI/u2sXD5ekwt07Npxx4qFMunEyXFVQumsmHnYTJl/4tzFy6S3caKNy8e06Z9Zxattqd5g9qyLjw6IpybLrep8/ffkkmX3BIfF8PU8cM5fPIS2f7Kw+mzZ8mRKYPcw2XVU0YQRArelHHDcL55jxy58nHw8GFsLEUudkLRliAI0adpE0bgePISGbNm59Sp0wR88qdz1x6SNO30uYvpr0ad8tdLOCyUO24e1KtXR63iX+IxPu636dZ3CEeOHqdU8SKSX8CshSuwyZydE6fPkjfn76VMpkUQBGaHdm9m2dotkvzuuq27qFmp9G/pIEjjY+xQDp++TI48+Tl7/jw/P76kc5euBASF0an3IJbPmyZrHAR8/cKjF2+oXcNWthjXuWP7mLtyC85OF6Q0cyG/3K9XZ7IVrsKapXNknVddJVUEITz0Jz26dcH//RfKVqnNjs1rk5lMaUMQvNxu0mvASE6cPk2RAvnYu30DcxatJGPWHJw6c550hpF07tSBZ68+Uq9FO3ZtWp3m5fs98CZr3oJktkmvrpu/fh8z1I63YeYc22PPp/dvaNOqNd8Cf1K3UWu2blyFWRLTNNmNpqioVGrZyAivu1cZOnoy0XEGzFq6mnYNayZ7N/1RgnBwxwY27T2No+MhsmVKT78+PanTvDNlc1swZPpqPG5dktX/+dPG4eoXwOkjDhoJJb31f0VwaDjPH7gzaf4qfL3dMTNTLwssLkrkxIqXeqJZk6mJSaqIhzKCYG5hyYThdpjlrsKQrg1p064j56+6kNFSWBUndFdbgvDW/yXBoRE88XJjwuxleN2/Rd8+/Vm5bj2Lpo9CYVMYB/uVsjDt0a4ZNdoMYXhf9SYjiQ0q4qIoX6QQmxwv8MztIou3neex5xXZznCCuYrcbVES8/BTXqwygvDz23uq12nI0dOXeOTqxIrtJ3G9eQHDJJn72kQQvrx5TqHSlXHz9OH4znW8Ds/KnOEtaNWuC69fvWKH4xk6tWosC8+H92/TokMPrrvcpmA++WI8Xm4u2NZvg+8Db447rONdXDY2LZok65zi60dEVUQRX6ri4RY6+ylLKoJgYMADt5u07TuKuy7X2Ll2AUa5KjJjZN9flrraEoQnD9yp3aQDd27f5PjOtQRbF+Tt3fNUa2NHhTyW9B06Hh8fb1lKir7e92jWqhO33DzJ91dmtZh8fPmANp378ub1a5yu3yKLpQEFi5eVlBQf3b3I7nPu3L50TO14FV+QCcNUIb3olfmUKIsgxMdFY1ulmiQtHPPlESv3nJcItdDvSCya6iDcv3WFGk068djXh0NbVhFgVQg+3CfSqjAzRvWgVYuWXHT1Ipu1+sjT8QM7mDRvA14ed7GWIZTkefMcA8fM5PPX7/j6+mKTzpw+3drh7vOUCpJZ0wa190REUsXXcuI8KuY+EblKWpQRBBG927NpORe9vrB6/ni6t2vGrLUOkvtgYvRQU4Lw6ZWvND7evvHnyq27pDOIpEQ5Wy5dv43HjTPsueDN8LbVsD9ymesXjlK3ZjX2n71FsbyqRPbiad+kHs17T2BAj9ZqsRBeIf16deGuxyMy5i+N2+UTHNi5iXsvfjCsR0vqNGjC3fte5M/zV5ptyZlHlRGEmMgwSb12uf0BsltE06X/CHy8fUiXROb3jxGEx553KWNbm0qVq9CyTQemTx4rhcI+f3jDjCnjMctRko3L56UJREx0NBGRkcnqiIGjSShdfCl1bdWEojVaMX/6aLU3MbGC/aLxzFq9R5p0oxQm3Pf0ppAMsyYLC0vGDe1DfKaSDOnWmNZt2nPF1ZOs6f9VqdOWICReW8+ObclfsSELpo2Q/klISnduWZ/iNduxcOa4NPsoXqRJoxmisiA1cr96R9h1IcQ4C19e+VK2bhuWzUr7fIkXI4Sj+nRuwaXbPlI4u3jlOlw7czjVtSojCD8+v6V6vaYcPXEO92snWeFwGh+3a8n057UhCLFRYVSvXJ7azTtx+/J5Zq3aTtNa5fgeEEilcmVZtWU3nVs3SRNPMbmFhoYmqyOMcOSG0j1cb1C1diM8Hzzm4NYVfFBkY8/atJ+LxJNFBL6nXAVbQqIUknOpIMGTh/dVSxDEZO3leo2mXYbg7nqT9YunY1mwGosmD/1tgvDIxx3b2s1xu+/G/g0L+WmWnbtOx7nr+wRTFFQuWQzHK/cpmDOtKEnCslnSJQ8DA0NJ1jetZcn4+Fh+/gykbMmikllT6OeXNGo7mMDA95JZU6WqdfH/rM6LIYZGNSry8NU3SeioTM3mOB3bLcusKT42EttKlViz/TCBL9ywP+7C1bOOCBdWbQnC3ZvO1GnYAk+fJ+zetJRAy8KY/XhElEVe5k3oS+069bnh8YTcmVWbg4mPnbCwf69BXIswlbOySttQTESAA75/pmzlOvg99iWTTXp+BASwY9NSvF8GyTJrunR0O92HTJaWCKKj4zl5+Ra1KyRXe1VFEHZtWMpZV3/WLZ5E2+aNWbT5IA2qlf3lOKopQRD3Mzg4SDLzOuN8i88vvOnQcxwfPr3ila87FavV5YrzOTp178PYkcPYd+g4Xj6emCjR1woPC0tmciQwtbC0UiOTrJDmltPH9rDhwFXJrCmxvHzkQfWG7Xjg7UmO7GlHuQb27MDZK3ekQ0tWqsmVs0dTPfNKCUJEKMWLlWTllj1kMgmjh91IfJ8+IYPlv+TyjxGE6WOH8+BjGPOnjmbSmJH0n7SILs3r8PnDO/bu3sGl2744n0vdsaQ9dTpzlJXrtvxaS1TExdK4bXcmjJAnLSra+uz/jLotOuLq6kqm9PKXFy6fPsixCzf/MWsyZu78BWTPpN6sSUxgnz+8xd5+C7dcrmOeOS8XTjpKEYnE8jsE4Yv/U+q36Y7rnVv/GNcoWL14Bjc8X+KwYwc2avo4Y9Io7no+/vWlKcyaRk9bSLvGNdWSp4iQQBoIla0eg/jyyht3vy84nTuWyqNCWUPCK2DL+pX4Pn8r6drnyFeU6RMS5I2TFqVujoaG3Lp6iQuXr3HU8TBzVm2le5tGyRwytSEIb5/7Ub9JMyZOm80d57NY5imL/YpZREeGUaBAIVbLIAhfP3+kT99+CZER0TGFgvSZcnDk4G61eIoKYhI+6LCTm3dccTx5TjJrKl9Snlx2dNgPps2YTVQskllTi/Y9aNm4jlqCICrExcayz2EH99zduXjFBefrNymUO/uvCI+2EQSxnnpg9y6uu9zC8fhpLl+7wYBuHfGS3BwFQSjOoctuFP4rtdX3rwuPCad1+04JNsliclYoMLfOzB6HHWRIl/ZLLalZU8jHlzTuOIzAH2945+dDxap1eP3pqxo3xziWzJ3J+2/BkllTnsJlmTh6CCnFNpVFEMSzf8P5AmedLrFn3wFWbtwu2aonJeSaRhBioiI5sHsHLnfcOHLqPK4enqQ3isF+02YuX3IiXY5CXLlwMs2x9uKJF8PHTBZxu4R6ingKl7Zl3Yr5avcv/K5Z08N7N9i480ACQYiNZ9zkmRTLnyPZ9SpfYjBALDHYb9zIvXtu+D7/gJvbLdJZJH+ZLVy4QPoKvuTsrBSDTh07SnsJdu7aJf0eHxtBwQL5OHf5Np+eetHRbhIfPrzg9SN3KlSrx4pFc9l28CTzpo1j2ZJFbHA4RuXSBZO3rYhn4pjheD16/msejY6NZcq81TSpqX7JNaVZU1RYEA3q16fvyGn0695BcrtNq+ywX4PX45fS3cyZtzDTJqb+8FVGEMQz7ffQk4NHTnDu9Ala9RzOnEnDpbkgsfw5gjB+BF/ibFgxexyD+3Sn3eCpXD2+l75DRpHVOo4WHfvxyNcLExnT6Ls3r/kZESutKWoilio8Cnq1bULZZt2YMmKQjDP9W8X77g3ueD6SBkCswoAePXphk8INUqXUspERX96/lpio/c79lCiYK9lmJW0JgghRdWrekErNOjFjvHBtVLBu+QLWbDuA4+GD5M6VixzZssrqp9/jR2TMkZvsGqx3f/R/Srkqdbl+6zYfnnrSrd9Inr54RhYZ629isr1w5iRvP36T3qMZs/5F5/atZBEEUUkM3DVL5nDv2VeO7N2O2GiUtGhDEG5dvUCrjj3xefiYq+eOMH3VDt489kS4VpYsUYol67fTrV1zWRsVI8JDcff0wdbWFuHoqVmJZ3DvrsSkL8DWtYtly1/HRoayZ+9+YuITlsSqVK9LlQqlZREEcRMsLczp26UdWYvXYMHUUck02bUlCAmzcAxD+/Ui0roA29YspE2j2vQeN5+SOcxo07k3D319sfpn03JaOImvNE+fh9jaVlHtrJeigZCg7xQvVoSDJ53JmcGEkmUr4+rhg5/HdRZvPYn37YuYpLRmTP664siBfQQEi2WBeDLnzE+H1s2kqFfSomqTorm5OdvWLWPnSRcunXFMdS5NCULC+zyOgb06YZi1OJtXLZReII+970tLWgePnqRahbQt3hOv+8f3rzzz/4BtpfIy5cAVfHz7gnJV6+Pt6UHO7FmkDW5L50/h4euf7N1pL0lHp1VeP33I+cviQ8tYsplv07ErubMll3pWKbVsYEhkWBAdOnVhzMwlNKpRIdm+I00jCOI6Q38GUKpUCRxPXyajaSwVbGvj4uaBj+slVjpcoGaJbAQbZGT72gX06NiGFn1HM7CL6uWDJ48ekjlnHrJlSoPwJgFIRPp2bl3L5iM3uOt8gqBvH2jdvDH12/eV/Ipy58mrNpp76dwpXr3/LL0LM2bNSef2qa9P1SZFYxMTTh9yYNnWQ1x3viAYU7Lb98cIwif/51SvXp3334Ko1aAZ15xOs23VIoZOSnAbXL15N6MGpvauVzbYRgzohYvPJ+7fuYipifxd5fddrlK3aSuePPcn31/yXpyaTOyqCIKw1SxdqpwUyunZoTmCXSYt2hIE73t3sK1Zh+dvP5MvZxae3rtByWp/SyvxYkJv1rIzZ04ekNWF+jXKU73FCBZOHyCrfmKlhdNHM3fZJjA0ZsnGXYwb0FWj49VVVhZBELvsXS6eouvAcbh7eKSy3RZtakMQ4mIi6d6+Bccu3MDC2obz125Rq2QeihTKz8v336WMiWPnb9G2STV1l82d6040ad2Ne/c9KVFMjtHLv02unDOBw5d9cHO59D/J7FG2SVEs982eOBTvt+FcOOWIyC5KWn6HIIgxcsblMa43Evrjdusq1es0kojhsvVbGT9MXgTQ3fUateo1weuxPyUKpb0um3DtcRQrkIdn/p8kYn/yvAvvHzozaso8MmTOxt373hTKk03tvZRTQXkEwZDLpw8xdvZKfH0foogJT7ZMItrVhiCsmDMexyu+uN10kvAMDvhEyZIlWbh+n7RsJ7fs2Lic0ZOX8vbDWzJlSDsSI9qMDf1O9tz5+fEzTMLT+9Erjm5dwPw1O6QPnr+b9+TK2T1yT6+yniqCEBsTRYNaVanbpg/L500mIvJf22zRmDYEoViBXDzz/yj155STC2+9LzF66gJssmTH3esBkd9fUaduAwJ+hlHGtg73bl/BWKWHRxyVSxemw8A5TB3dRxYOE4f3ZdXmvRJ+vQdNILvBV5Zt3i3N3yamlty+702l0oVktZVWJVURhG/vX1K1Zn1OXLxJmWJ5k6cu/YPpH/NiiIwIk8xWsmTL9s9XlYJv374RrzAgW9YssifD718/ExoZR34NndjE5qCwiCgyy2R3mt4VVQRBhGyCQ0LJKM6bPBtPOoW2BCE6MlJyNsucMYGtCoOdH4GBCaFtkalhao6NjK95Uff92zfSpGltZaFRt8XD/PXLF4xMTMmaRf3GMY0aB8noJuWavuhfwgvMUEqXVWYNog1BENcmNlF9/vwZC4t0ZMwo1sUTxqhYMRDnscmYSVZEQCwVPPF7TomSJdXatabE5PvXr5hbpSOdmjVhTbFMrK8qzfFnUBCWVukwNTVO9SLTniAo+P7tm2QElrQ/QYE/JPfBrFmzyo4CRkVF8uz5K0qWLCE7iyHh3imkL82MmTJL9+7L58+SoY5NBvk7zdVhrSqCIMapArFfwjJVKq62BEGMD4t01r+iLmIZJ+BHINmEMZgGhmkhwT95//ErxeVGYoUB2bdv0tKEwDNL1mxEhocSFp6w6dLUzIKMMuebtPBURRBE1PFn0E/S29gojXhoQxBSjg+x90rMZ0nHR3hYKD9+iPeWsHpPO0Ly/s1r0mfOTno1S1+J/Rf3QKQ0ihlbnNNQEU9EVNQveDJlyiwrYqlufKqKIIh5Kio6jvTprVOlOCaSrj9GENR14r/+u14oSfd3UC+1rHtM9a6y/SQAACAASURBVEqKusdUL5SkO0z1Qkm6wzKxJVUEQd2Z/tgSg7oL+f/hdz1B0P1d1BME3WOqJwi6x1RPEHSHqZ4g6A5LPUHQPZZat6gnCFpDp/JAPUHQPaZ6gqB7TPUEQXeY6gmC7rDUEwTdY6l1i3qCoDV0eoKge+hUtqgnCLoHW08QdIepniDoDks9QdA9llq3qCcIWkOnJwi6h05PEP4gpnqCoDuw9QRBd1j+5wmCUNTDwFCtGITuIdN9i8oIgkifEf8uikhJSjBviZEyFxL/XdssBtGmEBwSojxJJXXFhhTx//9r86tEBEXOvVC202QHtVz0VQklJZqKiHOKXeriLynW2mYxiOuSRKwMDH+Jxoi2Y+PiMDGW76kgt3+q6v0v72HKCIJI3xQ7xBOzQYyNjImOicbE2IS4+ISxq20Wg0jaSSoZILJEREZI0vEqngexGep/NV4TNauSTpaiz+oEaDS5hykJQuKz/u+zn2AEJI1TQ8NfGhPapDlKmVBJQBVtJsXuf49n8vNJ89A/umCaYKaqrjKCkPTZFp0XxlfR0dHJ5lFtshika08xRiWhIMMUz79kEKWpnol8NFLeQ/H8i/7oqqjyYkj+bjKQRLxEP0V9Uf7YJsVV86ewcfcxKT1J5LFPXrCGsrks6NKtBwoTa86cPU2JIvLyPcNCQ4iJU2icpjSgextcPPyk4WCVPgNnLl4hVwo1xN+5ISkJggB6xYLpvP1pwMaVCxDXPXiAHZdvurFk1Tp6dW4r6ZJrSxDe+b+gdauWfP4RzoZtu+jQvAGH9m1nyPBx1GrYggN7dv6jrqi+V8FBgVhYpcdEA10J0aq32w3aduxOuiy5OHX2HIVy6VZfIhlBMDDAyswUu97dKP93Owb1aM87/+d06dyZsGhDtjk4UKVcSWmy0pYg+HrdoU37LphYZ8Xp8hX+Sm/GwH49OX72CktXb2BY/17qwRTpknGxfP36jWzZc2j0IhITxYEd6xgzZS6lK9fi5JGDZNDQQEvdBSYlCEIGWsi6jpg4i9Nnz2NhYsjRg7sYN2kmdRu1ZPfOzcTFCNdMQ169ekXTJo15+vQZmbOkln91cnJi8KCBvHj5KmGSiQxjQL/eNOk2nG6t6vPl41uaNm3Czwg4de4cpYsUYMfmNYyZOIP23fqwa/MGjFJKFCbpjJi4v30PIHv2bLLJxPvXT2nXsQu7DxylZLHCUh57h849yFu4FE7nTmOdTr6aalq4JiUI4h4aEsewQXbUbNGTvp1bEvrzB61ateTLjwj2H3akbPGCkrurJgRB6AD079Odhl2G06tNfYlsPPW6zZBJC7jk7CQpU9qvXc7E6XPp0MOO7RvXppliGx0ZQVBoONk0SE/2crvB0DHTuHjpIhms0yGuadbkMURZ/MXKhTPVDT1Zv6ckCEJO//j+bew6eokTRw6Ih4tZU8ez5+AJhoyewKwpY4mKitZKB+HdKz86de3JPsfjFM6fl7suV+jSrRfps+bh0qXLZLMxZdSwAew5dIqZC5YyafTQNPsg5lFhnCdXHE0Q5tWLZ3P/VTAHd6wjODCAvj26cu2OB2OnzGHGpJGyU3rTurCUBEGIos2dPoGvcTasnDdFEozq0bUTT159ZNmqdbRt1lByHf5jBEEYC7378Bkjw3j69rbjjPN1urVqyNApC7GK/MCWI9e45nRC1gCaPnoQN58EcPXCUTUqaMmbe/LoAYE/Q3n73JepC9bi+9ALK3N5Zk1yLiwpQTBQxDFx5CBu3vGkSIVqnDi0h/HDBvA+3IRZE4fRp1cvth86RZHcWaWbMGjgANKls2bHzp1KT1W7di2aNm3G9OnTf/0+ZVg/rIrWpGbRTAwYNZ0bl07QpHUX9uxxYNOyOZhmLcrm9cvkXDptG9WidscxjB/cUVZ9iXnHRFGldAnmrd/Bc5/bbHd0weuuk0YGWupOlpQghAUH0qVzJ168fEvfsTOYP3EoHVs0pHZbO/JZxzB7+Vbc3W4RHRWhFUEI/v6REmUqsHbLbkI/v2DqSgfsWlTF83UgS2dPoF+fPuw8co5yRfOqu2yE8madJu3w9H5A4QK51dZPrPDA/Q4Va7Xk5g1nLh3fQ5BVftbMGiv7eDkVEwmC0N/3uuXE8AlzJJ0OjwePeP3QlS59BrPvwCG2r1uCQdYSrJ4vZHkVGhIEA5rU+5vnL18zaak9gzo3on71KnQaMplMRhGMnjqfww4bGDZ2GgcOHGDxzPHkr9yUZbPHq+yCj4crNeo0wvfpawrkVk9E/R+7065bPz68eYPTjTtkz2BKydJl2XXgBC+9b+Dk8Q7nU/sQ3/a/W/4lCAYYxkfRrUtnXrx4jd3YGYy060Rd24p0GDieEnkzMWLcNG7evk0ma0vZBMHS3JQ2zRvz9OU7Ji7dzOjebTh/bB9jJs8nMk7Bi9fPeHrvGr2GTmX3rm3MHD+U0nU7sGiG6rFzeNcmhkxazht/P9LLMGtydT7BoNEzCAwK4eFjXzJYmWDXvSN37j3AtmEbWWZNcnBOShBElEd4g+x1vICxtQ2ut25ycMd61u87z+4taxk/cjDj5q2jnm0piTRqIrX85okHbbvY8enDe67cuUeuTJaUKlmGTbsP8vj+VZw8P9C+ekEOO3tgv3IBQwfYsWzrQWpVVOUirKBR9Qq0HTiD4f3Uz6MxUREM6t+HK1dcyFGqGvcun2D7+mXcevKNoT1a0L5TV+7c8yJf7pxyYEuzTlKCYEA8g/v3xdXVg1J1W3ByzyamjhpApHV+2tevSO++Q7jm6kb2jNbSx/wf1EFQsH/TSg5efcCB7aspU7E2fs8eY2EcR8GCJfB67EcGc9WPqxA6CgkNlcxOYuLAOp2lZCykyVeACMkP6d0Z87yVWbNoimyRllP77dnp6CS9zGMUxmzeuo2/siQXWklGEAzA090dH4/bXHV7zJljh6lb05ZBExbSsVV9enVsjW2LXgzs0lwKt2pDELasXcKZW0+oWjwnl255MWlAG7afusspxz3cOneESSu2c+faxbQZ788goqJjEGIg5hbpRGSNdNbpZRpgxdOrfQvylKvDp6eeGGQuyo71C2VhKuRiF8+divvDl5KuU56iZVmzeHaqa01KEIS/gIfPEw7s3kLOEtWYMbQLlW1rc9vzARaKcKpWtuXMjXtktDQiLCyUihUrsXbtGnr0SK3Q+fz5c8qVK8eZM6dp0KChdF5hQ1ysVAW27TlM8KcXjJy9ngqFMtN7+HT6d21G/x6dKFijLdOH91CJqVgyE2JVYpx9+/6dLFmzYmRoRObMqhzgkjflcec6/6e9sw7Lomnb+I9uFFHsjsfuLsRu7E5ssbu7u7sV9bG7u4NSUVAEG6W74/6OWcSXkvuGB/0e33fnHw+5d2dnzp2dPfeaa86zepNO3Lt1lasn9vM62BCbDaqZNUUGezNg0DDCoxUIGe5uA0bQvV3zFG1NIAhiQg3w+YZvYDCdOnXiqcMrju1Ywc6Tj7h24TA3zh1l5Kw1OD65i5Zm+iMIjs+dOLB9FcVrtadDvVIUr1ALe8dnkqtijjyF6NXNki9Bulw4uZeDW9eybOcpbB/eQFsz2RygEKY2vtLSj59/oCTIJZa0TLKZpCkRHBbkj4vbezq0bsLxC7cI9XpPY8v++Pp68NHFkaq1GvHJy5PsxmmJg8UyYcQg3D0CJM+CwuVqsGzO1DS9GIQM80vn1xzZu4FcperRp11DChQrzVMHJ/KaGlKufAX2n7hAtbLFVSYIJlmz4ujkgs3OtRSp0ZZRfSz58ukDalpa1Ldowivnl2ycPRr7TzHs37WRAxuXsff8fa6cP5Ui2iKeo4DAQClEHxwajqlJFjQ0tTHJmratuM/Xj3z29KZ5y/a8ksyajLh/7x53rp3B6X2gSmZNT++cZ/7yzYioQGRMHItWbqB8saRup4kJghijLxxs8fj6mXlL12H75DEjB/UiZ0lzZowfyOIZE3kfZcLGBfHEMj0EITw4gDfvPtLRshmnLt6hzF/FEF40Ojq6LJ87CecAAyK/OFCpYRcmDuvB2GEDIHcFVs8SsvZJS2CAP1HRMYSFBKOtp4+mhgZGxlnR1fn5soSYA+/df4TTs4dsP3ZHMmsSL3IR1fv01ok65i146uhInpxpk+EVC2fwwN5ZmncLFC/L6iVzU7QveQTB1t4R2wc3uPXcg9N711KvRmW2HblCqYKmtGpQh1ELNmFRo5zUlt9GEIID/KhapTLLt9pgXqEAFWu1wvXtc8RKS+ECxXj60pnsRj8HdP/ODYwcP0MKdwowYuNi6Dl4AhuXxcs1q1LC/L0oUbEW9s+dMMuiumrg6xe22Du9lUKgsQo1Wrdum8IiNfkSgzh27/Y1XLn/UiIIdatXZvTsNbRuUgur7p0oVa8Do63aZ5ggzBhnzV2nL1T7Kxfnbz5i5tBunHzoylGbndheP8uwWWt5ev9amrB0bdeUK7efShOu+EoUfVi6+SBDeyiXbI2LCqdB3VqUr9MCH/dneMcZc+nkIbQ0lTtkiPDovVvX8PDylwiCsYkZzZs0SJMgiB91dPUZNqgPuUrVYerA9lSracGTF07oxIVTu1p1/r58j1xZdQjJAEEQaxPXz59k7tKVOL96yYSlW7h7eDM9Rs6hh6UFQ/r1xLRkQxZN+bk08OeP76hdpy4hoeHxlrYKBTkLFMfZ8bEqw5O4mGhWzJ/N8QuXef7qDTcf2VGzXAmVzo2NCuP02XPExIo8iljKVaxG2VLFfkoQ4n9QIyrcX/JtEA6BNuvmc+jmay6f2sO9S6cZPGE+jo6PJe+D9C4xiNrHDO9DqbqdaVOjCGVrNMTB8TnZDdTJZpYXy2aNiDDIz+nD2zi2exNz1+zHzu4eOsmWuRRRwRQsXJyQ8KgfmJqa5ebRo8eYZk1qmJa8s4nNmgI/udK8xxgCfNwls6ZKNWrj/tmHXKZp1aHgyoWz+AcLtUAFJjny0tiinlIvBl0dbcaN6EfBCo3p1cqcwqXKYfvMmTzZ9ClbvgK7Dp6mdpVSKhMEoZIoyqhh/ShWq71EEKQSF06RkpVxeePM8rEDcQszZtfWVRzfsY6NR65w/fLZFATh+dPbWDRrH7/2riZUEWOpUrsJl878rdT345+aNXl8eMvt+0+kL9OYOAWNmrQgp2nSD63kSwyijY/uXmH8jCXYPXnM0L5dKFLdkgnDu7Ni7jQcv2myZ90M6Z2QHoIgwffdrOnctfuU/SveFO3iif2Mm7Ucu6dP6NPZkgYdhzGifzsmjhxKoE5htq0QEbVERRFLm+YW3H38HHVhry4pd8ayweYCvVopN71LbtYkam5iXpNGHfozedRgpctpD+7e5PNXoXAJWUxy0KyJRYpnPjlBEGZZm9Ys5fozD07uXkntShU5cPEOxfKY0KmJOX0mr6BFg8pSLtZvIwinbLaz5uBlLp8+QmxkmPQFd+jkRfSjvekxbBp2j2+TlrOCkBQVspRCpjU8Oo7cZtnRFnbPeroqTaBi7WpIz/aYVWjI/CljVDvn+1H2D25w96lTPEFAnT59+2OixKxJU1OL/TvWcOmeE2ePH6Jbh1aY/VWTpTPHU692Leat20XtCsUkq9WMRBBqVyrD8t0nKZNHn5JlK3P08H5GTpjFU9tHLJ0xFrv3wZw8uDPNforIQXRMLN5enhhmNUVPW1OKyqiyhubh7kLZmhY8f+bI+1d2tO3al9eubuQwUS5hK5Lizp08xgcPL6l92czy0aNLO6UEwcDQiCEDepG7VB3mjR8kEZQZK7aSzzCWDt0H8NTOlrjoyAwtMYiLi3bt2riS7X9f4dHdqwy36kG0UUG2rllI/ZrVmLlqJ83qVPwpppLdc3AwMTHRvHv/gcJFikhRJ2Mjo3SNt9FDrfCNMWD3ltUqJ0dGRwSza/c+KT9H5EBUr9uQmlVSusklTVJUIy46hErVa/PipavkST980nyePHnI2sWzuevszYl9G6XJNyMEYezwPpSs15n+7cwpU7IUW2xOkl0vlhp1G7J17XLWbDvI44e3mTxmOF8i9Dm8Y22Kl694MUttjoziw+cvFC1SGHU1dYyMDJVOnoIgFMyfl9OX72KoHkWZyjV49cYNp8e3mLh4G852d1JGLJLcqTgO79uDT1CYNPFnz1NIMhVTZtYkJMDHWfelUMWmDOtlSYmihVm98wjliphRq25j7j2xJV/ObOkmCKOH96NorQ6M6v3dkEcRTtGSVXB+/Yq7p22YtWYvd69fZFi/7sQYF2TnhuUpxp2IxISEhBIeGso3X38KF8gnvbANDZTnYwT6fqF4uVq8fuX0Q1Z56byJPH8XhM3urUrHuLvzM85evhlPEGIVdOzak/y5kkbXUhAEdXXpQ2fstEXYPn7I8vnTuOn4kXNH99C7syWNuo2gt6V4KaZviUF63gVBKFJIsnsWBOHymcNMW7iWrVu3Szkr86aNxdUnjiN7NtOqSX36jV9Et1YpHVJDQ0KkRGZvz28YZM2Gvo62ZPcspJuVlT3b17JO2D3fPI2P11d6du1AjcYdpGdCT8gvK3FzvHjmBG4fPb7Po3no0aWDUoIgZLE3r13CNUcPzh/cTJ9OrajZph8dG1ejdt0GHL9wjaL5zKR3028hCFGhgdSpWYNVu45Sr1o56ctKhEa27DpIZEQUC9dsom+X76xYCaKTRg3irpM3d66ckEKfqpbXz21p3KYzN27doXjh/KqepvJxiSMIIknryL4trNqwU/J/qN/IEuv+lvTqP0hKHKpQw5ztG1cj3LwymqS4e/NKySjJ2FCPvEVKc/zv/YwbbsXNh47Sl+iew8epU6WcSu1v06gONdtZM31kD5WOjz8ojhFWPbhr/4aY6Agad+zN6nlTM2VNN6ERSZIUFbGMsR4iGZioa+sxc85StCM9mDB1HsKVrFu/wUwbO1x6UDOapOjx/g1NW7Zl2/7j1K5SBhE5atuxu1R/6cq1OLo/bcKV0G7b+zdoZtmdh4+fUqKo8pyFxKCfP7KbGSv3cPfWdQz1lE8w6bhh0qE/CIKaGtFhgXTv0ZvXb93JYZYHG5sDzJ8xlhdvPhITp8ahYycpkkd4bKilmyCMHzWUc5euoa6ly6y5izHRCMJ6wmyJ8HQdMJK54wfSuUNb3rz3JEahzpmLl9NMcnWwvUeDRq2we/6GYgVzqtDtODq1a83DJw6YZM/Ftp02nNy7gnM3HknJwTtsjtOgumrPh7KLJU5S1NXTY87U8Zw+fwmFhjbWoyZTzExDyrvQVFejfe/BTB01WAonq5qkmM0kKyOHDeL6nftoaOszf9EqKpTITd/+A/jw6TMlS1fg78MHsR7Qg5dvP0lLsKfOXaBUkZ/nv9jsWM+YaStwdXtNViPlH1mx4QE0bdmGV6/dyZO3IEePn+T6qV2s3rSb8MgYLDtZsWb5DGVQKf09MUEQy68OD64xZsocfPwCKFu+FquWzaRzx44o1NTJWaAop48fITYqUiId6Y0gdLRsKZl2ZcuekwVz5zJw8AC0dXQRzr+mectw/uhGWreyRE1Di4J/lePcicNptD8OixoVsBwwnTGDVTOt27hqERu37yMwLIrBw8ahG/aBVVv3SR8VCjVNLl2/S3lhovQPS5IcBDU11i6fz6Hj54mIjqX/wJG0alCeLt37oqGlRcWaDdi2foVEiH9bkmJsTDTe3r7kyGn2Y/uYWK/18vYCNQ3JrEnVbXL+vj6ER8WSJ7cqk8R/kI2MCJeSFHOaqW4MlZ77knyJISoqUpqIRFFT15DMVQQhCA2PIIuxcYKnUoYJgsDP29tLsk0Vxiniqz8qMgIvbx/El7ayNcXEffv21QMDo6xSXkd6irB79fLyQl1D87tZjPLlhfTUn3ybo3jxi10K4qtSmFFpa2shbIBjFSInxeDHVr2MEgRhrhMSFk6ORFn6QYEBBAaHSMZCysxaEvom7sPHT18oVKhQus1W/Hy8UdfSSfcuHVVxTRJBUCgIDQuVlphEVr2hoYE0LgMDg9DT10dXW1vaRpuRXQw+Pt5ERcVIa/dGWbJiaKCHt5cwZ4OcOXNK1xHPpBivxlmyksU47SiLeJ4+ffpCQYFpGrsdkozrb1+l8SKeTfGMCPdXz2+eaGrrkN1U5DKoilraxyXf5ijypWLj4sTGRkQ4V09XF+krM05BFiMjKUNcFFUJghh7Pt5eUrRPjH3jLNmkpRhPb29pPhV9zJkrJ9GRkVLuS5asJhgbpb38EhoShJdPAIUK5lcaiZEaq4jD4+s36VgxVnLmykV4aJC0nCaK+CrNbprUujkj6CaPIMTGRhMeHvm9jWoYGBoQFxMj5aMZGhmhKfqfQTfHb4nGh4lJNoRhmZp6/NKghoYWZjlzEBoUhH9gENmzZ1carf7m8RkD42wqz6MidyEkNEx6vsTyqYZanBQlTyjZs5ule2dZapgnX2KIiAgnVowltfhdhXp6ekSGh0n5aEaJop2/jSBkZKD8aefIQkmZf8dkqeXMx1RWUsx8TGWhpMzDVBZKyjwsE2qSzZoyH9N01ygThHRDpvQEmSAohSjdB8gEId2QKT1BJghKIVL5AJkgqAyVygfKBEFlqH7dgTJByHxsZYKQ+ZjKBCHzMZUJQuZhKhOEzMNSjiBkPpYZrlEmCBmG7qcnygQh8zGVCULmYyoThMzDVCYImYelTBAyH8sM1ygThAxDJxOEzIfupzXKBCHzwZYJQuZhKhOEzMNSJgiZj2WGa0yNIIgtjGK3gchoFkVkiwujEbEmlGCOk9FtjgkNTW70kfz/Ge6Qiif+yuulFkFIMLr6YdikoSEp6iUYjIhmZ3QXw8+6/Cv7mOo1M9P9JtkFkhMEsZVM4Bf93aBFHC4y78V++cSmWBnRQVBlCP1+bJO586jSSCXHpGbWJPlRREdLu0BEEXvKxZ52YaaUUFTdxZAglJRaM8ROCTWV9EszoaO/oYrUCIK07U8RL+T2fSJFW2gpxMT8wDejZk2qdOl3j9HMvl5qOQgp3k3q6pICZOLx+dt2MWxdvZBdf5+TtidFRkUyac4yDm9djqdvkORMpmOQjYsXz6KjgqzBp/fuBIXHULpUiXQ9FuOH9ePhc9d4FUbUOXXuErlMlIuDqDKAxDHJCUJcbDRL5s8mMM6AtUvmEBUTi/trJwYOHsaStVupWj5e0zujBMHlhT2Dho0gLCKaYWMmYdWjE1vXLWHrniPkLVyM9evWUyR/LpWa7yKET8zykTN7VpWOTzjoxsWTTJuzBB0DY5auWkfNiqXSdb6ygxMTBLG9KjwkiDGjrKnetDMDu1tKk8aTO1eZs2IjNgf/JqtBvLdGxgiCghuXTjN11gI0dY1YvWEzZQrnYta0yVy+eZ9aDZqydsUShC6+shIeGoK9w3OqVquKjo7y4xPqE2JgG9csZbfNMXLnL8qOHdvJlyulMZKy66f1e2KCILZXPbx1mcVrtnD8xCk01WKlrbIL50xHzTg/i2dPJCIyY2ZNnh6fGDd2FJZ9RtOlVQOJKF85d4xVW/Zz5eI5xNbntSsWs2P/YarUqMu61aswyfLzrXlC1Mvx+UuqVq2ikgCNwODZ0wdYjxrL9r0HKVmsMOdOHmbOgmVkM8vDtu07KFwgzz+B8se5SQmCGkH+3kycMJaGlr3p1aElsQoFd66eY9m67Rw7fhxtjfj9lekhCJ4enxk7ZiSteo+mZ5sGPLN7jLX1SIIjohk3eTa9u1oSFODLjCnjKFihAROtrdLsm5+3J64fPKhWuaJSMZ6Eiq6eO87CVZs4c/q0tI0yNDiAGVMmoJ29KEvnTs0ULJMTBEFgd29bz8Xbthw+sEfanx/g64X18KG07TmErm2bSts8M0IQHJ/cY9T4yezaf5hihfJz/+ZFJk6ZRbSaNms2bqVc0dxMnjie2/ceY9HMkjUrF6GVxhZbZ6cXZMsl5lHVtnuGhQSxdOEc3Pxh/5ZVeHl8Yujgwbx2/0C7zr2ZM2OiymM9LfCTE4TY6EgWzJlOuF5els+eKCk/vnv9gtGTZrBm826K5Mkmza2/jSCEBIv9smGoqcXR2Lwh528/RV89QvqyvnfxGLvPPeHssb0qvfAnDOvPnZfe3L9xJl1CSQH+vkRGxfD2hS19R0zjxbOn6KVj8lY2+pN4McTF0KtTS964e1KiSh2O2+zE7sE1uvQZSoC3L/tPX6RBzUr/iCCMs+pJqWY9qVXUmFadB+Jge4f69Rpz5/4dZk8YSlyW0mxcpZoMdUvz6tRpP4rpY1L6Fvys34qoMMoXL8Ge05ckRbrZKw7h8uKOSlLLyrBM+D0xQQjy88KiUWNCQyIks6aZYwZxeOc6yXgrNg6e2DtgaqSTYYLg5/mRYqUqcfbiNYK+vaXT4MmsmDKAXScfcuHEXkYP7U/tDgMZ0eO7il0anXh69xqN23Tlia09fxUrqGp3sXt4m+r12/Hm7UsuH92Jg5c625f9x6BL5YrSOPCHWZOmFnfPH8J6yiLiYmKxe/EKbUU43Tu05N0HHyrWb8KeLasJi4jKgA6COlXKliIwKIwJSzYxtEdbTu3fxNiZK1BT18Td/Q13L51g2OSFXL18gWmjhqJboCKbV6T040joisOTu9Rt0Ixnzu9UEkp6bXeLppa9iQwO5MLdh5jqqVGyXGWu3n6Iq+11Nh65w9PbZ1Sac5Th/oMgqKmhFh1Ok8YNCQ4Mpe/YGYwb0pvzh7cyYc5aomMUPHV0QOe7ZKyqBEFoHtStVZ2AwHAmLt0sSS13atWIARMXoRXmgdWIyTg62NGjbUM+e/jToucQls+ZmGazD2xbg/Xk5Xz46KaSUNKVY9sZMmER0VGx8WZN+ho0Ma/Fx89+VG/a7peYNYl38bSR/bh40x7dbDl4cOcmnp/eYtGkNdGhQYyZt5rh/TpniCC8sb9Dk7Y9iQ4L4erDpxTOZULRQkWwOXWJgK/OjF1qw4x+TTly3ZGDO9fToW0zFmy0wfynZk1x1K9cQci3eAAAIABJREFUmvaDZzN2aHdlQ4aoiFBaN23Cq9du5ClXWzJrWrd0Nm5Bekwa1JFqNWtLonCF8yf1qlBacSoHJCEIijjatmrO+3efKWvemiO71mJ39zKdeg9FPTaW0zcfULqgmRSZ+W0EIb7NCjYvm8cVh0+cPLRD+kuwvw8Vy5Zmze4TtGlaN82+CxGbwKBgxL9CTlYwWCFnqUxgJXGlgin169aRfOUsWDhztMqTw2mbTez8+5KkAheFFluVmTUBLs6veHDnCjefOHPMZg8+Pl68+/iFdm1as/3AcRrU+mcEwWbXRrYevECJfCZ89ovk1DEb2jZrQsWa9Th/4jAzl26kW7tmaWLq7ydIUzShwUHo6guzJjWMs5pgoJJ8dRwjB/QiWD0Lvh/fUKp2S5bOHq8SpsKoZNGcqdg6uUmytfmLl2PNkjkp2prErCkmGhfXd2zfuIrcpWozfZQVXz0+EaNQo3nT5ty8//gfEYQAr88UL1maJWu2E+jxhjkrd7N65mBW7z3H9g0rmD5xDO0GTWVU358rfgqS6OPtLTFyHx9fTHPEu3Wa5VDuPig67/j4HlUt2nD6xDEun9hHiGExdq1SzUY3Ktgbq+9mTSIS0X2ANd3btUiBaWKzpiB/H/wDA7Fs34Gn9i/RVovm9evXkgGP3Rtv9mxZk0GCoIXTKxd2b1pKidodGNKjDd5fvxAUEkSTlpa4u75h6cxx3Hby49yJPRzetpbF249j9+hWKmZNcXh6eUvy1X5+AeTIkV0ykcmRPUeaX75hwQG4v/9Iq+YWnLhwmxDPdzTpMBA/7898fP2MqrUt+ODhSY6saYmDxTLBehDuXwMkA64iwqxprhKzJhS4vf/Ins3LyFPGnFEDeyK+/r39fLHs2AMHB0d0vgtkqkoQTEyy8tLlLbs2raBYLUuJIAhSoqury+FdG1i85QgP71znnZsrt68c432Q/k8Jghgbvn7+COGp4JAwTLOZoKWtjWm2tA3FfD2/4OHpSZPm7eLNmrIYYmdrx+Vzf/PyQ5BqZk23zzNvxWZJIj8yOo5Fq9ZTvlhStcfkZk2uLi955+7K3KXrJIIgBH2c37gxe+poGnccxAirrhkiCOEhgbz/+Jk2LRtz6lK8WVNoSCgvn9uybPkKytVvx/QRfSQRtugQP+pZNOL0lbsUTCYNLR4wP18fyawpJDgQHT1DSS1XiFXp6cZ/sKRWxBxhZ+eA7aNbbD8eb9YkhPSE6NxbJ1uatunEE3tHcuUQSqY/L5JZk51zvOld8TKsWZLS3C1pBEGBs4srt66e5faLrxzdtZZAPx9Co6F351as23Py/4cgBPp6U6lKVbbsP0bTetWkHp/9ey/W8zbwxvERuslMWpJDcuTANibOWCQphwkwhBJUp37WrJg7SWVS5fPtA9XqNsfWQXxtKpcXTajY5dkT7JxcpS+pWIU6bS0tMTZIen7yJQZx7L4d8WZNgiCERURK/uklS5ZiRyYQhMkjB/H8UxiVi2bnyIXrkgNgQ4tG9LEawmmb7TTpMoC5U9O2Ch7Qqz037jtK/RIhJfFwzl6xjf6dmirFNCYiBAvz+lQ1b4Xveye+hGty8eRhydhHWRHXunPjCl88/aR7mcU0Jy2bNkyTIIgfhVrb8MF9yVWyNtNG9pdexMRGUrZidW4/ePKPCIKo/97VC8xZvBw7O1umLNvC+P4dmDp+HDfu3MUjIIKXr5zJZvBzQzGPzx9o3qJlErMms3xFeXTnqjJIpN8VcTGsW7KQQyfP8tzFlduPHahWuohK58ZEhXLq1BlJZleE88tVrkH50vEGNIlL8hyEyLAAqtc2x87xFZpES+Zh2zcswfb1PyMI4poJZk2CIIgSFuRJ6Up1ee/myqLJo3jgHsbZIzs4snMDCzYexPbJ3ZRmTdEhlK9YTZIslwyw4uIwzZmHy5evkC1L2kuEic2agr68pVnXEQT4vOejyzMq16zHuy/e5MyWVh1xXDp3Gr/gCCm0bWKWl2aNzJV6MYhlpfHfzZpGDughvTyC/L9Ro35zHDNAEFI1a1Io+Oj2khZtOrDv6HmqlI2/1+uXz+RjqPFPCcJLhwe07dgzPnNBmDXFxlKxujlHD+1WqlD5T82avrx/w817T6QxFhuroHHzVuTKntRFMrUchMf3rkpmTYIgiN9Fu9u1akjjTkMY0b9LhgiCwCqJWVOJYkRFR/PC0Y5FixYRopaDiyd2EhrkR7uWjandoifzZ0xI+SwqYuneqS0P7V5K/UqYR5dvPUznZjWVPrvJzZqCA/2xbNuK9r2GMXJQb6Xn3799nY/fPW2yZDOjZbNGKc5JvsQgfII2r10mmTUd3bWa2JgYjI0MqF6lAhv2nf7/IQiHtq9j7xVbzh3eIw1ERUyE5MC3Yu9R6pT/SykQIuEnIjKSwIB4s6ZcObJLyVQqr/GKG9mqEWWadWfG6CFKr5f4AHeXFzi7fZK+WOIUaphbNMRQL+nacnKCICxND+xYzaV7Lzl1ZB/+gcFSvwsVKszev09Tv1p5aYklozkItSuUZuW+M5TOo8dfpSqxa8cGZizbgjCW2rxsDmfuveDimeNp9lNIwgrvAiHjapTVVJqchd2plgomI1/cnSlfsyHPnj3jwytb2gizpjdu5MimilmTQjJe8fEPlNpnmCUb9WrXUEoQjLNmZXD/nuQqWYdpI/pKbRdhSKFF/8jeEQNNkQyqlsEcBMmtiVULp3PyuiO3rp9HQ10NsVZbv15dxsxYzMBeafu8C7On0NAwySzJ3f09hYsWlRJ/DAzSJ2Hdp3tHdM3+YvOqBZJBmColJiqcmzdvEROHNIkWL1mWEkVTLm8kJghiolWLi6C8MDFycSUmMgwtLR12bFzMUxdv9m1fT0BgcAaWGOJJlDAsEmZNg7u1lv4fHuxN6Uq1effWlSsnbZgwfx1PH91j7PCBBGqacWDz8lTkjxWEhoZK9sRCvrqIZNakhr6+vlKJ4LjocAoWyMOpS3fJoh1DyXLVeOHiitPD68xca8PLJ9ele/zzEse9WzcJDo+SxoZRNjPq1Kiaoo2JcxDEC8LQ0JDxI/pSqFIzRlp1k+TVo8MCKF/DAmen56gpYqUXiaoRhASCMHp4f4rW7sCoXm1wsn9A0xZt2XvkNOa1qqGtHT8fbVw5m/chRiyfncrLTLwUhVdJeLgUifX08adQgXySC6G+nnJ32yBfD4pJZk0vfpg1LZs/iWfugSqZNXl+fo/ts5fxH1pxCmrWqU/2ZI6cyQmC+KK2FX4MUxfy5OEDIsJDJWngVk3q0qzrMGmJITo6NkM5CIrYCIoULsi5q/cx1QXLLr34+9hJ3r96ItXt+eElvbu0pbJFByaPHiZFBMQzk7yEh4dJ8tPC9M4oiwnCzVNXV08lmfW9O9ayzuYGdjdP4/X1E40aNWLQmGkMt+opJbamdr3E17d/+hhPH7/v86gJ9WqnJCXJCYKeviGb1yzmiuMXTu5eQ0REJCJKVbViGbYdvkjR3Fmk/vy2JYaIYH9aNG3Gks17qFGxtNSZi8cOsPXIJY4f3vfDn0GViXDmhOHcc/LhyvnDaSaMJK/r9XM72vcayPkLFyicL7cql0rXMcnNmk4d3s3GHfulL5865q1ZMHMk1sOG4PDCBdMcuVmyYi0VShaUtLAz4uZ4/OBuFq/ahJ6uNqUqVGPdqiVYD+yD2xdf6YZPmb2Ads1SWiin1qkOLSyo134EYwd3VL3PiljmTpvA9QcO0guxZZe+TBk5KBU3PtWrTH5k4iUGsSwxffI4Htm9QENbl3ETZ1KxeA6Gj5qAp6cXJUqXZ+/eXShiojJMEN67vqSX1RDWbd5NZemLTMH86RN54xXNzs2rlTj//af1jo/v0KhlJx7b2lOs8M8Nc1JD5tTBHWw6cJ7jx//GKBkJzTiS/znzPwRBjejwQAYNGcabt+8wy5mHHbv2cu/yEbbtPURYRAwNm7Zn1rTR0j1N7y6GmVPGc/naTdS09JgweRYWdcph1X8gru7vyV+gCHv27GLRrIk4Oruja2AsXbtQnp8nZD53eIR5w1bYv3hN4XyqJG7G0a9Xdx7bOpItRy5Wr9/K7bP7OHnhJqirs2rjjkxLqk1i1qSry5L5Mzl/+TpqGtr0HzSSrq3r0W/AEFzffSBXrvxs2b6NnKZZVCYIwqxp8oQx3Ln/GA0dPWbNnMeedYt49s4DXW0ttLT1uXjxIscPbmffoWNExSjo3nsQ40cN+umQObpvCyOnrubNm+cYG/w8FJ5QQWxEEJ26dMfZ9R158hRg99793L5gw6YdB4iIiqFlu94smjP+Hw/RxARBEBenJ7eYOnepZNZUpnwNNm9YzsxJY7j32B4dfWMmTJ1Py0bVpRdpes2a+vbqylO7Z5JZ05p1Wzh3YCMX79uiroARU+cS8NaWNdv2YmBgQFhoOEvX7aZ981o/6aOCFubVaNN/GsP7pXRUTO2kHZtWsWPf3wSHRtJ3wAi0Qz6wce9h9PUNJAJ15OQFShfL3BwEgdPW9Ss4fuYyEdFx9Og9EKserelnNYiPHz+RM09+1m/cTB4zEyki8lvcHP/xqElUQfz2K5H9n/lOd/+knckjCGKdTUQ3RIZtXFyMxNoNDAylNXpBQsPDwiSjpYxGEP5JW5OfKximYIv/tpJ0m6Oa9CUuffUKo5/ISGJi4qS/xW8ZVRASHCKBm7FdDJnb+/CICMmk599WkkcQxOQnisBVGAppamujox0/buONciIyHEHIzL6LexwZFaWyYVZmXltZXckjCMLoSkSORDQrOjqSyMhoyQgrHmektW6RBJbeCIKydqTnd/EiFuZPqli7p6fef3psil0MmlrxJkkJz3hIKPoGBmgIINXUEMZDwhQvI7sY/mlbU86jYsdP/HbWf1NJHkHQ0dWT8iREEbk9kZFRUtQrYet9WFiYFIX8bRGEfxNYv6otslBS5iMrKylmPqayUFLmYyoLJWUeprJQUuZhmVCT7MWQ+Zimu0aZIKQbMqUnyARBKUTpPkAmCOmGTOkJMkFQCpHKB8gEQWWoVD5QJggqQ/XrDpQJQuZjKxOEzMdUJgiZj6lMEDIPU5kgZB6WcgQh87HMcI0yQcgwdD89USYImY+pTBAyH1OZIGQepjJByDwsZYKQ+VhmuEaZIGQYOpkgZD50P61RJgiZD7ZMEDIPU5kgZB6WMkHIfCwzXGOqZk3a2tI+6/CISGn3glA+E5mhkZERUuatKP+GXQwZ7vQvPjF5BEFk2erq6Ul7uYWpiMi819PTl7KGxSSdYObyb9jF8IuhyXD1yQmCMBATWeIic1kUsfda/F9sXQ0Lj5D+Jvatp3ebY4Yb+AeemBpB0NGNx1CIJIlnX+xsECJvCRniopv/n7sY/q0wp0YQxFZwsdsiLCw8fs4UO8S0taQ5QOxmEuXfsIvh34ppqmZN2jpoqCmIiIySmi3mUaG5EhkR8cO47bftYvD18mDunLm4f/yCeZMWTBxtLTUqKMCPUaNG0rXfCFo0/Nn+0qSwf37vTkB4DGVLlUjX/Vg8e5Ik7SteKprauqzfsp0cxsrFQVS9SFKCoIa6moJ1K5cSpZmFqeNH4uP9jUWLFvL67QeatmyH9dD+koJVRgmC17cvzJo5g3efvtG4RVtGWw+SHM5shVDS3pOsWLkME0PV+vf6pROmeQuQPatykaPEeNy5foE1G7ajrW/AhCkzqVpOueCVqniK45KbNUVHhDJ/3lzK12lOlzaNefPqOUuXrSAwLIoeva1o37qJtD0nvQRBTOTCiMkjVIOl86bi882DGdOn8fGLJ+27dGdgv15cOPU323cfxCCLCVOmzaBC6Z+Pv4iwUJ48taNGrVrp2kYmlDZ3bl3PmQvXyZmvMIuXLCGnCsJT6cE0MUEQE+/TezfYc+gkq9euQ1tdwdFD+/j7+Gmy58rPnLnzMMtmJD0z6SUIPt++SPeqedeBtDCvzluXF8yaPY+gsCj6WFnTpX0Ttm1ay9GT5yhTsSrz5sxJoU6auF/CAOupw3Nq1aqpsv6JMDSbv2QF8xYuoWihAlw6e5xN23ZjnM2MxUuWkj+3ahLYyvBNQhDENtsgfxbMnUu9lp2wbN6AL+/dmD13Pn5BofToM1hSARTjND0Ewc/rK/PmzaVRx/60sajBJ/fXzJw5h2/+wXTq3of+PTuzc8t6jp08Q76CxZk3fz75cv9cL8LPx4vX7p+oWa1KKuJUqff4zrUL7D54gvXr12FooE9EeBiLF8zFOFdRxo8crAwmlX5PThC0dXQ4tGcbj5+7snzpQqLCw1i5fClPHV5QqVodZk6fhCI2Y9scnZ/ZsmjFWhYuWUaBvPHaOP4+3xg3bhKT56+kZEExPhScOWrDjSevWbN8fpp9cHF6jmmeguTIllQd8mcnxcVEsXblMjzCNFk+dwreXt+YPWsGb90+0aBpKyaMGf5LzJqEUNfaVcuI1s/DxBED8Pn2mQULFvDRw1t6lwy16vmDdP0WHYStqxay8/wT7l85QdVyZbl4z4E8JjqsWjiTuUtWsXjjfob3VU2kZ7z1AO499+TuzTMqC9eI3np+8yAsPBLPD650GTCaNy8d0U1DKzvxTU1s2RzPVrVSPFSJCYIgBxNHWHHm/C2qNmzJiYO7WDBtHM++hLNj9Txq1KjNscu3KZI7m8R8MyKUtGjWOF77GLB29lAqV6nM9Yf26CrCKVu2PAfOXKdFA9UIl+hPy4Y1qdlyGLMm9FXpIZYOiomgbLGi7L90D5cH55i55hgujrfRVE34L4nltUTaUtFhSEwQwkMCaNyoIZ88vLGetpD5E60lZcNyDTpQNo82o6cv5Zn9Y8JDQ9NFEMzr18WqewdOXbxN6dpNeHD1FIumj+PJhzA2zB1F9dpNcHzxnJbmtTl4+T5XD6zg7ksvjtjs+ilWj+9epVWH3tx/8Ji/iqtu1vTs6X2q1LbA1f0TBzcuwlMnP+vmpq6Il/Liih9RKfGbEJkRX6zJSwJBEL+/sr1Fp56DiFXX5cXLl3i5v8CyuxWXr1xl4YzxRBkWYNPSmdL+6PQShHo1q+DyypX5W2wY2qMNHZrWoVW/8RTJrkmrdt25dOpv+lpP5NULB/p0a0+B8o1ZOe/nQjv2T27TsGlbnji4UKKwcqEzz/evqG3eBG+fQG49fEyuLNrkL1qKB4/teXD1GKfuunHrnI3Sl6PYJ/7dsfmHXXtyTBMTBA21WDq0bc3LFy6MmrOcsQO70aZRbRp1t6Z2mfy0aNuDF69dMDHUVZkgGOjpUK9uTd65f2buxgOSF8PE4X0wKWZBsxr5sew5hNsXjtKutzWPH9yhfVNzKlq0Y+mcn8vQ79u2hvEzVvLm7RtMVPhQevHwMs3a9SRW0wCXly+kc/p0bcOly/do2qU/B3asVzp3CJlsoX6aUMQzn1wpMDFBENFXYeC1YsM+zAoU5sHd25w/to9Fa/dx9eIJOrRpxtQVO7GoUkrSREiPUJL3R2dq1GuMn38I923tKFOimBSZHNy7C4fOXuPqwxfULluAd67O1DNvRPaCpXF8eC2NPsZQr2p52vWfwXjrHkqxEB8DVj07cOr8LUrXacajKyfYsnoRN196snKGNWUr1eLZ8+cUVGLWJD4yEyzFfzaPJo4gqKGgT/f23H7gQO1W3Ti1dyPL5kzkS5QxQ7o0pXHrTjx6YkuOLAaSiN9vIQj3rp+ni9Uohg3ow5nzl7l79y43Th9k+ZaDNCuXF72yjRk9sJtSUMUBvt6ehEXFkf8741PppO8HiQE6qGdXjItUYuWCaUonh4S6bTYvYv3eM/Fa8ApNjpw+S4GcSa2Rk7g5Ai+dXvDgzmXu2LlKXgzCIEVTWwddtWiq1jLn4o27kndARgnCrHFD+RxlxozRPWho3oCr95+ycMoIjl99SMcOHZgzZzaFVFSM9Pj8EUOTHBgbqBZxkHBRxDHcqjtxBrnw/PCGwpUsWDl3kkqYCg+FiSOHct/uhYRp8Qo12bdldYpbmZggxEZH4eTixo7Nq8lbpi7TR/UnKCgQQ6Os3L96klnLt3H/9jVpqSE9EQSLBhaS6czd25c5cP4xtrfP0da8GnO2HKdqqQL0btuEHpOWc3DdHAxyF8X5yW1adR3ApDHDfjr0oiMjeOv2jmIlSvwQJFFlnNrev0nNRm1wcnrJgU1LeR+VjQMbFqhyKhGB32hj2YGQSIX0Qreynsjg3ilJd2KzpkA/b7x9fenUuStPHV6iHhsh+UjkzZeHQb07k6uMBVNH9s0AQdDk2TMndm5aRhnzLpJZk5enJybZTLlx4Rjdhkxn8qC23Hrhw4WT+7DZsoaVu87w5OH1n5J+YUPt9u4DJUoUV0l5NTTQj7fvPtC2ZWNOXLxNmNd7Glla4esTb9ZUrW5jPnp8I3uWtMZ8DP26WvL6o5+EQYlKddm1cUUKEpyYIAhK9uatG3u3LCdf+YYILwYfX1+yZMnG86e36TpgPHZPH6Knra4yQRAyuC+cXNixaTkl63WSCIK/r48wE2DR/NnYu/ty9uh+SebbJIsRzRub06LbMMYP6/PTsRMSFIiHly/FixZR6Zn1/vqJz1++0MKyC69eOpHN2ABbW1vOnzrIG48IbPZsVTpO7106woQ5q77PowrW7zpMtdKFkpyX3Kzp9avnuLu5smDFRsmLQZKHj1NgmkWfurVrs+nAaf4qkB11dY10EQThsSDMvNq1aS6ZMJX9qzjH92zizGNXzOICaD9iLlUKG9OmZQsmzFrIogXLuHXrUpp9/PLpA0ZiHjVULq0u5kAHe0fu377MnrOPJLOmoMAANLT18P30hpoWLbC1dyBPzrSjXDMnjeLqnafSPSxZoTq7t6xN0cbkSwwvnJy5fe0s9155c3TXGslkSvjceAhvjw69ePTkMYZ68e+m30IQTh7az/jZS7Bs2ZhHjx6zd99+2rRowojJ83h17Sg6RaqxdP40dNJQR7x09igr1m37MTmIsHDTdj2kEImqxfvLB+o1as61Ow/IZ6aaZ7eoW/gb3H78XFqjEWZN/awGYGKUdGJJnoMgZCr3blvDlQdOEkEIjxSuif7079mR+q17M9Z6IFFR0RleYnjv6szYiVN45fQCTaMcXP57B3Wbt5dCxacPbCNI3ZQTh3amCc2MSaN4aPdK0gxPUKobM20h7ZvWUQppZHgovXp0RTdLTgK9PpG9QEm2rF+NthLTLYlbKOI4d/Io7p89pfVZ05z56dm1fZoEQfyoq6fP0IF9fpg1iZO9Pr+ja69+TJ61iGYNakn9SA9BaNSosXTdHVtWsenQDYkgNK1WkTVHrlG2cHaGdG1F496TOLR1CUY5CvDFzYnqFq0lN8rkxeubB3379ZdkUuPJpIIsprk5emivUjzFAQLTmZMnYvf8JQ+f2nPh+l0a1Kyo0rkxEcHs2LVHktkVaqO16jWmZtXyKc5NmoOgRlS4P9Vq/cesSeQbHNq9nsNn73Ls+FE0FbGSe2J6IwjiwsnNmlxdnjNo4CBmLtvKo1M7efghgrOHt3N010bmrbfB7mkqZk0xoVi260JEVHzOicBUz9iUfXt2kkXJRJzYrCnw81ua9xhFgNc7Pr12pFL1+rzz8CRnNsM08I3j0L5deAeESWPWLG8RunZsq9SsSUQmhQ9FwQqNJYIQHRuHMCoSkcIpC9ZL91R8SadniUE0ctSwfhSr1V4iCKL4fn3PqLETeOcVxqUzx9DXFkZbSzlz8xlHjhzGSC+lsdhbZweGjxaRhXizJvHRVLxcNdatWKCUeP1Ts6Z3Ls84deG69GUaE6ugc/fe5E/mjph8iUG08dFdYda0WCII4v4L2fUpY4cSa5CX9SsXSdLyGclBSGzWpB7mT5Va5uzcd4ALB3dh3mUIbx9f4obDW5bPm8SoUVM5dvJvShRNZp6miGXCGGscnN7+mEeFQuXkeatpXjfl85d8sCU3axLEpWe3TlSsb4l4+aftFQIXzhzn7fsvUrWmOfPRs2tKmefkBEF4GG1as/SHWZPAPDIsiN49etCoXW+G9u1KnOI3Kila9e1OjhJ1WTrdmn5dLKnWvAM3z5/Cx8ePD66v0cqai/sP7pMja1rOauLLKOWzrMzMIvEZw7u3xrR8I+YrcTlMfhX7B7d4YO8kaVPHKNTp1btPmgRBMmLR1WO/ZNbkxJkjNhJLa9+qCQ27DGXyCCuCg4IyQWo5jjLFC7PB5jwFtQLoP2U5ty+f5tKR3SzbdYIbl86m+XJJkNZMfJCqeL53fUF181Y8c3Tgm5sTjVp3xPmNKzlNlRMvMdmeP31CWvMSzNckR166dWqrlCBkzZaNQf16kKtUXaZZ98Hj41sqVa3NqSs3aVi7KgH+ARmWWt65dTUbD9/A9uZZRg3oTpE6HRjXz5IKpUuyee9B+vQbwlvnZ7x6fIteo2di/+huqtj+E0wTKhw9sCfuIXqcOrhd6QSRcE50RDB799oQHRdPEKrVbkCNyuXSJAhSSJJIylSsjourG2qxMRzfv5k5a/fz9NF99LXVCA0Nz3CSYmKzJl/vb1SqWIFtB07Q3KKO1LeFG/ZJk/7sicNx9lbjxIGtqdqFZxRT8QIomD/erEmfcMpXrc2bd5949/w+fcYu5J2LPVppquLG8feBffgGh0tSv6a5C9K5Xas0CYJoq5GRMeOt+1C4cjNGDexBZHgQlStWYvHGvbRrak5QcBBxcemXWh7z3axpZK/WDO/fhxnLN6CvCKZQqco8c3Tk9MEtbLC5jN3D2xjp/1zmO6N4Bvl5UKxsamZNQdjs3qKUyArTu/NXb0kvc0EQ2nXqppQgaGhqSWZNo6csxPbxA+KiIxk7rBfRWYqxa8MKQkKCiYrKWA5CvFlTIc5dvUeY31cmz5grJZa6vXbGtMBfWNSogNMrZylqYe/gyMyFKyVikrxkFE9Rz74d61hrc10yaxIW5TWrlKH3qDlMHPFzH43E17909hTvPn+V/mSSIzeiXYe2AAAP90lEQVTdOrVL0b7kBMHA0JhNqxdxxeELJ/esIcjfl+qVyzF+/lpGDuxDQEDA75Vavn/jIoOGjyZnrtzEaRpw8sQxshnHh2FWTRyGbplGDO+XtlNeQq9nTLDm3isfrp49pHKykjj3lcMTqpq34NnzZxQvlD4DHaUjH6FbH4ufn7AvVpOiAicO7mD52q34B4XSun0ftMM+svf4WfLmySslJ67fZkONikWlrPGM5CAEB/rRsrEFjTpaMWfKaCncOMSqD8/efCQwMIBlqzbQRlWzppYW1GlnzfjBqt0DgUdsdCRTx43gtu1LoiPCadm1P3MmjlBqGasKlgnHJNnFoIhj4tgRXLv9EG09QxYtWcW+9fO5Y/+SPLlyYWySk8uXzhMXE5nuCMK2dctYt3U3Xn7BDB85mU4ta9CufVcMsxhTqWYDydxk3ND+PH7xltDgQIaOmcyoIf1+2hVh1tSkTVcePn6abrOmo3s2sXrHEU6fOaOSM2Z68BTH/oggqKkRHRZI//5WPLJzpHTpcowcZMXAYUMwMcuDvo4WFao1Ycu6BRKJS28EYdqksRw9fhIt/SzMnD6brStm4fjuK3lz50ahUOPMmbOSfa7bZy8UahrsPWBDsQJ5ftqd5/aPaNC0DbaOryiST5Xkwjh6devEhcvXKfZXGdas38rVEzs4e/WB9PW+bttu6lerkF74Uj0+qVmTHovnTuPgkRNo6BoybOhIDm9dzhvPQHLnyinliZw4fYG8OU1UjiAIs6bxY0Zw/tJVtA2ysGz5OsI9nZm6YBUGutrUadyafi3r0KRDN0xy5EJPS5M2nfqxbMGUn/bvyN4tjJ65Ghfn52RRyawpUFrCevDEgQoVKrL3wGFunTvAsjWbCQmPplvv4Sxb8POcB1WBTpKDoKHBs0c3GDt1Hh8/f6GOeUssqhRl6oKl0jwqLA/Gz1hON0tzKSKSnhwE0Z5eXTtw8eoNaXys27idGpXjjQSnjxxCm2EzqFk6f3yzI0No0qYHV6+cSaMbCpqbV6dt/6kqmzVtXbecDVt34ekfIpnPqfm9ZsGareTJmx9NTW2OnDpPmWL//F2VJAdBTY2Nq5dw4O+TBEdEM3b8VL68uMOOw6fIkzcfWlq6HDh0hIJ5s0vvpt+yxCBQjYmKwi8gEFPTbNKXeEKJiggHDU20tVKGw1K7G17fvhISEUORQt9vnoojLyoykugYBQYGv8ZAJ/kSQ3RUlGQuI4q6phbqiqQJOgnbSjK6i0EkTwUFhZA1a9Yf5iDiy9zP1xdDI+EUl9SOOi2YPn14RzazPIhkqHQVhQJ/fz80tLQxNjJK16mqHJx8m2OSLWK6ekRHRkqhMFEEMUswHEnvEoP4QhD3Svqi1tJGX0+XmJgoAoNCMc2WEBFR4Ofrh7aunpTBnVYRCUjPnjtRoWLF76Y9qvQ23m5a4CkYvra2as+DijX/OCzxEoP48hFWyqKI6JwIjQvME6JICVseM7LNMTQ0hJiY+IQ0sb1XPH+JA4CGhmK8KPDx9kZEhpQ9/5ER4bx0fiNFIVJx3E0VhuDgIKlfop/CKE0spfn7xd9DA/105NsoATkxQRDYxRuxxVs6iyx8Mfcl9F20Rxg3iePSs8QQEhLyYxuvmDvE+BBRSfElLuYAcY3Q8PDv904h2XZLJkc/KcGB/rz77En5MiVVG0IKBYHBwVKERxGnwMjYmKioCGmZVPRTU0sHgzSiFqpdJN6qXHxoJRQRDROGYdIzrq4h5fQI6++EkmBPn5ElBhHFlWzexPgwNPzxrIr5QGyl/GG1Lp6TMGG2l/Zz/+m9GyY58mCoYi5X8nlHnThpW2xCEWNWVbv3NOejmBgpKpBQxFZGafutmthmr4MiLlqKZicU4SYpto7/thwEVQfHn3xcajoICRNtQggqcfg+4W8ZJQh/Mlaqtj2FkqJwcvx+ckpM/7MElV6CoGp7/huOS6mD8J8Yu8A0tTGaEYLw34CVqn1ITQch8bOffNkuYeymhyCo2pY//bjUdBB+4CfyD75/DCT0MwHLjBCEPx0rVdufmg6CKu+mX0IQNm3cyPz583jr5i75aP+vFDGwgwXDVvXz5jsw4iYMGGAleYDv3Jl6UmH9enVp1rwF06dP/1+BU+qnEEIRk296i/jaqlChAmvXrKFHz/g9vYnL27eulC9fgbNnz9KoUaP0Vv9HHy+iMGLCSE8RBMHNzY3GjRrh4uKCafaU++svXbrE0CGDcX3rJi2x/S8V8UUrxml6n31tbW1q1qjBmDFj6Ne/fxLIbt26STtLSwnPHDlUWVL570BcvPDFPJreIqLS4r1jb+/AlStXUj29S+fOGBoZsWvXz7cop/e6f8Lx4uM1IVKYnvYKTOvWrUu7dpbMnj1HpVPVFKllZCQ6dcuWLcycMZ0GDSykvdj/K0XAEhMdne7uiknFyckJc3Nztm3fnur5DS0aEBgYxF9//UVs3H9CQem+2B92grRvOp0vM9FF8UDcvn2LzVu20r1791QIwlsqV6pIrVq1yWqiPKnyD4MtzeaKMarkEU71fPECdHR0kLZgpkYQrly5TJ/evalf31za9fC/VKS96Bl4LgXxun//HkuWLqNv36QaJHfu3KZD+/aYmzdA83+JcCmEnkfG5lF3dzdy5crNxUupb0fs3q0bDg72VKlSNYkew3/7WM3oPCreTQ8e3Ge49QhmzpypEkxKCcLNGzc4cuRIutm0Slf/Lz6oWrVq9LeySrWHSxYv5sPHj6lmeP8XQ/KPuiZIQv/+/alZK6VglKenJ3PnqMaI/1Ej/stOFl8UQt1R5HokL4LkbtywQX7u03nPBbHo1bu39KWWuIhIzbp16+KTQ+SiMgJFixVj/PjUBbdEdPvFi3jtFbmohoAYny1atMCyXcrdEanVoJQgqHZZ+SgZARkBGQEZARkBGYH/JgRkgvDfdDflvsgIyAjICMgIyAhkEgIyQcgkIOVqZAR+KQKKOC6fP0XZKrXJmztXhi/18vkz8hYqTtbvuiWiIrGFUU8vfiuUVBRx2D61pUKVqpI2SViwH8HhseQ0+99JrsswwPKJMgL/RQjIBOG/6GbKXfl3IxAZFiKJ0Giqx6Glq49wNAwODiFPvvx8/fKZAgUL4ub2lqwmOYiLCkVb35iI0EBMsufks5sTLTtZcfLYIXS1tciZOw9vX7uQxdSMQgXy8MrJCTUtPUqWKPZDV+DDh3f4+vqRJ39h9LTUJM2Ah/cfULN+YxSxYfgHBFK8WDEG9+nBpAWryaYH3v5BlClTkp4d2jNu5jzy5cuHWtAnnD4GU61iackRs2y5cujpxutyCBfBb15CHEmL0iVL4P7mNQGh4ZQuU4avHp8lNcxceQuQO4cJL52c0NI1plB+Mzy+ekrtLZQ/Nx/eueHjHySdE+Lvw/tPHhQvWZKYsEA8vf1Q19QhMiKUbNlzUiDfz8WX/t13X26djMCfh4BMEP68eya3+A9FIMz3M5v2nUU71J2C1dvh/uwOMcF+NOnUm0H9+nPn/jUmjJ+Gln5OIr85UKZBV2yvH2fJ+p18c3tG/5FzaVOvHPafvlGxQE4KlKnK9XNnaNuyIW4+Ebx3fMiYWYspX6qYhFCjBvWwGjaSTRu20rGVBRcf2VE2b26atWrDoFHjGDWgK0EKI+6fP8rgEeM4eeos9SoXQ8PsL46sm0a3UXO5f/UC82ZN4rG9KyfOnKJ9Swu+BGsw3jo+AXftwum8izQm2N2O+i27curEWRpUK06YQV72r1/I+KnT2bZxC4P7d8MjVA27a2cZPHwEIyZMZP+hk+Q2iKbv0Cl0aF6TwDgDTh3ey5jRI7jx2IlquWLx0S7Aw6vn6TdiHNeuXmfX9k1/6N2Xmy0j8OchIBOEP++eyS3+gxGYN3MKASHh6OmbYJrDlD6dm7JkxSbUtQ0w0lGjQXNL9m9dg3HuQuihICBCwdrVS/D85MbIKWupXDQrjXpYMc+6O43a9SLY+wtuLs8oVL4ehuqRFCpZBrfXrnTs3o+92zexcNF8Rlv1QqGTg4GTp3Fyywoq1arHrWcfGN2xJjuOXuPbG3uGj5+MzZET5DMGjex/ce3YNnYevcS9C0cxypEH+0cPuf7Ins4dWhMQHIaBthq6xnmJ9n9H1yETcH9yia0Hr2NkYoCJZhRhOnlxd3mOzb6tLJ40HNtXblSq1wxFqBdFChbB1tWb1Uumc+7oPt6HGDKsVyuuXjjNiVtObFs9j2kTR2CiHUvD7hO4fnQLVqNnsHn9amaquH/7Dx4ictNlBP41CMgE4V9zK+SG/C8gsGn1Qjxjzfhsd4Fm3a3p0NKcls1asHrtWtp16oW9/WPOHtyEIns5XO6fpFnPMTjeOEWD5q1YvW4v5Qtnp2Gn3jw8t5NgsvDx7Usa1q/F45cfiAv0oN/wCZQsHu9Q16xxQzp068H5i9dpZVGfRh17cWrnKspWrcVj529YtaiAzdm7BH56RtbchXB29yC/iSYaWQrjfO8YNVr25LWTIzMmCne795w4fYIm5nUIUzNkUN94PYp1i6fjFqRPhLcr1epY8MT+JTkNYvEO1+f+tRMMHm7NpYuX6dfdEse33/D76EzbNu154uJJDjVfSlevI/mM1CxfCNMCZTh9ZD+tWrXig2cQhfRDaNB1FHdO76HH4HHs3r6F8ZP+uT/A/8I4k/soI5AZCMgEITNQlOuQEVARgYjwMOLQIDYqAh19A7S1NAkICMTY2BB//yBMTU0knwPUNIiOikBX34DgwABJWz40LEJKGtTR00NDDTy9PNHR1cckqzHeXl7SOdmzm/7YFz5z5nxGWA/CwDgLGmoKtHT0iAwLlfwpomJi0dfRJDwySqorKjqWyIgwSYNfCP6oqykIC49AR0+fLIZ6ku+JaE9QcAjZc5hJ7RZl54ZVtOrWB3XUyJ7NBC9PT7S0tQny92He0i0snj9Z8qIwMtDDy8sLNQ1NTLIYEREZQ0xUBPpGxoSFBEntMDMzIzI8jIDAILKZ5iA2OhwdXQMiI8PQ0zMkPDxU8mCQi4yAjMDvQUAmCL8HZ/kqMgK/HYFPn7+QP1/eX3pdYbaWPVdukmstxsZE8/6jB0WLFPyl15crlxGQEfh1CMgE4ddhK9csIyAjICMgIyAj8MciIBOEP/bWyQ2XEZARkBGQEZAR+HUIyATh12Er1ywjICMgIyAjICPwxyIgE4Q/9tbJDZcRkBGQEZARkBH4dQjIBOHXYSvXLCMgIyAjICMgI/DHIiAThD/21skNlxGQEZARkBGQEfh1CMgE4ddhK9csIyAjICMgIyAj8MciIBOEP/bWyQ2XEZARkBGQEZAR+HUIyATh12Er1ywjICMgIyAjICPwxyIgE4Q/9tbJDZcRkBGQEZARkBH4dQjIBOHXYSvXLCMgIyAjICMgI/DHIiAThD/21skNlxGQEZARkBGQEfh1CMgE4ddhK9csIyAjICMgIyAj8Mci8H/fYOv8J2MezAAAAABJRU5ErkJggg==;" vertex="1" parent="7">
                    <mxGeometry x="410" y="100" width="330" height="255.12" as="geometry"/>
                </mxCell>
            </root>
        </mxGraphModel>
    </diagram>
</mxfile>